%TF.GenerationSoftware,KiCad,Pcbnew,9.0.2*%
%TF.CreationDate,2026-04-06T11:59:13-04:00*%
%TF.ProjectId,Cattitude,43617474-6974-4756-9465-2e6b69636164,1*%
%TF.SameCoordinates,Original*%
%TF.FileFunction,Copper,L1,Top*%
%TF.FilePolarity,Positive*%
%FSLAX46Y46*%
G04 Gerber Fmt 4.6, Leading zero omitted, Abs format (unit mm)*
G04 Created by KiCad (PCBNEW 9.0.2) date 2026-04-06 11:59:13*
%MOMM*%
%LPD*%
G01*
G04 APERTURE LIST*
G04 Aperture macros list*
%AMRoundRect*
0 Rectangle with rounded corners*
0 $1 Rounding radius*
0 $2 $3 $4 $5 $6 $7 $8 $9 X,Y pos of 4 corners*
0 Add a 4 corners polygon primitive as box body*
4,1,4,$2,$3,$4,$5,$6,$7,$8,$9,$2,$3,0*
0 Add four circle primitives for the rounded corners*
1,1,$1+$1,$2,$3*
1,1,$1+$1,$4,$5*
1,1,$1+$1,$6,$7*
1,1,$1+$1,$8,$9*
0 Add four rect primitives between the rounded corners*
20,1,$1+$1,$2,$3,$4,$5,0*
20,1,$1+$1,$4,$5,$6,$7,0*
20,1,$1+$1,$6,$7,$8,$9,0*
20,1,$1+$1,$8,$9,$2,$3,0*%
%AMFreePoly0*
4,1,175,0.502581,1.559743,0.504810,1.559000,0.506000,1.559000,0.507581,1.558743,0.516581,1.555743,0.517236,1.555472,0.518920,1.554630,0.524581,1.552743,0.526536,1.551536,0.529703,1.548369,0.531581,1.547743,0.533536,1.546536,0.541536,1.538536,0.542743,1.536581,0.543369,1.534703,0.546536,1.531536,0.547743,1.529581,0.549630,1.523920,0.550472,1.522236,0.550743,1.521581,
0.553743,1.512581,0.554000,1.511000,0.554000,1.509810,0.554743,1.507581,0.555000,1.506000,0.555000,0.000000,0.554997,-0.000172,0.553997,-0.029172,0.553987,-0.029356,0.551987,-0.057356,0.551953,-0.057683,0.547953,-0.086683,0.547922,-0.086879,0.542922,-0.114879,0.542851,-0.115213,0.535851,-0.143213,0.535808,-0.143374,0.527808,-0.171374,0.527689,-0.171737,0.517689,-0.198737,
0.517630,-0.198886,0.506630,-0.225886,0.506540,-0.226095,0.494540,-0.252095,0.494363,-0.252443,0.480363,-0.277443,0.480287,-0.277572,0.465287,-0.302572,0.465105,-0.302855,0.449105,-0.325855,0.448938,-0.326082,0.430938,-0.349082,0.412870,-0.371166,0.412621,-0.371448,0.392621,-0.392448,0.392448,-0.392621,0.371448,-0.412621,0.371166,-0.412870,0.349082,-0.430938,0.326082,-0.448938,
0.325855,-0.449105,0.302855,-0.465105,0.302572,-0.465287,0.277572,-0.480287,0.277443,-0.480363,0.252443,-0.494363,0.252095,-0.494540,0.226095,-0.506540,0.225886,-0.506630,0.198886,-0.517630,0.198737,-0.517689,0.171737,-0.527689,0.171374,-0.527808,0.143374,-0.535808,0.143213,-0.535851,0.115213,-0.542851,0.114879,-0.542922,0.086879,-0.547922,0.086683,-0.547953,0.057683,-0.551953,
0.057356,-0.551987,0.029356,-0.553987,0.029172,-0.553997,0.000172,-0.554997,-0.000172,-0.554997,-0.029172,-0.553997,-0.029356,-0.553987,-0.057356,-0.551987,-0.057683,-0.551953,-0.086683,-0.547953,-0.086879,-0.547922,-0.114879,-0.542922,-0.115213,-0.542851,-0.143213,-0.535851,-0.143374,-0.535808,-0.171374,-0.527808,-0.171737,-0.527689,-0.198737,-0.517689,-0.198886,-0.517630,-0.225886,-0.506630,
-0.226095,-0.506540,-0.252095,-0.494540,-0.252443,-0.494363,-0.277443,-0.480363,-0.277572,-0.480287,-0.302572,-0.465287,-0.302855,-0.465105,-0.325855,-0.449105,-0.326082,-0.448938,-0.349082,-0.430938,-0.371166,-0.412870,-0.371448,-0.412621,-0.392448,-0.392621,-0.392621,-0.392448,-0.412621,-0.371448,-0.412870,-0.371166,-0.430938,-0.349082,-0.448938,-0.326082,-0.449105,-0.325855,-0.465105,-0.302855,
-0.465287,-0.302572,-0.480287,-0.277572,-0.480363,-0.277443,-0.494363,-0.252443,-0.494540,-0.252095,-0.506540,-0.226095,-0.506630,-0.225886,-0.517630,-0.198886,-0.517689,-0.198737,-0.527689,-0.171737,-0.527808,-0.171374,-0.535808,-0.143374,-0.535851,-0.143213,-0.542851,-0.115213,-0.542922,-0.114879,-0.547922,-0.086879,-0.547953,-0.086683,-0.551953,-0.057683,-0.551987,-0.057356,-0.553987,-0.029356,
-0.553997,-0.029172,-0.554997,-0.000172,-0.555000,0.000000,-0.555000,1.506000,-0.554743,1.507581,-0.554000,1.509810,-0.554000,1.511000,-0.553743,1.512581,-0.550743,1.521581,-0.550472,1.522236,-0.549630,1.523920,-0.547743,1.529581,-0.546536,1.531536,-0.543369,1.534703,-0.542743,1.536581,-0.541536,1.538536,-0.533536,1.546536,-0.531581,1.547743,-0.529703,1.548369,-0.528536,1.549536,
-0.527774,1.550160,-0.524774,1.552160,-0.524236,1.552472,-0.522236,1.553472,-0.521581,1.553743,-0.518920,1.554630,-0.517236,1.555472,-0.516581,1.555743,-0.507581,1.558743,-0.506000,1.559000,-0.504810,1.559000,-0.502581,1.559743,-0.501000,1.560000,0.501000,1.560000,0.502581,1.559743,0.502581,1.559743,$1*%
%AMFreePoly1*
4,1,175,0.502581,1.559743,0.504810,1.559000,0.506000,1.559000,0.507581,1.558743,0.516581,1.555743,0.517236,1.555472,0.518920,1.554630,0.521581,1.553743,0.522236,1.553472,0.524236,1.552472,0.524774,1.552160,0.527774,1.550160,0.528536,1.549536,0.529703,1.548369,0.531581,1.547743,0.533536,1.546536,0.541536,1.538536,0.542743,1.536581,0.543369,1.534703,0.546536,1.531536,
0.547743,1.529581,0.549630,1.523920,0.550472,1.522236,0.550743,1.521581,0.553743,1.512581,0.554000,1.511000,0.554000,1.509810,0.554743,1.507581,0.555000,1.506000,0.555000,0.000000,0.554997,-0.000172,0.553997,-0.029172,0.553987,-0.029356,0.551987,-0.057356,0.551953,-0.057683,0.547953,-0.086683,0.547922,-0.086879,0.542922,-0.114879,0.542851,-0.115213,0.535851,-0.143213,
0.535808,-0.143374,0.527808,-0.171374,0.527689,-0.171737,0.517689,-0.198737,0.517630,-0.198886,0.506630,-0.225886,0.506540,-0.226095,0.494540,-0.252095,0.494363,-0.252443,0.480363,-0.277443,0.480287,-0.277572,0.465287,-0.302572,0.465105,-0.302855,0.449105,-0.325855,0.448938,-0.326082,0.430938,-0.349082,0.412870,-0.371166,0.412621,-0.371448,0.392621,-0.392448,0.392448,-0.392621,
0.371448,-0.412621,0.371166,-0.412870,0.349082,-0.430938,0.326082,-0.448938,0.325855,-0.449105,0.302855,-0.465105,0.302572,-0.465287,0.277572,-0.480287,0.277443,-0.480363,0.252443,-0.494363,0.252095,-0.494540,0.226095,-0.506540,0.225886,-0.506630,0.198886,-0.517630,0.198737,-0.517689,0.171737,-0.527689,0.171374,-0.527808,0.143374,-0.535808,0.143213,-0.535851,0.115213,-0.542851,
0.114879,-0.542922,0.086879,-0.547922,0.086683,-0.547953,0.057683,-0.551953,0.057356,-0.551987,0.029356,-0.553987,0.029172,-0.553997,0.000172,-0.554997,-0.000172,-0.554997,-0.029172,-0.553997,-0.029356,-0.553987,-0.057356,-0.551987,-0.057683,-0.551953,-0.086683,-0.547953,-0.086879,-0.547922,-0.114879,-0.542922,-0.115213,-0.542851,-0.143213,-0.535851,-0.143374,-0.535808,-0.171374,-0.527808,
-0.171737,-0.527689,-0.198737,-0.517689,-0.198886,-0.517630,-0.225886,-0.506630,-0.226095,-0.506540,-0.252095,-0.494540,-0.252443,-0.494363,-0.277443,-0.480363,-0.277572,-0.480287,-0.302572,-0.465287,-0.302855,-0.465105,-0.325855,-0.449105,-0.326082,-0.448938,-0.349082,-0.430938,-0.371166,-0.412870,-0.371448,-0.412621,-0.392448,-0.392621,-0.392621,-0.392448,-0.412621,-0.371448,-0.412870,-0.371166,
-0.430938,-0.349082,-0.448938,-0.326082,-0.449105,-0.325855,-0.465105,-0.302855,-0.465287,-0.302572,-0.480287,-0.277572,-0.480363,-0.277443,-0.494363,-0.252443,-0.494540,-0.252095,-0.506540,-0.226095,-0.506630,-0.225886,-0.517630,-0.198886,-0.517689,-0.198737,-0.527689,-0.171737,-0.527808,-0.171374,-0.535808,-0.143374,-0.535851,-0.143213,-0.542851,-0.115213,-0.542922,-0.114879,-0.547922,-0.086879,
-0.547953,-0.086683,-0.551953,-0.057683,-0.551987,-0.057356,-0.553987,-0.029356,-0.553997,-0.029172,-0.554997,-0.000172,-0.555000,0.000000,-0.555000,1.506000,-0.554743,1.507581,-0.554000,1.509810,-0.554000,1.511000,-0.553743,1.512581,-0.550743,1.521581,-0.550472,1.522236,-0.549630,1.523920,-0.547743,1.529581,-0.546536,1.531536,-0.543369,1.534703,-0.542743,1.536581,-0.541536,1.538536,
-0.533536,1.546536,-0.531581,1.547743,-0.529703,1.548369,-0.526536,1.551536,-0.524581,1.552743,-0.518920,1.554630,-0.517236,1.555472,-0.516581,1.555743,-0.507581,1.558743,-0.506000,1.559000,-0.504810,1.559000,-0.502581,1.559743,-0.501000,1.560000,0.501000,1.560000,0.502581,1.559743,0.502581,1.559743,$1*%
G04 Aperture macros list end*
%TA.AperFunction,EtchedComponent*%
%ADD10C,0.000000*%
%TD*%
%TA.AperFunction,ComponentPad*%
%ADD11R,1.700000X1.700000*%
%TD*%
%TA.AperFunction,ComponentPad*%
%ADD12C,1.700000*%
%TD*%
%TA.AperFunction,ComponentPad*%
%ADD13C,4.700000*%
%TD*%
%TA.AperFunction,ComponentPad*%
%ADD14C,1.400000*%
%TD*%
%TA.AperFunction,ComponentPad*%
%ADD15O,2.200000X3.500000*%
%TD*%
%TA.AperFunction,ComponentPad*%
%ADD16R,1.500000X2.500000*%
%TD*%
%TA.AperFunction,ComponentPad*%
%ADD17O,1.500000X2.500000*%
%TD*%
%TA.AperFunction,ComponentPad*%
%ADD18RoundRect,0.250000X-0.750000X0.600000X-0.750000X-0.600000X0.750000X-0.600000X0.750000X0.600000X0*%
%TD*%
%TA.AperFunction,ComponentPad*%
%ADD19O,2.000000X1.700000*%
%TD*%
%TA.AperFunction,ComponentPad*%
%ADD20FreePoly0,180.000000*%
%TD*%
%TA.AperFunction,ComponentPad*%
%ADD21FreePoly1,180.000000*%
%TD*%
%TA.AperFunction,ViaPad*%
%ADD22C,0.600000*%
%TD*%
%TA.AperFunction,Conductor*%
%ADD23C,1.000000*%
%TD*%
%TA.AperFunction,Conductor*%
%ADD24C,0.400000*%
%TD*%
%TA.AperFunction,Conductor*%
%ADD25C,0.800000*%
%TD*%
G04 APERTURE END LIST*
D10*
%TA.AperFunction,EtchedComponent*%
%TO.C,G\u002A\u002A\u002A*%
G36*
X44046253Y-32289315D02*
G01*
X44312248Y-32368110D01*
X44594769Y-32448773D01*
X44759556Y-32437894D01*
X44796891Y-32409355D01*
X44942465Y-32352338D01*
X45133101Y-32395824D01*
X45303961Y-32511490D01*
X45389847Y-32668375D01*
X45371125Y-32849108D01*
X45315612Y-32980519D01*
X45292059Y-33036273D01*
X45185956Y-33169491D01*
X45099236Y-33195153D01*
X45022914Y-33245228D01*
X44947871Y-33390313D01*
X44787714Y-33663026D01*
X44554904Y-33785856D01*
X44239834Y-33762909D01*
X44143943Y-33733806D01*
X43820288Y-33583821D01*
X43528480Y-33379904D01*
X43311418Y-33157961D01*
X43212004Y-32953896D01*
X43211996Y-32953844D01*
X43218349Y-32795625D01*
X43560233Y-32795625D01*
X43608439Y-32985976D01*
X43786074Y-33182471D01*
X44058237Y-33350391D01*
X44160531Y-33392766D01*
X44380470Y-33450834D01*
X44530177Y-33410658D01*
X44633035Y-33318295D01*
X44818503Y-33147130D01*
X44969112Y-33038522D01*
X45108387Y-32905095D01*
X45130487Y-32771210D01*
X45040257Y-32688408D01*
X44935816Y-32684455D01*
X44774739Y-32733828D01*
X44718172Y-32783661D01*
X44636478Y-32795587D01*
X44470378Y-32730877D01*
X44441627Y-32715361D01*
X44197850Y-32629166D01*
X43936243Y-32609866D01*
X43710832Y-32652541D01*
X43575645Y-32752271D01*
X43560233Y-32795625D01*
X43218349Y-32795625D01*
X43221975Y-32705334D01*
X43352592Y-32519559D01*
X43599628Y-32372108D01*
X43831918Y-32288662D01*
X44046253Y-32289315D01*
G37*
%TD.AperFunction*%
%TA.AperFunction,EtchedComponent*%
G36*
X40982653Y-30800283D02*
G01*
X41106846Y-30841037D01*
X41338629Y-30933450D01*
X41442278Y-31010054D01*
X41451410Y-31105172D01*
X41430588Y-31171627D01*
X41407155Y-31315955D01*
X41506861Y-31380564D01*
X41573762Y-31393675D01*
X41883598Y-31496186D01*
X42175005Y-31678329D01*
X42381635Y-31895952D01*
X42412935Y-31952143D01*
X42455024Y-32228155D01*
X42397762Y-32422004D01*
X42364384Y-32534997D01*
X42170248Y-32806074D01*
X41926525Y-32949326D01*
X41593994Y-33013591D01*
X41235463Y-32995293D01*
X40913740Y-32890855D01*
X40891800Y-32878858D01*
X40647683Y-32667115D01*
X40480342Y-32381587D01*
X40416453Y-32080715D01*
X40444817Y-31899622D01*
X40466243Y-31741504D01*
X40424309Y-31673819D01*
X40313422Y-31554041D01*
X40263859Y-31339663D01*
X40273959Y-31245899D01*
X40575945Y-31245899D01*
X40582660Y-31307260D01*
X40620165Y-31491196D01*
X40653275Y-31576955D01*
X40691196Y-31694987D01*
X40728514Y-31904215D01*
X40732564Y-31935154D01*
X40815382Y-32310427D01*
X40959171Y-32546370D01*
X41127196Y-32650452D01*
X41384460Y-32686372D01*
X41678212Y-32646398D01*
X41948659Y-32548149D01*
X42136008Y-32409245D01*
X42176151Y-32341344D01*
X42153213Y-32183708D01*
X42018285Y-31991165D01*
X41809359Y-31807419D01*
X41615737Y-31696677D01*
X41402855Y-31602838D01*
X41254755Y-31536194D01*
X41242850Y-31530643D01*
X41178721Y-31423597D01*
X41172005Y-31315255D01*
X41120412Y-31145341D01*
X40938563Y-31066311D01*
X40739193Y-31071408D01*
X40603040Y-31119223D01*
X40575945Y-31245899D01*
X40273959Y-31245899D01*
X40289813Y-31098727D01*
X40298634Y-31071385D01*
X40439087Y-30846954D01*
X40663016Y-30757749D01*
X40982653Y-30800283D01*
G37*
%TD.AperFunction*%
%TD*%
D11*
%TO.P,J1,1,Pin_1*%
%TO.N,+3.3V*%
X31250000Y-26470000D03*
D12*
%TO.P,J1,2,Pin_2*%
%TO.N,GND*%
X31250000Y-29010000D03*
%TO.P,J1,3,Pin_3*%
%TO.N,SCL*%
X31250000Y-31550000D03*
%TO.P,J1,4,Pin_4*%
%TO.N,SDA*%
X31250000Y-34090000D03*
%TO.P,J1,5,Pin_5*%
%TO.N,unconnected-(J1-Pin_5-Pad5)*%
X31250000Y-36630000D03*
%TO.P,J1,6,Pin_6*%
%TO.N,unconnected-(J1-Pin_6-Pad6)*%
X31250000Y-39170000D03*
%TO.P,J1,7,Pin_7*%
%TO.N,unconnected-(J1-Pin_7-Pad7)*%
X31250000Y-41710000D03*
%TO.P,J1,8,Pin_8*%
%TO.N,INT*%
X31250000Y-44250000D03*
%TD*%
D13*
%TO.P,H2,1*%
%TO.N,N/C*%
X27750000Y-47250000D03*
%TD*%
D11*
%TO.P,J6,1,Pin_1*%
%TO.N,SERVO_D2*%
X58615000Y-41250000D03*
D12*
%TO.P,J6,2,Pin_2*%
%TO.N,SERVO_5V*%
X58615000Y-43790000D03*
%TO.P,J6,3,Pin_3*%
%TO.N,GND*%
X58615000Y-46330000D03*
%TD*%
D11*
%TO.P,J4,1,Pin_1*%
%TO.N,HAPTIC_MOTOR*%
X55000000Y-32250000D03*
D12*
%TO.P,J4,2,Pin_2*%
%TO.N,GND*%
X55000000Y-34790000D03*
%TD*%
D13*
%TO.P,H1,1*%
%TO.N,N/C*%
X57250000Y-27750000D03*
%TD*%
D11*
%TO.P,J2,1,Pin_1*%
%TO.N,SERVO_EN*%
X55540000Y-48000000D03*
D12*
%TO.P,J2,2,Pin_2*%
%TO.N,SERVO_5V*%
X53000000Y-48000000D03*
%TO.P,J2,3,Pin_3*%
%TO.N,GND*%
X50460000Y-48000000D03*
%TO.P,J2,4,Pin_4*%
%TO.N,+BATT*%
X47920000Y-48000000D03*
%TD*%
D11*
%TO.P,J8,1,Pin_1*%
%TO.N,SERVO_D4*%
X27000000Y-42750000D03*
D12*
%TO.P,J8,2,Pin_2*%
%TO.N,SERVO_5V*%
X27000000Y-40210000D03*
%TO.P,J8,3,Pin_3*%
%TO.N,GND*%
X27000000Y-37670000D03*
%TD*%
D14*
%TO.P,JP1,1,A*%
%TO.N,+BATT*%
X44000000Y-43500000D03*
%TO.P,JP1,2,B*%
%TO.N,-BATT*%
X41460000Y-43500000D03*
%TD*%
D11*
%TO.P,J5,1,Pin_1*%
%TO.N,SERVO_D1*%
X58615000Y-32210000D03*
D12*
%TO.P,J5,2,Pin_2*%
%TO.N,SERVO_5V*%
X58615000Y-34750000D03*
%TO.P,J5,3,Pin_3*%
%TO.N,GND*%
X58615000Y-37290000D03*
%TD*%
D15*
%TO.P,SW2,*%
%TO.N,*%
X34900000Y-47750000D03*
X43100000Y-47750000D03*
D16*
%TO.P,SW2,1,A*%
%TO.N,unconnected-(SW2-A-Pad1)*%
X37000000Y-47750000D03*
D17*
%TO.P,SW2,2,B*%
%TO.N,+BATT*%
X39000000Y-47750000D03*
%TO.P,SW2,3,C*%
%TO.N,Net-(J3-Pin_1)*%
X41000000Y-47750000D03*
%TD*%
D11*
%TO.P,J7,1,Pin_1*%
%TO.N,SERVO_D3*%
X27000000Y-33790000D03*
D12*
%TO.P,J7,2,Pin_2*%
%TO.N,SERVO_5V*%
X27000000Y-31250000D03*
%TO.P,J7,3,Pin_3*%
%TO.N,GND*%
X27000000Y-28710000D03*
%TD*%
D18*
%TO.P,J3,1,Pin_1*%
%TO.N,Net-(J3-Pin_1)*%
X54750000Y-41000000D03*
D19*
%TO.P,J3,2,Pin_2*%
%TO.N,-BATT*%
X54750000Y-43500000D03*
%TD*%
D20*
%TO.P,U1,23,BAT+*%
%TO.N,+BATT*%
X43727000Y-41135000D03*
D21*
%TO.P,U1,24,BAT-*%
%TO.N,-BATT*%
X41727000Y-41135000D03*
%TD*%
D22*
%TO.N,GND*%
X53755025Y-36494975D03*
%TO.N,INT*%
X48995036Y-30435000D03*
%TO.N,SCL*%
X50750000Y-39500000D03*
%TO.N,SDA*%
X50000000Y-37000000D03*
%TO.N,SERVO_EN*%
X53500000Y-45500000D03*
X51272045Y-44522045D03*
%TO.N,SERVO_D4*%
X32000000Y-42961000D03*
%TD*%
D23*
%TO.N,-BATT*%
X41719051Y-42251000D02*
X41727000Y-42251000D01*
X41460000Y-42510051D02*
X41719051Y-42251000D01*
X41460000Y-43500000D02*
X41460000Y-42510051D01*
D24*
%TO.N,GND*%
X34769942Y-26302000D02*
X50952058Y-26302000D01*
X27000000Y-28710000D02*
X25749000Y-29961000D01*
X51711000Y-49251000D02*
X56896081Y-49251000D01*
X50460000Y-48000000D02*
X51711000Y-49251000D01*
X53750000Y-29099942D02*
X53750000Y-33540000D01*
X53755025Y-36494975D02*
X53755025Y-36034975D01*
X58615000Y-47532081D02*
X58615000Y-46330000D01*
X56896081Y-49251000D02*
X58615000Y-47532081D01*
X31938000Y-28322000D02*
X32749942Y-28322000D01*
X53750000Y-33540000D02*
X55000000Y-34790000D01*
X31250000Y-29010000D02*
X31938000Y-28322000D01*
X25749000Y-36419000D02*
X27000000Y-37670000D01*
X25749000Y-29961000D02*
X25749000Y-36419000D01*
X53755025Y-36034975D02*
X55000000Y-34790000D01*
X50952058Y-26302000D02*
X53750000Y-29099942D01*
X32749942Y-28322000D02*
X34769942Y-26302000D01*
D23*
%TO.N,+BATT*%
X44000000Y-43500000D02*
X43727000Y-43227000D01*
X44989000Y-45299000D02*
X40898976Y-45299000D01*
X47940000Y-48250000D02*
X44989000Y-45299000D01*
X40898976Y-45299000D02*
X39000000Y-47197976D01*
X43727000Y-43227000D02*
X43727000Y-42251000D01*
X44000000Y-43500000D02*
X44000000Y-44310000D01*
X44000000Y-44310000D02*
X47940000Y-48250000D01*
X39000000Y-47197976D02*
X39000000Y-47750000D01*
D24*
%TO.N,INT*%
X36394884Y-28105000D02*
X46665036Y-28105000D01*
X33102000Y-31397884D02*
X36394884Y-28105000D01*
X46665036Y-28105000D02*
X48995036Y-30435000D01*
X31750000Y-44250000D02*
X33102000Y-42898000D01*
X33102000Y-42898000D02*
X33102000Y-31397884D01*
X31250000Y-44250000D02*
X31750000Y-44250000D01*
%TO.N,SCL*%
X31250000Y-31550000D02*
X35897000Y-26903000D01*
X35897000Y-26903000D02*
X47403000Y-26903000D01*
X50750000Y-30250000D02*
X50750000Y-39500000D01*
X47403000Y-26903000D02*
X50750000Y-30250000D01*
%TO.N,SDA*%
X50000000Y-37000000D02*
X50000000Y-30448600D01*
X32501000Y-32839000D02*
X31250000Y-34090000D01*
X47055400Y-27504000D02*
X36145942Y-27504000D01*
X32501000Y-31148942D02*
X32501000Y-32839000D01*
X50000000Y-30448600D02*
X47055400Y-27504000D01*
X36145942Y-27504000D02*
X32501000Y-31148942D01*
%TO.N,SERVO_EN*%
X52250000Y-45500000D02*
X51272045Y-44522045D01*
X53500000Y-45500000D02*
X52250000Y-45500000D01*
D25*
%TO.N,SERVO_5V*%
X28451000Y-38759000D02*
X28451000Y-31498919D01*
D24*
X27000000Y-31250000D02*
X30529000Y-27721000D01*
D25*
X57164000Y-43541081D02*
X57164000Y-36201000D01*
D24*
X34500000Y-25722000D02*
X34500000Y-25701000D01*
D25*
X56848000Y-43790000D02*
X58615000Y-43790000D01*
D24*
X57250000Y-33385000D02*
X58615000Y-34750000D01*
D25*
X27000000Y-40210000D02*
X28451000Y-38759000D01*
D24*
X57250000Y-31750000D02*
X57250000Y-33385000D01*
X34500000Y-25701000D02*
X51201000Y-25701000D01*
D25*
X53000000Y-47638000D02*
X56848000Y-43790000D01*
X57164000Y-36201000D02*
X58615000Y-34750000D01*
X28202081Y-31250000D02*
X27000000Y-31250000D01*
D24*
X51201000Y-25701000D02*
X57250000Y-31750000D01*
D25*
X28451000Y-31498919D02*
X28202081Y-31250000D01*
D24*
X32501000Y-27721000D02*
X34500000Y-25722000D01*
D25*
X58615000Y-43790000D02*
X57412919Y-43790000D01*
X57412919Y-43790000D02*
X57164000Y-43541081D01*
D24*
X30529000Y-27721000D02*
X32501000Y-27721000D01*
D25*
X53000000Y-48000000D02*
X53000000Y-47638000D01*
D24*
%TO.N,SERVO_D4*%
X27211000Y-42961000D02*
X27000000Y-42750000D01*
X32000000Y-42961000D02*
X27211000Y-42961000D01*
%TD*%
%TA.AperFunction,Conductor*%
%TO.N,GND*%
G36*
X50926520Y-26421185D02*
G01*
X50947162Y-26437819D01*
X55197162Y-30687819D01*
X55230647Y-30749142D01*
X55225663Y-30818834D01*
X55183791Y-30874767D01*
X55118327Y-30899184D01*
X55109481Y-30899500D01*
X54102129Y-30899500D01*
X54102123Y-30899501D01*
X54042516Y-30905908D01*
X53907671Y-30956202D01*
X53907664Y-30956206D01*
X53792455Y-31042452D01*
X53792452Y-31042455D01*
X53706206Y-31157664D01*
X53706202Y-31157671D01*
X53655908Y-31292517D01*
X53649501Y-31352116D01*
X53649500Y-31352135D01*
X53649500Y-33147870D01*
X53649501Y-33147876D01*
X53655908Y-33207483D01*
X53706202Y-33342328D01*
X53706206Y-33342335D01*
X53792452Y-33457544D01*
X53792455Y-33457547D01*
X53907664Y-33543793D01*
X53907671Y-33543797D01*
X53952452Y-33560499D01*
X54042517Y-33594091D01*
X54102127Y-33600500D01*
X54112685Y-33600499D01*
X54179723Y-33620179D01*
X54200372Y-33636818D01*
X54870591Y-34307037D01*
X54807007Y-34324075D01*
X54692993Y-34389901D01*
X54599901Y-34482993D01*
X54534075Y-34597007D01*
X54517037Y-34660591D01*
X53884728Y-34028282D01*
X53884727Y-34028282D01*
X53845380Y-34082439D01*
X53748904Y-34271782D01*
X53683242Y-34473869D01*
X53683242Y-34473872D01*
X53650000Y-34683753D01*
X53650000Y-34896246D01*
X53683242Y-35106127D01*
X53683242Y-35106130D01*
X53748904Y-35308217D01*
X53845375Y-35497550D01*
X53884728Y-35551716D01*
X54517037Y-34919408D01*
X54534075Y-34982993D01*
X54599901Y-35097007D01*
X54692993Y-35190099D01*
X54807007Y-35255925D01*
X54870590Y-35272962D01*
X54238282Y-35905269D01*
X54238282Y-35905270D01*
X54292449Y-35944624D01*
X54481782Y-36041095D01*
X54683870Y-36106757D01*
X54893754Y-36140000D01*
X55106246Y-36140000D01*
X55316127Y-36106757D01*
X55316130Y-36106757D01*
X55518217Y-36041095D01*
X55707554Y-35944622D01*
X55761716Y-35905270D01*
X55761717Y-35905270D01*
X55129408Y-35272962D01*
X55192993Y-35255925D01*
X55307007Y-35190099D01*
X55400099Y-35097007D01*
X55465925Y-34982993D01*
X55482962Y-34919408D01*
X56115270Y-35551717D01*
X56115270Y-35551716D01*
X56154622Y-35497554D01*
X56251095Y-35308217D01*
X56316757Y-35106130D01*
X56316757Y-35106127D01*
X56350000Y-34896246D01*
X56350000Y-34683753D01*
X56316757Y-34473872D01*
X56316757Y-34473869D01*
X56251095Y-34271782D01*
X56154624Y-34082449D01*
X56115270Y-34028282D01*
X56115269Y-34028282D01*
X55482962Y-34660590D01*
X55465925Y-34597007D01*
X55400099Y-34482993D01*
X55307007Y-34389901D01*
X55192993Y-34324075D01*
X55129409Y-34307037D01*
X55799627Y-33636818D01*
X55860950Y-33603333D01*
X55887307Y-33600499D01*
X55897872Y-33600499D01*
X55957483Y-33594091D01*
X56092331Y-33543796D01*
X56207546Y-33457546D01*
X56293796Y-33342331D01*
X56309318Y-33300715D01*
X56351189Y-33244781D01*
X56416653Y-33220364D01*
X56484926Y-33235215D01*
X56534332Y-33284620D01*
X56549500Y-33344048D01*
X56549500Y-33453994D01*
X56549500Y-33453996D01*
X56549499Y-33453996D01*
X56576418Y-33589322D01*
X56576421Y-33589332D01*
X56629222Y-33716807D01*
X56705887Y-33831545D01*
X56705888Y-33831546D01*
X57254492Y-34380149D01*
X57287977Y-34441472D01*
X57289284Y-34487227D01*
X57264500Y-34643712D01*
X57264500Y-34775637D01*
X57244815Y-34842676D01*
X57228181Y-34863318D01*
X56464540Y-35626958D01*
X56464537Y-35626961D01*
X56439914Y-35663812D01*
X56439907Y-35663823D01*
X56437151Y-35667949D01*
X56365987Y-35774453D01*
X56333510Y-35852861D01*
X56330755Y-35859509D01*
X56330753Y-35859515D01*
X56298105Y-35938333D01*
X56298103Y-35938341D01*
X56267834Y-36090514D01*
X56267835Y-36090515D01*
X56263500Y-36112309D01*
X56263500Y-39802770D01*
X56243815Y-39869809D01*
X56191011Y-39915564D01*
X56121853Y-39925508D01*
X56058297Y-39896483D01*
X56051819Y-39890451D01*
X55968657Y-39807289D01*
X55968656Y-39807288D01*
X55819334Y-39715186D01*
X55652797Y-39660001D01*
X55652795Y-39660000D01*
X55550010Y-39649500D01*
X53949998Y-39649500D01*
X53949981Y-39649501D01*
X53847203Y-39660000D01*
X53847200Y-39660001D01*
X53680668Y-39715185D01*
X53680663Y-39715187D01*
X53531342Y-39807289D01*
X53407289Y-39931342D01*
X53315187Y-40080663D01*
X53315185Y-40080668D01*
X53295499Y-40140077D01*
X53260001Y-40247203D01*
X53260001Y-40247204D01*
X53260000Y-40247204D01*
X53249500Y-40349983D01*
X53249500Y-41650001D01*
X53249501Y-41650018D01*
X53260000Y-41752796D01*
X53260001Y-41752799D01*
X53292916Y-41852128D01*
X53315186Y-41919334D01*
X53407288Y-42068656D01*
X53531344Y-42192712D01*
X53641246Y-42260500D01*
X53686120Y-42288178D01*
X53732845Y-42340126D01*
X53744068Y-42409088D01*
X53716224Y-42473171D01*
X53708706Y-42481398D01*
X53569889Y-42620215D01*
X53444951Y-42792179D01*
X53348444Y-42981585D01*
X53282753Y-43183760D01*
X53257287Y-43344546D01*
X53249500Y-43393713D01*
X53249500Y-43606287D01*
X53258245Y-43661500D01*
X53282316Y-43813482D01*
X53282754Y-43816243D01*
X53346280Y-44011756D01*
X53348444Y-44018414D01*
X53444951Y-44207820D01*
X53569890Y-44379786D01*
X53678502Y-44488398D01*
X53711987Y-44549721D01*
X53707003Y-44619413D01*
X53665131Y-44675346D01*
X53599667Y-44699763D01*
X53579887Y-44699500D01*
X53578842Y-44699500D01*
X53421158Y-44699500D01*
X53421155Y-44699500D01*
X53266510Y-44730261D01*
X53266498Y-44730264D01*
X53122136Y-44790061D01*
X53074684Y-44799500D01*
X52591519Y-44799500D01*
X52524480Y-44779815D01*
X52503838Y-44763181D01*
X52068116Y-44327459D01*
X52041236Y-44287230D01*
X51981442Y-44142872D01*
X51981435Y-44142859D01*
X51893834Y-44011756D01*
X51893831Y-44011752D01*
X51782337Y-43900258D01*
X51782333Y-43900255D01*
X51651230Y-43812654D01*
X51651217Y-43812647D01*
X51505546Y-43752309D01*
X51505534Y-43752306D01*
X51350890Y-43721545D01*
X51350887Y-43721545D01*
X51193203Y-43721545D01*
X51193200Y-43721545D01*
X51038555Y-43752306D01*
X51038543Y-43752309D01*
X50892872Y-43812647D01*
X50892859Y-43812654D01*
X50761756Y-43900255D01*
X50761752Y-43900258D01*
X50650258Y-44011752D01*
X50650255Y-44011756D01*
X50562654Y-44142859D01*
X50562647Y-44142872D01*
X50502309Y-44288543D01*
X50502306Y-44288555D01*
X50471545Y-44443198D01*
X50471545Y-44600891D01*
X50502306Y-44755534D01*
X50502309Y-44755546D01*
X50562647Y-44901217D01*
X50562654Y-44901230D01*
X50650255Y-45032333D01*
X50650258Y-45032337D01*
X50761752Y-45143831D01*
X50761756Y-45143834D01*
X50892859Y-45231435D01*
X50892872Y-45231442D01*
X51037230Y-45291236D01*
X51077459Y-45318116D01*
X51803453Y-46044111D01*
X51803454Y-46044112D01*
X51918190Y-46120776D01*
X52016790Y-46161617D01*
X52045671Y-46173580D01*
X52045672Y-46173580D01*
X52045677Y-46173582D01*
X52072545Y-46178925D01*
X52072551Y-46178926D01*
X52072591Y-46178934D01*
X52161185Y-46196557D01*
X52181006Y-46200500D01*
X52181007Y-46200500D01*
X52864637Y-46200500D01*
X52931676Y-46220185D01*
X52977431Y-46272989D01*
X52987375Y-46342147D01*
X52958350Y-46405703D01*
X52952318Y-46412181D01*
X52701828Y-46662670D01*
X52652466Y-46692920D01*
X52481583Y-46748444D01*
X52292179Y-46844951D01*
X52120213Y-46969890D01*
X51969890Y-47120213D01*
X51844949Y-47292182D01*
X51840202Y-47301499D01*
X51792227Y-47352293D01*
X51724405Y-47369087D01*
X51658271Y-47346548D01*
X51619234Y-47301495D01*
X51614626Y-47292452D01*
X51575270Y-47238282D01*
X51575269Y-47238282D01*
X50942962Y-47870590D01*
X50925925Y-47807007D01*
X50860099Y-47692993D01*
X50767007Y-47599901D01*
X50652993Y-47534075D01*
X50589409Y-47517037D01*
X51221716Y-46884728D01*
X51167550Y-46845375D01*
X50978217Y-46748904D01*
X50776129Y-46683242D01*
X50566246Y-46650000D01*
X50353754Y-46650000D01*
X50143872Y-46683242D01*
X50143869Y-46683242D01*
X49941782Y-46748904D01*
X49752439Y-46845380D01*
X49698282Y-46884727D01*
X49698282Y-46884728D01*
X50330591Y-47517037D01*
X50267007Y-47534075D01*
X50152993Y-47599901D01*
X50059901Y-47692993D01*
X49994075Y-47807007D01*
X49977037Y-47870591D01*
X49344728Y-47238282D01*
X49344727Y-47238282D01*
X49305380Y-47292440D01*
X49305376Y-47292446D01*
X49300760Y-47301505D01*
X49252781Y-47352297D01*
X49184959Y-47369087D01*
X49118826Y-47346543D01*
X49079794Y-47301493D01*
X49075051Y-47292184D01*
X49075049Y-47292181D01*
X49075048Y-47292179D01*
X48950109Y-47120213D01*
X48799786Y-46969890D01*
X48627820Y-46844951D01*
X48438414Y-46748444D01*
X48438413Y-46748443D01*
X48438412Y-46748443D01*
X48236243Y-46682754D01*
X48236241Y-46682753D01*
X48236240Y-46682753D01*
X48074957Y-46657208D01*
X48026287Y-46649500D01*
X47813713Y-46649500D01*
X47808841Y-46649500D01*
X47808841Y-46647894D01*
X47747349Y-46634973D01*
X47718324Y-46613404D01*
X45766140Y-44661220D01*
X45766139Y-44661218D01*
X45626782Y-44521861D01*
X45626779Y-44521859D01*
X45154802Y-44049882D01*
X45121317Y-43988559D01*
X45124551Y-43923885D01*
X45170940Y-43781118D01*
X45177109Y-43742167D01*
X45200500Y-43594486D01*
X45200500Y-43405513D01*
X45170940Y-43218881D01*
X45133067Y-43102322D01*
X45112547Y-43039168D01*
X45112545Y-43039165D01*
X45112545Y-43039163D01*
X45026759Y-42870800D01*
X45019933Y-42861405D01*
X44915690Y-42717927D01*
X44828819Y-42631056D01*
X44795334Y-42569733D01*
X44792500Y-42543375D01*
X44792500Y-41874500D01*
X44812185Y-41807461D01*
X44864989Y-41761706D01*
X44916500Y-41750500D01*
X46936317Y-41750500D01*
X46936318Y-41750500D01*
X47106851Y-41725980D01*
X47148764Y-41719955D01*
X47148765Y-41719954D01*
X47148769Y-41719954D01*
X47354710Y-41659484D01*
X47354713Y-41659482D01*
X47354715Y-41659482D01*
X47549938Y-41570327D01*
X47549944Y-41570323D01*
X47549950Y-41570321D01*
X47730513Y-41454281D01*
X47892724Y-41313724D01*
X48033281Y-41151513D01*
X48149321Y-40970950D01*
X48149323Y-40970944D01*
X48149327Y-40970938D01*
X48238482Y-40775715D01*
X48238482Y-40775713D01*
X48238484Y-40775710D01*
X48298954Y-40569769D01*
X48301727Y-40550486D01*
X48305213Y-40526239D01*
X48329500Y-40357318D01*
X48329500Y-40250000D01*
X48329500Y-40184108D01*
X48329500Y-37434108D01*
X48329500Y-37392682D01*
X48305272Y-37224174D01*
X48298955Y-37180235D01*
X48298952Y-37180225D01*
X48290601Y-37151782D01*
X48238484Y-36974290D01*
X48238483Y-36974288D01*
X48238482Y-36974284D01*
X48149327Y-36779061D01*
X48149320Y-36779048D01*
X48047634Y-36620821D01*
X48033281Y-36598487D01*
X47961268Y-36515380D01*
X47892724Y-36436275D01*
X47730514Y-36295720D01*
X47730513Y-36295719D01*
X47665991Y-36254253D01*
X47549951Y-36179679D01*
X47549938Y-36179672D01*
X47354715Y-36090517D01*
X47148774Y-36030047D01*
X47148764Y-36030044D01*
X46957754Y-36002582D01*
X46936318Y-35999500D01*
X46894892Y-35999500D01*
X38894892Y-35999500D01*
X38829000Y-35999500D01*
X38721682Y-35999500D01*
X38509235Y-36030044D01*
X38509225Y-36030047D01*
X38303284Y-36090517D01*
X38108061Y-36179672D01*
X38108048Y-36179679D01*
X37927485Y-36295720D01*
X37765275Y-36436275D01*
X37624720Y-36598485D01*
X37508679Y-36779048D01*
X37508672Y-36779061D01*
X37419517Y-36974284D01*
X37359047Y-37180225D01*
X37359044Y-37180235D01*
X37328500Y-37392682D01*
X37328500Y-40357317D01*
X37359044Y-40569764D01*
X37359047Y-40569774D01*
X37419517Y-40775715D01*
X37508672Y-40970938D01*
X37508679Y-40970951D01*
X37624720Y-41151514D01*
X37765275Y-41313724D01*
X37871663Y-41405909D01*
X37927487Y-41454281D01*
X38056531Y-41537211D01*
X38108048Y-41570320D01*
X38108061Y-41570327D01*
X38303284Y-41659482D01*
X38303288Y-41659483D01*
X38303290Y-41659484D01*
X38509231Y-41719954D01*
X38509232Y-41719954D01*
X38509235Y-41719955D01*
X38572584Y-41729062D01*
X38721682Y-41750500D01*
X38763108Y-41750500D01*
X40532237Y-41750500D01*
X40536349Y-41751707D01*
X40540534Y-41750778D01*
X40569583Y-41761466D01*
X40599276Y-41770185D01*
X40602082Y-41773423D01*
X40606106Y-41774904D01*
X40624768Y-41799604D01*
X40645031Y-41822989D01*
X40645640Y-41827230D01*
X40648225Y-41830651D01*
X40650570Y-41861511D01*
X40654975Y-41892147D01*
X40653286Y-41897258D01*
X40653519Y-41900320D01*
X40647793Y-41913883D01*
X40641332Y-41933443D01*
X40638569Y-41938555D01*
X40573368Y-42036137D01*
X40534810Y-42129225D01*
X40532372Y-42135111D01*
X40500505Y-42212045D01*
X40500504Y-42212048D01*
X40497949Y-42218214D01*
X40497946Y-42218225D01*
X40459500Y-42411505D01*
X40459500Y-42794366D01*
X40439815Y-42861405D01*
X40435821Y-42867247D01*
X40433242Y-42870796D01*
X40347454Y-43039163D01*
X40289059Y-43218881D01*
X40259500Y-43405513D01*
X40259500Y-43594486D01*
X40289059Y-43781118D01*
X40347454Y-43960836D01*
X40392826Y-44049882D01*
X40427638Y-44118205D01*
X40433242Y-44129202D01*
X40497035Y-44217006D01*
X40520515Y-44282812D01*
X40504690Y-44350866D01*
X40454584Y-44399561D01*
X40444174Y-44404450D01*
X40425069Y-44412364D01*
X40425055Y-44412371D01*
X40261195Y-44521859D01*
X40261191Y-44521862D01*
X38789833Y-45993221D01*
X38728510Y-46026706D01*
X38721556Y-46028012D01*
X38707180Y-46030289D01*
X38707177Y-46030290D01*
X38519972Y-46091117D01*
X38344595Y-46180475D01*
X38308385Y-46206784D01*
X38242578Y-46230263D01*
X38174524Y-46214437D01*
X38136235Y-46180778D01*
X38107546Y-46142454D01*
X38107544Y-46142452D01*
X38107543Y-46142451D01*
X37992335Y-46056206D01*
X37992328Y-46056202D01*
X37857482Y-46005908D01*
X37857483Y-46005908D01*
X37797883Y-45999501D01*
X37797881Y-45999500D01*
X37797873Y-45999500D01*
X37797864Y-45999500D01*
X36202129Y-45999500D01*
X36202123Y-45999501D01*
X36135443Y-46006669D01*
X36066683Y-45994262D01*
X36034509Y-45971060D01*
X35942654Y-45879205D01*
X35942649Y-45879201D01*
X35738848Y-45731132D01*
X35738847Y-45731131D01*
X35738845Y-45731130D01*
X35668747Y-45695413D01*
X35514383Y-45616760D01*
X35274785Y-45538910D01*
X35025962Y-45499500D01*
X34774038Y-45499500D01*
X34649626Y-45519205D01*
X34525214Y-45538910D01*
X34285616Y-45616760D01*
X34061151Y-45731132D01*
X33857350Y-45879201D01*
X33857345Y-45879205D01*
X33679205Y-46057345D01*
X33679201Y-46057350D01*
X33531132Y-46261151D01*
X33416760Y-46485616D01*
X33338910Y-46725214D01*
X33319878Y-46845375D01*
X33299500Y-46974038D01*
X33299500Y-48525962D01*
X33328262Y-48707555D01*
X33338910Y-48774785D01*
X33416760Y-49014383D01*
X33463521Y-49106155D01*
X33516084Y-49209316D01*
X33531132Y-49238848D01*
X33577461Y-49302615D01*
X33600941Y-49368421D01*
X33585116Y-49436475D01*
X33535010Y-49485170D01*
X33477143Y-49499500D01*
X29831077Y-49499500D01*
X29764038Y-49479815D01*
X29718283Y-49427011D01*
X29708339Y-49357853D01*
X29737364Y-49294297D01*
X29743396Y-49287819D01*
X29878804Y-49152411D01*
X29919231Y-49101716D01*
X30078419Y-48902101D01*
X30248755Y-48631013D01*
X30387668Y-48342558D01*
X30493410Y-48040363D01*
X30564653Y-47728229D01*
X30600500Y-47410081D01*
X30600500Y-47089919D01*
X30564653Y-46771771D01*
X30493410Y-46459637D01*
X30387668Y-46157442D01*
X30248755Y-45868987D01*
X30078419Y-45597899D01*
X29878802Y-45347587D01*
X29652413Y-45121198D01*
X29651940Y-45120821D01*
X29447538Y-44957816D01*
X29402101Y-44921581D01*
X29176482Y-44779815D01*
X29131010Y-44751243D01*
X28842559Y-44612332D01*
X28540364Y-44506590D01*
X28540362Y-44506589D01*
X28262626Y-44443198D01*
X28228229Y-44435347D01*
X28228225Y-44435346D01*
X28228216Y-44435345D01*
X27910085Y-44399500D01*
X27910081Y-44399500D01*
X27589919Y-44399500D01*
X27589914Y-44399500D01*
X27271783Y-44435345D01*
X27271771Y-44435347D01*
X26959637Y-44506589D01*
X26959635Y-44506590D01*
X26657440Y-44612332D01*
X26368989Y-44751243D01*
X26097900Y-44921580D01*
X25847587Y-45121197D01*
X25712181Y-45256604D01*
X25650858Y-45290089D01*
X25581166Y-45285105D01*
X25525233Y-45243233D01*
X25500816Y-45177769D01*
X25500500Y-45168923D01*
X25500500Y-43940102D01*
X25520185Y-43873063D01*
X25572989Y-43827308D01*
X25642147Y-43817364D01*
X25705703Y-43846389D01*
X25723762Y-43865786D01*
X25792454Y-43957546D01*
X25796844Y-43960832D01*
X25907664Y-44043793D01*
X25907671Y-44043797D01*
X26042517Y-44094091D01*
X26042516Y-44094091D01*
X26049444Y-44094835D01*
X26102127Y-44100500D01*
X27897872Y-44100499D01*
X27957483Y-44094091D01*
X28092331Y-44043796D01*
X28207546Y-43957546D01*
X28293796Y-43842331D01*
X28327372Y-43752309D01*
X28331155Y-43742167D01*
X28373026Y-43686233D01*
X28438490Y-43661816D01*
X28447337Y-43661500D01*
X29850545Y-43661500D01*
X29917584Y-43681185D01*
X29963339Y-43733989D01*
X29973283Y-43803147D01*
X29968477Y-43823812D01*
X29962459Y-43842335D01*
X29932753Y-43933760D01*
X29899500Y-44143713D01*
X29899500Y-44356286D01*
X29925724Y-44521862D01*
X29932754Y-44566243D01*
X29996743Y-44763181D01*
X29998444Y-44768414D01*
X30094951Y-44957820D01*
X30219890Y-45129786D01*
X30370213Y-45280109D01*
X30542179Y-45405048D01*
X30542181Y-45405049D01*
X30542184Y-45405051D01*
X30731588Y-45501557D01*
X30933757Y-45567246D01*
X31143713Y-45600500D01*
X31143714Y-45600500D01*
X31356286Y-45600500D01*
X31356287Y-45600500D01*
X31566243Y-45567246D01*
X31768412Y-45501557D01*
X31957816Y-45405051D01*
X32077473Y-45318116D01*
X32129786Y-45280109D01*
X32129788Y-45280106D01*
X32129792Y-45280104D01*
X32280104Y-45129792D01*
X32280106Y-45129788D01*
X32280109Y-45129786D01*
X32405048Y-44957820D01*
X32405047Y-44957820D01*
X32405051Y-44957816D01*
X32501557Y-44768412D01*
X32567246Y-44566243D01*
X32587823Y-44436320D01*
X32617750Y-44373190D01*
X32622596Y-44368059D01*
X33646114Y-43344543D01*
X33722775Y-43229811D01*
X33727303Y-43218881D01*
X33775578Y-43102332D01*
X33775580Y-43102328D01*
X33787478Y-43042513D01*
X33802500Y-42966996D01*
X33802500Y-31739403D01*
X33822185Y-31672364D01*
X33838819Y-31651722D01*
X34180381Y-31310160D01*
X39759221Y-31310160D01*
X39771350Y-31453528D01*
X39771350Y-31453531D01*
X39771351Y-31453533D01*
X39771351Y-31453536D01*
X39820909Y-31667895D01*
X39820915Y-31667913D01*
X39860751Y-31779030D01*
X39860752Y-31779032D01*
X39860753Y-31779033D01*
X39907048Y-31846114D01*
X39928925Y-31912469D01*
X39927499Y-31935727D01*
X39921000Y-31977223D01*
X39917039Y-32002514D01*
X39912426Y-32042150D01*
X39912425Y-32042158D01*
X39921977Y-32185710D01*
X39985870Y-32486604D01*
X39989877Y-32503957D01*
X39989881Y-32503970D01*
X40044222Y-32637184D01*
X40044223Y-32637186D01*
X40083997Y-32705051D01*
X40211569Y-32922723D01*
X40222289Y-32940192D01*
X40222293Y-32940197D01*
X40313831Y-33045945D01*
X40316459Y-33048980D01*
X40560576Y-33260723D01*
X40649277Y-33322381D01*
X40671217Y-33334378D01*
X40757662Y-33371656D01*
X41079377Y-33476091D01*
X41079378Y-33476092D01*
X41079379Y-33476092D01*
X41079385Y-33476094D01*
X41209698Y-33500136D01*
X41568229Y-33518434D01*
X41689912Y-33509907D01*
X42022443Y-33445642D01*
X42049518Y-33439635D01*
X42182672Y-33385123D01*
X42426395Y-33241871D01*
X42481656Y-33204264D01*
X42551335Y-33131579D01*
X42560323Y-33126422D01*
X42566536Y-33118124D01*
X42590110Y-33109331D01*
X42611936Y-33096808D01*
X42622288Y-33097329D01*
X42632000Y-33093707D01*
X42656584Y-33099055D01*
X42681717Y-33100320D01*
X42691958Y-33106750D01*
X42700273Y-33108559D01*
X42728527Y-33129710D01*
X42728528Y-33129711D01*
X42755913Y-33171178D01*
X42757562Y-33175285D01*
X42856969Y-33379336D01*
X42865081Y-33395267D01*
X42865087Y-33395278D01*
X42908032Y-33453994D01*
X42948925Y-33509905D01*
X42950022Y-33511404D01*
X42950023Y-33511406D01*
X43167089Y-33733353D01*
X43238927Y-33794258D01*
X43530735Y-33998175D01*
X43607747Y-34042467D01*
X43931402Y-34192452D01*
X43997136Y-34217519D01*
X44093027Y-34246622D01*
X44203115Y-34267074D01*
X44518185Y-34290021D01*
X44655273Y-34281292D01*
X44790787Y-34232946D01*
X45023597Y-34110116D01*
X45133828Y-34031448D01*
X45223605Y-33919013D01*
X45378828Y-33654700D01*
X45429615Y-33606932D01*
X45476620Y-33583066D01*
X45476619Y-33583066D01*
X45476624Y-33583064D01*
X45564679Y-33500136D01*
X45581361Y-33484426D01*
X45581361Y-33484424D01*
X45581367Y-33484420D01*
X45687470Y-33351202D01*
X45757713Y-33232986D01*
X45778992Y-33182612D01*
X45779003Y-33182592D01*
X45793668Y-33147876D01*
X45836781Y-33045819D01*
X45838893Y-33040742D01*
X45864140Y-32940197D01*
X45873932Y-32901203D01*
X45873935Y-32901186D01*
X45892658Y-32720442D01*
X45893262Y-32713488D01*
X45894098Y-32703892D01*
X45883678Y-32560389D01*
X45859660Y-32496206D01*
X45833254Y-32425640D01*
X45833252Y-32425634D01*
X45767019Y-32304649D01*
X45747366Y-32268750D01*
X45747362Y-32268744D01*
X45693795Y-32189683D01*
X45689431Y-32185715D01*
X45587339Y-32092889D01*
X45557145Y-32072449D01*
X45453838Y-32002514D01*
X45416479Y-31977223D01*
X45416471Y-31977218D01*
X45416465Y-31977214D01*
X45379825Y-31954624D01*
X45379822Y-31954622D01*
X45379818Y-31954620D01*
X45379813Y-31954618D01*
X45245528Y-31902985D01*
X45245523Y-31902984D01*
X45216537Y-31896372D01*
X45054887Y-31859498D01*
X45041849Y-31856704D01*
X44898187Y-31848781D01*
X44898186Y-31848781D01*
X44898185Y-31848781D01*
X44898180Y-31848781D01*
X44758126Y-31881648D01*
X44758104Y-31881655D01*
X44667070Y-31917310D01*
X44644485Y-31919295D01*
X44622777Y-31925847D01*
X44602061Y-31923026D01*
X44597469Y-31923430D01*
X44587806Y-31921085D01*
X44454113Y-31882914D01*
X44452937Y-31882572D01*
X44189824Y-31804631D01*
X44189826Y-31804631D01*
X44047801Y-31783817D01*
X44047784Y-31783816D01*
X43833473Y-31783163D01*
X43801969Y-31784050D01*
X43661020Y-31812926D01*
X43428731Y-31896372D01*
X43428718Y-31896377D01*
X43340558Y-31938043D01*
X43340528Y-31938059D01*
X43115374Y-32072449D01*
X43047720Y-32089906D01*
X42981368Y-32068015D01*
X42937385Y-32013727D01*
X42929238Y-31984667D01*
X42919269Y-31919295D01*
X42912658Y-31875940D01*
X42905960Y-31840534D01*
X42905959Y-31840533D01*
X42905959Y-31840529D01*
X42905958Y-31840528D01*
X42854544Y-31706151D01*
X42823251Y-31649973D01*
X42823239Y-31649954D01*
X42748226Y-31547901D01*
X42748222Y-31547897D01*
X42748216Y-31547888D01*
X42541586Y-31330265D01*
X42541584Y-31330264D01*
X42541581Y-31330260D01*
X42442939Y-31249679D01*
X42442938Y-31249678D01*
X42442934Y-31249675D01*
X42274491Y-31144390D01*
X42151525Y-31067530D01*
X42042385Y-31016273D01*
X42042387Y-31016273D01*
X42042381Y-31016271D01*
X42042377Y-31016269D01*
X42042373Y-31016268D01*
X42017139Y-31007919D01*
X41959677Y-30968172D01*
X41935340Y-30918394D01*
X41933991Y-30912619D01*
X41914815Y-30830501D01*
X41845087Y-30704645D01*
X41742727Y-30603531D01*
X41742725Y-30603529D01*
X41639082Y-30526929D01*
X41534879Y-30468926D01*
X41525843Y-30463896D01*
X41525842Y-30463895D01*
X41525841Y-30463895D01*
X41294063Y-30371483D01*
X41264475Y-30360742D01*
X41140256Y-30319979D01*
X41049335Y-30299200D01*
X41049328Y-30299199D01*
X40729689Y-30256665D01*
X40615826Y-30254457D01*
X40615825Y-30254457D01*
X40615823Y-30254457D01*
X40545882Y-30271298D01*
X40475938Y-30288139D01*
X40252022Y-30377338D01*
X40223591Y-30389687D01*
X40223587Y-30389689D01*
X40103490Y-30468925D01*
X40010580Y-30578789D01*
X39870130Y-30803215D01*
X39817550Y-30916179D01*
X39808728Y-30943524D01*
X39787221Y-31044584D01*
X39787220Y-31044586D01*
X39761268Y-31285512D01*
X39761267Y-31285523D01*
X39759221Y-31310160D01*
X34180381Y-31310160D01*
X36648722Y-28841819D01*
X36710045Y-28808334D01*
X36736403Y-28805500D01*
X46323517Y-28805500D01*
X46390556Y-28825185D01*
X46411198Y-28841819D01*
X48198964Y-30629585D01*
X48225844Y-30669814D01*
X48285638Y-30814172D01*
X48285645Y-30814185D01*
X48373246Y-30945288D01*
X48373249Y-30945292D01*
X48484743Y-31056786D01*
X48484747Y-31056789D01*
X48615850Y-31144390D01*
X48615863Y-31144397D01*
X48690570Y-31175341D01*
X48761539Y-31204737D01*
X48916189Y-31235499D01*
X48916192Y-31235500D01*
X48916194Y-31235500D01*
X49073880Y-31235500D01*
X49134376Y-31223466D01*
X49151308Y-31220098D01*
X49220899Y-31226325D01*
X49276077Y-31269187D01*
X49299322Y-31335077D01*
X49299500Y-31341715D01*
X49299500Y-36574684D01*
X49290061Y-36622136D01*
X49230264Y-36766498D01*
X49230261Y-36766510D01*
X49199500Y-36921153D01*
X49199500Y-37078846D01*
X49230261Y-37233489D01*
X49230264Y-37233501D01*
X49290602Y-37379172D01*
X49290609Y-37379185D01*
X49378210Y-37510288D01*
X49378213Y-37510292D01*
X49489707Y-37621786D01*
X49489711Y-37621789D01*
X49620814Y-37709390D01*
X49620827Y-37709397D01*
X49766498Y-37769735D01*
X49766503Y-37769737D01*
X49921153Y-37800499D01*
X49921156Y-37800500D01*
X49921158Y-37800500D01*
X49925500Y-37800500D01*
X49992539Y-37820185D01*
X50038294Y-37872989D01*
X50049500Y-37924500D01*
X50049500Y-39074684D01*
X50040061Y-39122136D01*
X49980264Y-39266498D01*
X49980261Y-39266510D01*
X49949500Y-39421153D01*
X49949500Y-39578846D01*
X49980261Y-39733489D01*
X49980264Y-39733501D01*
X50040602Y-39879172D01*
X50040609Y-39879185D01*
X50128210Y-40010288D01*
X50128213Y-40010292D01*
X50239707Y-40121786D01*
X50239711Y-40121789D01*
X50370814Y-40209390D01*
X50370827Y-40209397D01*
X50462103Y-40247204D01*
X50516503Y-40269737D01*
X50671153Y-40300499D01*
X50671156Y-40300500D01*
X50671158Y-40300500D01*
X50828844Y-40300500D01*
X50828845Y-40300499D01*
X50983497Y-40269737D01*
X51129179Y-40209394D01*
X51260289Y-40121789D01*
X51371789Y-40010289D01*
X51459394Y-39879179D01*
X51519737Y-39733497D01*
X51550500Y-39578842D01*
X51550500Y-39421158D01*
X51550500Y-39421155D01*
X51550499Y-39421153D01*
X51519738Y-39266510D01*
X51519737Y-39266503D01*
X51486203Y-39185544D01*
X51459939Y-39122136D01*
X51450500Y-39074684D01*
X51450500Y-30181004D01*
X51423581Y-30045677D01*
X51423580Y-30045676D01*
X51423580Y-30045672D01*
X51370775Y-29918189D01*
X51358288Y-29899501D01*
X51358287Y-29899500D01*
X51294114Y-29803457D01*
X51294112Y-29803454D01*
X51294109Y-29803451D01*
X48103838Y-26613181D01*
X48070353Y-26551858D01*
X48075337Y-26482166D01*
X48117209Y-26426233D01*
X48182673Y-26401816D01*
X48191519Y-26401500D01*
X50859481Y-26401500D01*
X50926520Y-26421185D01*
G37*
%TD.AperFunction*%
%TA.AperFunction,Conductor*%
G36*
X49994075Y-48192993D02*
G01*
X50059901Y-48307007D01*
X50152993Y-48400099D01*
X50267007Y-48465925D01*
X50330590Y-48482962D01*
X49698282Y-49115269D01*
X49698282Y-49115270D01*
X49752449Y-49154624D01*
X49941782Y-49251095D01*
X49961706Y-49257569D01*
X50019381Y-49297006D01*
X50046580Y-49361365D01*
X50034665Y-49430211D01*
X49987421Y-49481687D01*
X49923388Y-49499500D01*
X48458226Y-49499500D01*
X48391187Y-49479815D01*
X48345432Y-49427011D01*
X48335488Y-49357853D01*
X48364513Y-49294297D01*
X48419906Y-49257569D01*
X48438412Y-49251557D01*
X48627816Y-49155051D01*
X48714138Y-49092335D01*
X48799786Y-49030109D01*
X48799788Y-49030106D01*
X48799792Y-49030104D01*
X48950104Y-48879792D01*
X48950106Y-48879788D01*
X48950109Y-48879786D01*
X49017515Y-48787007D01*
X49075051Y-48707816D01*
X49079793Y-48698508D01*
X49127763Y-48647711D01*
X49195583Y-48630911D01*
X49261719Y-48653445D01*
X49300763Y-48698500D01*
X49305373Y-48707547D01*
X49344728Y-48761716D01*
X49977037Y-48129408D01*
X49994075Y-48192993D01*
G37*
%TD.AperFunction*%
%TA.AperFunction,Conductor*%
G36*
X51575270Y-48761717D02*
G01*
X51575270Y-48761716D01*
X51614622Y-48707555D01*
X51619232Y-48698507D01*
X51667205Y-48647709D01*
X51735025Y-48630912D01*
X51801161Y-48653447D01*
X51840204Y-48698504D01*
X51844949Y-48707817D01*
X51969890Y-48879786D01*
X52120213Y-49030109D01*
X52292179Y-49155048D01*
X52292181Y-49155049D01*
X52292184Y-49155051D01*
X52481588Y-49251557D01*
X52500092Y-49257569D01*
X52557768Y-49297006D01*
X52584966Y-49361365D01*
X52573051Y-49430211D01*
X52525807Y-49481687D01*
X52461774Y-49499500D01*
X50996612Y-49499500D01*
X50929573Y-49479815D01*
X50883818Y-49427011D01*
X50873874Y-49357853D01*
X50902899Y-49294297D01*
X50958294Y-49257569D01*
X50978217Y-49251095D01*
X51167554Y-49154622D01*
X51221716Y-49115270D01*
X51221717Y-49115270D01*
X50589408Y-48482962D01*
X50652993Y-48465925D01*
X50767007Y-48400099D01*
X50860099Y-48307007D01*
X50925925Y-48192993D01*
X50942962Y-48129408D01*
X51575270Y-48761717D01*
G37*
%TD.AperFunction*%
%TA.AperFunction,Conductor*%
G36*
X54124341Y-48888068D02*
G01*
X54139290Y-48899259D01*
X54180274Y-48929939D01*
X54197189Y-48960917D01*
X54246202Y-49092328D01*
X54246206Y-49092335D01*
X54332452Y-49207544D01*
X54332455Y-49207547D01*
X54424208Y-49276234D01*
X54466079Y-49332168D01*
X54471063Y-49401859D01*
X54437577Y-49463182D01*
X54376254Y-49496666D01*
X54349897Y-49499500D01*
X53538226Y-49499500D01*
X53471187Y-49479815D01*
X53425432Y-49427011D01*
X53415488Y-49357853D01*
X53444513Y-49294297D01*
X53499906Y-49257569D01*
X53518412Y-49251557D01*
X53707816Y-49155051D01*
X53879792Y-49030104D01*
X53993329Y-48916566D01*
X54054648Y-48883084D01*
X54054649Y-48883084D01*
X54124341Y-48888068D01*
G37*
%TD.AperFunction*%
%TA.AperFunction,Conductor*%
G36*
X57621281Y-44710185D02*
G01*
X57641923Y-44726819D01*
X57735213Y-44820109D01*
X57907179Y-44945048D01*
X57907181Y-44945049D01*
X57907184Y-44945051D01*
X57916493Y-44949794D01*
X57967290Y-44997766D01*
X57984087Y-45065587D01*
X57961552Y-45131722D01*
X57916505Y-45170760D01*
X57907446Y-45175376D01*
X57907440Y-45175380D01*
X57853282Y-45214727D01*
X57853282Y-45214728D01*
X58485591Y-45847037D01*
X58422007Y-45864075D01*
X58307993Y-45929901D01*
X58214901Y-46022993D01*
X58149075Y-46137007D01*
X58132037Y-46200591D01*
X57499728Y-45568282D01*
X57499727Y-45568282D01*
X57460380Y-45622439D01*
X57363904Y-45811782D01*
X57298242Y-46013869D01*
X57298242Y-46013872D01*
X57265000Y-46223753D01*
X57265000Y-46436246D01*
X57298242Y-46646127D01*
X57298242Y-46646130D01*
X57363904Y-46848217D01*
X57460375Y-47037550D01*
X57499728Y-47091716D01*
X58132037Y-46459408D01*
X58149075Y-46522993D01*
X58214901Y-46637007D01*
X58307993Y-46730099D01*
X58422007Y-46795925D01*
X58485589Y-46812962D01*
X57853282Y-47445269D01*
X57853282Y-47445270D01*
X57907449Y-47484624D01*
X58096782Y-47581095D01*
X58298870Y-47646757D01*
X58508754Y-47680000D01*
X58721246Y-47680000D01*
X58931127Y-47646757D01*
X58931130Y-47646757D01*
X59133219Y-47581094D01*
X59226376Y-47533628D01*
X59247424Y-47529674D01*
X59267050Y-47521100D01*
X59281079Y-47523353D01*
X59295045Y-47520731D01*
X59314889Y-47528785D01*
X59336035Y-47532182D01*
X59346619Y-47541663D01*
X59359786Y-47547007D01*
X59372124Y-47564509D01*
X59388078Y-47578800D01*
X59391856Y-47592500D01*
X59400043Y-47604113D01*
X59400960Y-47625507D01*
X59406655Y-47646155D01*
X59402858Y-47669786D01*
X59403036Y-47673918D01*
X59401057Y-47681003D01*
X59339306Y-47879168D01*
X59333997Y-47893168D01*
X59216275Y-48154736D01*
X59209316Y-48167995D01*
X59060928Y-48413459D01*
X59052422Y-48425782D01*
X58875526Y-48651573D01*
X58865596Y-48662781D01*
X58662781Y-48865596D01*
X58651573Y-48875526D01*
X58425782Y-49052422D01*
X58413459Y-49060928D01*
X58167995Y-49209316D01*
X58154736Y-49216275D01*
X57893168Y-49333997D01*
X57879167Y-49339306D01*
X57605336Y-49424635D01*
X57590798Y-49428219D01*
X57308659Y-49479923D01*
X57293794Y-49481728D01*
X57003736Y-49499274D01*
X56996249Y-49499500D01*
X56730103Y-49499500D01*
X56663064Y-49479815D01*
X56617309Y-49427011D01*
X56607365Y-49357853D01*
X56636390Y-49294297D01*
X56655792Y-49276234D01*
X56735101Y-49216862D01*
X56747546Y-49207546D01*
X56833796Y-49092331D01*
X56884091Y-48957483D01*
X56890500Y-48897873D01*
X56890499Y-47102128D01*
X56884091Y-47042517D01*
X56882238Y-47037550D01*
X56833797Y-46907671D01*
X56833793Y-46907664D01*
X56747547Y-46792455D01*
X56747544Y-46792452D01*
X56632335Y-46706206D01*
X56632328Y-46706202D01*
X56497482Y-46655908D01*
X56497483Y-46655908D01*
X56437883Y-46649501D01*
X56437881Y-46649500D01*
X56437873Y-46649500D01*
X56437865Y-46649500D01*
X55561360Y-46649500D01*
X55494321Y-46629815D01*
X55448566Y-46577011D01*
X55438622Y-46507853D01*
X55467647Y-46444297D01*
X55473679Y-46437819D01*
X55780298Y-46131200D01*
X56289060Y-45622439D01*
X57184680Y-44726819D01*
X57246003Y-44693334D01*
X57272361Y-44690500D01*
X57324228Y-44690500D01*
X57501611Y-44690500D01*
X57554242Y-44690500D01*
X57621281Y-44710185D01*
G37*
%TD.AperFunction*%
%TA.AperFunction,Conductor*%
G36*
X30784075Y-29202993D02*
G01*
X30849901Y-29317007D01*
X30942993Y-29410099D01*
X31057007Y-29475925D01*
X31120589Y-29492962D01*
X30488282Y-30125269D01*
X30488282Y-30125270D01*
X30542452Y-30164626D01*
X30542451Y-30164626D01*
X30551495Y-30169234D01*
X30602292Y-30217208D01*
X30619087Y-30285029D01*
X30596550Y-30351164D01*
X30551499Y-30390202D01*
X30542182Y-30394949D01*
X30370213Y-30519890D01*
X30219890Y-30670213D01*
X30094951Y-30842179D01*
X29998444Y-31031585D01*
X29932753Y-31233760D01*
X29899500Y-31443713D01*
X29899500Y-31656287D01*
X29907398Y-31706151D01*
X29931685Y-31859498D01*
X29932754Y-31866243D01*
X29989262Y-32040157D01*
X29998444Y-32068414D01*
X30094951Y-32257820D01*
X30219890Y-32429786D01*
X30370213Y-32580109D01*
X30542182Y-32705050D01*
X30550946Y-32709516D01*
X30601742Y-32757491D01*
X30618536Y-32825312D01*
X30595998Y-32891447D01*
X30550946Y-32930484D01*
X30542182Y-32934949D01*
X30370213Y-33059890D01*
X30219890Y-33210213D01*
X30094951Y-33382179D01*
X29998444Y-33571585D01*
X29998443Y-33571587D01*
X29998443Y-33571588D01*
X29977248Y-33636818D01*
X29932753Y-33773760D01*
X29899500Y-33983713D01*
X29899500Y-34196286D01*
X29930165Y-34389901D01*
X29932754Y-34406243D01*
X29994737Y-34597007D01*
X29998444Y-34608414D01*
X30094951Y-34797820D01*
X30219890Y-34969786D01*
X30370213Y-35120109D01*
X30542182Y-35245050D01*
X30550946Y-35249516D01*
X30601742Y-35297491D01*
X30618536Y-35365312D01*
X30595998Y-35431447D01*
X30550946Y-35470484D01*
X30542182Y-35474949D01*
X30370213Y-35599890D01*
X30219890Y-35750213D01*
X30094951Y-35922179D01*
X29998444Y-36111585D01*
X29932753Y-36313760D01*
X29899500Y-36523713D01*
X29899500Y-36736286D01*
X29926741Y-36908282D01*
X29932754Y-36946243D01*
X29993561Y-37133388D01*
X29998444Y-37148414D01*
X30094951Y-37337820D01*
X30219890Y-37509786D01*
X30370213Y-37660109D01*
X30542182Y-37785050D01*
X30550946Y-37789516D01*
X30601742Y-37837491D01*
X30618536Y-37905312D01*
X30595998Y-37971447D01*
X30550946Y-38010484D01*
X30542182Y-38014949D01*
X30370213Y-38139890D01*
X30219890Y-38290213D01*
X30094951Y-38462179D01*
X29998444Y-38651585D01*
X29998443Y-38651587D01*
X29998443Y-38651588D01*
X29934724Y-38847696D01*
X29932755Y-38853755D01*
X29932753Y-38853759D01*
X29899500Y-39063713D01*
X29899500Y-39276286D01*
X29922444Y-39421153D01*
X29932754Y-39486243D01*
X29989211Y-39660000D01*
X29998444Y-39688414D01*
X30094951Y-39877820D01*
X30219890Y-40049786D01*
X30370213Y-40200109D01*
X30542182Y-40325050D01*
X30550946Y-40329516D01*
X30601742Y-40377491D01*
X30618536Y-40445312D01*
X30595998Y-40511447D01*
X30550946Y-40550484D01*
X30542182Y-40554949D01*
X30370213Y-40679890D01*
X30219890Y-40830213D01*
X30094951Y-41002179D01*
X29998444Y-41191585D01*
X29932753Y-41393760D01*
X29909202Y-41542455D01*
X29899500Y-41603713D01*
X29899500Y-41816287D01*
X29932754Y-42026243D01*
X29950561Y-42081048D01*
X29956129Y-42098182D01*
X29958124Y-42168023D01*
X29922044Y-42227856D01*
X29859343Y-42258684D01*
X29838198Y-42260500D01*
X28474499Y-42260500D01*
X28407460Y-42240815D01*
X28361705Y-42188011D01*
X28350499Y-42136500D01*
X28350499Y-41852129D01*
X28350498Y-41852123D01*
X28347822Y-41827230D01*
X28344091Y-41792517D01*
X28336969Y-41773423D01*
X28293797Y-41657671D01*
X28293793Y-41657664D01*
X28207547Y-41542455D01*
X28207544Y-41542452D01*
X28092335Y-41456206D01*
X28092328Y-41456202D01*
X27960917Y-41407189D01*
X27904983Y-41365318D01*
X27880566Y-41299853D01*
X27895418Y-41231580D01*
X27916563Y-41203332D01*
X28030104Y-41089792D01*
X28093755Y-41002184D01*
X28155048Y-40917820D01*
X28155047Y-40917820D01*
X28155051Y-40917816D01*
X28251557Y-40728412D01*
X28317246Y-40526243D01*
X28350500Y-40316287D01*
X28350500Y-40184362D01*
X28370185Y-40117323D01*
X28386819Y-40096681D01*
X29150461Y-39333039D01*
X29150464Y-39333036D01*
X29249013Y-39185547D01*
X29316895Y-39021666D01*
X29351500Y-38847692D01*
X29351500Y-38670308D01*
X29351500Y-31410228D01*
X29342179Y-31363368D01*
X29342179Y-31363364D01*
X29323446Y-31269187D01*
X29316895Y-31236253D01*
X29261889Y-31103457D01*
X29249013Y-31072372D01*
X29171393Y-30956206D01*
X29150465Y-30924885D01*
X29117048Y-30891468D01*
X29083620Y-30858040D01*
X29083618Y-30858036D01*
X28820799Y-30595218D01*
X28787314Y-30533895D01*
X28792298Y-30464204D01*
X28820797Y-30419858D01*
X29785574Y-29455081D01*
X29846892Y-29421600D01*
X29916583Y-29426584D01*
X29972517Y-29468456D01*
X29991181Y-29504447D01*
X29998905Y-29528218D01*
X30095375Y-29717550D01*
X30134728Y-29771716D01*
X30767036Y-29139407D01*
X30784075Y-29202993D01*
G37*
%TD.AperFunction*%
%TA.AperFunction,Conductor*%
G36*
X26534075Y-37862993D02*
G01*
X26599901Y-37977007D01*
X26692993Y-38070099D01*
X26807007Y-38135925D01*
X26870589Y-38152962D01*
X26238282Y-38785269D01*
X26238282Y-38785270D01*
X26292452Y-38824626D01*
X26292451Y-38824626D01*
X26301495Y-38829234D01*
X26352292Y-38877208D01*
X26369087Y-38945029D01*
X26346550Y-39011164D01*
X26301499Y-39050202D01*
X26292182Y-39054949D01*
X26120213Y-39179890D01*
X25969890Y-39330213D01*
X25844951Y-39502179D01*
X25748445Y-39691582D01*
X25748443Y-39691587D01*
X25748443Y-39691588D01*
X25742429Y-39710094D01*
X25702992Y-39767768D01*
X25638633Y-39794965D01*
X25569787Y-39783050D01*
X25518312Y-39735805D01*
X25500500Y-39671773D01*
X25500500Y-38206611D01*
X25520185Y-38139572D01*
X25572989Y-38093817D01*
X25642147Y-38083873D01*
X25705703Y-38112898D01*
X25742432Y-38168294D01*
X25748906Y-38188221D01*
X25845375Y-38377550D01*
X25884728Y-38431716D01*
X26517037Y-37799408D01*
X26534075Y-37862993D01*
G37*
%TD.AperFunction*%
%TA.AperFunction,Conductor*%
G36*
X25705703Y-34886389D02*
G01*
X25723762Y-34905786D01*
X25792454Y-34997546D01*
X25837912Y-35031576D01*
X25907664Y-35083793D01*
X25907671Y-35083797D01*
X26042517Y-35134091D01*
X26042516Y-35134091D01*
X26049444Y-35134835D01*
X26102127Y-35140500D01*
X27426500Y-35140499D01*
X27493539Y-35160184D01*
X27539294Y-35212987D01*
X27550500Y-35264499D01*
X27550500Y-36258722D01*
X27530815Y-36325761D01*
X27478011Y-36371516D01*
X27408853Y-36381460D01*
X27388183Y-36376653D01*
X27316134Y-36353243D01*
X27316127Y-36353242D01*
X27106246Y-36320000D01*
X26893754Y-36320000D01*
X26683872Y-36353242D01*
X26683869Y-36353242D01*
X26481782Y-36418904D01*
X26292439Y-36515380D01*
X26238282Y-36554727D01*
X26238282Y-36554728D01*
X26870591Y-37187037D01*
X26807007Y-37204075D01*
X26692993Y-37269901D01*
X26599901Y-37362993D01*
X26534075Y-37477007D01*
X26517037Y-37540591D01*
X25884728Y-36908282D01*
X25884727Y-36908282D01*
X25845380Y-36962439D01*
X25748904Y-37151782D01*
X25742431Y-37171706D01*
X25702994Y-37229381D01*
X25638635Y-37256580D01*
X25569789Y-37244665D01*
X25518313Y-37197421D01*
X25500500Y-37133388D01*
X25500500Y-34980102D01*
X25520185Y-34913063D01*
X25572989Y-34867308D01*
X25642147Y-34857364D01*
X25705703Y-34886389D01*
G37*
%TD.AperFunction*%
%TA.AperFunction,Conductor*%
G36*
X25705703Y-31694513D02*
G01*
X25742431Y-31749908D01*
X25748444Y-31768414D01*
X25844951Y-31957820D01*
X25969890Y-32129786D01*
X26083430Y-32243326D01*
X26116915Y-32304649D01*
X26111931Y-32374341D01*
X26070059Y-32430274D01*
X26039083Y-32447189D01*
X25907669Y-32496203D01*
X25907664Y-32496206D01*
X25792455Y-32582452D01*
X25792452Y-32582455D01*
X25723766Y-32674208D01*
X25667832Y-32716079D01*
X25598141Y-32721063D01*
X25536818Y-32687577D01*
X25503334Y-32626254D01*
X25500500Y-32599897D01*
X25500500Y-31788226D01*
X25520185Y-31721187D01*
X25572989Y-31675432D01*
X25642147Y-31665488D01*
X25705703Y-31694513D01*
G37*
%TD.AperFunction*%
%TA.AperFunction,Conductor*%
G36*
X26534075Y-28902993D02*
G01*
X26599901Y-29017007D01*
X26692993Y-29110099D01*
X26807007Y-29175925D01*
X26870590Y-29192962D01*
X26238282Y-29825269D01*
X26238282Y-29825270D01*
X26292452Y-29864626D01*
X26292451Y-29864626D01*
X26301495Y-29869234D01*
X26352292Y-29917208D01*
X26369087Y-29985029D01*
X26346550Y-30051164D01*
X26301499Y-30090202D01*
X26292182Y-30094949D01*
X26120213Y-30219890D01*
X25969890Y-30370213D01*
X25844951Y-30542179D01*
X25748445Y-30731582D01*
X25748443Y-30731587D01*
X25748443Y-30731588D01*
X25742429Y-30750094D01*
X25702992Y-30807768D01*
X25638633Y-30834965D01*
X25569787Y-30823050D01*
X25518312Y-30775805D01*
X25500500Y-30711773D01*
X25500500Y-29246611D01*
X25520185Y-29179572D01*
X25572989Y-29133817D01*
X25642147Y-29123873D01*
X25705703Y-29152898D01*
X25742432Y-29208294D01*
X25748906Y-29228221D01*
X25845375Y-29417550D01*
X25884728Y-29471716D01*
X26517037Y-28839408D01*
X26534075Y-28902993D01*
G37*
%TD.AperFunction*%
%TA.AperFunction,Conductor*%
G36*
X35175521Y-26421185D02*
G01*
X35221276Y-26473989D01*
X35231220Y-26543147D01*
X35202195Y-26606703D01*
X35196163Y-26613181D01*
X32811681Y-28997660D01*
X32750358Y-29031145D01*
X32680666Y-29026161D01*
X32624733Y-28984289D01*
X32600316Y-28918825D01*
X32600000Y-28909979D01*
X32600000Y-28903753D01*
X32566758Y-28693873D01*
X32526948Y-28571352D01*
X32524953Y-28501510D01*
X32561033Y-28441677D01*
X32620687Y-28411416D01*
X32705328Y-28394580D01*
X32797392Y-28356446D01*
X32832807Y-28341777D01*
X32832808Y-28341776D01*
X32832811Y-28341775D01*
X32947543Y-28265114D01*
X34774838Y-26437819D01*
X34801765Y-26423115D01*
X34827584Y-26406523D01*
X34833784Y-26405631D01*
X34836161Y-26404334D01*
X34862519Y-26401500D01*
X35108482Y-26401500D01*
X35175521Y-26421185D01*
G37*
%TD.AperFunction*%
%TA.AperFunction,Conductor*%
G36*
X29842539Y-25520185D02*
G01*
X29888294Y-25572989D01*
X29899500Y-25624500D01*
X29899500Y-27308479D01*
X29879815Y-27375518D01*
X29863181Y-27396160D01*
X28561681Y-28697660D01*
X28500358Y-28731145D01*
X28430666Y-28726161D01*
X28374733Y-28684289D01*
X28350316Y-28618825D01*
X28350000Y-28609979D01*
X28350000Y-28603753D01*
X28316757Y-28393872D01*
X28316757Y-28393869D01*
X28251095Y-28191782D01*
X28154624Y-28002449D01*
X28115270Y-27948282D01*
X28115269Y-27948282D01*
X27482962Y-28580590D01*
X27465925Y-28517007D01*
X27400099Y-28402993D01*
X27307007Y-28309901D01*
X27192993Y-28244075D01*
X27129409Y-28227037D01*
X27761716Y-27594728D01*
X27707550Y-27555375D01*
X27518217Y-27458904D01*
X27316129Y-27393242D01*
X27106246Y-27360000D01*
X26893754Y-27360000D01*
X26683872Y-27393242D01*
X26683869Y-27393242D01*
X26481782Y-27458904D01*
X26292439Y-27555380D01*
X26238282Y-27594727D01*
X26238282Y-27594728D01*
X26870591Y-28227037D01*
X26807007Y-28244075D01*
X26692993Y-28309901D01*
X26599901Y-28402993D01*
X26534075Y-28517007D01*
X26517037Y-28580591D01*
X25884728Y-27948282D01*
X25884727Y-27948282D01*
X25845380Y-28002439D01*
X25748904Y-28191782D01*
X25742431Y-28211706D01*
X25733347Y-28224989D01*
X25728815Y-28240427D01*
X25714035Y-28253233D01*
X25702994Y-28269381D01*
X25688170Y-28275645D01*
X25676011Y-28286182D01*
X25656652Y-28288965D01*
X25638635Y-28296580D01*
X25622779Y-28293835D01*
X25606853Y-28296126D01*
X25589059Y-28288000D01*
X25569789Y-28284665D01*
X25557935Y-28273786D01*
X25543297Y-28267101D01*
X25532721Y-28250644D01*
X25518313Y-28237421D01*
X25513802Y-28221205D01*
X25505523Y-28208323D01*
X25500500Y-28173388D01*
X25500500Y-28003750D01*
X25500726Y-27996263D01*
X25510902Y-27828031D01*
X25518271Y-27706201D01*
X25520076Y-27691341D01*
X25522792Y-27676520D01*
X25571780Y-27409197D01*
X25575364Y-27394663D01*
X25581330Y-27375518D01*
X25660696Y-27120822D01*
X25665998Y-27106841D01*
X25783731Y-26845249D01*
X25790676Y-26832016D01*
X25939080Y-26586526D01*
X25947567Y-26574230D01*
X26124480Y-26348417D01*
X26134395Y-26337226D01*
X26337226Y-26134395D01*
X26348417Y-26124480D01*
X26574230Y-25947567D01*
X26586526Y-25939080D01*
X26832016Y-25790676D01*
X26845249Y-25783731D01*
X27106841Y-25665998D01*
X27120822Y-25660696D01*
X27394668Y-25575362D01*
X27409197Y-25571780D01*
X27691344Y-25520075D01*
X27706201Y-25518271D01*
X27996264Y-25500726D01*
X28003751Y-25500500D01*
X28065892Y-25500500D01*
X29775500Y-25500500D01*
X29842539Y-25520185D01*
G37*
%TD.AperFunction*%
%TD*%
M02*
