%TF.GenerationSoftware,KiCad,Pcbnew,9.0.2*%
%TF.CreationDate,2026-04-06T11:59:14-04:00*%
%TF.ProjectId,Cattitude,43617474-6974-4756-9465-2e6b69636164,1*%
%TF.SameCoordinates,Original*%
%TF.FileFunction,Soldermask,Bot*%
%TF.FilePolarity,Negative*%
%FSLAX46Y46*%
G04 Gerber Fmt 4.6, Leading zero omitted, Abs format (unit mm)*
G04 Created by KiCad (PCBNEW 9.0.2) date 2026-04-06 11:59:14*
%MOMM*%
%LPD*%
G01*
G04 APERTURE LIST*
G04 Aperture macros list*
%AMRoundRect*
0 Rectangle with rounded corners*
0 $1 Rounding radius*
0 $2 $3 $4 $5 $6 $7 $8 $9 X,Y pos of 4 corners*
0 Add a 4 corners polygon primitive as box body*
4,1,4,$2,$3,$4,$5,$6,$7,$8,$9,$2,$3,0*
0 Add four circle primitives for the rounded corners*
1,1,$1+$1,$2,$3*
1,1,$1+$1,$4,$5*
1,1,$1+$1,$6,$7*
1,1,$1+$1,$8,$9*
0 Add four rect primitives between the rounded corners*
20,1,$1+$1,$2,$3,$4,$5,0*
20,1,$1+$1,$4,$5,$6,$7,0*
20,1,$1+$1,$6,$7,$8,$9,0*
20,1,$1+$1,$8,$9,$2,$3,0*%
%AMFreePoly0*
4,1,349,0.001632,0.868987,0.001757,0.868985,0.002674,0.868966,0.042674,0.867966,0.045035,0.867880,0.045284,0.867868,0.048003,0.867700,0.088003,0.864700,0.090830,0.864449,0.091092,0.864422,0.093607,0.864131,0.132607,0.859131,0.136272,0.858593,0.136641,0.858532,0.140501,0.857817,0.179501,0.849817,0.180777,0.849547,0.180896,0.849521,0.182060,0.849260,0.221060,0.840260,
0.223735,0.839604,0.224001,0.839535,0.226752,0.838781,0.264752,0.827781,0.268130,0.826739,0.268469,0.826628,0.271991,0.825403,0.309991,0.811403,0.311515,0.810828,0.311665,0.810770,0.313201,0.810161,0.350201,0.795161,0.353068,0.793948,0.353324,0.793835,0.355690,0.792754,0.391690,0.775754,0.394332,0.774460,0.394582,0.774333,0.397048,0.773037,0.432048,0.754037,
0.434462,0.752684,0.434704,0.752544,0.437227,0.751035,0.471227,0.730035,0.473526,0.728573,0.473758,0.728421,0.476182,0.726783,0.509182,0.703783,0.510643,0.702745,0.510784,0.702643,0.512200,0.701600,0.544200,0.677600,0.547070,0.675366,0.547345,0.675144,0.550078,0.672858,0.580078,0.646858,0.581573,0.645537,0.581705,0.645418,0.582912,0.644312,0.611912,0.617312,
0.614532,0.614784,0.614784,0.614532,0.617312,0.611912,0.644312,0.582912,0.645418,0.581705,0.645537,0.581573,0.646858,0.580078,0.672858,0.550078,0.675144,0.547345,0.675366,0.547070,0.677600,0.544200,0.701600,0.512200,0.702643,0.510784,0.702745,0.510643,0.703783,0.509182,0.726783,0.476182,0.728421,0.473758,0.728573,0.473526,0.730035,0.471227,0.751035,0.437227,
0.752544,0.434704,0.752684,0.434462,0.754037,0.432048,0.773037,0.397048,0.774333,0.394582,0.774460,0.394332,0.775754,0.391690,0.792754,0.355690,0.793835,0.353324,0.793948,0.353068,0.795161,0.350201,0.810161,0.313201,0.810770,0.311665,0.810828,0.311515,0.811403,0.309991,0.825403,0.271991,0.826628,0.268469,0.826739,0.268130,0.827781,0.264752,0.838781,0.226752,
0.839535,0.224001,0.839604,0.223735,0.840260,0.221060,0.849260,0.182060,0.849521,0.180896,0.849547,0.180777,0.849817,0.179501,0.857817,0.140501,0.858532,0.136641,0.858593,0.136272,0.859131,0.132607,0.864131,0.093607,0.864422,0.091092,0.864449,0.090830,0.864700,0.088003,0.867700,0.048003,0.867868,0.045284,0.867880,0.045035,0.867966,0.042674,0.868966,0.002674,
0.868998,0.000125,0.868998,-0.000125,0.868966,-0.002674,0.867966,-0.042674,0.867880,-0.045035,0.867868,-0.045284,0.867700,-0.048003,0.864700,-0.088003,0.864449,-0.090830,0.864422,-0.091092,0.864131,-0.093607,0.859131,-0.132607,0.858593,-0.136272,0.858532,-0.136641,0.857817,-0.140501,0.849817,-0.179501,0.849547,-0.180777,0.849521,-0.180896,0.849260,-0.182060,0.840260,-0.221060,
0.839604,-0.223735,0.839535,-0.224001,0.838781,-0.226752,0.827781,-0.264752,0.826739,-0.268130,0.826628,-0.268469,0.825403,-0.271991,0.811403,-0.309991,0.810828,-0.311515,0.810770,-0.311665,0.810161,-0.313201,0.795161,-0.350201,0.793948,-0.353068,0.793835,-0.353324,0.792754,-0.355690,0.775754,-0.391690,0.774460,-0.394332,0.774333,-0.394582,0.773037,-0.397048,0.754037,-0.432048,
0.752684,-0.434462,0.752544,-0.434704,0.751035,-0.437227,0.730035,-0.471227,0.728573,-0.473526,0.728421,-0.473758,0.726783,-0.476182,0.703783,-0.509182,0.702745,-0.510643,0.702643,-0.510784,0.701600,-0.512200,0.677600,-0.544200,0.675366,-0.547070,0.675144,-0.547345,0.672858,-0.550078,0.646858,-0.580078,0.645537,-0.581573,0.645418,-0.581705,0.644312,-0.582912,0.617312,-0.611912,
0.614784,-0.614532,0.614532,-0.614784,0.611912,-0.617312,0.582912,-0.644312,0.581705,-0.645418,0.581573,-0.645537,0.580078,-0.646858,0.550078,-0.672858,0.547345,-0.675144,0.547070,-0.675366,0.544200,-0.677600,0.512200,-0.701600,0.510784,-0.702643,0.510643,-0.702745,0.509182,-0.703783,0.476182,-0.726783,0.473758,-0.728421,0.473526,-0.728573,0.471227,-0.730035,0.437227,-0.751035,
0.434704,-0.752544,0.434462,-0.752684,0.432048,-0.754037,0.397048,-0.773037,0.394582,-0.774333,0.394332,-0.774460,0.391690,-0.775754,0.355690,-0.792754,0.353324,-0.793835,0.353068,-0.793948,0.350201,-0.795161,0.313201,-0.810161,0.311665,-0.810770,0.311515,-0.810828,0.309991,-0.811403,0.271991,-0.825403,0.268469,-0.826628,0.268130,-0.826739,0.264752,-0.827781,0.226752,-0.838781,
0.224001,-0.839535,0.223735,-0.839604,0.221060,-0.840260,0.182060,-0.849260,0.180896,-0.849521,0.180777,-0.849547,0.179501,-0.849817,0.140501,-0.857817,0.136641,-0.858532,0.136272,-0.858593,0.132607,-0.859131,0.093607,-0.864131,0.091092,-0.864422,0.090830,-0.864449,0.088003,-0.864700,0.048003,-0.867700,0.045284,-0.867868,0.045035,-0.867880,0.042674,-0.867966,0.002674,-0.868966,
0.001757,-0.868985,0.001632,-0.868987,0.000000,-0.869000,-1.883000,-0.869000,-1.895436,-0.868239,-1.896649,-0.868090,-1.908952,-0.865806,-1.920952,-0.862806,-1.924936,-0.861723,-1.925304,-0.861615,-1.927632,-0.860885,-1.927952,-0.860806,-1.938648,-0.857498,-1.939671,-0.857119,-1.946221,-0.854277,-1.952500,-0.852121,-1.954061,-0.851430,-1.969353,-0.843029,-1.975353,-0.839029,-1.977711,-0.837409,
-1.977937,-0.837249,-1.980200,-0.835600,-1.981828,-0.834379,-1.982353,-0.834029,-1.990398,-0.828076,-1.991160,-0.827452,-1.998661,-0.820661,-1.999116,-0.820205,-2.003899,-0.816285,-2.005285,-0.814899,-2.009205,-0.810116,-2.009661,-0.809661,-2.016452,-0.802160,-2.017076,-0.801398,-2.023029,-0.793353,-2.023379,-0.792828,-2.024600,-0.791200,-2.026249,-0.788937,-2.026409,-0.788711,-2.028029,-0.786353,
-2.032029,-0.780353,-2.040430,-0.765061,-2.041121,-0.763500,-2.043277,-0.757221,-2.046119,-0.750671,-2.046498,-0.749648,-2.049806,-0.738952,-2.049885,-0.738632,-2.050615,-0.736304,-2.050723,-0.735936,-2.051806,-0.731952,-2.054806,-0.719952,-2.057090,-0.707649,-2.057239,-0.706436,-2.058000,-0.694000,-2.058000,0.694000,-2.057239,0.706436,-2.057090,0.707649,-2.054806,0.719952,-2.051806,0.731952,
-2.050723,0.735936,-2.050615,0.736304,-2.049885,0.738632,-2.049806,0.738952,-2.046498,0.749648,-2.046119,0.750671,-2.043277,0.757221,-2.041121,0.763500,-2.040430,0.765061,-2.032029,0.780353,-2.028029,0.786353,-2.026409,0.788711,-2.026249,0.788937,-2.024600,0.791200,-2.023379,0.792828,-2.023029,0.793353,-2.017076,0.801398,-2.016452,0.802160,-2.009661,0.809661,-2.009205,0.810116,
-2.005285,0.814899,-2.003899,0.816285,-1.999116,0.820205,-1.998661,0.820661,-1.991160,0.827452,-1.990398,0.828076,-1.982353,0.834029,-1.981828,0.834379,-1.980200,0.835600,-1.977937,0.837249,-1.977711,0.837409,-1.975353,0.839029,-1.969353,0.843029,-1.954061,0.851430,-1.952500,0.852121,-1.946221,0.854277,-1.939671,0.857119,-1.938648,0.857498,-1.927952,0.860806,-1.927632,0.860885,
-1.925304,0.861615,-1.924936,0.861723,-1.920952,0.862806,-1.908952,0.865806,-1.896649,0.868090,-1.895436,0.868239,-1.883000,0.869000,0.000000,0.869000,0.001632,0.868987,0.001632,0.868987,$1*%
%AMFreePoly1*
4,1,349,1.895436,0.868239,1.896649,0.868090,1.908952,0.865806,1.920952,0.862806,1.924936,0.861723,1.925304,0.861615,1.927632,0.860885,1.927952,0.860806,1.938648,0.857498,1.939671,0.857119,1.946221,0.854277,1.952500,0.852121,1.954061,0.851430,1.969353,0.843029,1.975353,0.839029,1.977711,0.837409,1.977937,0.837249,1.980200,0.835600,1.981828,0.834379,1.982353,0.834029,
1.990398,0.828076,1.991160,0.827452,1.998661,0.820661,1.999116,0.820205,2.003899,0.816285,2.005285,0.814899,2.009205,0.810116,2.009661,0.809661,2.016452,0.802160,2.017076,0.801398,2.023029,0.793353,2.023379,0.792828,2.024600,0.791200,2.026249,0.788937,2.026409,0.788711,2.028029,0.786353,2.032029,0.780353,2.040430,0.765061,2.041121,0.763500,2.043277,0.757221,
2.046119,0.750671,2.046498,0.749648,2.049806,0.738952,2.049885,0.738632,2.050615,0.736304,2.050723,0.735936,2.051806,0.731952,2.054806,0.719952,2.057090,0.707649,2.057239,0.706436,2.058000,0.694000,2.058000,-0.694000,2.057239,-0.706436,2.057090,-0.707649,2.054806,-0.719952,2.051806,-0.731952,2.050723,-0.735936,2.050615,-0.736304,2.049885,-0.738632,2.049806,-0.738952,
2.046498,-0.749648,2.046119,-0.750671,2.043277,-0.757221,2.041121,-0.763500,2.040430,-0.765061,2.032029,-0.780353,2.028029,-0.786353,2.026409,-0.788711,2.026249,-0.788937,2.024600,-0.791200,2.023379,-0.792828,2.023029,-0.793353,2.017076,-0.801398,2.016452,-0.802160,2.009661,-0.809661,2.009205,-0.810116,2.005285,-0.814899,2.003899,-0.816285,1.999116,-0.820205,1.998661,-0.820661,
1.991160,-0.827452,1.990398,-0.828076,1.982353,-0.834029,1.981828,-0.834379,1.980200,-0.835600,1.977937,-0.837249,1.977711,-0.837409,1.975353,-0.839029,1.969353,-0.843029,1.954061,-0.851430,1.952500,-0.852121,1.946221,-0.854277,1.939671,-0.857119,1.938648,-0.857498,1.927952,-0.860806,1.927632,-0.860885,1.925304,-0.861615,1.924936,-0.861723,1.920952,-0.862806,1.908952,-0.865806,
1.896649,-0.868090,1.895436,-0.868239,1.883000,-0.869000,0.000000,-0.869000,-0.001632,-0.868987,-0.001757,-0.868985,-0.002674,-0.868966,-0.042674,-0.867966,-0.045035,-0.867880,-0.045284,-0.867868,-0.048003,-0.867700,-0.088003,-0.864700,-0.090830,-0.864449,-0.091092,-0.864422,-0.093607,-0.864131,-0.132607,-0.859131,-0.136272,-0.858593,-0.136641,-0.858532,-0.140501,-0.857817,-0.179501,-0.849817,
-0.180777,-0.849547,-0.180896,-0.849521,-0.182060,-0.849260,-0.221060,-0.840260,-0.223735,-0.839604,-0.224001,-0.839535,-0.226752,-0.838781,-0.264752,-0.827781,-0.268130,-0.826739,-0.268469,-0.826628,-0.271991,-0.825403,-0.309991,-0.811403,-0.311515,-0.810828,-0.311665,-0.810770,-0.313201,-0.810161,-0.350201,-0.795161,-0.353068,-0.793948,-0.353324,-0.793835,-0.355690,-0.792754,-0.391690,-0.775754,
-0.394332,-0.774460,-0.394582,-0.774333,-0.397048,-0.773037,-0.432048,-0.754037,-0.434462,-0.752684,-0.434704,-0.752544,-0.437227,-0.751035,-0.471227,-0.730035,-0.473526,-0.728573,-0.473758,-0.728421,-0.476182,-0.726783,-0.509182,-0.703783,-0.510643,-0.702745,-0.510784,-0.702643,-0.512200,-0.701600,-0.544200,-0.677600,-0.547070,-0.675366,-0.547345,-0.675144,-0.550078,-0.672858,-0.580078,-0.646858,
-0.581573,-0.645537,-0.581705,-0.645418,-0.582912,-0.644312,-0.611912,-0.617312,-0.614532,-0.614784,-0.614784,-0.614532,-0.617312,-0.611912,-0.644312,-0.582912,-0.645418,-0.581705,-0.645537,-0.581573,-0.646858,-0.580078,-0.672858,-0.550078,-0.675144,-0.547345,-0.675366,-0.547070,-0.677600,-0.544200,-0.701600,-0.512200,-0.702643,-0.510784,-0.702745,-0.510643,-0.703783,-0.509182,-0.726783,-0.476182,
-0.728421,-0.473758,-0.728573,-0.473526,-0.730035,-0.471227,-0.751035,-0.437227,-0.752544,-0.434704,-0.752684,-0.434462,-0.754037,-0.432048,-0.773037,-0.397048,-0.774333,-0.394582,-0.774460,-0.394332,-0.775754,-0.391690,-0.792754,-0.355690,-0.793835,-0.353324,-0.793948,-0.353068,-0.795161,-0.350201,-0.810161,-0.313201,-0.810770,-0.311665,-0.810828,-0.311515,-0.811403,-0.309991,-0.825403,-0.271991,
-0.826628,-0.268469,-0.826739,-0.268130,-0.827781,-0.264752,-0.838781,-0.226752,-0.839535,-0.224001,-0.839604,-0.223735,-0.840260,-0.221060,-0.849260,-0.182060,-0.849521,-0.180896,-0.849547,-0.180777,-0.849817,-0.179501,-0.857817,-0.140501,-0.858532,-0.136641,-0.858593,-0.136272,-0.859131,-0.132607,-0.864131,-0.093607,-0.864422,-0.091092,-0.864449,-0.090830,-0.864700,-0.088003,-0.867700,-0.048003,
-0.867868,-0.045284,-0.867880,-0.045035,-0.867966,-0.042674,-0.868966,-0.002674,-0.868998,-0.000125,-0.868998,0.000125,-0.868966,0.002674,-0.867966,0.042674,-0.867880,0.045035,-0.867868,0.045284,-0.867700,0.048003,-0.864700,0.088003,-0.864449,0.090830,-0.864422,0.091092,-0.864131,0.093607,-0.859131,0.132607,-0.858593,0.136272,-0.858532,0.136641,-0.857817,0.140501,-0.849817,0.179501,
-0.849547,0.180777,-0.849521,0.180896,-0.849260,0.182060,-0.840260,0.221060,-0.839604,0.223735,-0.839535,0.224001,-0.838781,0.226752,-0.827781,0.264752,-0.826739,0.268130,-0.826628,0.268469,-0.825403,0.271991,-0.811403,0.309991,-0.810828,0.311515,-0.810770,0.311665,-0.810161,0.313201,-0.795161,0.350201,-0.793948,0.353068,-0.793835,0.353324,-0.792754,0.355690,-0.775754,0.391690,
-0.774460,0.394332,-0.774333,0.394582,-0.773037,0.397048,-0.754037,0.432048,-0.752684,0.434462,-0.752544,0.434704,-0.751035,0.437227,-0.730035,0.471227,-0.728573,0.473526,-0.728421,0.473758,-0.726783,0.476182,-0.703783,0.509182,-0.702745,0.510643,-0.702643,0.510784,-0.701600,0.512200,-0.677600,0.544200,-0.675366,0.547070,-0.675144,0.547345,-0.672858,0.550078,-0.646858,0.580078,
-0.645537,0.581573,-0.645418,0.581705,-0.644312,0.582912,-0.617312,0.611912,-0.614784,0.614532,-0.614532,0.614784,-0.611912,0.617312,-0.582912,0.644312,-0.581705,0.645418,-0.581573,0.645537,-0.580078,0.646858,-0.550078,0.672858,-0.547345,0.675144,-0.547070,0.675366,-0.544200,0.677600,-0.512200,0.701600,-0.510784,0.702643,-0.510643,0.702745,-0.509182,0.703783,-0.476182,0.726783,
-0.473758,0.728421,-0.473526,0.728573,-0.471227,0.730035,-0.437227,0.751035,-0.434704,0.752544,-0.434462,0.752684,-0.432048,0.754037,-0.397048,0.773037,-0.394582,0.774333,-0.394332,0.774460,-0.391690,0.775754,-0.355690,0.792754,-0.353324,0.793835,-0.353068,0.793948,-0.350201,0.795161,-0.313201,0.810161,-0.311665,0.810770,-0.311515,0.810828,-0.309991,0.811403,-0.271991,0.825403,
-0.268469,0.826628,-0.268130,0.826739,-0.264752,0.827781,-0.226752,0.838781,-0.224001,0.839535,-0.223735,0.839604,-0.221060,0.840260,-0.182060,0.849260,-0.180896,0.849521,-0.180777,0.849547,-0.179501,0.849817,-0.140501,0.857817,-0.136641,0.858532,-0.136272,0.858593,-0.132607,0.859131,-0.093607,0.864131,-0.091092,0.864422,-0.090830,0.864449,-0.088003,0.864700,-0.048003,0.867700,
-0.045284,0.867868,-0.045035,0.867880,-0.042674,0.867966,-0.002674,0.868966,-0.001757,0.868985,-0.001632,0.868987,0.000000,0.869000,1.883000,0.869000,1.895436,0.868239,1.895436,0.868239,$1*%
%AMFreePoly2*
4,1,339,1.349436,0.906239,1.350649,0.906090,1.360978,0.904172,1.361649,0.904090,1.373952,0.901806,1.377952,0.900806,1.394500,0.895121,1.396061,0.894430,1.398970,0.892831,1.399232,0.892723,1.405852,0.889704,1.406552,0.889353,1.411365,0.887386,1.412558,0.886803,1.424353,0.880029,1.430353,0.876029,1.438398,0.870076,1.439160,0.869452,1.446661,0.862661,1.447116,0.862205,
1.451899,0.858285,1.453285,0.856899,1.454912,0.854912,1.456899,0.853285,1.458285,0.851899,1.462205,0.847116,1.462661,0.846661,1.469452,0.839160,1.470076,0.838398,1.476029,0.830353,1.480029,0.824353,1.486803,0.812558,1.487386,0.811365,1.489353,0.806552,1.489704,0.805852,1.492723,0.799232,1.492831,0.798970,1.494430,0.796061,1.495121,0.794500,1.500806,0.777952,
1.501806,0.773952,1.504090,0.761649,1.504172,0.760978,1.506090,0.750649,1.506239,0.749436,1.507000,0.737000,1.507000,-0.737000,1.506239,-0.749436,1.506090,-0.750649,1.504172,-0.760978,1.504090,-0.761649,1.501806,-0.773952,1.500806,-0.777952,1.495121,-0.794500,1.494430,-0.796061,1.492831,-0.798970,1.492723,-0.799232,1.489704,-0.805852,1.489353,-0.806552,1.487386,-0.811365,
1.486803,-0.812558,1.480029,-0.824353,1.476029,-0.830353,1.470076,-0.838398,1.469452,-0.839160,1.462661,-0.846661,1.462205,-0.847116,1.458285,-0.851899,1.456899,-0.853285,1.454912,-0.854912,1.453285,-0.856899,1.451899,-0.858285,1.447116,-0.862205,1.446661,-0.862661,1.439160,-0.869452,1.438398,-0.870076,1.430353,-0.876029,1.424353,-0.880029,1.412558,-0.886803,1.411365,-0.887386,
1.406552,-0.889353,1.405852,-0.889704,1.399232,-0.892723,1.398970,-0.892831,1.396061,-0.894430,1.394500,-0.895121,1.377952,-0.900806,1.373952,-0.901806,1.361649,-0.904090,1.360978,-0.904172,1.350649,-0.906090,1.349436,-0.906239,1.337000,-0.907000,0.000000,-0.907000,-0.000857,-0.906996,-0.000976,-0.906995,-0.002547,-0.906970,-0.044547,-0.905970,-0.047277,-0.905869,-0.047514,-0.905857,
-0.049623,-0.905728,-0.091623,-0.902728,-0.095378,-0.902390,-0.095746,-0.902350,-0.099494,-0.901872,-0.140494,-0.895872,-0.141234,-0.895761,-0.141351,-0.895743,-0.143007,-0.895474,-0.184007,-0.888474,-0.187459,-0.887823,-0.187803,-0.887752,-0.191355,-0.886953,-0.232355,-0.876953,-0.235122,-0.876237,-0.235374,-0.876168,-0.237746,-0.875487,-0.277746,-0.863487,-0.280015,-0.862778,-0.280230,-0.862708,
-0.282348,-0.861993,-0.322348,-0.847993,-0.325334,-0.846895,-0.325622,-0.846784,-0.328522,-0.845615,-0.366522,-0.829615,-0.368409,-0.828798,-0.368609,-0.828709,-0.370805,-0.827700,-0.408805,-0.809700,-0.411062,-0.808597,-0.411300,-0.808477,-0.413881,-0.807129,-0.450881,-0.787129,-0.453605,-0.785602,-0.453834,-0.785469,-0.455795,-0.784301,-0.491795,-0.762301,-0.494543,-0.760561,-0.494819,-0.760380,
-0.497705,-0.758416,-0.531705,-0.734416,-0.533307,-0.733261,-0.533443,-0.733161,-0.534612,-0.732288,-0.567612,-0.707288,-0.569738,-0.705634,-0.569943,-0.705470,-0.572001,-0.703779,-0.604001,-0.676779,-0.605841,-0.675188,-0.606033,-0.675018,-0.608098,-0.673139,-0.639098,-0.644139,-0.641541,-0.641776,-0.641776,-0.641541,-0.644139,-0.639098,-0.673139,-0.608098,-0.675018,-0.606033,-0.675188,-0.605841,
-0.676779,-0.604001,-0.703779,-0.572001,-0.705470,-0.569943,-0.705634,-0.569738,-0.707288,-0.567612,-0.732288,-0.534612,-0.733161,-0.533443,-0.733261,-0.533307,-0.734416,-0.531705,-0.758416,-0.497705,-0.760380,-0.494819,-0.760561,-0.494543,-0.762301,-0.491795,-0.784301,-0.455795,-0.785469,-0.453834,-0.785602,-0.453605,-0.787129,-0.450881,-0.807129,-0.413881,-0.808477,-0.411300,-0.808597,-0.411062,
-0.809700,-0.408805,-0.827700,-0.370805,-0.828709,-0.368609,-0.828798,-0.368409,-0.829615,-0.366522,-0.845615,-0.328522,-0.846784,-0.325622,-0.846895,-0.325334,-0.847993,-0.322348,-0.861993,-0.282348,-0.862708,-0.280230,-0.862778,-0.280015,-0.863487,-0.277746,-0.875487,-0.237746,-0.876168,-0.235374,-0.876237,-0.235122,-0.876953,-0.232355,-0.886953,-0.191355,-0.887752,-0.187803,-0.887823,-0.187459,
-0.888474,-0.184007,-0.895474,-0.143007,-0.895743,-0.141351,-0.895761,-0.141234,-0.895872,-0.140494,-0.901872,-0.099494,-0.902350,-0.095746,-0.902390,-0.095378,-0.902728,-0.091623,-0.905728,-0.049623,-0.905857,-0.047514,-0.905869,-0.047277,-0.905970,-0.044547,-0.906970,-0.002547,-0.906999,-0.000119,-0.906999,0.000119,-0.906970,0.002547,-0.905970,0.044547,-0.905869,0.047277,-0.905857,0.047514,
-0.905728,0.049623,-0.902728,0.091623,-0.902390,0.095378,-0.902350,0.095746,-0.901872,0.099494,-0.895872,0.140494,-0.895761,0.141234,-0.895743,0.141351,-0.895474,0.143007,-0.888474,0.184007,-0.887823,0.187459,-0.887752,0.187803,-0.886953,0.191355,-0.876953,0.232355,-0.876237,0.235122,-0.876168,0.235374,-0.875487,0.237746,-0.863487,0.277746,-0.862778,0.280015,-0.862708,0.280230,
-0.861993,0.282348,-0.847993,0.322348,-0.846895,0.325334,-0.846784,0.325622,-0.845615,0.328522,-0.829615,0.366522,-0.828798,0.368409,-0.828709,0.368609,-0.827700,0.370805,-0.809700,0.408805,-0.808597,0.411062,-0.808477,0.411300,-0.807129,0.413881,-0.787129,0.450881,-0.785602,0.453605,-0.785469,0.453834,-0.784301,0.455795,-0.762301,0.491795,-0.760561,0.494543,-0.760380,0.494819,
-0.758416,0.497705,-0.734416,0.531705,-0.733261,0.533307,-0.733161,0.533443,-0.732288,0.534612,-0.707288,0.567612,-0.705634,0.569738,-0.705470,0.569943,-0.703779,0.572001,-0.676779,0.604001,-0.675188,0.605841,-0.675018,0.606033,-0.673139,0.608098,-0.644139,0.639098,-0.641776,0.641541,-0.641541,0.641776,-0.639098,0.644139,-0.608098,0.673139,-0.606033,0.675018,-0.605841,0.675188,
-0.604001,0.676779,-0.572001,0.703779,-0.569943,0.705470,-0.569738,0.705634,-0.567612,0.707288,-0.534612,0.732288,-0.533443,0.733161,-0.533307,0.733261,-0.531705,0.734416,-0.497705,0.758416,-0.494819,0.760380,-0.494543,0.760561,-0.491795,0.762301,-0.455795,0.784301,-0.453834,0.785469,-0.453605,0.785602,-0.450881,0.787129,-0.413881,0.807129,-0.411300,0.808477,-0.411062,0.808597,
-0.408805,0.809700,-0.370805,0.827700,-0.368609,0.828709,-0.368409,0.828798,-0.366522,0.829615,-0.328522,0.845615,-0.325622,0.846784,-0.325334,0.846895,-0.322348,0.847993,-0.282348,0.861993,-0.280230,0.862708,-0.280015,0.862778,-0.277746,0.863487,-0.237746,0.875487,-0.235374,0.876168,-0.235122,0.876237,-0.232355,0.876953,-0.191355,0.886953,-0.187803,0.887752,-0.187459,0.887823,
-0.184007,0.888474,-0.143007,0.895474,-0.141351,0.895743,-0.141234,0.895761,-0.140494,0.895872,-0.099494,0.901872,-0.095746,0.902350,-0.095378,0.902390,-0.091623,0.902728,-0.049623,0.905728,-0.047514,0.905857,-0.047277,0.905869,-0.044547,0.905970,-0.002547,0.906970,-0.000976,0.906995,-0.000857,0.906996,0.000000,0.907000,1.337000,0.907000,1.349436,0.906239,1.349436,0.906239,
$1*%
%AMFreePoly3*
4,1,339,0.000857,0.906996,0.000976,0.906995,0.002547,0.906970,0.044547,0.905970,0.047277,0.905869,0.047514,0.905857,0.049623,0.905728,0.091623,0.902728,0.095378,0.902390,0.095746,0.902350,0.099494,0.901872,0.140494,0.895872,0.141234,0.895761,0.141351,0.895743,0.143007,0.895474,0.184007,0.888474,0.187459,0.887823,0.187803,0.887752,0.191355,0.886953,0.232355,0.876953,
0.235122,0.876237,0.235374,0.876168,0.237746,0.875487,0.277746,0.863487,0.280015,0.862778,0.280230,0.862708,0.282348,0.861993,0.322348,0.847993,0.325334,0.846895,0.325622,0.846784,0.328522,0.845615,0.366522,0.829615,0.368409,0.828798,0.368609,0.828709,0.370805,0.827700,0.408805,0.809700,0.411062,0.808597,0.411300,0.808477,0.413881,0.807129,0.450881,0.787129,
0.453605,0.785602,0.453834,0.785469,0.455795,0.784301,0.491795,0.762301,0.494543,0.760561,0.494819,0.760380,0.497705,0.758416,0.531705,0.734416,0.533307,0.733261,0.533443,0.733161,0.534612,0.732288,0.567612,0.707288,0.569738,0.705634,0.569943,0.705470,0.572001,0.703779,0.604001,0.676779,0.605841,0.675188,0.606033,0.675018,0.608098,0.673139,0.639098,0.644139,
0.641541,0.641776,0.641776,0.641541,0.644139,0.639098,0.673139,0.608098,0.675018,0.606033,0.675188,0.605841,0.676779,0.604001,0.703779,0.572001,0.705470,0.569943,0.705634,0.569738,0.707288,0.567612,0.732288,0.534612,0.733161,0.533443,0.733261,0.533307,0.734416,0.531705,0.758416,0.497705,0.760380,0.494819,0.760561,0.494543,0.762301,0.491795,0.784301,0.455795,
0.785469,0.453834,0.785602,0.453605,0.787129,0.450881,0.807129,0.413881,0.808477,0.411300,0.808597,0.411062,0.809700,0.408805,0.827700,0.370805,0.828709,0.368609,0.828798,0.368409,0.829615,0.366522,0.845615,0.328522,0.846784,0.325622,0.846895,0.325334,0.847993,0.322348,0.861993,0.282348,0.862708,0.280230,0.862778,0.280015,0.863487,0.277746,0.875487,0.237746,
0.876168,0.235374,0.876237,0.235122,0.876953,0.232355,0.886953,0.191355,0.887752,0.187803,0.887823,0.187459,0.888474,0.184007,0.895474,0.143007,0.895743,0.141351,0.895761,0.141234,0.895872,0.140494,0.901872,0.099494,0.902350,0.095746,0.902390,0.095378,0.902728,0.091623,0.905728,0.049623,0.905857,0.047514,0.905869,0.047277,0.905970,0.044547,0.906970,0.002547,
0.906999,0.000119,0.906999,-0.000119,0.906970,-0.002547,0.905970,-0.044547,0.905869,-0.047277,0.905857,-0.047514,0.905728,-0.049623,0.902728,-0.091623,0.902390,-0.095378,0.902350,-0.095746,0.901872,-0.099494,0.895872,-0.140494,0.895761,-0.141234,0.895743,-0.141351,0.895474,-0.143007,0.888474,-0.184007,0.887823,-0.187459,0.887752,-0.187803,0.886953,-0.191355,0.876953,-0.232355,
0.876237,-0.235122,0.876168,-0.235374,0.875487,-0.237746,0.863487,-0.277746,0.862778,-0.280015,0.862708,-0.280230,0.861993,-0.282348,0.847993,-0.322348,0.846895,-0.325334,0.846784,-0.325622,0.845615,-0.328522,0.829615,-0.366522,0.828798,-0.368409,0.828709,-0.368609,0.827700,-0.370805,0.809700,-0.408805,0.808597,-0.411062,0.808477,-0.411300,0.807129,-0.413881,0.787129,-0.450881,
0.785602,-0.453605,0.785469,-0.453834,0.784301,-0.455795,0.762301,-0.491795,0.760561,-0.494543,0.760380,-0.494819,0.758416,-0.497705,0.734416,-0.531705,0.733261,-0.533307,0.733161,-0.533443,0.732288,-0.534612,0.707288,-0.567612,0.705634,-0.569738,0.705470,-0.569943,0.703779,-0.572001,0.676779,-0.604001,0.675188,-0.605841,0.675018,-0.606033,0.673139,-0.608098,0.644139,-0.639098,
0.641776,-0.641541,0.641541,-0.641776,0.639098,-0.644139,0.608098,-0.673139,0.606033,-0.675018,0.605841,-0.675188,0.604001,-0.676779,0.572001,-0.703779,0.569943,-0.705470,0.569738,-0.705634,0.567612,-0.707288,0.534612,-0.732288,0.533443,-0.733161,0.533307,-0.733261,0.531705,-0.734416,0.497705,-0.758416,0.494819,-0.760380,0.494543,-0.760561,0.491795,-0.762301,0.455795,-0.784301,
0.453834,-0.785469,0.453605,-0.785602,0.450881,-0.787129,0.413881,-0.807129,0.411300,-0.808477,0.411062,-0.808597,0.408805,-0.809700,0.370805,-0.827700,0.368609,-0.828709,0.368409,-0.828798,0.366522,-0.829615,0.328522,-0.845615,0.325622,-0.846784,0.325334,-0.846895,0.322348,-0.847993,0.282348,-0.861993,0.280230,-0.862708,0.280015,-0.862778,0.277746,-0.863487,0.237746,-0.875487,
0.235374,-0.876168,0.235122,-0.876237,0.232355,-0.876953,0.191355,-0.886953,0.187803,-0.887752,0.187459,-0.887823,0.184007,-0.888474,0.143007,-0.895474,0.141351,-0.895743,0.141234,-0.895761,0.140494,-0.895872,0.099494,-0.901872,0.095746,-0.902350,0.095378,-0.902390,0.091623,-0.902728,0.049623,-0.905728,0.047514,-0.905857,0.047277,-0.905869,0.044547,-0.905970,0.002547,-0.906970,
0.000976,-0.906995,0.000857,-0.906996,0.000000,-0.907000,-1.337000,-0.907000,-1.349436,-0.906239,-1.350649,-0.906090,-1.360978,-0.904172,-1.361649,-0.904090,-1.373952,-0.901806,-1.377952,-0.900806,-1.394500,-0.895121,-1.396061,-0.894430,-1.398970,-0.892831,-1.399232,-0.892723,-1.405852,-0.889704,-1.406552,-0.889353,-1.411365,-0.887386,-1.412558,-0.886803,-1.424353,-0.880029,-1.430353,-0.876029,
-1.438398,-0.870076,-1.439160,-0.869452,-1.446661,-0.862661,-1.447116,-0.862205,-1.451899,-0.858285,-1.453285,-0.856899,-1.454912,-0.854912,-1.456899,-0.853285,-1.458285,-0.851899,-1.462205,-0.847116,-1.462661,-0.846661,-1.469452,-0.839160,-1.470076,-0.838398,-1.476029,-0.830353,-1.480029,-0.824353,-1.486803,-0.812558,-1.487386,-0.811365,-1.489353,-0.806552,-1.489704,-0.805852,-1.492723,-0.799232,
-1.492831,-0.798970,-1.494430,-0.796061,-1.495121,-0.794500,-1.500806,-0.777952,-1.501806,-0.773952,-1.504090,-0.761649,-1.504172,-0.760978,-1.506090,-0.750649,-1.506239,-0.749436,-1.507000,-0.737000,-1.507000,0.737000,-1.506239,0.749436,-1.506090,0.750649,-1.504172,0.760978,-1.504090,0.761649,-1.501806,0.773952,-1.500806,0.777952,-1.495121,0.794500,-1.494430,0.796061,-1.492831,0.798970,
-1.492723,0.799232,-1.489704,0.805852,-1.489353,0.806552,-1.487386,0.811365,-1.486803,0.812558,-1.480029,0.824353,-1.476029,0.830353,-1.470076,0.838398,-1.469452,0.839160,-1.462661,0.846661,-1.462205,0.847116,-1.458285,0.851899,-1.456899,0.853285,-1.454912,0.854912,-1.453285,0.856899,-1.451899,0.858285,-1.447116,0.862205,-1.446661,0.862661,-1.439160,0.869452,-1.438398,0.870076,
-1.430353,0.876029,-1.424353,0.880029,-1.412558,0.886803,-1.411365,0.887386,-1.406552,0.889353,-1.405852,0.889704,-1.399232,0.892723,-1.398970,0.892831,-1.396061,0.894430,-1.394500,0.895121,-1.377952,0.900806,-1.373952,0.901806,-1.361649,0.904090,-1.360978,0.904172,-1.350649,0.906090,-1.349436,0.906239,-1.337000,0.907000,0.000000,0.907000,0.000857,0.906996,0.000857,0.906996,
$1*%
%AMFreePoly4*
4,1,323,0.517366,1.660678,0.518947,1.660421,0.521768,1.659726,0.522366,1.659678,0.523947,1.659421,0.539836,1.655509,0.548836,1.652509,0.555577,1.649994,0.556232,1.649723,0.556335,1.649675,0.556836,1.649509,0.562119,1.647038,0.562852,1.646704,0.563115,1.646572,0.578165,1.639534,0.580120,1.638327,0.584553,1.634819,0.585165,1.634534,0.587120,1.633327,0.605661,1.618661,
0.613661,1.610661,0.628327,1.592120,0.629534,1.590165,0.629819,1.589553,0.633327,1.585120,0.634534,1.583165,0.641572,1.568115,0.641704,1.567852,0.642038,1.567119,0.644509,1.561836,0.644675,1.561335,0.644723,1.561232,0.644994,1.560577,0.647509,1.553836,0.650509,1.544836,0.654421,1.528947,0.654678,1.527366,0.654726,1.526768,0.655421,1.523947,0.655678,1.522366,
0.657000,1.506000,0.657000,0.000000,0.656984,-0.001779,0.656981,-0.001951,0.656936,-0.003687,0.655936,-0.032687,0.655847,-0.034707,0.655837,-0.034891,0.655728,-0.036623,0.653728,-0.064623,0.653440,-0.067905,0.653406,-0.068232,0.652996,-0.071620,0.648996,-0.100620,0.648701,-0.102618,0.648670,-0.102814,0.648334,-0.104810,0.643334,-0.132810,0.642693,-0.136088,0.642622,-0.136422,
0.641806,-0.139952,0.634806,-0.167952,0.634397,-0.169533,0.634354,-0.169694,0.633883,-0.171396,0.625883,-0.199396,0.624733,-0.203148,0.624614,-0.203511,0.623339,-0.207163,0.613339,-0.234163,0.612525,-0.236289,0.612466,-0.236438,0.612091,-0.237370,0.601091,-0.264370,0.600313,-0.266228,0.600223,-0.266437,0.599152,-0.268839,0.587152,-0.294839,0.585456,-0.298337,0.585279,-0.298685,
0.583359,-0.302281,0.569359,-0.327281,0.568245,-0.329219,0.568169,-0.329348,0.567751,-0.330051,0.552751,-0.355051,0.551077,-0.357745,0.550895,-0.358028,0.548837,-0.361104,0.532837,-0.384104,0.531266,-0.386300,0.531099,-0.386527,0.529264,-0.388945,0.511264,-0.411945,0.509883,-0.413671,0.491815,-0.435755,0.489330,-0.438678,0.489081,-0.438960,0.486483,-0.441793,0.466483,-0.462793,
0.464746,-0.464573,0.464573,-0.464746,0.462793,-0.466483,0.441793,-0.486483,0.438960,-0.489081,0.438678,-0.489330,0.435755,-0.491815,0.413671,-0.509883,0.411945,-0.511264,0.388945,-0.529264,0.386527,-0.531099,0.386300,-0.531266,0.384104,-0.532837,0.361104,-0.548837,0.358028,-0.550895,0.357745,-0.551077,0.355051,-0.552751,0.330051,-0.567751,0.329348,-0.568169,0.329219,-0.568245,
0.327281,-0.569359,0.302281,-0.583359,0.298685,-0.585279,0.298337,-0.585456,0.294839,-0.587152,0.268839,-0.599152,0.266437,-0.600223,0.266228,-0.600313,0.264370,-0.601091,0.237370,-0.612091,0.236438,-0.612466,0.236289,-0.612525,0.234163,-0.613339,0.207163,-0.623339,0.203511,-0.624614,0.203148,-0.624733,0.199396,-0.625883,0.171396,-0.633883,0.169694,-0.634354,0.169533,-0.634397,
0.167952,-0.634806,0.139952,-0.641806,0.136422,-0.642622,0.136088,-0.642693,0.132810,-0.643334,0.104810,-0.648334,0.102814,-0.648670,0.102618,-0.648701,0.100620,-0.648996,0.071620,-0.652996,0.068232,-0.653406,0.067905,-0.653440,0.064623,-0.653728,0.036623,-0.655728,0.034891,-0.655837,0.034707,-0.655847,0.032687,-0.655936,0.003687,-0.656936,0.000172,-0.656997,-0.000172,-0.656997,
-0.003687,-0.656936,-0.032687,-0.655936,-0.034707,-0.655847,-0.034891,-0.655837,-0.036623,-0.655728,-0.064623,-0.653728,-0.067905,-0.653440,-0.068232,-0.653406,-0.071620,-0.652996,-0.100620,-0.648996,-0.102618,-0.648701,-0.102814,-0.648670,-0.104810,-0.648334,-0.132810,-0.643334,-0.136088,-0.642693,-0.136422,-0.642622,-0.139952,-0.641806,-0.167952,-0.634806,-0.169533,-0.634397,-0.169694,-0.634354,
-0.171396,-0.633883,-0.199396,-0.625883,-0.203148,-0.624733,-0.203511,-0.624614,-0.207163,-0.623339,-0.234163,-0.613339,-0.236289,-0.612525,-0.236438,-0.612466,-0.237370,-0.612091,-0.264370,-0.601091,-0.266228,-0.600313,-0.266437,-0.600223,-0.268839,-0.599152,-0.294839,-0.587152,-0.298337,-0.585456,-0.298685,-0.585279,-0.302281,-0.583359,-0.327281,-0.569359,-0.329219,-0.568245,-0.329348,-0.568169,
-0.330051,-0.567751,-0.355051,-0.552751,-0.357745,-0.551077,-0.358028,-0.550895,-0.361104,-0.548837,-0.384104,-0.532837,-0.386300,-0.531266,-0.386527,-0.531099,-0.388945,-0.529264,-0.411945,-0.511264,-0.413671,-0.509883,-0.435755,-0.491815,-0.438678,-0.489330,-0.438960,-0.489081,-0.441793,-0.486483,-0.462793,-0.466483,-0.464573,-0.464746,-0.464746,-0.464573,-0.466483,-0.462793,-0.486483,-0.441793,
-0.489081,-0.438960,-0.489330,-0.438678,-0.491815,-0.435755,-0.509883,-0.413671,-0.511264,-0.411945,-0.529264,-0.388945,-0.531099,-0.386527,-0.531266,-0.386300,-0.532837,-0.384104,-0.548837,-0.361104,-0.550895,-0.358028,-0.551077,-0.357745,-0.552751,-0.355051,-0.567751,-0.330051,-0.568169,-0.329348,-0.568245,-0.329219,-0.569359,-0.327281,-0.583359,-0.302281,-0.585279,-0.298685,-0.585456,-0.298337,
-0.587152,-0.294839,-0.599152,-0.268839,-0.600223,-0.266437,-0.600313,-0.266228,-0.601091,-0.264370,-0.612091,-0.237370,-0.612466,-0.236438,-0.612525,-0.236289,-0.613339,-0.234163,-0.623339,-0.207163,-0.624614,-0.203511,-0.624733,-0.203148,-0.625883,-0.199396,-0.633883,-0.171396,-0.634354,-0.169694,-0.634397,-0.169533,-0.634806,-0.167952,-0.641806,-0.139952,-0.642622,-0.136422,-0.642693,-0.136088,
-0.643334,-0.132810,-0.648334,-0.104810,-0.648670,-0.102814,-0.648701,-0.102618,-0.648996,-0.100620,-0.652996,-0.071620,-0.653406,-0.068232,-0.653440,-0.067905,-0.653728,-0.064623,-0.655728,-0.036623,-0.655837,-0.034891,-0.655847,-0.034707,-0.655936,-0.032687,-0.656936,-0.003687,-0.656981,-0.001951,-0.656984,-0.001779,-0.657000,0.000000,-0.657000,1.506000,-0.655678,1.522366,-0.655421,1.523947,
-0.654726,1.526768,-0.654678,1.527366,-0.654421,1.528947,-0.650509,1.544836,-0.647509,1.553836,-0.644994,1.560577,-0.644723,1.561232,-0.644675,1.561335,-0.644509,1.561836,-0.642038,1.567119,-0.641704,1.567852,-0.641572,1.568115,-0.634534,1.583165,-0.633327,1.585120,-0.629819,1.589553,-0.629534,1.590165,-0.628327,1.592120,-0.613661,1.610661,-0.605661,1.618661,-0.587120,1.633327,
-0.585165,1.634534,-0.584776,1.634715,-0.584353,1.635029,-0.581353,1.637029,-0.575944,1.640396,-0.575406,1.640708,-0.569852,1.643704,-0.567852,1.644704,-0.561232,1.647723,-0.560577,1.647994,-0.557533,1.649129,-0.556232,1.649723,-0.555577,1.649994,-0.548836,1.652509,-0.539836,1.655509,-0.523947,1.659421,-0.522366,1.659678,-0.521768,1.659726,-0.518947,1.660421,-0.517366,1.660678,
-0.501000,1.662000,0.501000,1.662000,0.517366,1.660678,0.517366,1.660678,$1*%
%AMFreePoly5*
4,1,323,0.517366,1.660678,0.518947,1.660421,0.521768,1.659726,0.522366,1.659678,0.523947,1.659421,0.539836,1.655509,0.548836,1.652509,0.555577,1.649994,0.556232,1.649723,0.557533,1.649129,0.560577,1.647994,0.561232,1.647723,0.567852,1.644704,0.569852,1.643704,0.575406,1.640708,0.575944,1.640396,0.581353,1.637029,0.584353,1.635029,0.584776,1.634715,0.585165,1.634534,
0.587120,1.633327,0.605661,1.618661,0.613661,1.610661,0.628327,1.592120,0.629534,1.590165,0.629819,1.589553,0.633327,1.585120,0.634534,1.583165,0.641572,1.568115,0.641704,1.567852,0.642038,1.567119,0.644509,1.561836,0.644675,1.561335,0.644723,1.561232,0.644994,1.560577,0.647509,1.553836,0.650509,1.544836,0.654421,1.528947,0.654678,1.527366,0.654726,1.526768,
0.655421,1.523947,0.655678,1.522366,0.657000,1.506000,0.657000,0.000000,0.656984,-0.001779,0.656981,-0.001951,0.656936,-0.003687,0.655936,-0.032687,0.655847,-0.034707,0.655837,-0.034891,0.655728,-0.036623,0.653728,-0.064623,0.653440,-0.067905,0.653406,-0.068232,0.652996,-0.071620,0.648996,-0.100620,0.648701,-0.102618,0.648670,-0.102814,0.648334,-0.104810,0.643334,-0.132810,
0.642693,-0.136088,0.642622,-0.136422,0.641806,-0.139952,0.634806,-0.167952,0.634397,-0.169533,0.634354,-0.169694,0.633883,-0.171396,0.625883,-0.199396,0.624733,-0.203148,0.624614,-0.203511,0.623339,-0.207163,0.613339,-0.234163,0.612525,-0.236289,0.612466,-0.236438,0.612091,-0.237370,0.601091,-0.264370,0.600313,-0.266228,0.600223,-0.266437,0.599152,-0.268839,0.587152,-0.294839,
0.585456,-0.298337,0.585279,-0.298685,0.583359,-0.302281,0.569359,-0.327281,0.568245,-0.329219,0.568169,-0.329348,0.567751,-0.330051,0.552751,-0.355051,0.551077,-0.357745,0.550895,-0.358028,0.548837,-0.361104,0.532837,-0.384104,0.531266,-0.386300,0.531099,-0.386527,0.529264,-0.388945,0.511264,-0.411945,0.509883,-0.413671,0.491815,-0.435755,0.489330,-0.438678,0.489081,-0.438960,
0.486483,-0.441793,0.466483,-0.462793,0.464746,-0.464573,0.464573,-0.464746,0.462793,-0.466483,0.441793,-0.486483,0.438960,-0.489081,0.438678,-0.489330,0.435755,-0.491815,0.413671,-0.509883,0.411945,-0.511264,0.388945,-0.529264,0.386527,-0.531099,0.386300,-0.531266,0.384104,-0.532837,0.361104,-0.548837,0.358028,-0.550895,0.357745,-0.551077,0.355051,-0.552751,0.330051,-0.567751,
0.329348,-0.568169,0.329219,-0.568245,0.327281,-0.569359,0.302281,-0.583359,0.298685,-0.585279,0.298337,-0.585456,0.294839,-0.587152,0.268839,-0.599152,0.266437,-0.600223,0.266228,-0.600313,0.264370,-0.601091,0.237370,-0.612091,0.236438,-0.612466,0.236289,-0.612525,0.234163,-0.613339,0.207163,-0.623339,0.203511,-0.624614,0.203148,-0.624733,0.199396,-0.625883,0.171396,-0.633883,
0.169694,-0.634354,0.169533,-0.634397,0.167952,-0.634806,0.139952,-0.641806,0.136422,-0.642622,0.136088,-0.642693,0.132810,-0.643334,0.104810,-0.648334,0.102814,-0.648670,0.102618,-0.648701,0.100620,-0.648996,0.071620,-0.652996,0.068232,-0.653406,0.067905,-0.653440,0.064623,-0.653728,0.036623,-0.655728,0.034891,-0.655837,0.034707,-0.655847,0.032687,-0.655936,0.003687,-0.656936,
0.000172,-0.656997,-0.000172,-0.656997,-0.003687,-0.656936,-0.032687,-0.655936,-0.034707,-0.655847,-0.034891,-0.655837,-0.036623,-0.655728,-0.064623,-0.653728,-0.067905,-0.653440,-0.068232,-0.653406,-0.071620,-0.652996,-0.100620,-0.648996,-0.102618,-0.648701,-0.102814,-0.648670,-0.104810,-0.648334,-0.132810,-0.643334,-0.136088,-0.642693,-0.136422,-0.642622,-0.139952,-0.641806,-0.167952,-0.634806,
-0.169533,-0.634397,-0.169694,-0.634354,-0.171396,-0.633883,-0.199396,-0.625883,-0.203148,-0.624733,-0.203511,-0.624614,-0.207163,-0.623339,-0.234163,-0.613339,-0.236289,-0.612525,-0.236438,-0.612466,-0.237370,-0.612091,-0.264370,-0.601091,-0.266228,-0.600313,-0.266437,-0.600223,-0.268839,-0.599152,-0.294839,-0.587152,-0.298337,-0.585456,-0.298685,-0.585279,-0.302281,-0.583359,-0.327281,-0.569359,
-0.329219,-0.568245,-0.329348,-0.568169,-0.330051,-0.567751,-0.355051,-0.552751,-0.357745,-0.551077,-0.358028,-0.550895,-0.361104,-0.548837,-0.384104,-0.532837,-0.386300,-0.531266,-0.386527,-0.531099,-0.388945,-0.529264,-0.411945,-0.511264,-0.413671,-0.509883,-0.435755,-0.491815,-0.438678,-0.489330,-0.438960,-0.489081,-0.441793,-0.486483,-0.462793,-0.466483,-0.464573,-0.464746,-0.464746,-0.464573,
-0.466483,-0.462793,-0.486483,-0.441793,-0.489081,-0.438960,-0.489330,-0.438678,-0.491815,-0.435755,-0.509883,-0.413671,-0.511264,-0.411945,-0.529264,-0.388945,-0.531099,-0.386527,-0.531266,-0.386300,-0.532837,-0.384104,-0.548837,-0.361104,-0.550895,-0.358028,-0.551077,-0.357745,-0.552751,-0.355051,-0.567751,-0.330051,-0.568169,-0.329348,-0.568245,-0.329219,-0.569359,-0.327281,-0.583359,-0.302281,
-0.585279,-0.298685,-0.585456,-0.298337,-0.587152,-0.294839,-0.599152,-0.268839,-0.600223,-0.266437,-0.600313,-0.266228,-0.601091,-0.264370,-0.612091,-0.237370,-0.612466,-0.236438,-0.612525,-0.236289,-0.613339,-0.234163,-0.623339,-0.207163,-0.624614,-0.203511,-0.624733,-0.203148,-0.625883,-0.199396,-0.633883,-0.171396,-0.634354,-0.169694,-0.634397,-0.169533,-0.634806,-0.167952,-0.641806,-0.139952,
-0.642622,-0.136422,-0.642693,-0.136088,-0.643334,-0.132810,-0.648334,-0.104810,-0.648670,-0.102814,-0.648701,-0.102618,-0.648996,-0.100620,-0.652996,-0.071620,-0.653406,-0.068232,-0.653440,-0.067905,-0.653728,-0.064623,-0.655728,-0.036623,-0.655837,-0.034891,-0.655847,-0.034707,-0.655936,-0.032687,-0.656936,-0.003687,-0.656981,-0.001951,-0.656984,-0.001779,-0.657000,0.000000,-0.657000,1.506000,
-0.655678,1.522366,-0.655421,1.523947,-0.654726,1.526768,-0.654678,1.527366,-0.654421,1.528947,-0.650509,1.544836,-0.647509,1.553836,-0.644994,1.560577,-0.644723,1.561232,-0.644675,1.561335,-0.644509,1.561836,-0.642038,1.567119,-0.641704,1.567852,-0.641572,1.568115,-0.634534,1.583165,-0.633327,1.585120,-0.629819,1.589553,-0.629534,1.590165,-0.628327,1.592120,-0.613661,1.610661,
-0.605661,1.618661,-0.587120,1.633327,-0.585165,1.634534,-0.584553,1.634819,-0.580120,1.638327,-0.578165,1.639534,-0.563115,1.646572,-0.562852,1.646704,-0.562119,1.647038,-0.556836,1.649509,-0.556335,1.649675,-0.556232,1.649723,-0.555577,1.649994,-0.548836,1.652509,-0.539836,1.655509,-0.523947,1.659421,-0.522366,1.659678,-0.521768,1.659726,-0.518947,1.660421,-0.517366,1.660678,
-0.501000,1.662000,0.501000,1.662000,0.517366,1.660678,0.517366,1.660678,$1*%
G04 Aperture macros list end*
%ADD10C,0.010000*%
%ADD11R,1.700000X1.700000*%
%ADD12C,1.700000*%
%ADD13C,4.700000*%
%ADD14C,1.400000*%
%ADD15O,2.200000X3.500000*%
%ADD16R,1.500000X2.500000*%
%ADD17O,1.500000X2.500000*%
%ADD18RoundRect,0.250000X-0.750000X0.600000X-0.750000X-0.600000X0.750000X-0.600000X0.750000X0.600000X0*%
%ADD19O,2.000000X1.700000*%
%ADD20FreePoly0,180.000000*%
%ADD21FreePoly1,180.000000*%
%ADD22FreePoly2,180.000000*%
%ADD23FreePoly3,180.000000*%
%ADD24FreePoly4,180.000000*%
%ADD25FreePoly5,180.000000*%
G04 APERTURE END LIST*
D10*
%TO.C,U1*%
X35152000Y-27079000D02*
X35197000Y-27083000D01*
X35242000Y-27089000D01*
X35286000Y-27097000D01*
X35330000Y-27107000D01*
X35373000Y-27120000D01*
X35416000Y-27135000D01*
X35458000Y-27153000D01*
X35498000Y-27172000D01*
X35538000Y-27193000D01*
X35576000Y-27217000D01*
X35614000Y-27243000D01*
X35649000Y-27270000D01*
X35684000Y-27299000D01*
X35717000Y-27330000D01*
X35748000Y-27363000D01*
X35777000Y-27398000D01*
X35804000Y-27433000D01*
X35830000Y-27471000D01*
X35854000Y-27509000D01*
X35875000Y-27549000D01*
X35894000Y-27589000D01*
X35912000Y-27631000D01*
X35927000Y-27674000D01*
X35940000Y-27717000D01*
X35950000Y-27761000D01*
X35958000Y-27805000D01*
X35964000Y-27850000D01*
X35968000Y-27895000D01*
X35969000Y-27940000D01*
X35968000Y-27985000D01*
X35964000Y-28030000D01*
X35958000Y-28075000D01*
X35950000Y-28119000D01*
X35940000Y-28163000D01*
X35927000Y-28206000D01*
X35912000Y-28249000D01*
X35894000Y-28291000D01*
X35875000Y-28331000D01*
X35854000Y-28371000D01*
X35830000Y-28409000D01*
X35804000Y-28447000D01*
X35777000Y-28482000D01*
X35748000Y-28517000D01*
X35717000Y-28550000D01*
X35684000Y-28581000D01*
X35649000Y-28610000D01*
X35614000Y-28637000D01*
X35576000Y-28663000D01*
X35538000Y-28687000D01*
X35498000Y-28708000D01*
X35458000Y-28727000D01*
X35416000Y-28745000D01*
X35373000Y-28760000D01*
X35330000Y-28773000D01*
X35286000Y-28783000D01*
X35242000Y-28791000D01*
X35197000Y-28797000D01*
X35152000Y-28801000D01*
X35107000Y-28802000D01*
X33232000Y-28802000D01*
X33223000Y-28802000D01*
X33214000Y-28801000D01*
X33204000Y-28800000D01*
X33195000Y-28798000D01*
X33186000Y-28796000D01*
X33178000Y-28793000D01*
X33169000Y-28790000D01*
X33160000Y-28787000D01*
X33152000Y-28783000D01*
X33144000Y-28778000D01*
X33136000Y-28774000D01*
X33129000Y-28768000D01*
X33121000Y-28763000D01*
X33114000Y-28757000D01*
X33108000Y-28750000D01*
X33101000Y-28744000D01*
X33095000Y-28737000D01*
X33090000Y-28729000D01*
X33084000Y-28722000D01*
X33080000Y-28714000D01*
X33075000Y-28706000D01*
X33071000Y-28698000D01*
X33068000Y-28689000D01*
X33065000Y-28680000D01*
X33062000Y-28672000D01*
X33060000Y-28663000D01*
X33058000Y-28654000D01*
X33057000Y-28644000D01*
X33056000Y-28635000D01*
X33056000Y-28626000D01*
X33056000Y-27254000D01*
X33056000Y-27245000D01*
X33057000Y-27236000D01*
X33058000Y-27226000D01*
X33060000Y-27217000D01*
X33062000Y-27208000D01*
X33065000Y-27200000D01*
X33068000Y-27191000D01*
X33071000Y-27182000D01*
X33075000Y-27174000D01*
X33080000Y-27166000D01*
X33084000Y-27158000D01*
X33090000Y-27151000D01*
X33095000Y-27143000D01*
X33101000Y-27136000D01*
X33108000Y-27130000D01*
X33114000Y-27123000D01*
X33121000Y-27117000D01*
X33129000Y-27112000D01*
X33136000Y-27106000D01*
X33144000Y-27102000D01*
X33152000Y-27097000D01*
X33160000Y-27093000D01*
X33169000Y-27090000D01*
X33178000Y-27087000D01*
X33186000Y-27084000D01*
X33195000Y-27082000D01*
X33204000Y-27080000D01*
X33214000Y-27079000D01*
X33223000Y-27078000D01*
X33232000Y-27078000D01*
X35107000Y-27078000D01*
X35152000Y-27079000D01*
G36*
X35152000Y-27079000D02*
G01*
X35197000Y-27083000D01*
X35242000Y-27089000D01*
X35286000Y-27097000D01*
X35330000Y-27107000D01*
X35373000Y-27120000D01*
X35416000Y-27135000D01*
X35458000Y-27153000D01*
X35498000Y-27172000D01*
X35538000Y-27193000D01*
X35576000Y-27217000D01*
X35614000Y-27243000D01*
X35649000Y-27270000D01*
X35684000Y-27299000D01*
X35717000Y-27330000D01*
X35748000Y-27363000D01*
X35777000Y-27398000D01*
X35804000Y-27433000D01*
X35830000Y-27471000D01*
X35854000Y-27509000D01*
X35875000Y-27549000D01*
X35894000Y-27589000D01*
X35912000Y-27631000D01*
X35927000Y-27674000D01*
X35940000Y-27717000D01*
X35950000Y-27761000D01*
X35958000Y-27805000D01*
X35964000Y-27850000D01*
X35968000Y-27895000D01*
X35969000Y-27940000D01*
X35968000Y-27985000D01*
X35964000Y-28030000D01*
X35958000Y-28075000D01*
X35950000Y-28119000D01*
X35940000Y-28163000D01*
X35927000Y-28206000D01*
X35912000Y-28249000D01*
X35894000Y-28291000D01*
X35875000Y-28331000D01*
X35854000Y-28371000D01*
X35830000Y-28409000D01*
X35804000Y-28447000D01*
X35777000Y-28482000D01*
X35748000Y-28517000D01*
X35717000Y-28550000D01*
X35684000Y-28581000D01*
X35649000Y-28610000D01*
X35614000Y-28637000D01*
X35576000Y-28663000D01*
X35538000Y-28687000D01*
X35498000Y-28708000D01*
X35458000Y-28727000D01*
X35416000Y-28745000D01*
X35373000Y-28760000D01*
X35330000Y-28773000D01*
X35286000Y-28783000D01*
X35242000Y-28791000D01*
X35197000Y-28797000D01*
X35152000Y-28801000D01*
X35107000Y-28802000D01*
X33232000Y-28802000D01*
X33223000Y-28802000D01*
X33214000Y-28801000D01*
X33204000Y-28800000D01*
X33195000Y-28798000D01*
X33186000Y-28796000D01*
X33178000Y-28793000D01*
X33169000Y-28790000D01*
X33160000Y-28787000D01*
X33152000Y-28783000D01*
X33144000Y-28778000D01*
X33136000Y-28774000D01*
X33129000Y-28768000D01*
X33121000Y-28763000D01*
X33114000Y-28757000D01*
X33108000Y-28750000D01*
X33101000Y-28744000D01*
X33095000Y-28737000D01*
X33090000Y-28729000D01*
X33084000Y-28722000D01*
X33080000Y-28714000D01*
X33075000Y-28706000D01*
X33071000Y-28698000D01*
X33068000Y-28689000D01*
X33065000Y-28680000D01*
X33062000Y-28672000D01*
X33060000Y-28663000D01*
X33058000Y-28654000D01*
X33057000Y-28644000D01*
X33056000Y-28635000D01*
X33056000Y-28626000D01*
X33056000Y-27254000D01*
X33056000Y-27245000D01*
X33057000Y-27236000D01*
X33058000Y-27226000D01*
X33060000Y-27217000D01*
X33062000Y-27208000D01*
X33065000Y-27200000D01*
X33068000Y-27191000D01*
X33071000Y-27182000D01*
X33075000Y-27174000D01*
X33080000Y-27166000D01*
X33084000Y-27158000D01*
X33090000Y-27151000D01*
X33095000Y-27143000D01*
X33101000Y-27136000D01*
X33108000Y-27130000D01*
X33114000Y-27123000D01*
X33121000Y-27117000D01*
X33129000Y-27112000D01*
X33136000Y-27106000D01*
X33144000Y-27102000D01*
X33152000Y-27097000D01*
X33160000Y-27093000D01*
X33169000Y-27090000D01*
X33178000Y-27087000D01*
X33186000Y-27084000D01*
X33195000Y-27082000D01*
X33204000Y-27080000D01*
X33214000Y-27079000D01*
X33223000Y-27078000D01*
X33232000Y-27078000D01*
X35107000Y-27078000D01*
X35152000Y-27079000D01*
G37*
X35152000Y-29619000D02*
X35197000Y-29623000D01*
X35242000Y-29629000D01*
X35286000Y-29637000D01*
X35330000Y-29647000D01*
X35373000Y-29660000D01*
X35416000Y-29675000D01*
X35458000Y-29693000D01*
X35498000Y-29712000D01*
X35538000Y-29733000D01*
X35576000Y-29757000D01*
X35614000Y-29783000D01*
X35649000Y-29810000D01*
X35684000Y-29839000D01*
X35717000Y-29870000D01*
X35748000Y-29903000D01*
X35777000Y-29938000D01*
X35804000Y-29973000D01*
X35830000Y-30011000D01*
X35854000Y-30049000D01*
X35875000Y-30089000D01*
X35894000Y-30129000D01*
X35912000Y-30171000D01*
X35927000Y-30214000D01*
X35940000Y-30257000D01*
X35950000Y-30301000D01*
X35958000Y-30345000D01*
X35964000Y-30390000D01*
X35968000Y-30435000D01*
X35969000Y-30480000D01*
X35968000Y-30525000D01*
X35964000Y-30570000D01*
X35958000Y-30615000D01*
X35950000Y-30659000D01*
X35940000Y-30703000D01*
X35927000Y-30746000D01*
X35912000Y-30789000D01*
X35894000Y-30831000D01*
X35875000Y-30871000D01*
X35854000Y-30911000D01*
X35830000Y-30949000D01*
X35804000Y-30987000D01*
X35777000Y-31022000D01*
X35748000Y-31057000D01*
X35717000Y-31090000D01*
X35684000Y-31121000D01*
X35649000Y-31150000D01*
X35614000Y-31177000D01*
X35576000Y-31203000D01*
X35538000Y-31227000D01*
X35498000Y-31248000D01*
X35458000Y-31267000D01*
X35416000Y-31285000D01*
X35373000Y-31300000D01*
X35330000Y-31313000D01*
X35286000Y-31323000D01*
X35242000Y-31331000D01*
X35197000Y-31337000D01*
X35152000Y-31341000D01*
X35107000Y-31342000D01*
X33232000Y-31342000D01*
X33223000Y-31342000D01*
X33214000Y-31341000D01*
X33204000Y-31340000D01*
X33195000Y-31338000D01*
X33186000Y-31336000D01*
X33178000Y-31333000D01*
X33169000Y-31330000D01*
X33160000Y-31327000D01*
X33152000Y-31323000D01*
X33144000Y-31318000D01*
X33136000Y-31314000D01*
X33129000Y-31308000D01*
X33121000Y-31303000D01*
X33114000Y-31297000D01*
X33108000Y-31290000D01*
X33101000Y-31284000D01*
X33095000Y-31277000D01*
X33090000Y-31269000D01*
X33084000Y-31262000D01*
X33080000Y-31254000D01*
X33075000Y-31246000D01*
X33071000Y-31238000D01*
X33068000Y-31229000D01*
X33065000Y-31220000D01*
X33062000Y-31212000D01*
X33060000Y-31203000D01*
X33058000Y-31194000D01*
X33057000Y-31184000D01*
X33056000Y-31175000D01*
X33056000Y-31166000D01*
X33056000Y-29794000D01*
X33056000Y-29785000D01*
X33057000Y-29776000D01*
X33058000Y-29766000D01*
X33060000Y-29757000D01*
X33062000Y-29748000D01*
X33065000Y-29740000D01*
X33068000Y-29731000D01*
X33071000Y-29722000D01*
X33075000Y-29714000D01*
X33080000Y-29706000D01*
X33084000Y-29698000D01*
X33090000Y-29691000D01*
X33095000Y-29683000D01*
X33101000Y-29676000D01*
X33108000Y-29670000D01*
X33114000Y-29663000D01*
X33121000Y-29657000D01*
X33129000Y-29652000D01*
X33136000Y-29646000D01*
X33144000Y-29642000D01*
X33152000Y-29637000D01*
X33160000Y-29633000D01*
X33169000Y-29630000D01*
X33178000Y-29627000D01*
X33186000Y-29624000D01*
X33195000Y-29622000D01*
X33204000Y-29620000D01*
X33214000Y-29619000D01*
X33223000Y-29618000D01*
X33232000Y-29618000D01*
X35107000Y-29618000D01*
X35152000Y-29619000D01*
G36*
X35152000Y-29619000D02*
G01*
X35197000Y-29623000D01*
X35242000Y-29629000D01*
X35286000Y-29637000D01*
X35330000Y-29647000D01*
X35373000Y-29660000D01*
X35416000Y-29675000D01*
X35458000Y-29693000D01*
X35498000Y-29712000D01*
X35538000Y-29733000D01*
X35576000Y-29757000D01*
X35614000Y-29783000D01*
X35649000Y-29810000D01*
X35684000Y-29839000D01*
X35717000Y-29870000D01*
X35748000Y-29903000D01*
X35777000Y-29938000D01*
X35804000Y-29973000D01*
X35830000Y-30011000D01*
X35854000Y-30049000D01*
X35875000Y-30089000D01*
X35894000Y-30129000D01*
X35912000Y-30171000D01*
X35927000Y-30214000D01*
X35940000Y-30257000D01*
X35950000Y-30301000D01*
X35958000Y-30345000D01*
X35964000Y-30390000D01*
X35968000Y-30435000D01*
X35969000Y-30480000D01*
X35968000Y-30525000D01*
X35964000Y-30570000D01*
X35958000Y-30615000D01*
X35950000Y-30659000D01*
X35940000Y-30703000D01*
X35927000Y-30746000D01*
X35912000Y-30789000D01*
X35894000Y-30831000D01*
X35875000Y-30871000D01*
X35854000Y-30911000D01*
X35830000Y-30949000D01*
X35804000Y-30987000D01*
X35777000Y-31022000D01*
X35748000Y-31057000D01*
X35717000Y-31090000D01*
X35684000Y-31121000D01*
X35649000Y-31150000D01*
X35614000Y-31177000D01*
X35576000Y-31203000D01*
X35538000Y-31227000D01*
X35498000Y-31248000D01*
X35458000Y-31267000D01*
X35416000Y-31285000D01*
X35373000Y-31300000D01*
X35330000Y-31313000D01*
X35286000Y-31323000D01*
X35242000Y-31331000D01*
X35197000Y-31337000D01*
X35152000Y-31341000D01*
X35107000Y-31342000D01*
X33232000Y-31342000D01*
X33223000Y-31342000D01*
X33214000Y-31341000D01*
X33204000Y-31340000D01*
X33195000Y-31338000D01*
X33186000Y-31336000D01*
X33178000Y-31333000D01*
X33169000Y-31330000D01*
X33160000Y-31327000D01*
X33152000Y-31323000D01*
X33144000Y-31318000D01*
X33136000Y-31314000D01*
X33129000Y-31308000D01*
X33121000Y-31303000D01*
X33114000Y-31297000D01*
X33108000Y-31290000D01*
X33101000Y-31284000D01*
X33095000Y-31277000D01*
X33090000Y-31269000D01*
X33084000Y-31262000D01*
X33080000Y-31254000D01*
X33075000Y-31246000D01*
X33071000Y-31238000D01*
X33068000Y-31229000D01*
X33065000Y-31220000D01*
X33062000Y-31212000D01*
X33060000Y-31203000D01*
X33058000Y-31194000D01*
X33057000Y-31184000D01*
X33056000Y-31175000D01*
X33056000Y-31166000D01*
X33056000Y-29794000D01*
X33056000Y-29785000D01*
X33057000Y-29776000D01*
X33058000Y-29766000D01*
X33060000Y-29757000D01*
X33062000Y-29748000D01*
X33065000Y-29740000D01*
X33068000Y-29731000D01*
X33071000Y-29722000D01*
X33075000Y-29714000D01*
X33080000Y-29706000D01*
X33084000Y-29698000D01*
X33090000Y-29691000D01*
X33095000Y-29683000D01*
X33101000Y-29676000D01*
X33108000Y-29670000D01*
X33114000Y-29663000D01*
X33121000Y-29657000D01*
X33129000Y-29652000D01*
X33136000Y-29646000D01*
X33144000Y-29642000D01*
X33152000Y-29637000D01*
X33160000Y-29633000D01*
X33169000Y-29630000D01*
X33178000Y-29627000D01*
X33186000Y-29624000D01*
X33195000Y-29622000D01*
X33204000Y-29620000D01*
X33214000Y-29619000D01*
X33223000Y-29618000D01*
X33232000Y-29618000D01*
X35107000Y-29618000D01*
X35152000Y-29619000D01*
G37*
X35152000Y-32159000D02*
X35197000Y-32163000D01*
X35242000Y-32169000D01*
X35286000Y-32177000D01*
X35330000Y-32187000D01*
X35373000Y-32200000D01*
X35416000Y-32215000D01*
X35458000Y-32233000D01*
X35498000Y-32252000D01*
X35538000Y-32273000D01*
X35576000Y-32297000D01*
X35614000Y-32323000D01*
X35649000Y-32350000D01*
X35684000Y-32379000D01*
X35717000Y-32410000D01*
X35748000Y-32443000D01*
X35777000Y-32478000D01*
X35804000Y-32513000D01*
X35830000Y-32551000D01*
X35854000Y-32589000D01*
X35875000Y-32629000D01*
X35894000Y-32669000D01*
X35912000Y-32711000D01*
X35927000Y-32754000D01*
X35940000Y-32797000D01*
X35950000Y-32841000D01*
X35958000Y-32885000D01*
X35964000Y-32930000D01*
X35968000Y-32975000D01*
X35969000Y-33020000D01*
X35968000Y-33065000D01*
X35964000Y-33110000D01*
X35958000Y-33155000D01*
X35950000Y-33199000D01*
X35940000Y-33243000D01*
X35927000Y-33286000D01*
X35912000Y-33329000D01*
X35894000Y-33371000D01*
X35875000Y-33411000D01*
X35854000Y-33451000D01*
X35830000Y-33489000D01*
X35804000Y-33527000D01*
X35777000Y-33562000D01*
X35748000Y-33597000D01*
X35717000Y-33630000D01*
X35684000Y-33661000D01*
X35649000Y-33690000D01*
X35614000Y-33717000D01*
X35576000Y-33743000D01*
X35538000Y-33767000D01*
X35498000Y-33788000D01*
X35458000Y-33807000D01*
X35416000Y-33825000D01*
X35373000Y-33840000D01*
X35330000Y-33853000D01*
X35286000Y-33863000D01*
X35242000Y-33871000D01*
X35197000Y-33877000D01*
X35152000Y-33881000D01*
X35107000Y-33882000D01*
X33232000Y-33882000D01*
X33223000Y-33882000D01*
X33214000Y-33881000D01*
X33204000Y-33880000D01*
X33195000Y-33878000D01*
X33186000Y-33876000D01*
X33178000Y-33873000D01*
X33169000Y-33870000D01*
X33160000Y-33867000D01*
X33152000Y-33863000D01*
X33144000Y-33858000D01*
X33136000Y-33854000D01*
X33129000Y-33848000D01*
X33121000Y-33843000D01*
X33114000Y-33837000D01*
X33108000Y-33830000D01*
X33101000Y-33824000D01*
X33095000Y-33817000D01*
X33090000Y-33809000D01*
X33084000Y-33802000D01*
X33080000Y-33794000D01*
X33075000Y-33786000D01*
X33071000Y-33778000D01*
X33068000Y-33769000D01*
X33065000Y-33760000D01*
X33062000Y-33752000D01*
X33060000Y-33743000D01*
X33058000Y-33734000D01*
X33057000Y-33724000D01*
X33056000Y-33715000D01*
X33056000Y-33706000D01*
X33056000Y-32334000D01*
X33056000Y-32325000D01*
X33057000Y-32316000D01*
X33058000Y-32306000D01*
X33060000Y-32297000D01*
X33062000Y-32288000D01*
X33065000Y-32280000D01*
X33068000Y-32271000D01*
X33071000Y-32262000D01*
X33075000Y-32254000D01*
X33080000Y-32246000D01*
X33084000Y-32238000D01*
X33090000Y-32231000D01*
X33095000Y-32223000D01*
X33101000Y-32216000D01*
X33108000Y-32210000D01*
X33114000Y-32203000D01*
X33121000Y-32197000D01*
X33129000Y-32192000D01*
X33136000Y-32186000D01*
X33144000Y-32182000D01*
X33152000Y-32177000D01*
X33160000Y-32173000D01*
X33169000Y-32170000D01*
X33178000Y-32167000D01*
X33186000Y-32164000D01*
X33195000Y-32162000D01*
X33204000Y-32160000D01*
X33214000Y-32159000D01*
X33223000Y-32158000D01*
X33232000Y-32158000D01*
X35107000Y-32158000D01*
X35152000Y-32159000D01*
G36*
X35152000Y-32159000D02*
G01*
X35197000Y-32163000D01*
X35242000Y-32169000D01*
X35286000Y-32177000D01*
X35330000Y-32187000D01*
X35373000Y-32200000D01*
X35416000Y-32215000D01*
X35458000Y-32233000D01*
X35498000Y-32252000D01*
X35538000Y-32273000D01*
X35576000Y-32297000D01*
X35614000Y-32323000D01*
X35649000Y-32350000D01*
X35684000Y-32379000D01*
X35717000Y-32410000D01*
X35748000Y-32443000D01*
X35777000Y-32478000D01*
X35804000Y-32513000D01*
X35830000Y-32551000D01*
X35854000Y-32589000D01*
X35875000Y-32629000D01*
X35894000Y-32669000D01*
X35912000Y-32711000D01*
X35927000Y-32754000D01*
X35940000Y-32797000D01*
X35950000Y-32841000D01*
X35958000Y-32885000D01*
X35964000Y-32930000D01*
X35968000Y-32975000D01*
X35969000Y-33020000D01*
X35968000Y-33065000D01*
X35964000Y-33110000D01*
X35958000Y-33155000D01*
X35950000Y-33199000D01*
X35940000Y-33243000D01*
X35927000Y-33286000D01*
X35912000Y-33329000D01*
X35894000Y-33371000D01*
X35875000Y-33411000D01*
X35854000Y-33451000D01*
X35830000Y-33489000D01*
X35804000Y-33527000D01*
X35777000Y-33562000D01*
X35748000Y-33597000D01*
X35717000Y-33630000D01*
X35684000Y-33661000D01*
X35649000Y-33690000D01*
X35614000Y-33717000D01*
X35576000Y-33743000D01*
X35538000Y-33767000D01*
X35498000Y-33788000D01*
X35458000Y-33807000D01*
X35416000Y-33825000D01*
X35373000Y-33840000D01*
X35330000Y-33853000D01*
X35286000Y-33863000D01*
X35242000Y-33871000D01*
X35197000Y-33877000D01*
X35152000Y-33881000D01*
X35107000Y-33882000D01*
X33232000Y-33882000D01*
X33223000Y-33882000D01*
X33214000Y-33881000D01*
X33204000Y-33880000D01*
X33195000Y-33878000D01*
X33186000Y-33876000D01*
X33178000Y-33873000D01*
X33169000Y-33870000D01*
X33160000Y-33867000D01*
X33152000Y-33863000D01*
X33144000Y-33858000D01*
X33136000Y-33854000D01*
X33129000Y-33848000D01*
X33121000Y-33843000D01*
X33114000Y-33837000D01*
X33108000Y-33830000D01*
X33101000Y-33824000D01*
X33095000Y-33817000D01*
X33090000Y-33809000D01*
X33084000Y-33802000D01*
X33080000Y-33794000D01*
X33075000Y-33786000D01*
X33071000Y-33778000D01*
X33068000Y-33769000D01*
X33065000Y-33760000D01*
X33062000Y-33752000D01*
X33060000Y-33743000D01*
X33058000Y-33734000D01*
X33057000Y-33724000D01*
X33056000Y-33715000D01*
X33056000Y-33706000D01*
X33056000Y-32334000D01*
X33056000Y-32325000D01*
X33057000Y-32316000D01*
X33058000Y-32306000D01*
X33060000Y-32297000D01*
X33062000Y-32288000D01*
X33065000Y-32280000D01*
X33068000Y-32271000D01*
X33071000Y-32262000D01*
X33075000Y-32254000D01*
X33080000Y-32246000D01*
X33084000Y-32238000D01*
X33090000Y-32231000D01*
X33095000Y-32223000D01*
X33101000Y-32216000D01*
X33108000Y-32210000D01*
X33114000Y-32203000D01*
X33121000Y-32197000D01*
X33129000Y-32192000D01*
X33136000Y-32186000D01*
X33144000Y-32182000D01*
X33152000Y-32177000D01*
X33160000Y-32173000D01*
X33169000Y-32170000D01*
X33178000Y-32167000D01*
X33186000Y-32164000D01*
X33195000Y-32162000D01*
X33204000Y-32160000D01*
X33214000Y-32159000D01*
X33223000Y-32158000D01*
X33232000Y-32158000D01*
X35107000Y-32158000D01*
X35152000Y-32159000D01*
G37*
X35152000Y-34699000D02*
X35197000Y-34703000D01*
X35242000Y-34709000D01*
X35286000Y-34717000D01*
X35330000Y-34727000D01*
X35373000Y-34740000D01*
X35416000Y-34755000D01*
X35458000Y-34773000D01*
X35498000Y-34792000D01*
X35538000Y-34813000D01*
X35576000Y-34837000D01*
X35614000Y-34863000D01*
X35649000Y-34890000D01*
X35684000Y-34919000D01*
X35717000Y-34950000D01*
X35748000Y-34983000D01*
X35777000Y-35018000D01*
X35804000Y-35053000D01*
X35830000Y-35091000D01*
X35854000Y-35129000D01*
X35875000Y-35169000D01*
X35894000Y-35209000D01*
X35912000Y-35251000D01*
X35927000Y-35294000D01*
X35940000Y-35337000D01*
X35950000Y-35381000D01*
X35958000Y-35425000D01*
X35964000Y-35470000D01*
X35968000Y-35515000D01*
X35969000Y-35560000D01*
X35968000Y-35605000D01*
X35964000Y-35650000D01*
X35958000Y-35695000D01*
X35950000Y-35739000D01*
X35940000Y-35783000D01*
X35927000Y-35826000D01*
X35912000Y-35869000D01*
X35894000Y-35911000D01*
X35875000Y-35951000D01*
X35854000Y-35991000D01*
X35830000Y-36029000D01*
X35804000Y-36067000D01*
X35777000Y-36102000D01*
X35748000Y-36137000D01*
X35717000Y-36170000D01*
X35684000Y-36201000D01*
X35649000Y-36230000D01*
X35614000Y-36257000D01*
X35576000Y-36283000D01*
X35538000Y-36307000D01*
X35498000Y-36328000D01*
X35458000Y-36347000D01*
X35416000Y-36365000D01*
X35373000Y-36380000D01*
X35330000Y-36393000D01*
X35286000Y-36403000D01*
X35242000Y-36411000D01*
X35197000Y-36417000D01*
X35152000Y-36421000D01*
X35107000Y-36422000D01*
X33232000Y-36422000D01*
X33223000Y-36422000D01*
X33214000Y-36421000D01*
X33204000Y-36420000D01*
X33195000Y-36418000D01*
X33186000Y-36416000D01*
X33178000Y-36413000D01*
X33169000Y-36410000D01*
X33160000Y-36407000D01*
X33152000Y-36403000D01*
X33144000Y-36398000D01*
X33136000Y-36394000D01*
X33129000Y-36388000D01*
X33121000Y-36383000D01*
X33114000Y-36377000D01*
X33108000Y-36370000D01*
X33101000Y-36364000D01*
X33095000Y-36357000D01*
X33090000Y-36349000D01*
X33084000Y-36342000D01*
X33080000Y-36334000D01*
X33075000Y-36326000D01*
X33071000Y-36318000D01*
X33068000Y-36309000D01*
X33065000Y-36300000D01*
X33062000Y-36292000D01*
X33060000Y-36283000D01*
X33058000Y-36274000D01*
X33057000Y-36264000D01*
X33056000Y-36255000D01*
X33056000Y-36246000D01*
X33056000Y-34874000D01*
X33056000Y-34865000D01*
X33057000Y-34856000D01*
X33058000Y-34846000D01*
X33060000Y-34837000D01*
X33062000Y-34828000D01*
X33065000Y-34820000D01*
X33068000Y-34811000D01*
X33071000Y-34802000D01*
X33075000Y-34794000D01*
X33080000Y-34786000D01*
X33084000Y-34778000D01*
X33090000Y-34771000D01*
X33095000Y-34763000D01*
X33101000Y-34756000D01*
X33108000Y-34750000D01*
X33114000Y-34743000D01*
X33121000Y-34737000D01*
X33129000Y-34732000D01*
X33136000Y-34726000D01*
X33144000Y-34722000D01*
X33152000Y-34717000D01*
X33160000Y-34713000D01*
X33169000Y-34710000D01*
X33178000Y-34707000D01*
X33186000Y-34704000D01*
X33195000Y-34702000D01*
X33204000Y-34700000D01*
X33214000Y-34699000D01*
X33223000Y-34698000D01*
X33232000Y-34698000D01*
X35107000Y-34698000D01*
X35152000Y-34699000D01*
G36*
X35152000Y-34699000D02*
G01*
X35197000Y-34703000D01*
X35242000Y-34709000D01*
X35286000Y-34717000D01*
X35330000Y-34727000D01*
X35373000Y-34740000D01*
X35416000Y-34755000D01*
X35458000Y-34773000D01*
X35498000Y-34792000D01*
X35538000Y-34813000D01*
X35576000Y-34837000D01*
X35614000Y-34863000D01*
X35649000Y-34890000D01*
X35684000Y-34919000D01*
X35717000Y-34950000D01*
X35748000Y-34983000D01*
X35777000Y-35018000D01*
X35804000Y-35053000D01*
X35830000Y-35091000D01*
X35854000Y-35129000D01*
X35875000Y-35169000D01*
X35894000Y-35209000D01*
X35912000Y-35251000D01*
X35927000Y-35294000D01*
X35940000Y-35337000D01*
X35950000Y-35381000D01*
X35958000Y-35425000D01*
X35964000Y-35470000D01*
X35968000Y-35515000D01*
X35969000Y-35560000D01*
X35968000Y-35605000D01*
X35964000Y-35650000D01*
X35958000Y-35695000D01*
X35950000Y-35739000D01*
X35940000Y-35783000D01*
X35927000Y-35826000D01*
X35912000Y-35869000D01*
X35894000Y-35911000D01*
X35875000Y-35951000D01*
X35854000Y-35991000D01*
X35830000Y-36029000D01*
X35804000Y-36067000D01*
X35777000Y-36102000D01*
X35748000Y-36137000D01*
X35717000Y-36170000D01*
X35684000Y-36201000D01*
X35649000Y-36230000D01*
X35614000Y-36257000D01*
X35576000Y-36283000D01*
X35538000Y-36307000D01*
X35498000Y-36328000D01*
X35458000Y-36347000D01*
X35416000Y-36365000D01*
X35373000Y-36380000D01*
X35330000Y-36393000D01*
X35286000Y-36403000D01*
X35242000Y-36411000D01*
X35197000Y-36417000D01*
X35152000Y-36421000D01*
X35107000Y-36422000D01*
X33232000Y-36422000D01*
X33223000Y-36422000D01*
X33214000Y-36421000D01*
X33204000Y-36420000D01*
X33195000Y-36418000D01*
X33186000Y-36416000D01*
X33178000Y-36413000D01*
X33169000Y-36410000D01*
X33160000Y-36407000D01*
X33152000Y-36403000D01*
X33144000Y-36398000D01*
X33136000Y-36394000D01*
X33129000Y-36388000D01*
X33121000Y-36383000D01*
X33114000Y-36377000D01*
X33108000Y-36370000D01*
X33101000Y-36364000D01*
X33095000Y-36357000D01*
X33090000Y-36349000D01*
X33084000Y-36342000D01*
X33080000Y-36334000D01*
X33075000Y-36326000D01*
X33071000Y-36318000D01*
X33068000Y-36309000D01*
X33065000Y-36300000D01*
X33062000Y-36292000D01*
X33060000Y-36283000D01*
X33058000Y-36274000D01*
X33057000Y-36264000D01*
X33056000Y-36255000D01*
X33056000Y-36246000D01*
X33056000Y-34874000D01*
X33056000Y-34865000D01*
X33057000Y-34856000D01*
X33058000Y-34846000D01*
X33060000Y-34837000D01*
X33062000Y-34828000D01*
X33065000Y-34820000D01*
X33068000Y-34811000D01*
X33071000Y-34802000D01*
X33075000Y-34794000D01*
X33080000Y-34786000D01*
X33084000Y-34778000D01*
X33090000Y-34771000D01*
X33095000Y-34763000D01*
X33101000Y-34756000D01*
X33108000Y-34750000D01*
X33114000Y-34743000D01*
X33121000Y-34737000D01*
X33129000Y-34732000D01*
X33136000Y-34726000D01*
X33144000Y-34722000D01*
X33152000Y-34717000D01*
X33160000Y-34713000D01*
X33169000Y-34710000D01*
X33178000Y-34707000D01*
X33186000Y-34704000D01*
X33195000Y-34702000D01*
X33204000Y-34700000D01*
X33214000Y-34699000D01*
X33223000Y-34698000D01*
X33232000Y-34698000D01*
X35107000Y-34698000D01*
X35152000Y-34699000D01*
G37*
X35152000Y-37239000D02*
X35197000Y-37243000D01*
X35242000Y-37249000D01*
X35286000Y-37257000D01*
X35330000Y-37267000D01*
X35373000Y-37280000D01*
X35416000Y-37295000D01*
X35458000Y-37313000D01*
X35498000Y-37332000D01*
X35538000Y-37353000D01*
X35576000Y-37377000D01*
X35614000Y-37403000D01*
X35649000Y-37430000D01*
X35684000Y-37459000D01*
X35717000Y-37490000D01*
X35748000Y-37523000D01*
X35777000Y-37558000D01*
X35804000Y-37593000D01*
X35830000Y-37631000D01*
X35854000Y-37669000D01*
X35875000Y-37709000D01*
X35894000Y-37749000D01*
X35912000Y-37791000D01*
X35927000Y-37834000D01*
X35940000Y-37877000D01*
X35950000Y-37921000D01*
X35958000Y-37965000D01*
X35964000Y-38010000D01*
X35968000Y-38055000D01*
X35969000Y-38100000D01*
X35968000Y-38145000D01*
X35964000Y-38190000D01*
X35958000Y-38235000D01*
X35950000Y-38279000D01*
X35940000Y-38323000D01*
X35927000Y-38366000D01*
X35912000Y-38409000D01*
X35894000Y-38451000D01*
X35875000Y-38491000D01*
X35854000Y-38531000D01*
X35830000Y-38569000D01*
X35804000Y-38607000D01*
X35777000Y-38642000D01*
X35748000Y-38677000D01*
X35717000Y-38710000D01*
X35684000Y-38741000D01*
X35649000Y-38770000D01*
X35614000Y-38797000D01*
X35576000Y-38823000D01*
X35538000Y-38847000D01*
X35498000Y-38868000D01*
X35458000Y-38887000D01*
X35416000Y-38905000D01*
X35373000Y-38920000D01*
X35330000Y-38933000D01*
X35286000Y-38943000D01*
X35242000Y-38951000D01*
X35197000Y-38957000D01*
X35152000Y-38961000D01*
X35107000Y-38962000D01*
X33232000Y-38962000D01*
X33223000Y-38962000D01*
X33214000Y-38961000D01*
X33204000Y-38960000D01*
X33195000Y-38958000D01*
X33186000Y-38956000D01*
X33178000Y-38953000D01*
X33169000Y-38950000D01*
X33160000Y-38947000D01*
X33152000Y-38943000D01*
X33144000Y-38938000D01*
X33136000Y-38934000D01*
X33129000Y-38928000D01*
X33121000Y-38923000D01*
X33114000Y-38917000D01*
X33108000Y-38910000D01*
X33101000Y-38904000D01*
X33095000Y-38897000D01*
X33090000Y-38889000D01*
X33084000Y-38882000D01*
X33080000Y-38874000D01*
X33075000Y-38866000D01*
X33071000Y-38858000D01*
X33068000Y-38849000D01*
X33065000Y-38840000D01*
X33062000Y-38832000D01*
X33060000Y-38823000D01*
X33058000Y-38814000D01*
X33057000Y-38804000D01*
X33056000Y-38795000D01*
X33056000Y-38786000D01*
X33056000Y-37414000D01*
X33056000Y-37405000D01*
X33057000Y-37396000D01*
X33058000Y-37386000D01*
X33060000Y-37377000D01*
X33062000Y-37368000D01*
X33065000Y-37360000D01*
X33068000Y-37351000D01*
X33071000Y-37342000D01*
X33075000Y-37334000D01*
X33080000Y-37326000D01*
X33084000Y-37318000D01*
X33090000Y-37311000D01*
X33095000Y-37303000D01*
X33101000Y-37296000D01*
X33108000Y-37290000D01*
X33114000Y-37283000D01*
X33121000Y-37277000D01*
X33129000Y-37272000D01*
X33136000Y-37266000D01*
X33144000Y-37262000D01*
X33152000Y-37257000D01*
X33160000Y-37253000D01*
X33169000Y-37250000D01*
X33178000Y-37247000D01*
X33186000Y-37244000D01*
X33195000Y-37242000D01*
X33204000Y-37240000D01*
X33214000Y-37239000D01*
X33223000Y-37238000D01*
X33232000Y-37238000D01*
X35107000Y-37238000D01*
X35152000Y-37239000D01*
G36*
X35152000Y-37239000D02*
G01*
X35197000Y-37243000D01*
X35242000Y-37249000D01*
X35286000Y-37257000D01*
X35330000Y-37267000D01*
X35373000Y-37280000D01*
X35416000Y-37295000D01*
X35458000Y-37313000D01*
X35498000Y-37332000D01*
X35538000Y-37353000D01*
X35576000Y-37377000D01*
X35614000Y-37403000D01*
X35649000Y-37430000D01*
X35684000Y-37459000D01*
X35717000Y-37490000D01*
X35748000Y-37523000D01*
X35777000Y-37558000D01*
X35804000Y-37593000D01*
X35830000Y-37631000D01*
X35854000Y-37669000D01*
X35875000Y-37709000D01*
X35894000Y-37749000D01*
X35912000Y-37791000D01*
X35927000Y-37834000D01*
X35940000Y-37877000D01*
X35950000Y-37921000D01*
X35958000Y-37965000D01*
X35964000Y-38010000D01*
X35968000Y-38055000D01*
X35969000Y-38100000D01*
X35968000Y-38145000D01*
X35964000Y-38190000D01*
X35958000Y-38235000D01*
X35950000Y-38279000D01*
X35940000Y-38323000D01*
X35927000Y-38366000D01*
X35912000Y-38409000D01*
X35894000Y-38451000D01*
X35875000Y-38491000D01*
X35854000Y-38531000D01*
X35830000Y-38569000D01*
X35804000Y-38607000D01*
X35777000Y-38642000D01*
X35748000Y-38677000D01*
X35717000Y-38710000D01*
X35684000Y-38741000D01*
X35649000Y-38770000D01*
X35614000Y-38797000D01*
X35576000Y-38823000D01*
X35538000Y-38847000D01*
X35498000Y-38868000D01*
X35458000Y-38887000D01*
X35416000Y-38905000D01*
X35373000Y-38920000D01*
X35330000Y-38933000D01*
X35286000Y-38943000D01*
X35242000Y-38951000D01*
X35197000Y-38957000D01*
X35152000Y-38961000D01*
X35107000Y-38962000D01*
X33232000Y-38962000D01*
X33223000Y-38962000D01*
X33214000Y-38961000D01*
X33204000Y-38960000D01*
X33195000Y-38958000D01*
X33186000Y-38956000D01*
X33178000Y-38953000D01*
X33169000Y-38950000D01*
X33160000Y-38947000D01*
X33152000Y-38943000D01*
X33144000Y-38938000D01*
X33136000Y-38934000D01*
X33129000Y-38928000D01*
X33121000Y-38923000D01*
X33114000Y-38917000D01*
X33108000Y-38910000D01*
X33101000Y-38904000D01*
X33095000Y-38897000D01*
X33090000Y-38889000D01*
X33084000Y-38882000D01*
X33080000Y-38874000D01*
X33075000Y-38866000D01*
X33071000Y-38858000D01*
X33068000Y-38849000D01*
X33065000Y-38840000D01*
X33062000Y-38832000D01*
X33060000Y-38823000D01*
X33058000Y-38814000D01*
X33057000Y-38804000D01*
X33056000Y-38795000D01*
X33056000Y-38786000D01*
X33056000Y-37414000D01*
X33056000Y-37405000D01*
X33057000Y-37396000D01*
X33058000Y-37386000D01*
X33060000Y-37377000D01*
X33062000Y-37368000D01*
X33065000Y-37360000D01*
X33068000Y-37351000D01*
X33071000Y-37342000D01*
X33075000Y-37334000D01*
X33080000Y-37326000D01*
X33084000Y-37318000D01*
X33090000Y-37311000D01*
X33095000Y-37303000D01*
X33101000Y-37296000D01*
X33108000Y-37290000D01*
X33114000Y-37283000D01*
X33121000Y-37277000D01*
X33129000Y-37272000D01*
X33136000Y-37266000D01*
X33144000Y-37262000D01*
X33152000Y-37257000D01*
X33160000Y-37253000D01*
X33169000Y-37250000D01*
X33178000Y-37247000D01*
X33186000Y-37244000D01*
X33195000Y-37242000D01*
X33204000Y-37240000D01*
X33214000Y-37239000D01*
X33223000Y-37238000D01*
X33232000Y-37238000D01*
X35107000Y-37238000D01*
X35152000Y-37239000D01*
G37*
X35152000Y-39779000D02*
X35197000Y-39783000D01*
X35242000Y-39789000D01*
X35286000Y-39797000D01*
X35330000Y-39807000D01*
X35373000Y-39820000D01*
X35416000Y-39835000D01*
X35458000Y-39853000D01*
X35498000Y-39872000D01*
X35538000Y-39893000D01*
X35576000Y-39917000D01*
X35614000Y-39943000D01*
X35649000Y-39970000D01*
X35684000Y-39999000D01*
X35717000Y-40030000D01*
X35748000Y-40063000D01*
X35777000Y-40098000D01*
X35804000Y-40133000D01*
X35830000Y-40171000D01*
X35854000Y-40209000D01*
X35875000Y-40249000D01*
X35894000Y-40289000D01*
X35912000Y-40331000D01*
X35927000Y-40374000D01*
X35940000Y-40417000D01*
X35950000Y-40461000D01*
X35958000Y-40505000D01*
X35964000Y-40550000D01*
X35968000Y-40595000D01*
X35969000Y-40640000D01*
X35968000Y-40685000D01*
X35964000Y-40730000D01*
X35958000Y-40775000D01*
X35950000Y-40819000D01*
X35940000Y-40863000D01*
X35927000Y-40906000D01*
X35912000Y-40949000D01*
X35894000Y-40991000D01*
X35875000Y-41031000D01*
X35854000Y-41071000D01*
X35830000Y-41109000D01*
X35804000Y-41147000D01*
X35777000Y-41182000D01*
X35748000Y-41217000D01*
X35717000Y-41250000D01*
X35684000Y-41281000D01*
X35649000Y-41310000D01*
X35614000Y-41337000D01*
X35576000Y-41363000D01*
X35538000Y-41387000D01*
X35498000Y-41408000D01*
X35458000Y-41427000D01*
X35416000Y-41445000D01*
X35373000Y-41460000D01*
X35330000Y-41473000D01*
X35286000Y-41483000D01*
X35242000Y-41491000D01*
X35197000Y-41497000D01*
X35152000Y-41501000D01*
X35107000Y-41502000D01*
X33232000Y-41502000D01*
X33223000Y-41502000D01*
X33214000Y-41501000D01*
X33204000Y-41500000D01*
X33195000Y-41498000D01*
X33186000Y-41496000D01*
X33178000Y-41493000D01*
X33169000Y-41490000D01*
X33160000Y-41487000D01*
X33152000Y-41483000D01*
X33144000Y-41478000D01*
X33136000Y-41474000D01*
X33129000Y-41468000D01*
X33121000Y-41463000D01*
X33114000Y-41457000D01*
X33108000Y-41450000D01*
X33101000Y-41444000D01*
X33095000Y-41437000D01*
X33090000Y-41429000D01*
X33084000Y-41422000D01*
X33080000Y-41414000D01*
X33075000Y-41406000D01*
X33071000Y-41398000D01*
X33068000Y-41389000D01*
X33065000Y-41380000D01*
X33062000Y-41372000D01*
X33060000Y-41363000D01*
X33058000Y-41354000D01*
X33057000Y-41344000D01*
X33056000Y-41335000D01*
X33056000Y-41326000D01*
X33056000Y-39954000D01*
X33056000Y-39945000D01*
X33057000Y-39936000D01*
X33058000Y-39926000D01*
X33060000Y-39917000D01*
X33062000Y-39908000D01*
X33065000Y-39900000D01*
X33068000Y-39891000D01*
X33071000Y-39882000D01*
X33075000Y-39874000D01*
X33080000Y-39866000D01*
X33084000Y-39858000D01*
X33090000Y-39851000D01*
X33095000Y-39843000D01*
X33101000Y-39836000D01*
X33108000Y-39830000D01*
X33114000Y-39823000D01*
X33121000Y-39817000D01*
X33129000Y-39812000D01*
X33136000Y-39806000D01*
X33144000Y-39802000D01*
X33152000Y-39797000D01*
X33160000Y-39793000D01*
X33169000Y-39790000D01*
X33178000Y-39787000D01*
X33186000Y-39784000D01*
X33195000Y-39782000D01*
X33204000Y-39780000D01*
X33214000Y-39779000D01*
X33223000Y-39778000D01*
X33232000Y-39778000D01*
X35107000Y-39778000D01*
X35152000Y-39779000D01*
G36*
X35152000Y-39779000D02*
G01*
X35197000Y-39783000D01*
X35242000Y-39789000D01*
X35286000Y-39797000D01*
X35330000Y-39807000D01*
X35373000Y-39820000D01*
X35416000Y-39835000D01*
X35458000Y-39853000D01*
X35498000Y-39872000D01*
X35538000Y-39893000D01*
X35576000Y-39917000D01*
X35614000Y-39943000D01*
X35649000Y-39970000D01*
X35684000Y-39999000D01*
X35717000Y-40030000D01*
X35748000Y-40063000D01*
X35777000Y-40098000D01*
X35804000Y-40133000D01*
X35830000Y-40171000D01*
X35854000Y-40209000D01*
X35875000Y-40249000D01*
X35894000Y-40289000D01*
X35912000Y-40331000D01*
X35927000Y-40374000D01*
X35940000Y-40417000D01*
X35950000Y-40461000D01*
X35958000Y-40505000D01*
X35964000Y-40550000D01*
X35968000Y-40595000D01*
X35969000Y-40640000D01*
X35968000Y-40685000D01*
X35964000Y-40730000D01*
X35958000Y-40775000D01*
X35950000Y-40819000D01*
X35940000Y-40863000D01*
X35927000Y-40906000D01*
X35912000Y-40949000D01*
X35894000Y-40991000D01*
X35875000Y-41031000D01*
X35854000Y-41071000D01*
X35830000Y-41109000D01*
X35804000Y-41147000D01*
X35777000Y-41182000D01*
X35748000Y-41217000D01*
X35717000Y-41250000D01*
X35684000Y-41281000D01*
X35649000Y-41310000D01*
X35614000Y-41337000D01*
X35576000Y-41363000D01*
X35538000Y-41387000D01*
X35498000Y-41408000D01*
X35458000Y-41427000D01*
X35416000Y-41445000D01*
X35373000Y-41460000D01*
X35330000Y-41473000D01*
X35286000Y-41483000D01*
X35242000Y-41491000D01*
X35197000Y-41497000D01*
X35152000Y-41501000D01*
X35107000Y-41502000D01*
X33232000Y-41502000D01*
X33223000Y-41502000D01*
X33214000Y-41501000D01*
X33204000Y-41500000D01*
X33195000Y-41498000D01*
X33186000Y-41496000D01*
X33178000Y-41493000D01*
X33169000Y-41490000D01*
X33160000Y-41487000D01*
X33152000Y-41483000D01*
X33144000Y-41478000D01*
X33136000Y-41474000D01*
X33129000Y-41468000D01*
X33121000Y-41463000D01*
X33114000Y-41457000D01*
X33108000Y-41450000D01*
X33101000Y-41444000D01*
X33095000Y-41437000D01*
X33090000Y-41429000D01*
X33084000Y-41422000D01*
X33080000Y-41414000D01*
X33075000Y-41406000D01*
X33071000Y-41398000D01*
X33068000Y-41389000D01*
X33065000Y-41380000D01*
X33062000Y-41372000D01*
X33060000Y-41363000D01*
X33058000Y-41354000D01*
X33057000Y-41344000D01*
X33056000Y-41335000D01*
X33056000Y-41326000D01*
X33056000Y-39954000D01*
X33056000Y-39945000D01*
X33057000Y-39936000D01*
X33058000Y-39926000D01*
X33060000Y-39917000D01*
X33062000Y-39908000D01*
X33065000Y-39900000D01*
X33068000Y-39891000D01*
X33071000Y-39882000D01*
X33075000Y-39874000D01*
X33080000Y-39866000D01*
X33084000Y-39858000D01*
X33090000Y-39851000D01*
X33095000Y-39843000D01*
X33101000Y-39836000D01*
X33108000Y-39830000D01*
X33114000Y-39823000D01*
X33121000Y-39817000D01*
X33129000Y-39812000D01*
X33136000Y-39806000D01*
X33144000Y-39802000D01*
X33152000Y-39797000D01*
X33160000Y-39793000D01*
X33169000Y-39790000D01*
X33178000Y-39787000D01*
X33186000Y-39784000D01*
X33195000Y-39782000D01*
X33204000Y-39780000D01*
X33214000Y-39779000D01*
X33223000Y-39778000D01*
X33232000Y-39778000D01*
X35107000Y-39778000D01*
X35152000Y-39779000D01*
G37*
X35152000Y-42319000D02*
X35197000Y-42323000D01*
X35242000Y-42329000D01*
X35286000Y-42337000D01*
X35330000Y-42347000D01*
X35373000Y-42360000D01*
X35416000Y-42375000D01*
X35458000Y-42393000D01*
X35498000Y-42412000D01*
X35538000Y-42433000D01*
X35576000Y-42457000D01*
X35614000Y-42483000D01*
X35649000Y-42510000D01*
X35684000Y-42539000D01*
X35717000Y-42570000D01*
X35748000Y-42603000D01*
X35777000Y-42638000D01*
X35804000Y-42673000D01*
X35830000Y-42711000D01*
X35854000Y-42749000D01*
X35875000Y-42789000D01*
X35894000Y-42829000D01*
X35912000Y-42871000D01*
X35927000Y-42914000D01*
X35940000Y-42957000D01*
X35950000Y-43001000D01*
X35958000Y-43045000D01*
X35964000Y-43090000D01*
X35968000Y-43135000D01*
X35969000Y-43180000D01*
X35968000Y-43225000D01*
X35964000Y-43270000D01*
X35958000Y-43315000D01*
X35950000Y-43359000D01*
X35940000Y-43403000D01*
X35927000Y-43446000D01*
X35912000Y-43489000D01*
X35894000Y-43531000D01*
X35875000Y-43571000D01*
X35854000Y-43611000D01*
X35830000Y-43649000D01*
X35804000Y-43687000D01*
X35777000Y-43722000D01*
X35748000Y-43757000D01*
X35717000Y-43790000D01*
X35684000Y-43821000D01*
X35649000Y-43850000D01*
X35614000Y-43877000D01*
X35576000Y-43903000D01*
X35538000Y-43927000D01*
X35498000Y-43948000D01*
X35458000Y-43967000D01*
X35416000Y-43985000D01*
X35373000Y-44000000D01*
X35330000Y-44013000D01*
X35286000Y-44023000D01*
X35242000Y-44031000D01*
X35197000Y-44037000D01*
X35152000Y-44041000D01*
X35107000Y-44042000D01*
X33232000Y-44042000D01*
X33223000Y-44042000D01*
X33214000Y-44041000D01*
X33204000Y-44040000D01*
X33195000Y-44038000D01*
X33186000Y-44036000D01*
X33178000Y-44033000D01*
X33169000Y-44030000D01*
X33160000Y-44027000D01*
X33152000Y-44023000D01*
X33144000Y-44018000D01*
X33136000Y-44014000D01*
X33129000Y-44008000D01*
X33121000Y-44003000D01*
X33114000Y-43997000D01*
X33108000Y-43990000D01*
X33101000Y-43984000D01*
X33095000Y-43977000D01*
X33090000Y-43969000D01*
X33084000Y-43962000D01*
X33080000Y-43954000D01*
X33075000Y-43946000D01*
X33071000Y-43938000D01*
X33068000Y-43929000D01*
X33065000Y-43920000D01*
X33062000Y-43912000D01*
X33060000Y-43903000D01*
X33058000Y-43894000D01*
X33057000Y-43884000D01*
X33056000Y-43875000D01*
X33056000Y-43866000D01*
X33056000Y-42494000D01*
X33056000Y-42485000D01*
X33057000Y-42476000D01*
X33058000Y-42466000D01*
X33060000Y-42457000D01*
X33062000Y-42448000D01*
X33065000Y-42440000D01*
X33068000Y-42431000D01*
X33071000Y-42422000D01*
X33075000Y-42414000D01*
X33080000Y-42406000D01*
X33084000Y-42398000D01*
X33090000Y-42391000D01*
X33095000Y-42383000D01*
X33101000Y-42376000D01*
X33108000Y-42370000D01*
X33114000Y-42363000D01*
X33121000Y-42357000D01*
X33129000Y-42352000D01*
X33136000Y-42346000D01*
X33144000Y-42342000D01*
X33152000Y-42337000D01*
X33160000Y-42333000D01*
X33169000Y-42330000D01*
X33178000Y-42327000D01*
X33186000Y-42324000D01*
X33195000Y-42322000D01*
X33204000Y-42320000D01*
X33214000Y-42319000D01*
X33223000Y-42318000D01*
X33232000Y-42318000D01*
X35107000Y-42318000D01*
X35152000Y-42319000D01*
G36*
X35152000Y-42319000D02*
G01*
X35197000Y-42323000D01*
X35242000Y-42329000D01*
X35286000Y-42337000D01*
X35330000Y-42347000D01*
X35373000Y-42360000D01*
X35416000Y-42375000D01*
X35458000Y-42393000D01*
X35498000Y-42412000D01*
X35538000Y-42433000D01*
X35576000Y-42457000D01*
X35614000Y-42483000D01*
X35649000Y-42510000D01*
X35684000Y-42539000D01*
X35717000Y-42570000D01*
X35748000Y-42603000D01*
X35777000Y-42638000D01*
X35804000Y-42673000D01*
X35830000Y-42711000D01*
X35854000Y-42749000D01*
X35875000Y-42789000D01*
X35894000Y-42829000D01*
X35912000Y-42871000D01*
X35927000Y-42914000D01*
X35940000Y-42957000D01*
X35950000Y-43001000D01*
X35958000Y-43045000D01*
X35964000Y-43090000D01*
X35968000Y-43135000D01*
X35969000Y-43180000D01*
X35968000Y-43225000D01*
X35964000Y-43270000D01*
X35958000Y-43315000D01*
X35950000Y-43359000D01*
X35940000Y-43403000D01*
X35927000Y-43446000D01*
X35912000Y-43489000D01*
X35894000Y-43531000D01*
X35875000Y-43571000D01*
X35854000Y-43611000D01*
X35830000Y-43649000D01*
X35804000Y-43687000D01*
X35777000Y-43722000D01*
X35748000Y-43757000D01*
X35717000Y-43790000D01*
X35684000Y-43821000D01*
X35649000Y-43850000D01*
X35614000Y-43877000D01*
X35576000Y-43903000D01*
X35538000Y-43927000D01*
X35498000Y-43948000D01*
X35458000Y-43967000D01*
X35416000Y-43985000D01*
X35373000Y-44000000D01*
X35330000Y-44013000D01*
X35286000Y-44023000D01*
X35242000Y-44031000D01*
X35197000Y-44037000D01*
X35152000Y-44041000D01*
X35107000Y-44042000D01*
X33232000Y-44042000D01*
X33223000Y-44042000D01*
X33214000Y-44041000D01*
X33204000Y-44040000D01*
X33195000Y-44038000D01*
X33186000Y-44036000D01*
X33178000Y-44033000D01*
X33169000Y-44030000D01*
X33160000Y-44027000D01*
X33152000Y-44023000D01*
X33144000Y-44018000D01*
X33136000Y-44014000D01*
X33129000Y-44008000D01*
X33121000Y-44003000D01*
X33114000Y-43997000D01*
X33108000Y-43990000D01*
X33101000Y-43984000D01*
X33095000Y-43977000D01*
X33090000Y-43969000D01*
X33084000Y-43962000D01*
X33080000Y-43954000D01*
X33075000Y-43946000D01*
X33071000Y-43938000D01*
X33068000Y-43929000D01*
X33065000Y-43920000D01*
X33062000Y-43912000D01*
X33060000Y-43903000D01*
X33058000Y-43894000D01*
X33057000Y-43884000D01*
X33056000Y-43875000D01*
X33056000Y-43866000D01*
X33056000Y-42494000D01*
X33056000Y-42485000D01*
X33057000Y-42476000D01*
X33058000Y-42466000D01*
X33060000Y-42457000D01*
X33062000Y-42448000D01*
X33065000Y-42440000D01*
X33068000Y-42431000D01*
X33071000Y-42422000D01*
X33075000Y-42414000D01*
X33080000Y-42406000D01*
X33084000Y-42398000D01*
X33090000Y-42391000D01*
X33095000Y-42383000D01*
X33101000Y-42376000D01*
X33108000Y-42370000D01*
X33114000Y-42363000D01*
X33121000Y-42357000D01*
X33129000Y-42352000D01*
X33136000Y-42346000D01*
X33144000Y-42342000D01*
X33152000Y-42337000D01*
X33160000Y-42333000D01*
X33169000Y-42330000D01*
X33178000Y-42327000D01*
X33186000Y-42324000D01*
X33195000Y-42322000D01*
X33204000Y-42320000D01*
X33214000Y-42319000D01*
X33223000Y-42318000D01*
X33232000Y-42318000D01*
X35107000Y-42318000D01*
X35152000Y-42319000D01*
G37*
X37773000Y-30851000D02*
X37820000Y-30855000D01*
X37867000Y-30861000D01*
X37913000Y-30870000D01*
X37959000Y-30881000D01*
X38004000Y-30894000D01*
X38049000Y-30910000D01*
X38092000Y-30928000D01*
X38135000Y-30948000D01*
X38176000Y-30971000D01*
X38216000Y-30995000D01*
X38255000Y-31022000D01*
X38292000Y-31051000D01*
X38328000Y-31081000D01*
X38362000Y-31114000D01*
X38395000Y-31148000D01*
X38425000Y-31184000D01*
X38454000Y-31221000D01*
X38481000Y-31260000D01*
X38505000Y-31300000D01*
X38528000Y-31341000D01*
X38548000Y-31384000D01*
X38566000Y-31427000D01*
X38582000Y-31472000D01*
X38595000Y-31517000D01*
X38606000Y-31563000D01*
X38615000Y-31609000D01*
X38621000Y-31656000D01*
X38625000Y-31703000D01*
X38626000Y-31750000D01*
X38625000Y-31797000D01*
X38621000Y-31844000D01*
X38615000Y-31891000D01*
X38606000Y-31937000D01*
X38595000Y-31983000D01*
X38582000Y-32028000D01*
X38566000Y-32073000D01*
X38548000Y-32116000D01*
X38528000Y-32159000D01*
X38505000Y-32200000D01*
X38481000Y-32240000D01*
X38454000Y-32279000D01*
X38425000Y-32316000D01*
X38395000Y-32352000D01*
X38362000Y-32386000D01*
X38328000Y-32419000D01*
X38292000Y-32449000D01*
X38255000Y-32478000D01*
X38216000Y-32505000D01*
X38176000Y-32529000D01*
X38135000Y-32552000D01*
X38092000Y-32572000D01*
X38049000Y-32590000D01*
X38004000Y-32606000D01*
X37959000Y-32619000D01*
X37913000Y-32630000D01*
X37867000Y-32639000D01*
X37820000Y-32645000D01*
X37773000Y-32649000D01*
X37726000Y-32650000D01*
X36396000Y-32650000D01*
X36387000Y-32650000D01*
X36378000Y-32649000D01*
X36369000Y-32648000D01*
X36361000Y-32646000D01*
X36352000Y-32644000D01*
X36343000Y-32642000D01*
X36335000Y-32639000D01*
X36327000Y-32635000D01*
X36319000Y-32631000D01*
X36311000Y-32627000D01*
X36303000Y-32623000D01*
X36296000Y-32618000D01*
X36289000Y-32612000D01*
X36282000Y-32606000D01*
X36276000Y-32600000D01*
X36270000Y-32594000D01*
X36264000Y-32587000D01*
X36258000Y-32580000D01*
X36253000Y-32573000D01*
X36249000Y-32565000D01*
X36245000Y-32557000D01*
X36241000Y-32549000D01*
X36237000Y-32541000D01*
X36234000Y-32533000D01*
X36232000Y-32524000D01*
X36230000Y-32515000D01*
X36228000Y-32507000D01*
X36227000Y-32498000D01*
X36226000Y-32489000D01*
X36226000Y-32480000D01*
X36226000Y-31020000D01*
X36226000Y-31011000D01*
X36227000Y-31002000D01*
X36228000Y-30993000D01*
X36230000Y-30985000D01*
X36232000Y-30976000D01*
X36234000Y-30967000D01*
X36237000Y-30959000D01*
X36241000Y-30951000D01*
X36245000Y-30943000D01*
X36249000Y-30935000D01*
X36253000Y-30927000D01*
X36258000Y-30920000D01*
X36264000Y-30913000D01*
X36270000Y-30906000D01*
X36276000Y-30900000D01*
X36282000Y-30894000D01*
X36289000Y-30888000D01*
X36296000Y-30882000D01*
X36303000Y-30877000D01*
X36311000Y-30873000D01*
X36319000Y-30869000D01*
X36327000Y-30865000D01*
X36335000Y-30861000D01*
X36343000Y-30858000D01*
X36352000Y-30856000D01*
X36361000Y-30854000D01*
X36369000Y-30852000D01*
X36378000Y-30851000D01*
X36387000Y-30850000D01*
X36396000Y-30850000D01*
X37726000Y-30850000D01*
X37773000Y-30851000D01*
G36*
X37773000Y-30851000D02*
G01*
X37820000Y-30855000D01*
X37867000Y-30861000D01*
X37913000Y-30870000D01*
X37959000Y-30881000D01*
X38004000Y-30894000D01*
X38049000Y-30910000D01*
X38092000Y-30928000D01*
X38135000Y-30948000D01*
X38176000Y-30971000D01*
X38216000Y-30995000D01*
X38255000Y-31022000D01*
X38292000Y-31051000D01*
X38328000Y-31081000D01*
X38362000Y-31114000D01*
X38395000Y-31148000D01*
X38425000Y-31184000D01*
X38454000Y-31221000D01*
X38481000Y-31260000D01*
X38505000Y-31300000D01*
X38528000Y-31341000D01*
X38548000Y-31384000D01*
X38566000Y-31427000D01*
X38582000Y-31472000D01*
X38595000Y-31517000D01*
X38606000Y-31563000D01*
X38615000Y-31609000D01*
X38621000Y-31656000D01*
X38625000Y-31703000D01*
X38626000Y-31750000D01*
X38625000Y-31797000D01*
X38621000Y-31844000D01*
X38615000Y-31891000D01*
X38606000Y-31937000D01*
X38595000Y-31983000D01*
X38582000Y-32028000D01*
X38566000Y-32073000D01*
X38548000Y-32116000D01*
X38528000Y-32159000D01*
X38505000Y-32200000D01*
X38481000Y-32240000D01*
X38454000Y-32279000D01*
X38425000Y-32316000D01*
X38395000Y-32352000D01*
X38362000Y-32386000D01*
X38328000Y-32419000D01*
X38292000Y-32449000D01*
X38255000Y-32478000D01*
X38216000Y-32505000D01*
X38176000Y-32529000D01*
X38135000Y-32552000D01*
X38092000Y-32572000D01*
X38049000Y-32590000D01*
X38004000Y-32606000D01*
X37959000Y-32619000D01*
X37913000Y-32630000D01*
X37867000Y-32639000D01*
X37820000Y-32645000D01*
X37773000Y-32649000D01*
X37726000Y-32650000D01*
X36396000Y-32650000D01*
X36387000Y-32650000D01*
X36378000Y-32649000D01*
X36369000Y-32648000D01*
X36361000Y-32646000D01*
X36352000Y-32644000D01*
X36343000Y-32642000D01*
X36335000Y-32639000D01*
X36327000Y-32635000D01*
X36319000Y-32631000D01*
X36311000Y-32627000D01*
X36303000Y-32623000D01*
X36296000Y-32618000D01*
X36289000Y-32612000D01*
X36282000Y-32606000D01*
X36276000Y-32600000D01*
X36270000Y-32594000D01*
X36264000Y-32587000D01*
X36258000Y-32580000D01*
X36253000Y-32573000D01*
X36249000Y-32565000D01*
X36245000Y-32557000D01*
X36241000Y-32549000D01*
X36237000Y-32541000D01*
X36234000Y-32533000D01*
X36232000Y-32524000D01*
X36230000Y-32515000D01*
X36228000Y-32507000D01*
X36227000Y-32498000D01*
X36226000Y-32489000D01*
X36226000Y-32480000D01*
X36226000Y-31020000D01*
X36226000Y-31011000D01*
X36227000Y-31002000D01*
X36228000Y-30993000D01*
X36230000Y-30985000D01*
X36232000Y-30976000D01*
X36234000Y-30967000D01*
X36237000Y-30959000D01*
X36241000Y-30951000D01*
X36245000Y-30943000D01*
X36249000Y-30935000D01*
X36253000Y-30927000D01*
X36258000Y-30920000D01*
X36264000Y-30913000D01*
X36270000Y-30906000D01*
X36276000Y-30900000D01*
X36282000Y-30894000D01*
X36289000Y-30888000D01*
X36296000Y-30882000D01*
X36303000Y-30877000D01*
X36311000Y-30873000D01*
X36319000Y-30869000D01*
X36327000Y-30865000D01*
X36335000Y-30861000D01*
X36343000Y-30858000D01*
X36352000Y-30856000D01*
X36361000Y-30854000D01*
X36369000Y-30852000D01*
X36378000Y-30851000D01*
X36387000Y-30850000D01*
X36396000Y-30850000D01*
X37726000Y-30850000D01*
X37773000Y-30851000D01*
G37*
X37773000Y-33391000D02*
X37820000Y-33395000D01*
X37867000Y-33401000D01*
X37913000Y-33410000D01*
X37959000Y-33421000D01*
X38004000Y-33434000D01*
X38049000Y-33450000D01*
X38092000Y-33468000D01*
X38135000Y-33488000D01*
X38176000Y-33511000D01*
X38216000Y-33535000D01*
X38255000Y-33562000D01*
X38292000Y-33591000D01*
X38328000Y-33621000D01*
X38362000Y-33654000D01*
X38395000Y-33688000D01*
X38425000Y-33724000D01*
X38454000Y-33761000D01*
X38481000Y-33800000D01*
X38505000Y-33840000D01*
X38528000Y-33881000D01*
X38548000Y-33924000D01*
X38566000Y-33967000D01*
X38582000Y-34012000D01*
X38595000Y-34057000D01*
X38606000Y-34103000D01*
X38615000Y-34149000D01*
X38621000Y-34196000D01*
X38625000Y-34243000D01*
X38626000Y-34290000D01*
X38625000Y-34337000D01*
X38621000Y-34384000D01*
X38615000Y-34431000D01*
X38606000Y-34477000D01*
X38595000Y-34523000D01*
X38582000Y-34568000D01*
X38566000Y-34613000D01*
X38548000Y-34656000D01*
X38528000Y-34699000D01*
X38505000Y-34740000D01*
X38481000Y-34780000D01*
X38454000Y-34819000D01*
X38425000Y-34856000D01*
X38395000Y-34892000D01*
X38362000Y-34926000D01*
X38328000Y-34959000D01*
X38292000Y-34989000D01*
X38255000Y-35018000D01*
X38216000Y-35045000D01*
X38176000Y-35069000D01*
X38135000Y-35092000D01*
X38092000Y-35112000D01*
X38049000Y-35130000D01*
X38004000Y-35146000D01*
X37959000Y-35159000D01*
X37913000Y-35170000D01*
X37867000Y-35179000D01*
X37820000Y-35185000D01*
X37773000Y-35189000D01*
X37726000Y-35190000D01*
X36396000Y-35190000D01*
X36387000Y-35190000D01*
X36378000Y-35189000D01*
X36369000Y-35188000D01*
X36361000Y-35186000D01*
X36352000Y-35184000D01*
X36343000Y-35182000D01*
X36335000Y-35179000D01*
X36327000Y-35175000D01*
X36319000Y-35171000D01*
X36311000Y-35167000D01*
X36303000Y-35163000D01*
X36296000Y-35158000D01*
X36289000Y-35152000D01*
X36282000Y-35146000D01*
X36276000Y-35140000D01*
X36270000Y-35134000D01*
X36264000Y-35127000D01*
X36258000Y-35120000D01*
X36253000Y-35113000D01*
X36249000Y-35105000D01*
X36245000Y-35097000D01*
X36241000Y-35089000D01*
X36237000Y-35081000D01*
X36234000Y-35073000D01*
X36232000Y-35064000D01*
X36230000Y-35055000D01*
X36228000Y-35047000D01*
X36227000Y-35038000D01*
X36226000Y-35029000D01*
X36226000Y-35020000D01*
X36226000Y-33560000D01*
X36226000Y-33551000D01*
X36227000Y-33542000D01*
X36228000Y-33533000D01*
X36230000Y-33525000D01*
X36232000Y-33516000D01*
X36234000Y-33507000D01*
X36237000Y-33499000D01*
X36241000Y-33491000D01*
X36245000Y-33483000D01*
X36249000Y-33475000D01*
X36253000Y-33467000D01*
X36258000Y-33460000D01*
X36264000Y-33453000D01*
X36270000Y-33446000D01*
X36276000Y-33440000D01*
X36282000Y-33434000D01*
X36289000Y-33428000D01*
X36296000Y-33422000D01*
X36303000Y-33417000D01*
X36311000Y-33413000D01*
X36319000Y-33409000D01*
X36327000Y-33405000D01*
X36335000Y-33401000D01*
X36343000Y-33398000D01*
X36352000Y-33396000D01*
X36361000Y-33394000D01*
X36369000Y-33392000D01*
X36378000Y-33391000D01*
X36387000Y-33390000D01*
X36396000Y-33390000D01*
X37726000Y-33390000D01*
X37773000Y-33391000D01*
G36*
X37773000Y-33391000D02*
G01*
X37820000Y-33395000D01*
X37867000Y-33401000D01*
X37913000Y-33410000D01*
X37959000Y-33421000D01*
X38004000Y-33434000D01*
X38049000Y-33450000D01*
X38092000Y-33468000D01*
X38135000Y-33488000D01*
X38176000Y-33511000D01*
X38216000Y-33535000D01*
X38255000Y-33562000D01*
X38292000Y-33591000D01*
X38328000Y-33621000D01*
X38362000Y-33654000D01*
X38395000Y-33688000D01*
X38425000Y-33724000D01*
X38454000Y-33761000D01*
X38481000Y-33800000D01*
X38505000Y-33840000D01*
X38528000Y-33881000D01*
X38548000Y-33924000D01*
X38566000Y-33967000D01*
X38582000Y-34012000D01*
X38595000Y-34057000D01*
X38606000Y-34103000D01*
X38615000Y-34149000D01*
X38621000Y-34196000D01*
X38625000Y-34243000D01*
X38626000Y-34290000D01*
X38625000Y-34337000D01*
X38621000Y-34384000D01*
X38615000Y-34431000D01*
X38606000Y-34477000D01*
X38595000Y-34523000D01*
X38582000Y-34568000D01*
X38566000Y-34613000D01*
X38548000Y-34656000D01*
X38528000Y-34699000D01*
X38505000Y-34740000D01*
X38481000Y-34780000D01*
X38454000Y-34819000D01*
X38425000Y-34856000D01*
X38395000Y-34892000D01*
X38362000Y-34926000D01*
X38328000Y-34959000D01*
X38292000Y-34989000D01*
X38255000Y-35018000D01*
X38216000Y-35045000D01*
X38176000Y-35069000D01*
X38135000Y-35092000D01*
X38092000Y-35112000D01*
X38049000Y-35130000D01*
X38004000Y-35146000D01*
X37959000Y-35159000D01*
X37913000Y-35170000D01*
X37867000Y-35179000D01*
X37820000Y-35185000D01*
X37773000Y-35189000D01*
X37726000Y-35190000D01*
X36396000Y-35190000D01*
X36387000Y-35190000D01*
X36378000Y-35189000D01*
X36369000Y-35188000D01*
X36361000Y-35186000D01*
X36352000Y-35184000D01*
X36343000Y-35182000D01*
X36335000Y-35179000D01*
X36327000Y-35175000D01*
X36319000Y-35171000D01*
X36311000Y-35167000D01*
X36303000Y-35163000D01*
X36296000Y-35158000D01*
X36289000Y-35152000D01*
X36282000Y-35146000D01*
X36276000Y-35140000D01*
X36270000Y-35134000D01*
X36264000Y-35127000D01*
X36258000Y-35120000D01*
X36253000Y-35113000D01*
X36249000Y-35105000D01*
X36245000Y-35097000D01*
X36241000Y-35089000D01*
X36237000Y-35081000D01*
X36234000Y-35073000D01*
X36232000Y-35064000D01*
X36230000Y-35055000D01*
X36228000Y-35047000D01*
X36227000Y-35038000D01*
X36226000Y-35029000D01*
X36226000Y-35020000D01*
X36226000Y-33560000D01*
X36226000Y-33551000D01*
X36227000Y-33542000D01*
X36228000Y-33533000D01*
X36230000Y-33525000D01*
X36232000Y-33516000D01*
X36234000Y-33507000D01*
X36237000Y-33499000D01*
X36241000Y-33491000D01*
X36245000Y-33483000D01*
X36249000Y-33475000D01*
X36253000Y-33467000D01*
X36258000Y-33460000D01*
X36264000Y-33453000D01*
X36270000Y-33446000D01*
X36276000Y-33440000D01*
X36282000Y-33434000D01*
X36289000Y-33428000D01*
X36296000Y-33422000D01*
X36303000Y-33417000D01*
X36311000Y-33413000D01*
X36319000Y-33409000D01*
X36327000Y-33405000D01*
X36335000Y-33401000D01*
X36343000Y-33398000D01*
X36352000Y-33396000D01*
X36361000Y-33394000D01*
X36369000Y-33392000D01*
X36378000Y-33391000D01*
X36387000Y-33390000D01*
X36396000Y-33390000D01*
X37726000Y-33390000D01*
X37773000Y-33391000D01*
G37*
X37773000Y-35931000D02*
X37820000Y-35935000D01*
X37867000Y-35941000D01*
X37913000Y-35950000D01*
X37959000Y-35961000D01*
X38004000Y-35974000D01*
X38049000Y-35990000D01*
X38092000Y-36008000D01*
X38135000Y-36028000D01*
X38176000Y-36051000D01*
X38216000Y-36075000D01*
X38255000Y-36102000D01*
X38292000Y-36131000D01*
X38328000Y-36161000D01*
X38362000Y-36194000D01*
X38395000Y-36228000D01*
X38425000Y-36264000D01*
X38454000Y-36301000D01*
X38481000Y-36340000D01*
X38505000Y-36380000D01*
X38528000Y-36421000D01*
X38548000Y-36464000D01*
X38566000Y-36507000D01*
X38582000Y-36552000D01*
X38595000Y-36597000D01*
X38606000Y-36643000D01*
X38615000Y-36689000D01*
X38621000Y-36736000D01*
X38625000Y-36783000D01*
X38626000Y-36830000D01*
X38625000Y-36877000D01*
X38621000Y-36924000D01*
X38615000Y-36971000D01*
X38606000Y-37017000D01*
X38595000Y-37063000D01*
X38582000Y-37108000D01*
X38566000Y-37153000D01*
X38548000Y-37196000D01*
X38528000Y-37239000D01*
X38505000Y-37280000D01*
X38481000Y-37320000D01*
X38454000Y-37359000D01*
X38425000Y-37396000D01*
X38395000Y-37432000D01*
X38362000Y-37466000D01*
X38328000Y-37499000D01*
X38292000Y-37529000D01*
X38255000Y-37558000D01*
X38216000Y-37585000D01*
X38176000Y-37609000D01*
X38135000Y-37632000D01*
X38092000Y-37652000D01*
X38049000Y-37670000D01*
X38004000Y-37686000D01*
X37959000Y-37699000D01*
X37913000Y-37710000D01*
X37867000Y-37719000D01*
X37820000Y-37725000D01*
X37773000Y-37729000D01*
X37726000Y-37730000D01*
X36396000Y-37730000D01*
X36387000Y-37730000D01*
X36378000Y-37729000D01*
X36369000Y-37728000D01*
X36361000Y-37726000D01*
X36352000Y-37724000D01*
X36343000Y-37722000D01*
X36335000Y-37719000D01*
X36327000Y-37715000D01*
X36319000Y-37711000D01*
X36311000Y-37707000D01*
X36303000Y-37703000D01*
X36296000Y-37698000D01*
X36289000Y-37692000D01*
X36282000Y-37686000D01*
X36276000Y-37680000D01*
X36270000Y-37674000D01*
X36264000Y-37667000D01*
X36258000Y-37660000D01*
X36253000Y-37653000D01*
X36249000Y-37645000D01*
X36245000Y-37637000D01*
X36241000Y-37629000D01*
X36237000Y-37621000D01*
X36234000Y-37613000D01*
X36232000Y-37604000D01*
X36230000Y-37595000D01*
X36228000Y-37587000D01*
X36227000Y-37578000D01*
X36226000Y-37569000D01*
X36226000Y-37560000D01*
X36226000Y-36100000D01*
X36226000Y-36091000D01*
X36227000Y-36082000D01*
X36228000Y-36073000D01*
X36230000Y-36065000D01*
X36232000Y-36056000D01*
X36234000Y-36047000D01*
X36237000Y-36039000D01*
X36241000Y-36031000D01*
X36245000Y-36023000D01*
X36249000Y-36015000D01*
X36253000Y-36007000D01*
X36258000Y-36000000D01*
X36264000Y-35993000D01*
X36270000Y-35986000D01*
X36276000Y-35980000D01*
X36282000Y-35974000D01*
X36289000Y-35968000D01*
X36296000Y-35962000D01*
X36303000Y-35957000D01*
X36311000Y-35953000D01*
X36319000Y-35949000D01*
X36327000Y-35945000D01*
X36335000Y-35941000D01*
X36343000Y-35938000D01*
X36352000Y-35936000D01*
X36361000Y-35934000D01*
X36369000Y-35932000D01*
X36378000Y-35931000D01*
X36387000Y-35930000D01*
X36396000Y-35930000D01*
X37726000Y-35930000D01*
X37773000Y-35931000D01*
G36*
X37773000Y-35931000D02*
G01*
X37820000Y-35935000D01*
X37867000Y-35941000D01*
X37913000Y-35950000D01*
X37959000Y-35961000D01*
X38004000Y-35974000D01*
X38049000Y-35990000D01*
X38092000Y-36008000D01*
X38135000Y-36028000D01*
X38176000Y-36051000D01*
X38216000Y-36075000D01*
X38255000Y-36102000D01*
X38292000Y-36131000D01*
X38328000Y-36161000D01*
X38362000Y-36194000D01*
X38395000Y-36228000D01*
X38425000Y-36264000D01*
X38454000Y-36301000D01*
X38481000Y-36340000D01*
X38505000Y-36380000D01*
X38528000Y-36421000D01*
X38548000Y-36464000D01*
X38566000Y-36507000D01*
X38582000Y-36552000D01*
X38595000Y-36597000D01*
X38606000Y-36643000D01*
X38615000Y-36689000D01*
X38621000Y-36736000D01*
X38625000Y-36783000D01*
X38626000Y-36830000D01*
X38625000Y-36877000D01*
X38621000Y-36924000D01*
X38615000Y-36971000D01*
X38606000Y-37017000D01*
X38595000Y-37063000D01*
X38582000Y-37108000D01*
X38566000Y-37153000D01*
X38548000Y-37196000D01*
X38528000Y-37239000D01*
X38505000Y-37280000D01*
X38481000Y-37320000D01*
X38454000Y-37359000D01*
X38425000Y-37396000D01*
X38395000Y-37432000D01*
X38362000Y-37466000D01*
X38328000Y-37499000D01*
X38292000Y-37529000D01*
X38255000Y-37558000D01*
X38216000Y-37585000D01*
X38176000Y-37609000D01*
X38135000Y-37632000D01*
X38092000Y-37652000D01*
X38049000Y-37670000D01*
X38004000Y-37686000D01*
X37959000Y-37699000D01*
X37913000Y-37710000D01*
X37867000Y-37719000D01*
X37820000Y-37725000D01*
X37773000Y-37729000D01*
X37726000Y-37730000D01*
X36396000Y-37730000D01*
X36387000Y-37730000D01*
X36378000Y-37729000D01*
X36369000Y-37728000D01*
X36361000Y-37726000D01*
X36352000Y-37724000D01*
X36343000Y-37722000D01*
X36335000Y-37719000D01*
X36327000Y-37715000D01*
X36319000Y-37711000D01*
X36311000Y-37707000D01*
X36303000Y-37703000D01*
X36296000Y-37698000D01*
X36289000Y-37692000D01*
X36282000Y-37686000D01*
X36276000Y-37680000D01*
X36270000Y-37674000D01*
X36264000Y-37667000D01*
X36258000Y-37660000D01*
X36253000Y-37653000D01*
X36249000Y-37645000D01*
X36245000Y-37637000D01*
X36241000Y-37629000D01*
X36237000Y-37621000D01*
X36234000Y-37613000D01*
X36232000Y-37604000D01*
X36230000Y-37595000D01*
X36228000Y-37587000D01*
X36227000Y-37578000D01*
X36226000Y-37569000D01*
X36226000Y-37560000D01*
X36226000Y-36100000D01*
X36226000Y-36091000D01*
X36227000Y-36082000D01*
X36228000Y-36073000D01*
X36230000Y-36065000D01*
X36232000Y-36056000D01*
X36234000Y-36047000D01*
X36237000Y-36039000D01*
X36241000Y-36031000D01*
X36245000Y-36023000D01*
X36249000Y-36015000D01*
X36253000Y-36007000D01*
X36258000Y-36000000D01*
X36264000Y-35993000D01*
X36270000Y-35986000D01*
X36276000Y-35980000D01*
X36282000Y-35974000D01*
X36289000Y-35968000D01*
X36296000Y-35962000D01*
X36303000Y-35957000D01*
X36311000Y-35953000D01*
X36319000Y-35949000D01*
X36327000Y-35945000D01*
X36335000Y-35941000D01*
X36343000Y-35938000D01*
X36352000Y-35936000D01*
X36361000Y-35934000D01*
X36369000Y-35932000D01*
X36378000Y-35931000D01*
X36387000Y-35930000D01*
X36396000Y-35930000D01*
X37726000Y-35930000D01*
X37773000Y-35931000D01*
G37*
X37773000Y-38471000D02*
X37820000Y-38475000D01*
X37867000Y-38481000D01*
X37913000Y-38490000D01*
X37959000Y-38501000D01*
X38004000Y-38514000D01*
X38049000Y-38530000D01*
X38092000Y-38548000D01*
X38135000Y-38568000D01*
X38176000Y-38591000D01*
X38216000Y-38615000D01*
X38255000Y-38642000D01*
X38292000Y-38671000D01*
X38328000Y-38701000D01*
X38362000Y-38734000D01*
X38395000Y-38768000D01*
X38425000Y-38804000D01*
X38454000Y-38841000D01*
X38481000Y-38880000D01*
X38505000Y-38920000D01*
X38528000Y-38961000D01*
X38548000Y-39004000D01*
X38566000Y-39047000D01*
X38582000Y-39092000D01*
X38595000Y-39137000D01*
X38606000Y-39183000D01*
X38615000Y-39229000D01*
X38621000Y-39276000D01*
X38625000Y-39323000D01*
X38626000Y-39370000D01*
X38625000Y-39417000D01*
X38621000Y-39464000D01*
X38615000Y-39511000D01*
X38606000Y-39557000D01*
X38595000Y-39603000D01*
X38582000Y-39648000D01*
X38566000Y-39693000D01*
X38548000Y-39736000D01*
X38528000Y-39779000D01*
X38505000Y-39820000D01*
X38481000Y-39860000D01*
X38454000Y-39899000D01*
X38425000Y-39936000D01*
X38395000Y-39972000D01*
X38362000Y-40006000D01*
X38328000Y-40039000D01*
X38292000Y-40069000D01*
X38255000Y-40098000D01*
X38216000Y-40125000D01*
X38176000Y-40149000D01*
X38135000Y-40172000D01*
X38092000Y-40192000D01*
X38049000Y-40210000D01*
X38004000Y-40226000D01*
X37959000Y-40239000D01*
X37913000Y-40250000D01*
X37867000Y-40259000D01*
X37820000Y-40265000D01*
X37773000Y-40269000D01*
X37726000Y-40270000D01*
X36396000Y-40270000D01*
X36387000Y-40270000D01*
X36378000Y-40269000D01*
X36369000Y-40268000D01*
X36361000Y-40266000D01*
X36352000Y-40264000D01*
X36343000Y-40262000D01*
X36335000Y-40259000D01*
X36327000Y-40255000D01*
X36319000Y-40251000D01*
X36311000Y-40247000D01*
X36303000Y-40243000D01*
X36296000Y-40238000D01*
X36289000Y-40232000D01*
X36282000Y-40226000D01*
X36276000Y-40220000D01*
X36270000Y-40214000D01*
X36264000Y-40207000D01*
X36258000Y-40200000D01*
X36253000Y-40193000D01*
X36249000Y-40185000D01*
X36245000Y-40177000D01*
X36241000Y-40169000D01*
X36237000Y-40161000D01*
X36234000Y-40153000D01*
X36232000Y-40144000D01*
X36230000Y-40135000D01*
X36228000Y-40127000D01*
X36227000Y-40118000D01*
X36226000Y-40109000D01*
X36226000Y-40100000D01*
X36226000Y-38640000D01*
X36226000Y-38631000D01*
X36227000Y-38622000D01*
X36228000Y-38613000D01*
X36230000Y-38605000D01*
X36232000Y-38596000D01*
X36234000Y-38587000D01*
X36237000Y-38579000D01*
X36241000Y-38571000D01*
X36245000Y-38563000D01*
X36249000Y-38555000D01*
X36253000Y-38547000D01*
X36258000Y-38540000D01*
X36264000Y-38533000D01*
X36270000Y-38526000D01*
X36276000Y-38520000D01*
X36282000Y-38514000D01*
X36289000Y-38508000D01*
X36296000Y-38502000D01*
X36303000Y-38497000D01*
X36311000Y-38493000D01*
X36319000Y-38489000D01*
X36327000Y-38485000D01*
X36335000Y-38481000D01*
X36343000Y-38478000D01*
X36352000Y-38476000D01*
X36361000Y-38474000D01*
X36369000Y-38472000D01*
X36378000Y-38471000D01*
X36387000Y-38470000D01*
X36396000Y-38470000D01*
X37726000Y-38470000D01*
X37773000Y-38471000D01*
G36*
X37773000Y-38471000D02*
G01*
X37820000Y-38475000D01*
X37867000Y-38481000D01*
X37913000Y-38490000D01*
X37959000Y-38501000D01*
X38004000Y-38514000D01*
X38049000Y-38530000D01*
X38092000Y-38548000D01*
X38135000Y-38568000D01*
X38176000Y-38591000D01*
X38216000Y-38615000D01*
X38255000Y-38642000D01*
X38292000Y-38671000D01*
X38328000Y-38701000D01*
X38362000Y-38734000D01*
X38395000Y-38768000D01*
X38425000Y-38804000D01*
X38454000Y-38841000D01*
X38481000Y-38880000D01*
X38505000Y-38920000D01*
X38528000Y-38961000D01*
X38548000Y-39004000D01*
X38566000Y-39047000D01*
X38582000Y-39092000D01*
X38595000Y-39137000D01*
X38606000Y-39183000D01*
X38615000Y-39229000D01*
X38621000Y-39276000D01*
X38625000Y-39323000D01*
X38626000Y-39370000D01*
X38625000Y-39417000D01*
X38621000Y-39464000D01*
X38615000Y-39511000D01*
X38606000Y-39557000D01*
X38595000Y-39603000D01*
X38582000Y-39648000D01*
X38566000Y-39693000D01*
X38548000Y-39736000D01*
X38528000Y-39779000D01*
X38505000Y-39820000D01*
X38481000Y-39860000D01*
X38454000Y-39899000D01*
X38425000Y-39936000D01*
X38395000Y-39972000D01*
X38362000Y-40006000D01*
X38328000Y-40039000D01*
X38292000Y-40069000D01*
X38255000Y-40098000D01*
X38216000Y-40125000D01*
X38176000Y-40149000D01*
X38135000Y-40172000D01*
X38092000Y-40192000D01*
X38049000Y-40210000D01*
X38004000Y-40226000D01*
X37959000Y-40239000D01*
X37913000Y-40250000D01*
X37867000Y-40259000D01*
X37820000Y-40265000D01*
X37773000Y-40269000D01*
X37726000Y-40270000D01*
X36396000Y-40270000D01*
X36387000Y-40270000D01*
X36378000Y-40269000D01*
X36369000Y-40268000D01*
X36361000Y-40266000D01*
X36352000Y-40264000D01*
X36343000Y-40262000D01*
X36335000Y-40259000D01*
X36327000Y-40255000D01*
X36319000Y-40251000D01*
X36311000Y-40247000D01*
X36303000Y-40243000D01*
X36296000Y-40238000D01*
X36289000Y-40232000D01*
X36282000Y-40226000D01*
X36276000Y-40220000D01*
X36270000Y-40214000D01*
X36264000Y-40207000D01*
X36258000Y-40200000D01*
X36253000Y-40193000D01*
X36249000Y-40185000D01*
X36245000Y-40177000D01*
X36241000Y-40169000D01*
X36237000Y-40161000D01*
X36234000Y-40153000D01*
X36232000Y-40144000D01*
X36230000Y-40135000D01*
X36228000Y-40127000D01*
X36227000Y-40118000D01*
X36226000Y-40109000D01*
X36226000Y-40100000D01*
X36226000Y-38640000D01*
X36226000Y-38631000D01*
X36227000Y-38622000D01*
X36228000Y-38613000D01*
X36230000Y-38605000D01*
X36232000Y-38596000D01*
X36234000Y-38587000D01*
X36237000Y-38579000D01*
X36241000Y-38571000D01*
X36245000Y-38563000D01*
X36249000Y-38555000D01*
X36253000Y-38547000D01*
X36258000Y-38540000D01*
X36264000Y-38533000D01*
X36270000Y-38526000D01*
X36276000Y-38520000D01*
X36282000Y-38514000D01*
X36289000Y-38508000D01*
X36296000Y-38502000D01*
X36303000Y-38497000D01*
X36311000Y-38493000D01*
X36319000Y-38489000D01*
X36327000Y-38485000D01*
X36335000Y-38481000D01*
X36343000Y-38478000D01*
X36352000Y-38476000D01*
X36361000Y-38474000D01*
X36369000Y-38472000D01*
X36378000Y-38471000D01*
X36387000Y-38470000D01*
X36396000Y-38470000D01*
X37726000Y-38470000D01*
X37773000Y-38471000D01*
G37*
X41761000Y-40486000D02*
X41795000Y-40489000D01*
X41829000Y-40493000D01*
X41862000Y-40499000D01*
X41895000Y-40507000D01*
X41928000Y-40517000D01*
X41960000Y-40528000D01*
X41991000Y-40541000D01*
X42022000Y-40556000D01*
X42052000Y-40572000D01*
X42081000Y-40590000D01*
X42109000Y-40609000D01*
X42136000Y-40630000D01*
X42162000Y-40652000D01*
X42187000Y-40675000D01*
X42210000Y-40700000D01*
X42232000Y-40726000D01*
X42253000Y-40753000D01*
X42272000Y-40781000D01*
X42290000Y-40810000D01*
X42306000Y-40840000D01*
X42321000Y-40871000D01*
X42334000Y-40902000D01*
X42345000Y-40934000D01*
X42355000Y-40967000D01*
X42363000Y-41000000D01*
X42369000Y-41033000D01*
X42373000Y-41067000D01*
X42376000Y-41101000D01*
X42377000Y-41135000D01*
X42377000Y-42635000D01*
X42377000Y-42643000D01*
X42376000Y-42651000D01*
X42375000Y-42659000D01*
X42374000Y-42667000D01*
X42372000Y-42675000D01*
X42369000Y-42683000D01*
X42367000Y-42691000D01*
X42364000Y-42698000D01*
X42360000Y-42705000D01*
X42356000Y-42712000D01*
X42352000Y-42719000D01*
X42347000Y-42726000D01*
X42342000Y-42733000D01*
X42337000Y-42739000D01*
X42332000Y-42745000D01*
X42326000Y-42750000D01*
X42320000Y-42755000D01*
X42313000Y-42760000D01*
X42306000Y-42765000D01*
X42300000Y-42769000D01*
X42292000Y-42773000D01*
X42285000Y-42777000D01*
X42278000Y-42780000D01*
X42270000Y-42782000D01*
X42262000Y-42785000D01*
X42254000Y-42787000D01*
X42246000Y-42788000D01*
X42238000Y-42789000D01*
X42230000Y-42790000D01*
X42222000Y-42790000D01*
X41232000Y-42790000D01*
X41224000Y-42790000D01*
X41216000Y-42789000D01*
X41208000Y-42788000D01*
X41200000Y-42787000D01*
X41192000Y-42785000D01*
X41184000Y-42782000D01*
X41176000Y-42780000D01*
X41169000Y-42777000D01*
X41162000Y-42773000D01*
X41154000Y-42769000D01*
X41148000Y-42765000D01*
X41141000Y-42760000D01*
X41134000Y-42755000D01*
X41128000Y-42750000D01*
X41122000Y-42745000D01*
X41117000Y-42739000D01*
X41112000Y-42733000D01*
X41107000Y-42726000D01*
X41102000Y-42719000D01*
X41098000Y-42712000D01*
X41094000Y-42705000D01*
X41090000Y-42698000D01*
X41087000Y-42691000D01*
X41085000Y-42683000D01*
X41082000Y-42675000D01*
X41080000Y-42667000D01*
X41079000Y-42659000D01*
X41078000Y-42651000D01*
X41077000Y-42643000D01*
X41077000Y-42635000D01*
X41077000Y-41135000D01*
X41078000Y-41101000D01*
X41081000Y-41067000D01*
X41085000Y-41033000D01*
X41091000Y-41000000D01*
X41099000Y-40967000D01*
X41109000Y-40934000D01*
X41120000Y-40902000D01*
X41133000Y-40871000D01*
X41148000Y-40840000D01*
X41164000Y-40810000D01*
X41182000Y-40781000D01*
X41201000Y-40753000D01*
X41222000Y-40726000D01*
X41244000Y-40700000D01*
X41267000Y-40675000D01*
X41292000Y-40652000D01*
X41318000Y-40630000D01*
X41345000Y-40609000D01*
X41373000Y-40590000D01*
X41402000Y-40572000D01*
X41432000Y-40556000D01*
X41463000Y-40541000D01*
X41494000Y-40528000D01*
X41526000Y-40517000D01*
X41559000Y-40507000D01*
X41592000Y-40499000D01*
X41625000Y-40493000D01*
X41659000Y-40489000D01*
X41693000Y-40486000D01*
X41727000Y-40485000D01*
X41761000Y-40486000D01*
G36*
X41761000Y-40486000D02*
G01*
X41795000Y-40489000D01*
X41829000Y-40493000D01*
X41862000Y-40499000D01*
X41895000Y-40507000D01*
X41928000Y-40517000D01*
X41960000Y-40528000D01*
X41991000Y-40541000D01*
X42022000Y-40556000D01*
X42052000Y-40572000D01*
X42081000Y-40590000D01*
X42109000Y-40609000D01*
X42136000Y-40630000D01*
X42162000Y-40652000D01*
X42187000Y-40675000D01*
X42210000Y-40700000D01*
X42232000Y-40726000D01*
X42253000Y-40753000D01*
X42272000Y-40781000D01*
X42290000Y-40810000D01*
X42306000Y-40840000D01*
X42321000Y-40871000D01*
X42334000Y-40902000D01*
X42345000Y-40934000D01*
X42355000Y-40967000D01*
X42363000Y-41000000D01*
X42369000Y-41033000D01*
X42373000Y-41067000D01*
X42376000Y-41101000D01*
X42377000Y-41135000D01*
X42377000Y-42635000D01*
X42377000Y-42643000D01*
X42376000Y-42651000D01*
X42375000Y-42659000D01*
X42374000Y-42667000D01*
X42372000Y-42675000D01*
X42369000Y-42683000D01*
X42367000Y-42691000D01*
X42364000Y-42698000D01*
X42360000Y-42705000D01*
X42356000Y-42712000D01*
X42352000Y-42719000D01*
X42347000Y-42726000D01*
X42342000Y-42733000D01*
X42337000Y-42739000D01*
X42332000Y-42745000D01*
X42326000Y-42750000D01*
X42320000Y-42755000D01*
X42313000Y-42760000D01*
X42306000Y-42765000D01*
X42300000Y-42769000D01*
X42292000Y-42773000D01*
X42285000Y-42777000D01*
X42278000Y-42780000D01*
X42270000Y-42782000D01*
X42262000Y-42785000D01*
X42254000Y-42787000D01*
X42246000Y-42788000D01*
X42238000Y-42789000D01*
X42230000Y-42790000D01*
X42222000Y-42790000D01*
X41232000Y-42790000D01*
X41224000Y-42790000D01*
X41216000Y-42789000D01*
X41208000Y-42788000D01*
X41200000Y-42787000D01*
X41192000Y-42785000D01*
X41184000Y-42782000D01*
X41176000Y-42780000D01*
X41169000Y-42777000D01*
X41162000Y-42773000D01*
X41154000Y-42769000D01*
X41148000Y-42765000D01*
X41141000Y-42760000D01*
X41134000Y-42755000D01*
X41128000Y-42750000D01*
X41122000Y-42745000D01*
X41117000Y-42739000D01*
X41112000Y-42733000D01*
X41107000Y-42726000D01*
X41102000Y-42719000D01*
X41098000Y-42712000D01*
X41094000Y-42705000D01*
X41090000Y-42698000D01*
X41087000Y-42691000D01*
X41085000Y-42683000D01*
X41082000Y-42675000D01*
X41080000Y-42667000D01*
X41079000Y-42659000D01*
X41078000Y-42651000D01*
X41077000Y-42643000D01*
X41077000Y-42635000D01*
X41077000Y-41135000D01*
X41078000Y-41101000D01*
X41081000Y-41067000D01*
X41085000Y-41033000D01*
X41091000Y-41000000D01*
X41099000Y-40967000D01*
X41109000Y-40934000D01*
X41120000Y-40902000D01*
X41133000Y-40871000D01*
X41148000Y-40840000D01*
X41164000Y-40810000D01*
X41182000Y-40781000D01*
X41201000Y-40753000D01*
X41222000Y-40726000D01*
X41244000Y-40700000D01*
X41267000Y-40675000D01*
X41292000Y-40652000D01*
X41318000Y-40630000D01*
X41345000Y-40609000D01*
X41373000Y-40590000D01*
X41402000Y-40572000D01*
X41432000Y-40556000D01*
X41463000Y-40541000D01*
X41494000Y-40528000D01*
X41526000Y-40517000D01*
X41559000Y-40507000D01*
X41592000Y-40499000D01*
X41625000Y-40493000D01*
X41659000Y-40489000D01*
X41693000Y-40486000D01*
X41727000Y-40485000D01*
X41761000Y-40486000D01*
G37*
X43761000Y-40486000D02*
X43795000Y-40489000D01*
X43829000Y-40493000D01*
X43862000Y-40499000D01*
X43895000Y-40507000D01*
X43928000Y-40517000D01*
X43960000Y-40528000D01*
X43991000Y-40541000D01*
X44022000Y-40556000D01*
X44052000Y-40572000D01*
X44081000Y-40590000D01*
X44109000Y-40609000D01*
X44136000Y-40630000D01*
X44162000Y-40652000D01*
X44187000Y-40675000D01*
X44210000Y-40700000D01*
X44232000Y-40726000D01*
X44253000Y-40753000D01*
X44272000Y-40781000D01*
X44290000Y-40810000D01*
X44306000Y-40840000D01*
X44321000Y-40871000D01*
X44334000Y-40902000D01*
X44345000Y-40934000D01*
X44355000Y-40967000D01*
X44363000Y-41000000D01*
X44369000Y-41033000D01*
X44373000Y-41067000D01*
X44376000Y-41101000D01*
X44377000Y-41135000D01*
X44377000Y-42635000D01*
X44377000Y-42643000D01*
X44376000Y-42651000D01*
X44375000Y-42659000D01*
X44374000Y-42667000D01*
X44372000Y-42675000D01*
X44369000Y-42683000D01*
X44367000Y-42691000D01*
X44364000Y-42698000D01*
X44360000Y-42705000D01*
X44356000Y-42712000D01*
X44352000Y-42719000D01*
X44347000Y-42726000D01*
X44342000Y-42733000D01*
X44337000Y-42739000D01*
X44332000Y-42745000D01*
X44326000Y-42750000D01*
X44320000Y-42755000D01*
X44313000Y-42760000D01*
X44306000Y-42765000D01*
X44300000Y-42769000D01*
X44292000Y-42773000D01*
X44285000Y-42777000D01*
X44278000Y-42780000D01*
X44270000Y-42782000D01*
X44262000Y-42785000D01*
X44254000Y-42787000D01*
X44246000Y-42788000D01*
X44238000Y-42789000D01*
X44230000Y-42790000D01*
X44222000Y-42790000D01*
X43232000Y-42790000D01*
X43224000Y-42790000D01*
X43216000Y-42789000D01*
X43208000Y-42788000D01*
X43200000Y-42787000D01*
X43192000Y-42785000D01*
X43184000Y-42782000D01*
X43176000Y-42780000D01*
X43169000Y-42777000D01*
X43162000Y-42773000D01*
X43155000Y-42769000D01*
X43148000Y-42765000D01*
X43141000Y-42760000D01*
X43134000Y-42755000D01*
X43128000Y-42750000D01*
X43122000Y-42745000D01*
X43117000Y-42739000D01*
X43112000Y-42733000D01*
X43107000Y-42726000D01*
X43102000Y-42719000D01*
X43098000Y-42712000D01*
X43094000Y-42705000D01*
X43090000Y-42698000D01*
X43087000Y-42691000D01*
X43085000Y-42683000D01*
X43082000Y-42675000D01*
X43080000Y-42667000D01*
X43079000Y-42659000D01*
X43078000Y-42651000D01*
X43077000Y-42643000D01*
X43077000Y-42635000D01*
X43077000Y-41135000D01*
X43078000Y-41101000D01*
X43081000Y-41067000D01*
X43085000Y-41033000D01*
X43091000Y-41000000D01*
X43099000Y-40967000D01*
X43109000Y-40934000D01*
X43120000Y-40902000D01*
X43133000Y-40871000D01*
X43148000Y-40840000D01*
X43164000Y-40810000D01*
X43182000Y-40781000D01*
X43201000Y-40753000D01*
X43222000Y-40726000D01*
X43244000Y-40700000D01*
X43267000Y-40675000D01*
X43292000Y-40652000D01*
X43318000Y-40630000D01*
X43345000Y-40609000D01*
X43373000Y-40590000D01*
X43402000Y-40572000D01*
X43432000Y-40556000D01*
X43463000Y-40541000D01*
X43494000Y-40528000D01*
X43526000Y-40517000D01*
X43559000Y-40507000D01*
X43592000Y-40499000D01*
X43625000Y-40493000D01*
X43659000Y-40489000D01*
X43693000Y-40486000D01*
X43727000Y-40485000D01*
X43761000Y-40486000D01*
G36*
X43761000Y-40486000D02*
G01*
X43795000Y-40489000D01*
X43829000Y-40493000D01*
X43862000Y-40499000D01*
X43895000Y-40507000D01*
X43928000Y-40517000D01*
X43960000Y-40528000D01*
X43991000Y-40541000D01*
X44022000Y-40556000D01*
X44052000Y-40572000D01*
X44081000Y-40590000D01*
X44109000Y-40609000D01*
X44136000Y-40630000D01*
X44162000Y-40652000D01*
X44187000Y-40675000D01*
X44210000Y-40700000D01*
X44232000Y-40726000D01*
X44253000Y-40753000D01*
X44272000Y-40781000D01*
X44290000Y-40810000D01*
X44306000Y-40840000D01*
X44321000Y-40871000D01*
X44334000Y-40902000D01*
X44345000Y-40934000D01*
X44355000Y-40967000D01*
X44363000Y-41000000D01*
X44369000Y-41033000D01*
X44373000Y-41067000D01*
X44376000Y-41101000D01*
X44377000Y-41135000D01*
X44377000Y-42635000D01*
X44377000Y-42643000D01*
X44376000Y-42651000D01*
X44375000Y-42659000D01*
X44374000Y-42667000D01*
X44372000Y-42675000D01*
X44369000Y-42683000D01*
X44367000Y-42691000D01*
X44364000Y-42698000D01*
X44360000Y-42705000D01*
X44356000Y-42712000D01*
X44352000Y-42719000D01*
X44347000Y-42726000D01*
X44342000Y-42733000D01*
X44337000Y-42739000D01*
X44332000Y-42745000D01*
X44326000Y-42750000D01*
X44320000Y-42755000D01*
X44313000Y-42760000D01*
X44306000Y-42765000D01*
X44300000Y-42769000D01*
X44292000Y-42773000D01*
X44285000Y-42777000D01*
X44278000Y-42780000D01*
X44270000Y-42782000D01*
X44262000Y-42785000D01*
X44254000Y-42787000D01*
X44246000Y-42788000D01*
X44238000Y-42789000D01*
X44230000Y-42790000D01*
X44222000Y-42790000D01*
X43232000Y-42790000D01*
X43224000Y-42790000D01*
X43216000Y-42789000D01*
X43208000Y-42788000D01*
X43200000Y-42787000D01*
X43192000Y-42785000D01*
X43184000Y-42782000D01*
X43176000Y-42780000D01*
X43169000Y-42777000D01*
X43162000Y-42773000D01*
X43155000Y-42769000D01*
X43148000Y-42765000D01*
X43141000Y-42760000D01*
X43134000Y-42755000D01*
X43128000Y-42750000D01*
X43122000Y-42745000D01*
X43117000Y-42739000D01*
X43112000Y-42733000D01*
X43107000Y-42726000D01*
X43102000Y-42719000D01*
X43098000Y-42712000D01*
X43094000Y-42705000D01*
X43090000Y-42698000D01*
X43087000Y-42691000D01*
X43085000Y-42683000D01*
X43082000Y-42675000D01*
X43080000Y-42667000D01*
X43079000Y-42659000D01*
X43078000Y-42651000D01*
X43077000Y-42643000D01*
X43077000Y-42635000D01*
X43077000Y-41135000D01*
X43078000Y-41101000D01*
X43081000Y-41067000D01*
X43085000Y-41033000D01*
X43091000Y-41000000D01*
X43099000Y-40967000D01*
X43109000Y-40934000D01*
X43120000Y-40902000D01*
X43133000Y-40871000D01*
X43148000Y-40840000D01*
X43164000Y-40810000D01*
X43182000Y-40781000D01*
X43201000Y-40753000D01*
X43222000Y-40726000D01*
X43244000Y-40700000D01*
X43267000Y-40675000D01*
X43292000Y-40652000D01*
X43318000Y-40630000D01*
X43345000Y-40609000D01*
X43373000Y-40590000D01*
X43402000Y-40572000D01*
X43432000Y-40556000D01*
X43463000Y-40541000D01*
X43494000Y-40528000D01*
X43526000Y-40517000D01*
X43559000Y-40507000D01*
X43592000Y-40499000D01*
X43625000Y-40493000D01*
X43659000Y-40489000D01*
X43693000Y-40486000D01*
X43727000Y-40485000D01*
X43761000Y-40486000D01*
G37*
X49234000Y-30851000D02*
X49243000Y-30852000D01*
X49251000Y-30854000D01*
X49260000Y-30856000D01*
X49269000Y-30858000D01*
X49277000Y-30861000D01*
X49285000Y-30865000D01*
X49293000Y-30869000D01*
X49301000Y-30873000D01*
X49309000Y-30877000D01*
X49316000Y-30882000D01*
X49323000Y-30888000D01*
X49330000Y-30894000D01*
X49336000Y-30900000D01*
X49342000Y-30906000D01*
X49348000Y-30913000D01*
X49354000Y-30920000D01*
X49359000Y-30927000D01*
X49363000Y-30935000D01*
X49367000Y-30943000D01*
X49371000Y-30951000D01*
X49375000Y-30959000D01*
X49378000Y-30967000D01*
X49380000Y-30976000D01*
X49382000Y-30985000D01*
X49384000Y-30993000D01*
X49385000Y-31002000D01*
X49386000Y-31011000D01*
X49386000Y-31020000D01*
X49386000Y-32480000D01*
X49386000Y-32489000D01*
X49385000Y-32498000D01*
X49384000Y-32507000D01*
X49382000Y-32515000D01*
X49380000Y-32524000D01*
X49378000Y-32533000D01*
X49375000Y-32541000D01*
X49371000Y-32549000D01*
X49367000Y-32557000D01*
X49363000Y-32565000D01*
X49359000Y-32573000D01*
X49354000Y-32580000D01*
X49348000Y-32587000D01*
X49342000Y-32594000D01*
X49336000Y-32600000D01*
X49330000Y-32606000D01*
X49323000Y-32612000D01*
X49316000Y-32618000D01*
X49309000Y-32623000D01*
X49301000Y-32627000D01*
X49293000Y-32631000D01*
X49285000Y-32635000D01*
X49277000Y-32639000D01*
X49269000Y-32642000D01*
X49260000Y-32644000D01*
X49251000Y-32646000D01*
X49243000Y-32648000D01*
X49234000Y-32649000D01*
X49225000Y-32650000D01*
X49216000Y-32650000D01*
X47886000Y-32650000D01*
X47839000Y-32649000D01*
X47792000Y-32645000D01*
X47745000Y-32639000D01*
X47699000Y-32630000D01*
X47653000Y-32619000D01*
X47608000Y-32606000D01*
X47563000Y-32590000D01*
X47520000Y-32572000D01*
X47477000Y-32552000D01*
X47436000Y-32529000D01*
X47396000Y-32505000D01*
X47357000Y-32478000D01*
X47320000Y-32449000D01*
X47284000Y-32419000D01*
X47250000Y-32386000D01*
X47217000Y-32352000D01*
X47187000Y-32316000D01*
X47158000Y-32279000D01*
X47131000Y-32240000D01*
X47107000Y-32200000D01*
X47084000Y-32159000D01*
X47064000Y-32116000D01*
X47046000Y-32073000D01*
X47030000Y-32028000D01*
X47017000Y-31983000D01*
X47006000Y-31937000D01*
X46997000Y-31891000D01*
X46991000Y-31844000D01*
X46987000Y-31797000D01*
X46986000Y-31750000D01*
X46987000Y-31703000D01*
X46991000Y-31656000D01*
X46997000Y-31609000D01*
X47006000Y-31563000D01*
X47017000Y-31517000D01*
X47030000Y-31472000D01*
X47046000Y-31427000D01*
X47064000Y-31384000D01*
X47084000Y-31341000D01*
X47107000Y-31300000D01*
X47131000Y-31260000D01*
X47158000Y-31221000D01*
X47187000Y-31184000D01*
X47217000Y-31148000D01*
X47250000Y-31114000D01*
X47284000Y-31081000D01*
X47320000Y-31051000D01*
X47357000Y-31022000D01*
X47396000Y-30995000D01*
X47436000Y-30971000D01*
X47477000Y-30948000D01*
X47520000Y-30928000D01*
X47563000Y-30910000D01*
X47608000Y-30894000D01*
X47653000Y-30881000D01*
X47699000Y-30870000D01*
X47745000Y-30861000D01*
X47792000Y-30855000D01*
X47839000Y-30851000D01*
X47886000Y-30850000D01*
X49216000Y-30850000D01*
X49225000Y-30850000D01*
X49234000Y-30851000D01*
G36*
X49234000Y-30851000D02*
G01*
X49243000Y-30852000D01*
X49251000Y-30854000D01*
X49260000Y-30856000D01*
X49269000Y-30858000D01*
X49277000Y-30861000D01*
X49285000Y-30865000D01*
X49293000Y-30869000D01*
X49301000Y-30873000D01*
X49309000Y-30877000D01*
X49316000Y-30882000D01*
X49323000Y-30888000D01*
X49330000Y-30894000D01*
X49336000Y-30900000D01*
X49342000Y-30906000D01*
X49348000Y-30913000D01*
X49354000Y-30920000D01*
X49359000Y-30927000D01*
X49363000Y-30935000D01*
X49367000Y-30943000D01*
X49371000Y-30951000D01*
X49375000Y-30959000D01*
X49378000Y-30967000D01*
X49380000Y-30976000D01*
X49382000Y-30985000D01*
X49384000Y-30993000D01*
X49385000Y-31002000D01*
X49386000Y-31011000D01*
X49386000Y-31020000D01*
X49386000Y-32480000D01*
X49386000Y-32489000D01*
X49385000Y-32498000D01*
X49384000Y-32507000D01*
X49382000Y-32515000D01*
X49380000Y-32524000D01*
X49378000Y-32533000D01*
X49375000Y-32541000D01*
X49371000Y-32549000D01*
X49367000Y-32557000D01*
X49363000Y-32565000D01*
X49359000Y-32573000D01*
X49354000Y-32580000D01*
X49348000Y-32587000D01*
X49342000Y-32594000D01*
X49336000Y-32600000D01*
X49330000Y-32606000D01*
X49323000Y-32612000D01*
X49316000Y-32618000D01*
X49309000Y-32623000D01*
X49301000Y-32627000D01*
X49293000Y-32631000D01*
X49285000Y-32635000D01*
X49277000Y-32639000D01*
X49269000Y-32642000D01*
X49260000Y-32644000D01*
X49251000Y-32646000D01*
X49243000Y-32648000D01*
X49234000Y-32649000D01*
X49225000Y-32650000D01*
X49216000Y-32650000D01*
X47886000Y-32650000D01*
X47839000Y-32649000D01*
X47792000Y-32645000D01*
X47745000Y-32639000D01*
X47699000Y-32630000D01*
X47653000Y-32619000D01*
X47608000Y-32606000D01*
X47563000Y-32590000D01*
X47520000Y-32572000D01*
X47477000Y-32552000D01*
X47436000Y-32529000D01*
X47396000Y-32505000D01*
X47357000Y-32478000D01*
X47320000Y-32449000D01*
X47284000Y-32419000D01*
X47250000Y-32386000D01*
X47217000Y-32352000D01*
X47187000Y-32316000D01*
X47158000Y-32279000D01*
X47131000Y-32240000D01*
X47107000Y-32200000D01*
X47084000Y-32159000D01*
X47064000Y-32116000D01*
X47046000Y-32073000D01*
X47030000Y-32028000D01*
X47017000Y-31983000D01*
X47006000Y-31937000D01*
X46997000Y-31891000D01*
X46991000Y-31844000D01*
X46987000Y-31797000D01*
X46986000Y-31750000D01*
X46987000Y-31703000D01*
X46991000Y-31656000D01*
X46997000Y-31609000D01*
X47006000Y-31563000D01*
X47017000Y-31517000D01*
X47030000Y-31472000D01*
X47046000Y-31427000D01*
X47064000Y-31384000D01*
X47084000Y-31341000D01*
X47107000Y-31300000D01*
X47131000Y-31260000D01*
X47158000Y-31221000D01*
X47187000Y-31184000D01*
X47217000Y-31148000D01*
X47250000Y-31114000D01*
X47284000Y-31081000D01*
X47320000Y-31051000D01*
X47357000Y-31022000D01*
X47396000Y-30995000D01*
X47436000Y-30971000D01*
X47477000Y-30948000D01*
X47520000Y-30928000D01*
X47563000Y-30910000D01*
X47608000Y-30894000D01*
X47653000Y-30881000D01*
X47699000Y-30870000D01*
X47745000Y-30861000D01*
X47792000Y-30855000D01*
X47839000Y-30851000D01*
X47886000Y-30850000D01*
X49216000Y-30850000D01*
X49225000Y-30850000D01*
X49234000Y-30851000D01*
G37*
X49234000Y-33391000D02*
X49243000Y-33392000D01*
X49251000Y-33394000D01*
X49260000Y-33396000D01*
X49269000Y-33398000D01*
X49277000Y-33401000D01*
X49285000Y-33405000D01*
X49293000Y-33409000D01*
X49301000Y-33413000D01*
X49309000Y-33417000D01*
X49316000Y-33422000D01*
X49323000Y-33428000D01*
X49330000Y-33434000D01*
X49336000Y-33440000D01*
X49342000Y-33446000D01*
X49348000Y-33453000D01*
X49354000Y-33460000D01*
X49359000Y-33467000D01*
X49363000Y-33475000D01*
X49367000Y-33483000D01*
X49371000Y-33491000D01*
X49375000Y-33499000D01*
X49378000Y-33507000D01*
X49380000Y-33516000D01*
X49382000Y-33525000D01*
X49384000Y-33533000D01*
X49385000Y-33542000D01*
X49386000Y-33551000D01*
X49386000Y-33560000D01*
X49386000Y-35020000D01*
X49386000Y-35029000D01*
X49385000Y-35038000D01*
X49384000Y-35047000D01*
X49382000Y-35055000D01*
X49380000Y-35064000D01*
X49378000Y-35073000D01*
X49375000Y-35081000D01*
X49371000Y-35089000D01*
X49367000Y-35097000D01*
X49363000Y-35105000D01*
X49359000Y-35113000D01*
X49354000Y-35120000D01*
X49348000Y-35127000D01*
X49342000Y-35134000D01*
X49336000Y-35140000D01*
X49330000Y-35146000D01*
X49323000Y-35152000D01*
X49316000Y-35158000D01*
X49309000Y-35163000D01*
X49301000Y-35167000D01*
X49293000Y-35171000D01*
X49285000Y-35175000D01*
X49277000Y-35179000D01*
X49269000Y-35182000D01*
X49260000Y-35184000D01*
X49251000Y-35186000D01*
X49243000Y-35188000D01*
X49234000Y-35189000D01*
X49225000Y-35190000D01*
X49216000Y-35190000D01*
X47886000Y-35190000D01*
X47839000Y-35189000D01*
X47792000Y-35185000D01*
X47745000Y-35179000D01*
X47699000Y-35170000D01*
X47653000Y-35159000D01*
X47608000Y-35146000D01*
X47563000Y-35130000D01*
X47520000Y-35112000D01*
X47477000Y-35092000D01*
X47436000Y-35069000D01*
X47396000Y-35045000D01*
X47357000Y-35018000D01*
X47320000Y-34989000D01*
X47284000Y-34959000D01*
X47250000Y-34926000D01*
X47217000Y-34892000D01*
X47187000Y-34856000D01*
X47158000Y-34819000D01*
X47131000Y-34780000D01*
X47107000Y-34740000D01*
X47084000Y-34699000D01*
X47064000Y-34656000D01*
X47046000Y-34613000D01*
X47030000Y-34568000D01*
X47017000Y-34523000D01*
X47006000Y-34477000D01*
X46997000Y-34431000D01*
X46991000Y-34384000D01*
X46987000Y-34337000D01*
X46986000Y-34290000D01*
X46987000Y-34243000D01*
X46991000Y-34196000D01*
X46997000Y-34149000D01*
X47006000Y-34103000D01*
X47017000Y-34057000D01*
X47030000Y-34012000D01*
X47046000Y-33967000D01*
X47064000Y-33924000D01*
X47084000Y-33881000D01*
X47107000Y-33840000D01*
X47131000Y-33800000D01*
X47158000Y-33761000D01*
X47187000Y-33724000D01*
X47217000Y-33688000D01*
X47250000Y-33654000D01*
X47284000Y-33621000D01*
X47320000Y-33591000D01*
X47357000Y-33562000D01*
X47396000Y-33535000D01*
X47436000Y-33511000D01*
X47477000Y-33488000D01*
X47520000Y-33468000D01*
X47563000Y-33450000D01*
X47608000Y-33434000D01*
X47653000Y-33421000D01*
X47699000Y-33410000D01*
X47745000Y-33401000D01*
X47792000Y-33395000D01*
X47839000Y-33391000D01*
X47886000Y-33390000D01*
X49216000Y-33390000D01*
X49225000Y-33390000D01*
X49234000Y-33391000D01*
G36*
X49234000Y-33391000D02*
G01*
X49243000Y-33392000D01*
X49251000Y-33394000D01*
X49260000Y-33396000D01*
X49269000Y-33398000D01*
X49277000Y-33401000D01*
X49285000Y-33405000D01*
X49293000Y-33409000D01*
X49301000Y-33413000D01*
X49309000Y-33417000D01*
X49316000Y-33422000D01*
X49323000Y-33428000D01*
X49330000Y-33434000D01*
X49336000Y-33440000D01*
X49342000Y-33446000D01*
X49348000Y-33453000D01*
X49354000Y-33460000D01*
X49359000Y-33467000D01*
X49363000Y-33475000D01*
X49367000Y-33483000D01*
X49371000Y-33491000D01*
X49375000Y-33499000D01*
X49378000Y-33507000D01*
X49380000Y-33516000D01*
X49382000Y-33525000D01*
X49384000Y-33533000D01*
X49385000Y-33542000D01*
X49386000Y-33551000D01*
X49386000Y-33560000D01*
X49386000Y-35020000D01*
X49386000Y-35029000D01*
X49385000Y-35038000D01*
X49384000Y-35047000D01*
X49382000Y-35055000D01*
X49380000Y-35064000D01*
X49378000Y-35073000D01*
X49375000Y-35081000D01*
X49371000Y-35089000D01*
X49367000Y-35097000D01*
X49363000Y-35105000D01*
X49359000Y-35113000D01*
X49354000Y-35120000D01*
X49348000Y-35127000D01*
X49342000Y-35134000D01*
X49336000Y-35140000D01*
X49330000Y-35146000D01*
X49323000Y-35152000D01*
X49316000Y-35158000D01*
X49309000Y-35163000D01*
X49301000Y-35167000D01*
X49293000Y-35171000D01*
X49285000Y-35175000D01*
X49277000Y-35179000D01*
X49269000Y-35182000D01*
X49260000Y-35184000D01*
X49251000Y-35186000D01*
X49243000Y-35188000D01*
X49234000Y-35189000D01*
X49225000Y-35190000D01*
X49216000Y-35190000D01*
X47886000Y-35190000D01*
X47839000Y-35189000D01*
X47792000Y-35185000D01*
X47745000Y-35179000D01*
X47699000Y-35170000D01*
X47653000Y-35159000D01*
X47608000Y-35146000D01*
X47563000Y-35130000D01*
X47520000Y-35112000D01*
X47477000Y-35092000D01*
X47436000Y-35069000D01*
X47396000Y-35045000D01*
X47357000Y-35018000D01*
X47320000Y-34989000D01*
X47284000Y-34959000D01*
X47250000Y-34926000D01*
X47217000Y-34892000D01*
X47187000Y-34856000D01*
X47158000Y-34819000D01*
X47131000Y-34780000D01*
X47107000Y-34740000D01*
X47084000Y-34699000D01*
X47064000Y-34656000D01*
X47046000Y-34613000D01*
X47030000Y-34568000D01*
X47017000Y-34523000D01*
X47006000Y-34477000D01*
X46997000Y-34431000D01*
X46991000Y-34384000D01*
X46987000Y-34337000D01*
X46986000Y-34290000D01*
X46987000Y-34243000D01*
X46991000Y-34196000D01*
X46997000Y-34149000D01*
X47006000Y-34103000D01*
X47017000Y-34057000D01*
X47030000Y-34012000D01*
X47046000Y-33967000D01*
X47064000Y-33924000D01*
X47084000Y-33881000D01*
X47107000Y-33840000D01*
X47131000Y-33800000D01*
X47158000Y-33761000D01*
X47187000Y-33724000D01*
X47217000Y-33688000D01*
X47250000Y-33654000D01*
X47284000Y-33621000D01*
X47320000Y-33591000D01*
X47357000Y-33562000D01*
X47396000Y-33535000D01*
X47436000Y-33511000D01*
X47477000Y-33488000D01*
X47520000Y-33468000D01*
X47563000Y-33450000D01*
X47608000Y-33434000D01*
X47653000Y-33421000D01*
X47699000Y-33410000D01*
X47745000Y-33401000D01*
X47792000Y-33395000D01*
X47839000Y-33391000D01*
X47886000Y-33390000D01*
X49216000Y-33390000D01*
X49225000Y-33390000D01*
X49234000Y-33391000D01*
G37*
X49234000Y-35931000D02*
X49243000Y-35932000D01*
X49251000Y-35934000D01*
X49260000Y-35936000D01*
X49269000Y-35938000D01*
X49277000Y-35941000D01*
X49285000Y-35945000D01*
X49293000Y-35949000D01*
X49301000Y-35953000D01*
X49309000Y-35957000D01*
X49316000Y-35962000D01*
X49323000Y-35968000D01*
X49330000Y-35974000D01*
X49336000Y-35980000D01*
X49342000Y-35986000D01*
X49348000Y-35993000D01*
X49354000Y-36000000D01*
X49359000Y-36007000D01*
X49363000Y-36015000D01*
X49367000Y-36023000D01*
X49371000Y-36031000D01*
X49375000Y-36039000D01*
X49378000Y-36047000D01*
X49380000Y-36056000D01*
X49382000Y-36065000D01*
X49384000Y-36073000D01*
X49385000Y-36082000D01*
X49386000Y-36091000D01*
X49386000Y-36100000D01*
X49386000Y-37560000D01*
X49386000Y-37569000D01*
X49385000Y-37578000D01*
X49384000Y-37587000D01*
X49382000Y-37595000D01*
X49380000Y-37604000D01*
X49378000Y-37613000D01*
X49375000Y-37621000D01*
X49371000Y-37629000D01*
X49367000Y-37637000D01*
X49363000Y-37645000D01*
X49359000Y-37653000D01*
X49354000Y-37660000D01*
X49348000Y-37667000D01*
X49342000Y-37674000D01*
X49336000Y-37680000D01*
X49330000Y-37686000D01*
X49323000Y-37692000D01*
X49316000Y-37698000D01*
X49309000Y-37703000D01*
X49301000Y-37707000D01*
X49293000Y-37711000D01*
X49285000Y-37715000D01*
X49277000Y-37719000D01*
X49269000Y-37722000D01*
X49260000Y-37724000D01*
X49251000Y-37726000D01*
X49243000Y-37728000D01*
X49234000Y-37729000D01*
X49225000Y-37730000D01*
X49216000Y-37730000D01*
X47886000Y-37730000D01*
X47839000Y-37729000D01*
X47792000Y-37725000D01*
X47745000Y-37719000D01*
X47699000Y-37710000D01*
X47653000Y-37699000D01*
X47608000Y-37686000D01*
X47563000Y-37670000D01*
X47520000Y-37652000D01*
X47477000Y-37632000D01*
X47436000Y-37609000D01*
X47396000Y-37585000D01*
X47357000Y-37558000D01*
X47320000Y-37529000D01*
X47284000Y-37499000D01*
X47250000Y-37466000D01*
X47217000Y-37432000D01*
X47187000Y-37396000D01*
X47158000Y-37359000D01*
X47131000Y-37320000D01*
X47107000Y-37280000D01*
X47084000Y-37239000D01*
X47064000Y-37196000D01*
X47046000Y-37153000D01*
X47030000Y-37108000D01*
X47017000Y-37063000D01*
X47006000Y-37017000D01*
X46997000Y-36971000D01*
X46991000Y-36924000D01*
X46987000Y-36877000D01*
X46986000Y-36830000D01*
X46987000Y-36783000D01*
X46991000Y-36736000D01*
X46997000Y-36689000D01*
X47006000Y-36643000D01*
X47017000Y-36597000D01*
X47030000Y-36552000D01*
X47046000Y-36507000D01*
X47064000Y-36464000D01*
X47084000Y-36421000D01*
X47107000Y-36380000D01*
X47131000Y-36340000D01*
X47158000Y-36301000D01*
X47187000Y-36264000D01*
X47217000Y-36228000D01*
X47250000Y-36194000D01*
X47284000Y-36161000D01*
X47320000Y-36131000D01*
X47357000Y-36102000D01*
X47396000Y-36075000D01*
X47436000Y-36051000D01*
X47477000Y-36028000D01*
X47520000Y-36008000D01*
X47563000Y-35990000D01*
X47608000Y-35974000D01*
X47653000Y-35961000D01*
X47699000Y-35950000D01*
X47745000Y-35941000D01*
X47792000Y-35935000D01*
X47839000Y-35931000D01*
X47886000Y-35930000D01*
X49216000Y-35930000D01*
X49225000Y-35930000D01*
X49234000Y-35931000D01*
G36*
X49234000Y-35931000D02*
G01*
X49243000Y-35932000D01*
X49251000Y-35934000D01*
X49260000Y-35936000D01*
X49269000Y-35938000D01*
X49277000Y-35941000D01*
X49285000Y-35945000D01*
X49293000Y-35949000D01*
X49301000Y-35953000D01*
X49309000Y-35957000D01*
X49316000Y-35962000D01*
X49323000Y-35968000D01*
X49330000Y-35974000D01*
X49336000Y-35980000D01*
X49342000Y-35986000D01*
X49348000Y-35993000D01*
X49354000Y-36000000D01*
X49359000Y-36007000D01*
X49363000Y-36015000D01*
X49367000Y-36023000D01*
X49371000Y-36031000D01*
X49375000Y-36039000D01*
X49378000Y-36047000D01*
X49380000Y-36056000D01*
X49382000Y-36065000D01*
X49384000Y-36073000D01*
X49385000Y-36082000D01*
X49386000Y-36091000D01*
X49386000Y-36100000D01*
X49386000Y-37560000D01*
X49386000Y-37569000D01*
X49385000Y-37578000D01*
X49384000Y-37587000D01*
X49382000Y-37595000D01*
X49380000Y-37604000D01*
X49378000Y-37613000D01*
X49375000Y-37621000D01*
X49371000Y-37629000D01*
X49367000Y-37637000D01*
X49363000Y-37645000D01*
X49359000Y-37653000D01*
X49354000Y-37660000D01*
X49348000Y-37667000D01*
X49342000Y-37674000D01*
X49336000Y-37680000D01*
X49330000Y-37686000D01*
X49323000Y-37692000D01*
X49316000Y-37698000D01*
X49309000Y-37703000D01*
X49301000Y-37707000D01*
X49293000Y-37711000D01*
X49285000Y-37715000D01*
X49277000Y-37719000D01*
X49269000Y-37722000D01*
X49260000Y-37724000D01*
X49251000Y-37726000D01*
X49243000Y-37728000D01*
X49234000Y-37729000D01*
X49225000Y-37730000D01*
X49216000Y-37730000D01*
X47886000Y-37730000D01*
X47839000Y-37729000D01*
X47792000Y-37725000D01*
X47745000Y-37719000D01*
X47699000Y-37710000D01*
X47653000Y-37699000D01*
X47608000Y-37686000D01*
X47563000Y-37670000D01*
X47520000Y-37652000D01*
X47477000Y-37632000D01*
X47436000Y-37609000D01*
X47396000Y-37585000D01*
X47357000Y-37558000D01*
X47320000Y-37529000D01*
X47284000Y-37499000D01*
X47250000Y-37466000D01*
X47217000Y-37432000D01*
X47187000Y-37396000D01*
X47158000Y-37359000D01*
X47131000Y-37320000D01*
X47107000Y-37280000D01*
X47084000Y-37239000D01*
X47064000Y-37196000D01*
X47046000Y-37153000D01*
X47030000Y-37108000D01*
X47017000Y-37063000D01*
X47006000Y-37017000D01*
X46997000Y-36971000D01*
X46991000Y-36924000D01*
X46987000Y-36877000D01*
X46986000Y-36830000D01*
X46987000Y-36783000D01*
X46991000Y-36736000D01*
X46997000Y-36689000D01*
X47006000Y-36643000D01*
X47017000Y-36597000D01*
X47030000Y-36552000D01*
X47046000Y-36507000D01*
X47064000Y-36464000D01*
X47084000Y-36421000D01*
X47107000Y-36380000D01*
X47131000Y-36340000D01*
X47158000Y-36301000D01*
X47187000Y-36264000D01*
X47217000Y-36228000D01*
X47250000Y-36194000D01*
X47284000Y-36161000D01*
X47320000Y-36131000D01*
X47357000Y-36102000D01*
X47396000Y-36075000D01*
X47436000Y-36051000D01*
X47477000Y-36028000D01*
X47520000Y-36008000D01*
X47563000Y-35990000D01*
X47608000Y-35974000D01*
X47653000Y-35961000D01*
X47699000Y-35950000D01*
X47745000Y-35941000D01*
X47792000Y-35935000D01*
X47839000Y-35931000D01*
X47886000Y-35930000D01*
X49216000Y-35930000D01*
X49225000Y-35930000D01*
X49234000Y-35931000D01*
G37*
X49234000Y-38471000D02*
X49243000Y-38472000D01*
X49251000Y-38474000D01*
X49260000Y-38476000D01*
X49269000Y-38478000D01*
X49277000Y-38481000D01*
X49285000Y-38485000D01*
X49293000Y-38489000D01*
X49301000Y-38493000D01*
X49309000Y-38497000D01*
X49316000Y-38502000D01*
X49323000Y-38508000D01*
X49330000Y-38514000D01*
X49336000Y-38520000D01*
X49342000Y-38526000D01*
X49348000Y-38533000D01*
X49354000Y-38540000D01*
X49359000Y-38547000D01*
X49363000Y-38555000D01*
X49367000Y-38563000D01*
X49371000Y-38571000D01*
X49375000Y-38579000D01*
X49378000Y-38587000D01*
X49380000Y-38596000D01*
X49382000Y-38605000D01*
X49384000Y-38613000D01*
X49385000Y-38622000D01*
X49386000Y-38631000D01*
X49386000Y-38640000D01*
X49386000Y-40100000D01*
X49386000Y-40109000D01*
X49385000Y-40118000D01*
X49384000Y-40127000D01*
X49382000Y-40135000D01*
X49380000Y-40144000D01*
X49378000Y-40153000D01*
X49375000Y-40161000D01*
X49371000Y-40169000D01*
X49367000Y-40177000D01*
X49363000Y-40185000D01*
X49359000Y-40193000D01*
X49354000Y-40200000D01*
X49348000Y-40207000D01*
X49342000Y-40214000D01*
X49336000Y-40220000D01*
X49330000Y-40226000D01*
X49323000Y-40232000D01*
X49316000Y-40238000D01*
X49309000Y-40243000D01*
X49301000Y-40247000D01*
X49293000Y-40251000D01*
X49285000Y-40255000D01*
X49277000Y-40259000D01*
X49269000Y-40262000D01*
X49260000Y-40264000D01*
X49251000Y-40266000D01*
X49243000Y-40268000D01*
X49234000Y-40269000D01*
X49225000Y-40270000D01*
X49216000Y-40270000D01*
X47886000Y-40270000D01*
X47839000Y-40269000D01*
X47792000Y-40265000D01*
X47745000Y-40259000D01*
X47699000Y-40250000D01*
X47653000Y-40239000D01*
X47608000Y-40226000D01*
X47563000Y-40210000D01*
X47520000Y-40192000D01*
X47477000Y-40172000D01*
X47436000Y-40149000D01*
X47396000Y-40125000D01*
X47357000Y-40098000D01*
X47320000Y-40069000D01*
X47284000Y-40039000D01*
X47250000Y-40006000D01*
X47217000Y-39972000D01*
X47187000Y-39936000D01*
X47158000Y-39899000D01*
X47131000Y-39860000D01*
X47107000Y-39820000D01*
X47084000Y-39779000D01*
X47064000Y-39736000D01*
X47046000Y-39693000D01*
X47030000Y-39648000D01*
X47017000Y-39603000D01*
X47006000Y-39557000D01*
X46997000Y-39511000D01*
X46991000Y-39464000D01*
X46987000Y-39417000D01*
X46986000Y-39370000D01*
X46987000Y-39323000D01*
X46991000Y-39276000D01*
X46997000Y-39229000D01*
X47006000Y-39183000D01*
X47017000Y-39137000D01*
X47030000Y-39092000D01*
X47046000Y-39047000D01*
X47064000Y-39004000D01*
X47084000Y-38961000D01*
X47107000Y-38920000D01*
X47131000Y-38880000D01*
X47158000Y-38841000D01*
X47187000Y-38804000D01*
X47217000Y-38768000D01*
X47250000Y-38734000D01*
X47284000Y-38701000D01*
X47320000Y-38671000D01*
X47357000Y-38642000D01*
X47396000Y-38615000D01*
X47436000Y-38591000D01*
X47477000Y-38568000D01*
X47520000Y-38548000D01*
X47563000Y-38530000D01*
X47608000Y-38514000D01*
X47653000Y-38501000D01*
X47699000Y-38490000D01*
X47745000Y-38481000D01*
X47792000Y-38475000D01*
X47839000Y-38471000D01*
X47886000Y-38470000D01*
X49216000Y-38470000D01*
X49225000Y-38470000D01*
X49234000Y-38471000D01*
G36*
X49234000Y-38471000D02*
G01*
X49243000Y-38472000D01*
X49251000Y-38474000D01*
X49260000Y-38476000D01*
X49269000Y-38478000D01*
X49277000Y-38481000D01*
X49285000Y-38485000D01*
X49293000Y-38489000D01*
X49301000Y-38493000D01*
X49309000Y-38497000D01*
X49316000Y-38502000D01*
X49323000Y-38508000D01*
X49330000Y-38514000D01*
X49336000Y-38520000D01*
X49342000Y-38526000D01*
X49348000Y-38533000D01*
X49354000Y-38540000D01*
X49359000Y-38547000D01*
X49363000Y-38555000D01*
X49367000Y-38563000D01*
X49371000Y-38571000D01*
X49375000Y-38579000D01*
X49378000Y-38587000D01*
X49380000Y-38596000D01*
X49382000Y-38605000D01*
X49384000Y-38613000D01*
X49385000Y-38622000D01*
X49386000Y-38631000D01*
X49386000Y-38640000D01*
X49386000Y-40100000D01*
X49386000Y-40109000D01*
X49385000Y-40118000D01*
X49384000Y-40127000D01*
X49382000Y-40135000D01*
X49380000Y-40144000D01*
X49378000Y-40153000D01*
X49375000Y-40161000D01*
X49371000Y-40169000D01*
X49367000Y-40177000D01*
X49363000Y-40185000D01*
X49359000Y-40193000D01*
X49354000Y-40200000D01*
X49348000Y-40207000D01*
X49342000Y-40214000D01*
X49336000Y-40220000D01*
X49330000Y-40226000D01*
X49323000Y-40232000D01*
X49316000Y-40238000D01*
X49309000Y-40243000D01*
X49301000Y-40247000D01*
X49293000Y-40251000D01*
X49285000Y-40255000D01*
X49277000Y-40259000D01*
X49269000Y-40262000D01*
X49260000Y-40264000D01*
X49251000Y-40266000D01*
X49243000Y-40268000D01*
X49234000Y-40269000D01*
X49225000Y-40270000D01*
X49216000Y-40270000D01*
X47886000Y-40270000D01*
X47839000Y-40269000D01*
X47792000Y-40265000D01*
X47745000Y-40259000D01*
X47699000Y-40250000D01*
X47653000Y-40239000D01*
X47608000Y-40226000D01*
X47563000Y-40210000D01*
X47520000Y-40192000D01*
X47477000Y-40172000D01*
X47436000Y-40149000D01*
X47396000Y-40125000D01*
X47357000Y-40098000D01*
X47320000Y-40069000D01*
X47284000Y-40039000D01*
X47250000Y-40006000D01*
X47217000Y-39972000D01*
X47187000Y-39936000D01*
X47158000Y-39899000D01*
X47131000Y-39860000D01*
X47107000Y-39820000D01*
X47084000Y-39779000D01*
X47064000Y-39736000D01*
X47046000Y-39693000D01*
X47030000Y-39648000D01*
X47017000Y-39603000D01*
X47006000Y-39557000D01*
X46997000Y-39511000D01*
X46991000Y-39464000D01*
X46987000Y-39417000D01*
X46986000Y-39370000D01*
X46987000Y-39323000D01*
X46991000Y-39276000D01*
X46997000Y-39229000D01*
X47006000Y-39183000D01*
X47017000Y-39137000D01*
X47030000Y-39092000D01*
X47046000Y-39047000D01*
X47064000Y-39004000D01*
X47084000Y-38961000D01*
X47107000Y-38920000D01*
X47131000Y-38880000D01*
X47158000Y-38841000D01*
X47187000Y-38804000D01*
X47217000Y-38768000D01*
X47250000Y-38734000D01*
X47284000Y-38701000D01*
X47320000Y-38671000D01*
X47357000Y-38642000D01*
X47396000Y-38615000D01*
X47436000Y-38591000D01*
X47477000Y-38568000D01*
X47520000Y-38548000D01*
X47563000Y-38530000D01*
X47608000Y-38514000D01*
X47653000Y-38501000D01*
X47699000Y-38490000D01*
X47745000Y-38481000D01*
X47792000Y-38475000D01*
X47839000Y-38471000D01*
X47886000Y-38470000D01*
X49216000Y-38470000D01*
X49225000Y-38470000D01*
X49234000Y-38471000D01*
G37*
X52240000Y-32159000D02*
X52250000Y-32160000D01*
X52259000Y-32162000D01*
X52268000Y-32164000D01*
X52276000Y-32167000D01*
X52285000Y-32170000D01*
X52294000Y-32173000D01*
X52302000Y-32177000D01*
X52310000Y-32182000D01*
X52318000Y-32186000D01*
X52325000Y-32192000D01*
X52333000Y-32197000D01*
X52340000Y-32203000D01*
X52346000Y-32210000D01*
X52353000Y-32216000D01*
X52359000Y-32223000D01*
X52364000Y-32231000D01*
X52370000Y-32238000D01*
X52374000Y-32246000D01*
X52379000Y-32254000D01*
X52383000Y-32262000D01*
X52386000Y-32271000D01*
X52389000Y-32280000D01*
X52392000Y-32288000D01*
X52394000Y-32297000D01*
X52396000Y-32306000D01*
X52397000Y-32316000D01*
X52398000Y-32325000D01*
X52398000Y-32334000D01*
X52398000Y-33706000D01*
X52398000Y-33715000D01*
X52397000Y-33724000D01*
X52396000Y-33734000D01*
X52394000Y-33743000D01*
X52392000Y-33752000D01*
X52389000Y-33760000D01*
X52386000Y-33769000D01*
X52383000Y-33778000D01*
X52379000Y-33786000D01*
X52374000Y-33794000D01*
X52370000Y-33802000D01*
X52364000Y-33809000D01*
X52359000Y-33817000D01*
X52353000Y-33824000D01*
X52346000Y-33830000D01*
X52340000Y-33837000D01*
X52333000Y-33843000D01*
X52325000Y-33848000D01*
X52318000Y-33854000D01*
X52310000Y-33858000D01*
X52302000Y-33863000D01*
X52294000Y-33867000D01*
X52285000Y-33870000D01*
X52276000Y-33873000D01*
X52268000Y-33876000D01*
X52259000Y-33878000D01*
X52250000Y-33880000D01*
X52240000Y-33881000D01*
X52231000Y-33882000D01*
X52222000Y-33882000D01*
X50347000Y-33882000D01*
X50302000Y-33881000D01*
X50257000Y-33877000D01*
X50212000Y-33871000D01*
X50168000Y-33863000D01*
X50124000Y-33853000D01*
X50081000Y-33840000D01*
X50038000Y-33825000D01*
X49996000Y-33807000D01*
X49956000Y-33788000D01*
X49916000Y-33767000D01*
X49878000Y-33743000D01*
X49840000Y-33717000D01*
X49805000Y-33690000D01*
X49770000Y-33661000D01*
X49737000Y-33630000D01*
X49706000Y-33597000D01*
X49677000Y-33562000D01*
X49650000Y-33527000D01*
X49624000Y-33489000D01*
X49600000Y-33451000D01*
X49579000Y-33411000D01*
X49560000Y-33371000D01*
X49542000Y-33329000D01*
X49527000Y-33286000D01*
X49514000Y-33243000D01*
X49504000Y-33199000D01*
X49496000Y-33155000D01*
X49490000Y-33110000D01*
X49486000Y-33065000D01*
X49485000Y-33020000D01*
X49486000Y-32975000D01*
X49490000Y-32930000D01*
X49496000Y-32885000D01*
X49504000Y-32841000D01*
X49514000Y-32797000D01*
X49527000Y-32754000D01*
X49542000Y-32711000D01*
X49560000Y-32669000D01*
X49579000Y-32629000D01*
X49600000Y-32589000D01*
X49624000Y-32551000D01*
X49650000Y-32513000D01*
X49677000Y-32478000D01*
X49706000Y-32443000D01*
X49737000Y-32410000D01*
X49770000Y-32379000D01*
X49805000Y-32350000D01*
X49840000Y-32323000D01*
X49878000Y-32297000D01*
X49916000Y-32273000D01*
X49956000Y-32252000D01*
X49996000Y-32233000D01*
X50038000Y-32215000D01*
X50081000Y-32200000D01*
X50124000Y-32187000D01*
X50168000Y-32177000D01*
X50212000Y-32169000D01*
X50257000Y-32163000D01*
X50302000Y-32159000D01*
X50347000Y-32158000D01*
X52222000Y-32158000D01*
X52231000Y-32158000D01*
X52240000Y-32159000D01*
G36*
X52240000Y-32159000D02*
G01*
X52250000Y-32160000D01*
X52259000Y-32162000D01*
X52268000Y-32164000D01*
X52276000Y-32167000D01*
X52285000Y-32170000D01*
X52294000Y-32173000D01*
X52302000Y-32177000D01*
X52310000Y-32182000D01*
X52318000Y-32186000D01*
X52325000Y-32192000D01*
X52333000Y-32197000D01*
X52340000Y-32203000D01*
X52346000Y-32210000D01*
X52353000Y-32216000D01*
X52359000Y-32223000D01*
X52364000Y-32231000D01*
X52370000Y-32238000D01*
X52374000Y-32246000D01*
X52379000Y-32254000D01*
X52383000Y-32262000D01*
X52386000Y-32271000D01*
X52389000Y-32280000D01*
X52392000Y-32288000D01*
X52394000Y-32297000D01*
X52396000Y-32306000D01*
X52397000Y-32316000D01*
X52398000Y-32325000D01*
X52398000Y-32334000D01*
X52398000Y-33706000D01*
X52398000Y-33715000D01*
X52397000Y-33724000D01*
X52396000Y-33734000D01*
X52394000Y-33743000D01*
X52392000Y-33752000D01*
X52389000Y-33760000D01*
X52386000Y-33769000D01*
X52383000Y-33778000D01*
X52379000Y-33786000D01*
X52374000Y-33794000D01*
X52370000Y-33802000D01*
X52364000Y-33809000D01*
X52359000Y-33817000D01*
X52353000Y-33824000D01*
X52346000Y-33830000D01*
X52340000Y-33837000D01*
X52333000Y-33843000D01*
X52325000Y-33848000D01*
X52318000Y-33854000D01*
X52310000Y-33858000D01*
X52302000Y-33863000D01*
X52294000Y-33867000D01*
X52285000Y-33870000D01*
X52276000Y-33873000D01*
X52268000Y-33876000D01*
X52259000Y-33878000D01*
X52250000Y-33880000D01*
X52240000Y-33881000D01*
X52231000Y-33882000D01*
X52222000Y-33882000D01*
X50347000Y-33882000D01*
X50302000Y-33881000D01*
X50257000Y-33877000D01*
X50212000Y-33871000D01*
X50168000Y-33863000D01*
X50124000Y-33853000D01*
X50081000Y-33840000D01*
X50038000Y-33825000D01*
X49996000Y-33807000D01*
X49956000Y-33788000D01*
X49916000Y-33767000D01*
X49878000Y-33743000D01*
X49840000Y-33717000D01*
X49805000Y-33690000D01*
X49770000Y-33661000D01*
X49737000Y-33630000D01*
X49706000Y-33597000D01*
X49677000Y-33562000D01*
X49650000Y-33527000D01*
X49624000Y-33489000D01*
X49600000Y-33451000D01*
X49579000Y-33411000D01*
X49560000Y-33371000D01*
X49542000Y-33329000D01*
X49527000Y-33286000D01*
X49514000Y-33243000D01*
X49504000Y-33199000D01*
X49496000Y-33155000D01*
X49490000Y-33110000D01*
X49486000Y-33065000D01*
X49485000Y-33020000D01*
X49486000Y-32975000D01*
X49490000Y-32930000D01*
X49496000Y-32885000D01*
X49504000Y-32841000D01*
X49514000Y-32797000D01*
X49527000Y-32754000D01*
X49542000Y-32711000D01*
X49560000Y-32669000D01*
X49579000Y-32629000D01*
X49600000Y-32589000D01*
X49624000Y-32551000D01*
X49650000Y-32513000D01*
X49677000Y-32478000D01*
X49706000Y-32443000D01*
X49737000Y-32410000D01*
X49770000Y-32379000D01*
X49805000Y-32350000D01*
X49840000Y-32323000D01*
X49878000Y-32297000D01*
X49916000Y-32273000D01*
X49956000Y-32252000D01*
X49996000Y-32233000D01*
X50038000Y-32215000D01*
X50081000Y-32200000D01*
X50124000Y-32187000D01*
X50168000Y-32177000D01*
X50212000Y-32169000D01*
X50257000Y-32163000D01*
X50302000Y-32159000D01*
X50347000Y-32158000D01*
X52222000Y-32158000D01*
X52231000Y-32158000D01*
X52240000Y-32159000D01*
G37*
X52240000Y-27079000D02*
X52250000Y-27080000D01*
X52259000Y-27082000D01*
X52268000Y-27084000D01*
X52276000Y-27087000D01*
X52285000Y-27090000D01*
X52294000Y-27093000D01*
X52302000Y-27097000D01*
X52310000Y-27102000D01*
X52318000Y-27106000D01*
X52325000Y-27112000D01*
X52333000Y-27117000D01*
X52340000Y-27123000D01*
X52346000Y-27130000D01*
X52353000Y-27136000D01*
X52359000Y-27143000D01*
X52364000Y-27151000D01*
X52370000Y-27158000D01*
X52374000Y-27166000D01*
X52379000Y-27174000D01*
X52383000Y-27182000D01*
X52386000Y-27191000D01*
X52389000Y-27200000D01*
X52392000Y-27208000D01*
X52394000Y-27217000D01*
X52396000Y-27226000D01*
X52397000Y-27236000D01*
X52398000Y-27245000D01*
X52398000Y-27254000D01*
X52398000Y-28626000D01*
X52398000Y-28635000D01*
X52397000Y-28644000D01*
X52396000Y-28654000D01*
X52394000Y-28663000D01*
X52392000Y-28672000D01*
X52389000Y-28680000D01*
X52386000Y-28689000D01*
X52383000Y-28698000D01*
X52379000Y-28706000D01*
X52374000Y-28714000D01*
X52370000Y-28722000D01*
X52364000Y-28729000D01*
X52359000Y-28737000D01*
X52353000Y-28744000D01*
X52346000Y-28750000D01*
X52340000Y-28757000D01*
X52333000Y-28763000D01*
X52325000Y-28768000D01*
X52318000Y-28774000D01*
X52310000Y-28778000D01*
X52302000Y-28783000D01*
X52294000Y-28787000D01*
X52285000Y-28790000D01*
X52276000Y-28793000D01*
X52268000Y-28796000D01*
X52259000Y-28798000D01*
X52250000Y-28800000D01*
X52240000Y-28801000D01*
X52231000Y-28802000D01*
X52222000Y-28802000D01*
X50347000Y-28802000D01*
X50302000Y-28801000D01*
X50257000Y-28797000D01*
X50212000Y-28791000D01*
X50168000Y-28783000D01*
X50124000Y-28773000D01*
X50081000Y-28760000D01*
X50038000Y-28745000D01*
X49996000Y-28727000D01*
X49956000Y-28708000D01*
X49916000Y-28687000D01*
X49878000Y-28663000D01*
X49840000Y-28637000D01*
X49805000Y-28610000D01*
X49770000Y-28581000D01*
X49737000Y-28550000D01*
X49706000Y-28517000D01*
X49677000Y-28482000D01*
X49650000Y-28447000D01*
X49624000Y-28409000D01*
X49600000Y-28371000D01*
X49579000Y-28331000D01*
X49560000Y-28291000D01*
X49542000Y-28249000D01*
X49527000Y-28206000D01*
X49514000Y-28163000D01*
X49504000Y-28119000D01*
X49496000Y-28075000D01*
X49490000Y-28030000D01*
X49486000Y-27985000D01*
X49485000Y-27940000D01*
X49486000Y-27895000D01*
X49490000Y-27850000D01*
X49496000Y-27805000D01*
X49504000Y-27761000D01*
X49514000Y-27717000D01*
X49527000Y-27674000D01*
X49542000Y-27631000D01*
X49560000Y-27589000D01*
X49579000Y-27549000D01*
X49600000Y-27509000D01*
X49624000Y-27471000D01*
X49650000Y-27433000D01*
X49677000Y-27398000D01*
X49706000Y-27363000D01*
X49737000Y-27330000D01*
X49770000Y-27299000D01*
X49805000Y-27270000D01*
X49840000Y-27243000D01*
X49878000Y-27217000D01*
X49916000Y-27193000D01*
X49956000Y-27172000D01*
X49996000Y-27153000D01*
X50038000Y-27135000D01*
X50081000Y-27120000D01*
X50124000Y-27107000D01*
X50168000Y-27097000D01*
X50212000Y-27089000D01*
X50257000Y-27083000D01*
X50302000Y-27079000D01*
X50347000Y-27078000D01*
X52222000Y-27078000D01*
X52231000Y-27078000D01*
X52240000Y-27079000D01*
G36*
X52240000Y-27079000D02*
G01*
X52250000Y-27080000D01*
X52259000Y-27082000D01*
X52268000Y-27084000D01*
X52276000Y-27087000D01*
X52285000Y-27090000D01*
X52294000Y-27093000D01*
X52302000Y-27097000D01*
X52310000Y-27102000D01*
X52318000Y-27106000D01*
X52325000Y-27112000D01*
X52333000Y-27117000D01*
X52340000Y-27123000D01*
X52346000Y-27130000D01*
X52353000Y-27136000D01*
X52359000Y-27143000D01*
X52364000Y-27151000D01*
X52370000Y-27158000D01*
X52374000Y-27166000D01*
X52379000Y-27174000D01*
X52383000Y-27182000D01*
X52386000Y-27191000D01*
X52389000Y-27200000D01*
X52392000Y-27208000D01*
X52394000Y-27217000D01*
X52396000Y-27226000D01*
X52397000Y-27236000D01*
X52398000Y-27245000D01*
X52398000Y-27254000D01*
X52398000Y-28626000D01*
X52398000Y-28635000D01*
X52397000Y-28644000D01*
X52396000Y-28654000D01*
X52394000Y-28663000D01*
X52392000Y-28672000D01*
X52389000Y-28680000D01*
X52386000Y-28689000D01*
X52383000Y-28698000D01*
X52379000Y-28706000D01*
X52374000Y-28714000D01*
X52370000Y-28722000D01*
X52364000Y-28729000D01*
X52359000Y-28737000D01*
X52353000Y-28744000D01*
X52346000Y-28750000D01*
X52340000Y-28757000D01*
X52333000Y-28763000D01*
X52325000Y-28768000D01*
X52318000Y-28774000D01*
X52310000Y-28778000D01*
X52302000Y-28783000D01*
X52294000Y-28787000D01*
X52285000Y-28790000D01*
X52276000Y-28793000D01*
X52268000Y-28796000D01*
X52259000Y-28798000D01*
X52250000Y-28800000D01*
X52240000Y-28801000D01*
X52231000Y-28802000D01*
X52222000Y-28802000D01*
X50347000Y-28802000D01*
X50302000Y-28801000D01*
X50257000Y-28797000D01*
X50212000Y-28791000D01*
X50168000Y-28783000D01*
X50124000Y-28773000D01*
X50081000Y-28760000D01*
X50038000Y-28745000D01*
X49996000Y-28727000D01*
X49956000Y-28708000D01*
X49916000Y-28687000D01*
X49878000Y-28663000D01*
X49840000Y-28637000D01*
X49805000Y-28610000D01*
X49770000Y-28581000D01*
X49737000Y-28550000D01*
X49706000Y-28517000D01*
X49677000Y-28482000D01*
X49650000Y-28447000D01*
X49624000Y-28409000D01*
X49600000Y-28371000D01*
X49579000Y-28331000D01*
X49560000Y-28291000D01*
X49542000Y-28249000D01*
X49527000Y-28206000D01*
X49514000Y-28163000D01*
X49504000Y-28119000D01*
X49496000Y-28075000D01*
X49490000Y-28030000D01*
X49486000Y-27985000D01*
X49485000Y-27940000D01*
X49486000Y-27895000D01*
X49490000Y-27850000D01*
X49496000Y-27805000D01*
X49504000Y-27761000D01*
X49514000Y-27717000D01*
X49527000Y-27674000D01*
X49542000Y-27631000D01*
X49560000Y-27589000D01*
X49579000Y-27549000D01*
X49600000Y-27509000D01*
X49624000Y-27471000D01*
X49650000Y-27433000D01*
X49677000Y-27398000D01*
X49706000Y-27363000D01*
X49737000Y-27330000D01*
X49770000Y-27299000D01*
X49805000Y-27270000D01*
X49840000Y-27243000D01*
X49878000Y-27217000D01*
X49916000Y-27193000D01*
X49956000Y-27172000D01*
X49996000Y-27153000D01*
X50038000Y-27135000D01*
X50081000Y-27120000D01*
X50124000Y-27107000D01*
X50168000Y-27097000D01*
X50212000Y-27089000D01*
X50257000Y-27083000D01*
X50302000Y-27079000D01*
X50347000Y-27078000D01*
X52222000Y-27078000D01*
X52231000Y-27078000D01*
X52240000Y-27079000D01*
G37*
X52240000Y-29619000D02*
X52250000Y-29620000D01*
X52259000Y-29622000D01*
X52268000Y-29624000D01*
X52276000Y-29627000D01*
X52285000Y-29630000D01*
X52294000Y-29633000D01*
X52302000Y-29637000D01*
X52310000Y-29642000D01*
X52318000Y-29646000D01*
X52325000Y-29652000D01*
X52333000Y-29657000D01*
X52340000Y-29663000D01*
X52346000Y-29670000D01*
X52353000Y-29676000D01*
X52359000Y-29683000D01*
X52364000Y-29691000D01*
X52370000Y-29698000D01*
X52374000Y-29706000D01*
X52379000Y-29714000D01*
X52383000Y-29722000D01*
X52386000Y-29731000D01*
X52389000Y-29740000D01*
X52392000Y-29748000D01*
X52394000Y-29757000D01*
X52396000Y-29766000D01*
X52397000Y-29776000D01*
X52398000Y-29785000D01*
X52398000Y-29794000D01*
X52398000Y-31166000D01*
X52398000Y-31175000D01*
X52397000Y-31184000D01*
X52396000Y-31194000D01*
X52394000Y-31203000D01*
X52392000Y-31212000D01*
X52389000Y-31220000D01*
X52386000Y-31229000D01*
X52383000Y-31238000D01*
X52379000Y-31246000D01*
X52374000Y-31254000D01*
X52370000Y-31262000D01*
X52364000Y-31269000D01*
X52359000Y-31277000D01*
X52353000Y-31284000D01*
X52346000Y-31290000D01*
X52340000Y-31297000D01*
X52333000Y-31303000D01*
X52325000Y-31308000D01*
X52318000Y-31314000D01*
X52310000Y-31318000D01*
X52302000Y-31323000D01*
X52294000Y-31327000D01*
X52285000Y-31330000D01*
X52276000Y-31333000D01*
X52268000Y-31336000D01*
X52259000Y-31338000D01*
X52250000Y-31340000D01*
X52240000Y-31341000D01*
X52231000Y-31342000D01*
X52222000Y-31342000D01*
X50347000Y-31342000D01*
X50302000Y-31341000D01*
X50257000Y-31337000D01*
X50212000Y-31331000D01*
X50168000Y-31323000D01*
X50124000Y-31313000D01*
X50081000Y-31300000D01*
X50038000Y-31285000D01*
X49996000Y-31267000D01*
X49956000Y-31248000D01*
X49916000Y-31227000D01*
X49878000Y-31203000D01*
X49840000Y-31177000D01*
X49805000Y-31150000D01*
X49770000Y-31121000D01*
X49737000Y-31090000D01*
X49706000Y-31057000D01*
X49677000Y-31022000D01*
X49650000Y-30987000D01*
X49624000Y-30949000D01*
X49600000Y-30911000D01*
X49579000Y-30871000D01*
X49560000Y-30831000D01*
X49542000Y-30789000D01*
X49527000Y-30746000D01*
X49514000Y-30703000D01*
X49504000Y-30659000D01*
X49496000Y-30615000D01*
X49490000Y-30570000D01*
X49486000Y-30525000D01*
X49485000Y-30480000D01*
X49486000Y-30435000D01*
X49490000Y-30390000D01*
X49496000Y-30345000D01*
X49504000Y-30301000D01*
X49514000Y-30257000D01*
X49527000Y-30214000D01*
X49542000Y-30171000D01*
X49560000Y-30129000D01*
X49579000Y-30089000D01*
X49600000Y-30049000D01*
X49624000Y-30011000D01*
X49650000Y-29973000D01*
X49677000Y-29938000D01*
X49706000Y-29903000D01*
X49737000Y-29870000D01*
X49770000Y-29839000D01*
X49805000Y-29810000D01*
X49840000Y-29783000D01*
X49878000Y-29757000D01*
X49916000Y-29733000D01*
X49956000Y-29712000D01*
X49996000Y-29693000D01*
X50038000Y-29675000D01*
X50081000Y-29660000D01*
X50124000Y-29647000D01*
X50168000Y-29637000D01*
X50212000Y-29629000D01*
X50257000Y-29623000D01*
X50302000Y-29619000D01*
X50347000Y-29618000D01*
X52222000Y-29618000D01*
X52231000Y-29618000D01*
X52240000Y-29619000D01*
G36*
X52240000Y-29619000D02*
G01*
X52250000Y-29620000D01*
X52259000Y-29622000D01*
X52268000Y-29624000D01*
X52276000Y-29627000D01*
X52285000Y-29630000D01*
X52294000Y-29633000D01*
X52302000Y-29637000D01*
X52310000Y-29642000D01*
X52318000Y-29646000D01*
X52325000Y-29652000D01*
X52333000Y-29657000D01*
X52340000Y-29663000D01*
X52346000Y-29670000D01*
X52353000Y-29676000D01*
X52359000Y-29683000D01*
X52364000Y-29691000D01*
X52370000Y-29698000D01*
X52374000Y-29706000D01*
X52379000Y-29714000D01*
X52383000Y-29722000D01*
X52386000Y-29731000D01*
X52389000Y-29740000D01*
X52392000Y-29748000D01*
X52394000Y-29757000D01*
X52396000Y-29766000D01*
X52397000Y-29776000D01*
X52398000Y-29785000D01*
X52398000Y-29794000D01*
X52398000Y-31166000D01*
X52398000Y-31175000D01*
X52397000Y-31184000D01*
X52396000Y-31194000D01*
X52394000Y-31203000D01*
X52392000Y-31212000D01*
X52389000Y-31220000D01*
X52386000Y-31229000D01*
X52383000Y-31238000D01*
X52379000Y-31246000D01*
X52374000Y-31254000D01*
X52370000Y-31262000D01*
X52364000Y-31269000D01*
X52359000Y-31277000D01*
X52353000Y-31284000D01*
X52346000Y-31290000D01*
X52340000Y-31297000D01*
X52333000Y-31303000D01*
X52325000Y-31308000D01*
X52318000Y-31314000D01*
X52310000Y-31318000D01*
X52302000Y-31323000D01*
X52294000Y-31327000D01*
X52285000Y-31330000D01*
X52276000Y-31333000D01*
X52268000Y-31336000D01*
X52259000Y-31338000D01*
X52250000Y-31340000D01*
X52240000Y-31341000D01*
X52231000Y-31342000D01*
X52222000Y-31342000D01*
X50347000Y-31342000D01*
X50302000Y-31341000D01*
X50257000Y-31337000D01*
X50212000Y-31331000D01*
X50168000Y-31323000D01*
X50124000Y-31313000D01*
X50081000Y-31300000D01*
X50038000Y-31285000D01*
X49996000Y-31267000D01*
X49956000Y-31248000D01*
X49916000Y-31227000D01*
X49878000Y-31203000D01*
X49840000Y-31177000D01*
X49805000Y-31150000D01*
X49770000Y-31121000D01*
X49737000Y-31090000D01*
X49706000Y-31057000D01*
X49677000Y-31022000D01*
X49650000Y-30987000D01*
X49624000Y-30949000D01*
X49600000Y-30911000D01*
X49579000Y-30871000D01*
X49560000Y-30831000D01*
X49542000Y-30789000D01*
X49527000Y-30746000D01*
X49514000Y-30703000D01*
X49504000Y-30659000D01*
X49496000Y-30615000D01*
X49490000Y-30570000D01*
X49486000Y-30525000D01*
X49485000Y-30480000D01*
X49486000Y-30435000D01*
X49490000Y-30390000D01*
X49496000Y-30345000D01*
X49504000Y-30301000D01*
X49514000Y-30257000D01*
X49527000Y-30214000D01*
X49542000Y-30171000D01*
X49560000Y-30129000D01*
X49579000Y-30089000D01*
X49600000Y-30049000D01*
X49624000Y-30011000D01*
X49650000Y-29973000D01*
X49677000Y-29938000D01*
X49706000Y-29903000D01*
X49737000Y-29870000D01*
X49770000Y-29839000D01*
X49805000Y-29810000D01*
X49840000Y-29783000D01*
X49878000Y-29757000D01*
X49916000Y-29733000D01*
X49956000Y-29712000D01*
X49996000Y-29693000D01*
X50038000Y-29675000D01*
X50081000Y-29660000D01*
X50124000Y-29647000D01*
X50168000Y-29637000D01*
X50212000Y-29629000D01*
X50257000Y-29623000D01*
X50302000Y-29619000D01*
X50347000Y-29618000D01*
X52222000Y-29618000D01*
X52231000Y-29618000D01*
X52240000Y-29619000D01*
G37*
X52240000Y-34699000D02*
X52250000Y-34700000D01*
X52259000Y-34702000D01*
X52268000Y-34704000D01*
X52276000Y-34707000D01*
X52285000Y-34710000D01*
X52294000Y-34713000D01*
X52302000Y-34717000D01*
X52310000Y-34722000D01*
X52318000Y-34726000D01*
X52325000Y-34732000D01*
X52333000Y-34737000D01*
X52340000Y-34743000D01*
X52346000Y-34750000D01*
X52353000Y-34756000D01*
X52359000Y-34763000D01*
X52364000Y-34771000D01*
X52370000Y-34778000D01*
X52374000Y-34786000D01*
X52379000Y-34794000D01*
X52383000Y-34802000D01*
X52386000Y-34811000D01*
X52389000Y-34820000D01*
X52392000Y-34828000D01*
X52394000Y-34837000D01*
X52396000Y-34846000D01*
X52397000Y-34856000D01*
X52398000Y-34865000D01*
X52398000Y-34874000D01*
X52398000Y-36246000D01*
X52398000Y-36255000D01*
X52397000Y-36264000D01*
X52396000Y-36274000D01*
X52394000Y-36283000D01*
X52392000Y-36292000D01*
X52389000Y-36300000D01*
X52386000Y-36309000D01*
X52383000Y-36318000D01*
X52379000Y-36326000D01*
X52374000Y-36334000D01*
X52370000Y-36342000D01*
X52364000Y-36349000D01*
X52359000Y-36357000D01*
X52353000Y-36364000D01*
X52346000Y-36370000D01*
X52340000Y-36377000D01*
X52333000Y-36383000D01*
X52325000Y-36388000D01*
X52318000Y-36394000D01*
X52310000Y-36398000D01*
X52302000Y-36403000D01*
X52294000Y-36407000D01*
X52285000Y-36410000D01*
X52276000Y-36413000D01*
X52268000Y-36416000D01*
X52259000Y-36418000D01*
X52250000Y-36420000D01*
X52240000Y-36421000D01*
X52231000Y-36422000D01*
X52222000Y-36422000D01*
X50347000Y-36422000D01*
X50302000Y-36421000D01*
X50257000Y-36417000D01*
X50212000Y-36411000D01*
X50168000Y-36403000D01*
X50124000Y-36393000D01*
X50081000Y-36380000D01*
X50038000Y-36365000D01*
X49996000Y-36347000D01*
X49956000Y-36328000D01*
X49916000Y-36307000D01*
X49878000Y-36283000D01*
X49840000Y-36257000D01*
X49805000Y-36230000D01*
X49770000Y-36201000D01*
X49737000Y-36170000D01*
X49706000Y-36137000D01*
X49677000Y-36102000D01*
X49650000Y-36067000D01*
X49624000Y-36029000D01*
X49600000Y-35991000D01*
X49579000Y-35951000D01*
X49560000Y-35911000D01*
X49542000Y-35869000D01*
X49527000Y-35826000D01*
X49514000Y-35783000D01*
X49504000Y-35739000D01*
X49496000Y-35695000D01*
X49490000Y-35650000D01*
X49486000Y-35605000D01*
X49485000Y-35560000D01*
X49486000Y-35515000D01*
X49490000Y-35470000D01*
X49496000Y-35425000D01*
X49504000Y-35381000D01*
X49514000Y-35337000D01*
X49527000Y-35294000D01*
X49542000Y-35251000D01*
X49560000Y-35209000D01*
X49579000Y-35169000D01*
X49600000Y-35129000D01*
X49624000Y-35091000D01*
X49650000Y-35053000D01*
X49677000Y-35018000D01*
X49706000Y-34983000D01*
X49737000Y-34950000D01*
X49770000Y-34919000D01*
X49805000Y-34890000D01*
X49840000Y-34863000D01*
X49878000Y-34837000D01*
X49916000Y-34813000D01*
X49956000Y-34792000D01*
X49996000Y-34773000D01*
X50038000Y-34755000D01*
X50081000Y-34740000D01*
X50124000Y-34727000D01*
X50168000Y-34717000D01*
X50212000Y-34709000D01*
X50257000Y-34703000D01*
X50302000Y-34699000D01*
X50347000Y-34698000D01*
X52222000Y-34698000D01*
X52231000Y-34698000D01*
X52240000Y-34699000D01*
G36*
X52240000Y-34699000D02*
G01*
X52250000Y-34700000D01*
X52259000Y-34702000D01*
X52268000Y-34704000D01*
X52276000Y-34707000D01*
X52285000Y-34710000D01*
X52294000Y-34713000D01*
X52302000Y-34717000D01*
X52310000Y-34722000D01*
X52318000Y-34726000D01*
X52325000Y-34732000D01*
X52333000Y-34737000D01*
X52340000Y-34743000D01*
X52346000Y-34750000D01*
X52353000Y-34756000D01*
X52359000Y-34763000D01*
X52364000Y-34771000D01*
X52370000Y-34778000D01*
X52374000Y-34786000D01*
X52379000Y-34794000D01*
X52383000Y-34802000D01*
X52386000Y-34811000D01*
X52389000Y-34820000D01*
X52392000Y-34828000D01*
X52394000Y-34837000D01*
X52396000Y-34846000D01*
X52397000Y-34856000D01*
X52398000Y-34865000D01*
X52398000Y-34874000D01*
X52398000Y-36246000D01*
X52398000Y-36255000D01*
X52397000Y-36264000D01*
X52396000Y-36274000D01*
X52394000Y-36283000D01*
X52392000Y-36292000D01*
X52389000Y-36300000D01*
X52386000Y-36309000D01*
X52383000Y-36318000D01*
X52379000Y-36326000D01*
X52374000Y-36334000D01*
X52370000Y-36342000D01*
X52364000Y-36349000D01*
X52359000Y-36357000D01*
X52353000Y-36364000D01*
X52346000Y-36370000D01*
X52340000Y-36377000D01*
X52333000Y-36383000D01*
X52325000Y-36388000D01*
X52318000Y-36394000D01*
X52310000Y-36398000D01*
X52302000Y-36403000D01*
X52294000Y-36407000D01*
X52285000Y-36410000D01*
X52276000Y-36413000D01*
X52268000Y-36416000D01*
X52259000Y-36418000D01*
X52250000Y-36420000D01*
X52240000Y-36421000D01*
X52231000Y-36422000D01*
X52222000Y-36422000D01*
X50347000Y-36422000D01*
X50302000Y-36421000D01*
X50257000Y-36417000D01*
X50212000Y-36411000D01*
X50168000Y-36403000D01*
X50124000Y-36393000D01*
X50081000Y-36380000D01*
X50038000Y-36365000D01*
X49996000Y-36347000D01*
X49956000Y-36328000D01*
X49916000Y-36307000D01*
X49878000Y-36283000D01*
X49840000Y-36257000D01*
X49805000Y-36230000D01*
X49770000Y-36201000D01*
X49737000Y-36170000D01*
X49706000Y-36137000D01*
X49677000Y-36102000D01*
X49650000Y-36067000D01*
X49624000Y-36029000D01*
X49600000Y-35991000D01*
X49579000Y-35951000D01*
X49560000Y-35911000D01*
X49542000Y-35869000D01*
X49527000Y-35826000D01*
X49514000Y-35783000D01*
X49504000Y-35739000D01*
X49496000Y-35695000D01*
X49490000Y-35650000D01*
X49486000Y-35605000D01*
X49485000Y-35560000D01*
X49486000Y-35515000D01*
X49490000Y-35470000D01*
X49496000Y-35425000D01*
X49504000Y-35381000D01*
X49514000Y-35337000D01*
X49527000Y-35294000D01*
X49542000Y-35251000D01*
X49560000Y-35209000D01*
X49579000Y-35169000D01*
X49600000Y-35129000D01*
X49624000Y-35091000D01*
X49650000Y-35053000D01*
X49677000Y-35018000D01*
X49706000Y-34983000D01*
X49737000Y-34950000D01*
X49770000Y-34919000D01*
X49805000Y-34890000D01*
X49840000Y-34863000D01*
X49878000Y-34837000D01*
X49916000Y-34813000D01*
X49956000Y-34792000D01*
X49996000Y-34773000D01*
X50038000Y-34755000D01*
X50081000Y-34740000D01*
X50124000Y-34727000D01*
X50168000Y-34717000D01*
X50212000Y-34709000D01*
X50257000Y-34703000D01*
X50302000Y-34699000D01*
X50347000Y-34698000D01*
X52222000Y-34698000D01*
X52231000Y-34698000D01*
X52240000Y-34699000D01*
G37*
X52240000Y-37239000D02*
X52250000Y-37240000D01*
X52259000Y-37242000D01*
X52268000Y-37244000D01*
X52276000Y-37247000D01*
X52285000Y-37250000D01*
X52294000Y-37253000D01*
X52302000Y-37257000D01*
X52310000Y-37262000D01*
X52318000Y-37266000D01*
X52325000Y-37272000D01*
X52333000Y-37277000D01*
X52340000Y-37283000D01*
X52346000Y-37290000D01*
X52353000Y-37296000D01*
X52359000Y-37303000D01*
X52364000Y-37311000D01*
X52370000Y-37318000D01*
X52374000Y-37326000D01*
X52379000Y-37334000D01*
X52383000Y-37342000D01*
X52386000Y-37351000D01*
X52389000Y-37360000D01*
X52392000Y-37368000D01*
X52394000Y-37377000D01*
X52396000Y-37386000D01*
X52397000Y-37396000D01*
X52398000Y-37405000D01*
X52398000Y-37414000D01*
X52398000Y-38786000D01*
X52398000Y-38795000D01*
X52397000Y-38804000D01*
X52396000Y-38814000D01*
X52394000Y-38823000D01*
X52392000Y-38832000D01*
X52389000Y-38840000D01*
X52386000Y-38849000D01*
X52383000Y-38858000D01*
X52379000Y-38866000D01*
X52374000Y-38874000D01*
X52370000Y-38882000D01*
X52364000Y-38889000D01*
X52359000Y-38897000D01*
X52353000Y-38904000D01*
X52346000Y-38910000D01*
X52340000Y-38917000D01*
X52333000Y-38923000D01*
X52325000Y-38928000D01*
X52318000Y-38934000D01*
X52310000Y-38938000D01*
X52302000Y-38943000D01*
X52294000Y-38947000D01*
X52285000Y-38950000D01*
X52276000Y-38953000D01*
X52268000Y-38956000D01*
X52259000Y-38958000D01*
X52250000Y-38960000D01*
X52240000Y-38961000D01*
X52231000Y-38962000D01*
X52222000Y-38962000D01*
X50347000Y-38962000D01*
X50302000Y-38961000D01*
X50257000Y-38957000D01*
X50212000Y-38951000D01*
X50168000Y-38943000D01*
X50124000Y-38933000D01*
X50081000Y-38920000D01*
X50038000Y-38905000D01*
X49996000Y-38887000D01*
X49956000Y-38868000D01*
X49916000Y-38847000D01*
X49878000Y-38823000D01*
X49840000Y-38797000D01*
X49805000Y-38770000D01*
X49770000Y-38741000D01*
X49737000Y-38710000D01*
X49706000Y-38677000D01*
X49677000Y-38642000D01*
X49650000Y-38607000D01*
X49624000Y-38569000D01*
X49600000Y-38531000D01*
X49579000Y-38491000D01*
X49560000Y-38451000D01*
X49542000Y-38409000D01*
X49527000Y-38366000D01*
X49514000Y-38323000D01*
X49504000Y-38279000D01*
X49496000Y-38235000D01*
X49490000Y-38190000D01*
X49486000Y-38145000D01*
X49485000Y-38100000D01*
X49486000Y-38055000D01*
X49490000Y-38010000D01*
X49496000Y-37965000D01*
X49504000Y-37921000D01*
X49514000Y-37877000D01*
X49527000Y-37834000D01*
X49542000Y-37791000D01*
X49560000Y-37749000D01*
X49579000Y-37709000D01*
X49600000Y-37669000D01*
X49624000Y-37631000D01*
X49650000Y-37593000D01*
X49677000Y-37558000D01*
X49706000Y-37523000D01*
X49737000Y-37490000D01*
X49770000Y-37459000D01*
X49805000Y-37430000D01*
X49840000Y-37403000D01*
X49878000Y-37377000D01*
X49916000Y-37353000D01*
X49956000Y-37332000D01*
X49996000Y-37313000D01*
X50038000Y-37295000D01*
X50081000Y-37280000D01*
X50124000Y-37267000D01*
X50168000Y-37257000D01*
X50212000Y-37249000D01*
X50257000Y-37243000D01*
X50302000Y-37239000D01*
X50347000Y-37238000D01*
X52222000Y-37238000D01*
X52231000Y-37238000D01*
X52240000Y-37239000D01*
G36*
X52240000Y-37239000D02*
G01*
X52250000Y-37240000D01*
X52259000Y-37242000D01*
X52268000Y-37244000D01*
X52276000Y-37247000D01*
X52285000Y-37250000D01*
X52294000Y-37253000D01*
X52302000Y-37257000D01*
X52310000Y-37262000D01*
X52318000Y-37266000D01*
X52325000Y-37272000D01*
X52333000Y-37277000D01*
X52340000Y-37283000D01*
X52346000Y-37290000D01*
X52353000Y-37296000D01*
X52359000Y-37303000D01*
X52364000Y-37311000D01*
X52370000Y-37318000D01*
X52374000Y-37326000D01*
X52379000Y-37334000D01*
X52383000Y-37342000D01*
X52386000Y-37351000D01*
X52389000Y-37360000D01*
X52392000Y-37368000D01*
X52394000Y-37377000D01*
X52396000Y-37386000D01*
X52397000Y-37396000D01*
X52398000Y-37405000D01*
X52398000Y-37414000D01*
X52398000Y-38786000D01*
X52398000Y-38795000D01*
X52397000Y-38804000D01*
X52396000Y-38814000D01*
X52394000Y-38823000D01*
X52392000Y-38832000D01*
X52389000Y-38840000D01*
X52386000Y-38849000D01*
X52383000Y-38858000D01*
X52379000Y-38866000D01*
X52374000Y-38874000D01*
X52370000Y-38882000D01*
X52364000Y-38889000D01*
X52359000Y-38897000D01*
X52353000Y-38904000D01*
X52346000Y-38910000D01*
X52340000Y-38917000D01*
X52333000Y-38923000D01*
X52325000Y-38928000D01*
X52318000Y-38934000D01*
X52310000Y-38938000D01*
X52302000Y-38943000D01*
X52294000Y-38947000D01*
X52285000Y-38950000D01*
X52276000Y-38953000D01*
X52268000Y-38956000D01*
X52259000Y-38958000D01*
X52250000Y-38960000D01*
X52240000Y-38961000D01*
X52231000Y-38962000D01*
X52222000Y-38962000D01*
X50347000Y-38962000D01*
X50302000Y-38961000D01*
X50257000Y-38957000D01*
X50212000Y-38951000D01*
X50168000Y-38943000D01*
X50124000Y-38933000D01*
X50081000Y-38920000D01*
X50038000Y-38905000D01*
X49996000Y-38887000D01*
X49956000Y-38868000D01*
X49916000Y-38847000D01*
X49878000Y-38823000D01*
X49840000Y-38797000D01*
X49805000Y-38770000D01*
X49770000Y-38741000D01*
X49737000Y-38710000D01*
X49706000Y-38677000D01*
X49677000Y-38642000D01*
X49650000Y-38607000D01*
X49624000Y-38569000D01*
X49600000Y-38531000D01*
X49579000Y-38491000D01*
X49560000Y-38451000D01*
X49542000Y-38409000D01*
X49527000Y-38366000D01*
X49514000Y-38323000D01*
X49504000Y-38279000D01*
X49496000Y-38235000D01*
X49490000Y-38190000D01*
X49486000Y-38145000D01*
X49485000Y-38100000D01*
X49486000Y-38055000D01*
X49490000Y-38010000D01*
X49496000Y-37965000D01*
X49504000Y-37921000D01*
X49514000Y-37877000D01*
X49527000Y-37834000D01*
X49542000Y-37791000D01*
X49560000Y-37749000D01*
X49579000Y-37709000D01*
X49600000Y-37669000D01*
X49624000Y-37631000D01*
X49650000Y-37593000D01*
X49677000Y-37558000D01*
X49706000Y-37523000D01*
X49737000Y-37490000D01*
X49770000Y-37459000D01*
X49805000Y-37430000D01*
X49840000Y-37403000D01*
X49878000Y-37377000D01*
X49916000Y-37353000D01*
X49956000Y-37332000D01*
X49996000Y-37313000D01*
X50038000Y-37295000D01*
X50081000Y-37280000D01*
X50124000Y-37267000D01*
X50168000Y-37257000D01*
X50212000Y-37249000D01*
X50257000Y-37243000D01*
X50302000Y-37239000D01*
X50347000Y-37238000D01*
X52222000Y-37238000D01*
X52231000Y-37238000D01*
X52240000Y-37239000D01*
G37*
X52240000Y-39779000D02*
X52250000Y-39780000D01*
X52259000Y-39782000D01*
X52268000Y-39784000D01*
X52276000Y-39787000D01*
X52285000Y-39790000D01*
X52294000Y-39793000D01*
X52302000Y-39797000D01*
X52310000Y-39802000D01*
X52318000Y-39806000D01*
X52325000Y-39812000D01*
X52333000Y-39817000D01*
X52340000Y-39823000D01*
X52346000Y-39830000D01*
X52353000Y-39836000D01*
X52359000Y-39843000D01*
X52364000Y-39851000D01*
X52370000Y-39858000D01*
X52374000Y-39866000D01*
X52379000Y-39874000D01*
X52383000Y-39882000D01*
X52386000Y-39891000D01*
X52389000Y-39900000D01*
X52392000Y-39908000D01*
X52394000Y-39917000D01*
X52396000Y-39926000D01*
X52397000Y-39936000D01*
X52398000Y-39945000D01*
X52398000Y-39954000D01*
X52398000Y-41326000D01*
X52398000Y-41335000D01*
X52397000Y-41344000D01*
X52396000Y-41354000D01*
X52394000Y-41363000D01*
X52392000Y-41372000D01*
X52389000Y-41380000D01*
X52386000Y-41389000D01*
X52383000Y-41398000D01*
X52379000Y-41406000D01*
X52374000Y-41414000D01*
X52370000Y-41422000D01*
X52364000Y-41429000D01*
X52359000Y-41437000D01*
X52353000Y-41444000D01*
X52346000Y-41450000D01*
X52340000Y-41457000D01*
X52333000Y-41463000D01*
X52325000Y-41468000D01*
X52318000Y-41474000D01*
X52310000Y-41478000D01*
X52302000Y-41483000D01*
X52294000Y-41487000D01*
X52285000Y-41490000D01*
X52276000Y-41493000D01*
X52268000Y-41496000D01*
X52259000Y-41498000D01*
X52250000Y-41500000D01*
X52240000Y-41501000D01*
X52231000Y-41502000D01*
X52222000Y-41502000D01*
X50347000Y-41502000D01*
X50302000Y-41501000D01*
X50257000Y-41497000D01*
X50212000Y-41491000D01*
X50168000Y-41483000D01*
X50124000Y-41473000D01*
X50081000Y-41460000D01*
X50038000Y-41445000D01*
X49996000Y-41427000D01*
X49956000Y-41408000D01*
X49916000Y-41387000D01*
X49878000Y-41363000D01*
X49840000Y-41337000D01*
X49805000Y-41310000D01*
X49770000Y-41281000D01*
X49737000Y-41250000D01*
X49706000Y-41217000D01*
X49677000Y-41182000D01*
X49650000Y-41147000D01*
X49624000Y-41109000D01*
X49600000Y-41071000D01*
X49579000Y-41031000D01*
X49560000Y-40991000D01*
X49542000Y-40949000D01*
X49527000Y-40906000D01*
X49514000Y-40863000D01*
X49504000Y-40819000D01*
X49496000Y-40775000D01*
X49490000Y-40730000D01*
X49486000Y-40685000D01*
X49485000Y-40640000D01*
X49486000Y-40595000D01*
X49490000Y-40550000D01*
X49496000Y-40505000D01*
X49504000Y-40461000D01*
X49514000Y-40417000D01*
X49527000Y-40374000D01*
X49542000Y-40331000D01*
X49560000Y-40289000D01*
X49579000Y-40249000D01*
X49600000Y-40209000D01*
X49624000Y-40171000D01*
X49650000Y-40133000D01*
X49677000Y-40098000D01*
X49706000Y-40063000D01*
X49737000Y-40030000D01*
X49770000Y-39999000D01*
X49805000Y-39970000D01*
X49840000Y-39943000D01*
X49878000Y-39917000D01*
X49916000Y-39893000D01*
X49956000Y-39872000D01*
X49996000Y-39853000D01*
X50038000Y-39835000D01*
X50081000Y-39820000D01*
X50124000Y-39807000D01*
X50168000Y-39797000D01*
X50212000Y-39789000D01*
X50257000Y-39783000D01*
X50302000Y-39779000D01*
X50347000Y-39778000D01*
X52222000Y-39778000D01*
X52231000Y-39778000D01*
X52240000Y-39779000D01*
G36*
X52240000Y-39779000D02*
G01*
X52250000Y-39780000D01*
X52259000Y-39782000D01*
X52268000Y-39784000D01*
X52276000Y-39787000D01*
X52285000Y-39790000D01*
X52294000Y-39793000D01*
X52302000Y-39797000D01*
X52310000Y-39802000D01*
X52318000Y-39806000D01*
X52325000Y-39812000D01*
X52333000Y-39817000D01*
X52340000Y-39823000D01*
X52346000Y-39830000D01*
X52353000Y-39836000D01*
X52359000Y-39843000D01*
X52364000Y-39851000D01*
X52370000Y-39858000D01*
X52374000Y-39866000D01*
X52379000Y-39874000D01*
X52383000Y-39882000D01*
X52386000Y-39891000D01*
X52389000Y-39900000D01*
X52392000Y-39908000D01*
X52394000Y-39917000D01*
X52396000Y-39926000D01*
X52397000Y-39936000D01*
X52398000Y-39945000D01*
X52398000Y-39954000D01*
X52398000Y-41326000D01*
X52398000Y-41335000D01*
X52397000Y-41344000D01*
X52396000Y-41354000D01*
X52394000Y-41363000D01*
X52392000Y-41372000D01*
X52389000Y-41380000D01*
X52386000Y-41389000D01*
X52383000Y-41398000D01*
X52379000Y-41406000D01*
X52374000Y-41414000D01*
X52370000Y-41422000D01*
X52364000Y-41429000D01*
X52359000Y-41437000D01*
X52353000Y-41444000D01*
X52346000Y-41450000D01*
X52340000Y-41457000D01*
X52333000Y-41463000D01*
X52325000Y-41468000D01*
X52318000Y-41474000D01*
X52310000Y-41478000D01*
X52302000Y-41483000D01*
X52294000Y-41487000D01*
X52285000Y-41490000D01*
X52276000Y-41493000D01*
X52268000Y-41496000D01*
X52259000Y-41498000D01*
X52250000Y-41500000D01*
X52240000Y-41501000D01*
X52231000Y-41502000D01*
X52222000Y-41502000D01*
X50347000Y-41502000D01*
X50302000Y-41501000D01*
X50257000Y-41497000D01*
X50212000Y-41491000D01*
X50168000Y-41483000D01*
X50124000Y-41473000D01*
X50081000Y-41460000D01*
X50038000Y-41445000D01*
X49996000Y-41427000D01*
X49956000Y-41408000D01*
X49916000Y-41387000D01*
X49878000Y-41363000D01*
X49840000Y-41337000D01*
X49805000Y-41310000D01*
X49770000Y-41281000D01*
X49737000Y-41250000D01*
X49706000Y-41217000D01*
X49677000Y-41182000D01*
X49650000Y-41147000D01*
X49624000Y-41109000D01*
X49600000Y-41071000D01*
X49579000Y-41031000D01*
X49560000Y-40991000D01*
X49542000Y-40949000D01*
X49527000Y-40906000D01*
X49514000Y-40863000D01*
X49504000Y-40819000D01*
X49496000Y-40775000D01*
X49490000Y-40730000D01*
X49486000Y-40685000D01*
X49485000Y-40640000D01*
X49486000Y-40595000D01*
X49490000Y-40550000D01*
X49496000Y-40505000D01*
X49504000Y-40461000D01*
X49514000Y-40417000D01*
X49527000Y-40374000D01*
X49542000Y-40331000D01*
X49560000Y-40289000D01*
X49579000Y-40249000D01*
X49600000Y-40209000D01*
X49624000Y-40171000D01*
X49650000Y-40133000D01*
X49677000Y-40098000D01*
X49706000Y-40063000D01*
X49737000Y-40030000D01*
X49770000Y-39999000D01*
X49805000Y-39970000D01*
X49840000Y-39943000D01*
X49878000Y-39917000D01*
X49916000Y-39893000D01*
X49956000Y-39872000D01*
X49996000Y-39853000D01*
X50038000Y-39835000D01*
X50081000Y-39820000D01*
X50124000Y-39807000D01*
X50168000Y-39797000D01*
X50212000Y-39789000D01*
X50257000Y-39783000D01*
X50302000Y-39779000D01*
X50347000Y-39778000D01*
X52222000Y-39778000D01*
X52231000Y-39778000D01*
X52240000Y-39779000D01*
G37*
X52240000Y-42319000D02*
X52250000Y-42320000D01*
X52259000Y-42322000D01*
X52268000Y-42324000D01*
X52276000Y-42327000D01*
X52285000Y-42330000D01*
X52294000Y-42333000D01*
X52302000Y-42337000D01*
X52310000Y-42342000D01*
X52318000Y-42346000D01*
X52325000Y-42352000D01*
X52333000Y-42357000D01*
X52340000Y-42363000D01*
X52346000Y-42370000D01*
X52353000Y-42376000D01*
X52359000Y-42383000D01*
X52364000Y-42391000D01*
X52370000Y-42398000D01*
X52374000Y-42406000D01*
X52379000Y-42414000D01*
X52383000Y-42422000D01*
X52386000Y-42431000D01*
X52389000Y-42440000D01*
X52392000Y-42448000D01*
X52394000Y-42457000D01*
X52396000Y-42466000D01*
X52397000Y-42476000D01*
X52398000Y-42485000D01*
X52398000Y-42494000D01*
X52398000Y-43866000D01*
X52398000Y-43875000D01*
X52397000Y-43884000D01*
X52396000Y-43894000D01*
X52394000Y-43903000D01*
X52392000Y-43912000D01*
X52389000Y-43920000D01*
X52386000Y-43929000D01*
X52383000Y-43938000D01*
X52379000Y-43946000D01*
X52374000Y-43954000D01*
X52370000Y-43962000D01*
X52364000Y-43969000D01*
X52359000Y-43977000D01*
X52353000Y-43984000D01*
X52346000Y-43990000D01*
X52340000Y-43997000D01*
X52333000Y-44003000D01*
X52325000Y-44008000D01*
X52318000Y-44014000D01*
X52310000Y-44018000D01*
X52302000Y-44023000D01*
X52294000Y-44027000D01*
X52285000Y-44030000D01*
X52276000Y-44033000D01*
X52268000Y-44036000D01*
X52259000Y-44038000D01*
X52250000Y-44040000D01*
X52240000Y-44041000D01*
X52231000Y-44042000D01*
X52222000Y-44042000D01*
X50347000Y-44042000D01*
X50302000Y-44041000D01*
X50257000Y-44037000D01*
X50212000Y-44031000D01*
X50168000Y-44023000D01*
X50124000Y-44013000D01*
X50081000Y-44000000D01*
X50038000Y-43985000D01*
X49996000Y-43967000D01*
X49956000Y-43948000D01*
X49916000Y-43927000D01*
X49878000Y-43903000D01*
X49840000Y-43877000D01*
X49805000Y-43850000D01*
X49770000Y-43821000D01*
X49737000Y-43790000D01*
X49706000Y-43757000D01*
X49677000Y-43722000D01*
X49650000Y-43687000D01*
X49624000Y-43649000D01*
X49600000Y-43611000D01*
X49579000Y-43571000D01*
X49560000Y-43531000D01*
X49542000Y-43489000D01*
X49527000Y-43446000D01*
X49514000Y-43403000D01*
X49504000Y-43359000D01*
X49496000Y-43315000D01*
X49490000Y-43270000D01*
X49486000Y-43225000D01*
X49485000Y-43180000D01*
X49486000Y-43135000D01*
X49490000Y-43090000D01*
X49496000Y-43045000D01*
X49504000Y-43001000D01*
X49514000Y-42957000D01*
X49527000Y-42914000D01*
X49542000Y-42871000D01*
X49560000Y-42829000D01*
X49579000Y-42789000D01*
X49600000Y-42749000D01*
X49624000Y-42711000D01*
X49650000Y-42673000D01*
X49677000Y-42638000D01*
X49706000Y-42603000D01*
X49737000Y-42570000D01*
X49770000Y-42539000D01*
X49805000Y-42510000D01*
X49840000Y-42483000D01*
X49878000Y-42457000D01*
X49916000Y-42433000D01*
X49956000Y-42412000D01*
X49996000Y-42393000D01*
X50038000Y-42375000D01*
X50081000Y-42360000D01*
X50124000Y-42347000D01*
X50168000Y-42337000D01*
X50212000Y-42329000D01*
X50257000Y-42323000D01*
X50302000Y-42319000D01*
X50347000Y-42318000D01*
X52222000Y-42318000D01*
X52231000Y-42318000D01*
X52240000Y-42319000D01*
G36*
X52240000Y-42319000D02*
G01*
X52250000Y-42320000D01*
X52259000Y-42322000D01*
X52268000Y-42324000D01*
X52276000Y-42327000D01*
X52285000Y-42330000D01*
X52294000Y-42333000D01*
X52302000Y-42337000D01*
X52310000Y-42342000D01*
X52318000Y-42346000D01*
X52325000Y-42352000D01*
X52333000Y-42357000D01*
X52340000Y-42363000D01*
X52346000Y-42370000D01*
X52353000Y-42376000D01*
X52359000Y-42383000D01*
X52364000Y-42391000D01*
X52370000Y-42398000D01*
X52374000Y-42406000D01*
X52379000Y-42414000D01*
X52383000Y-42422000D01*
X52386000Y-42431000D01*
X52389000Y-42440000D01*
X52392000Y-42448000D01*
X52394000Y-42457000D01*
X52396000Y-42466000D01*
X52397000Y-42476000D01*
X52398000Y-42485000D01*
X52398000Y-42494000D01*
X52398000Y-43866000D01*
X52398000Y-43875000D01*
X52397000Y-43884000D01*
X52396000Y-43894000D01*
X52394000Y-43903000D01*
X52392000Y-43912000D01*
X52389000Y-43920000D01*
X52386000Y-43929000D01*
X52383000Y-43938000D01*
X52379000Y-43946000D01*
X52374000Y-43954000D01*
X52370000Y-43962000D01*
X52364000Y-43969000D01*
X52359000Y-43977000D01*
X52353000Y-43984000D01*
X52346000Y-43990000D01*
X52340000Y-43997000D01*
X52333000Y-44003000D01*
X52325000Y-44008000D01*
X52318000Y-44014000D01*
X52310000Y-44018000D01*
X52302000Y-44023000D01*
X52294000Y-44027000D01*
X52285000Y-44030000D01*
X52276000Y-44033000D01*
X52268000Y-44036000D01*
X52259000Y-44038000D01*
X52250000Y-44040000D01*
X52240000Y-44041000D01*
X52231000Y-44042000D01*
X52222000Y-44042000D01*
X50347000Y-44042000D01*
X50302000Y-44041000D01*
X50257000Y-44037000D01*
X50212000Y-44031000D01*
X50168000Y-44023000D01*
X50124000Y-44013000D01*
X50081000Y-44000000D01*
X50038000Y-43985000D01*
X49996000Y-43967000D01*
X49956000Y-43948000D01*
X49916000Y-43927000D01*
X49878000Y-43903000D01*
X49840000Y-43877000D01*
X49805000Y-43850000D01*
X49770000Y-43821000D01*
X49737000Y-43790000D01*
X49706000Y-43757000D01*
X49677000Y-43722000D01*
X49650000Y-43687000D01*
X49624000Y-43649000D01*
X49600000Y-43611000D01*
X49579000Y-43571000D01*
X49560000Y-43531000D01*
X49542000Y-43489000D01*
X49527000Y-43446000D01*
X49514000Y-43403000D01*
X49504000Y-43359000D01*
X49496000Y-43315000D01*
X49490000Y-43270000D01*
X49486000Y-43225000D01*
X49485000Y-43180000D01*
X49486000Y-43135000D01*
X49490000Y-43090000D01*
X49496000Y-43045000D01*
X49504000Y-43001000D01*
X49514000Y-42957000D01*
X49527000Y-42914000D01*
X49542000Y-42871000D01*
X49560000Y-42829000D01*
X49579000Y-42789000D01*
X49600000Y-42749000D01*
X49624000Y-42711000D01*
X49650000Y-42673000D01*
X49677000Y-42638000D01*
X49706000Y-42603000D01*
X49737000Y-42570000D01*
X49770000Y-42539000D01*
X49805000Y-42510000D01*
X49840000Y-42483000D01*
X49878000Y-42457000D01*
X49916000Y-42433000D01*
X49956000Y-42412000D01*
X49996000Y-42393000D01*
X50038000Y-42375000D01*
X50081000Y-42360000D01*
X50124000Y-42347000D01*
X50168000Y-42337000D01*
X50212000Y-42329000D01*
X50257000Y-42323000D01*
X50302000Y-42319000D01*
X50347000Y-42318000D01*
X52222000Y-42318000D01*
X52231000Y-42318000D01*
X52240000Y-42319000D01*
G37*
%TD*%
D11*
%TO.C,J1*%
X31250000Y-26470000D03*
D12*
X31250000Y-29010000D03*
X31250000Y-31550000D03*
X31250000Y-34090000D03*
X31250000Y-36630000D03*
X31250000Y-39170000D03*
X31250000Y-41710000D03*
X31250000Y-44250000D03*
%TD*%
D13*
%TO.C,H2*%
X27750000Y-47250000D03*
%TD*%
D11*
%TO.C,J6*%
X58615000Y-41250000D03*
D12*
X58615000Y-43790000D03*
X58615000Y-46330000D03*
%TD*%
D11*
%TO.C,J4*%
X55000000Y-32250000D03*
D12*
X55000000Y-34790000D03*
%TD*%
D13*
%TO.C,H1*%
X57250000Y-27750000D03*
%TD*%
D11*
%TO.C,J2*%
X55540000Y-48000000D03*
D12*
X53000000Y-48000000D03*
X50460000Y-48000000D03*
X47920000Y-48000000D03*
%TD*%
D11*
%TO.C,J8*%
X27000000Y-42750000D03*
D12*
X27000000Y-40210000D03*
X27000000Y-37670000D03*
%TD*%
D14*
%TO.C,JP1*%
X44000000Y-43500000D03*
X41460000Y-43500000D03*
%TD*%
D11*
%TO.C,J5*%
X58615000Y-32210000D03*
D12*
X58615000Y-34750000D03*
X58615000Y-37290000D03*
%TD*%
D15*
%TO.C,SW2*%
X34900000Y-47750000D03*
X43100000Y-47750000D03*
D16*
X37000000Y-47750000D03*
D17*
X39000000Y-47750000D03*
X41000000Y-47750000D03*
%TD*%
D11*
%TO.C,J7*%
X27000000Y-33790000D03*
D12*
X27000000Y-31250000D03*
X27000000Y-28710000D03*
%TD*%
D18*
%TO.C,J3*%
X54750000Y-41000000D03*
D19*
X54750000Y-43500000D03*
%TD*%
D20*
%TO.C,U1*%
X50347000Y-27940000D03*
X50347000Y-30480000D03*
X50347000Y-33020000D03*
X50347000Y-35560000D03*
X50347000Y-38100000D03*
X50347000Y-40640000D03*
X50347000Y-43180000D03*
D21*
X35107000Y-43180000D03*
X35107000Y-40640000D03*
X35107000Y-38100000D03*
X35107000Y-35560000D03*
X35107000Y-33020000D03*
X35107000Y-30480000D03*
X35107000Y-27940000D03*
D22*
X37726000Y-31750000D03*
X37726000Y-34290000D03*
X37726000Y-36830000D03*
X37726000Y-39370000D03*
D23*
X47886000Y-39370000D03*
X47886000Y-36830000D03*
X47886000Y-34290000D03*
X47886000Y-31750000D03*
D24*
X43727000Y-41135000D03*
D25*
X41727000Y-41135000D03*
%TD*%
M02*
