%TF.GenerationSoftware,KiCad,Pcbnew,9.0.2*%
%TF.CreationDate,2026-04-06T11:59:14-04:00*%
%TF.ProjectId,Cattitude,43617474-6974-4756-9465-2e6b69636164,1*%
%TF.SameCoordinates,Original*%
%TF.FileFunction,Copper,L2,Bot*%
%TF.FilePolarity,Positive*%
%FSLAX46Y46*%
G04 Gerber Fmt 4.6, Leading zero omitted, Abs format (unit mm)*
G04 Created by KiCad (PCBNEW 9.0.2) date 2026-04-06 11:59:14*
%MOMM*%
%LPD*%
G01*
G04 APERTURE LIST*
G04 Aperture macros list*
%AMRoundRect*
0 Rectangle with rounded corners*
0 $1 Rounding radius*
0 $2 $3 $4 $5 $6 $7 $8 $9 X,Y pos of 4 corners*
0 Add a 4 corners polygon primitive as box body*
4,1,4,$2,$3,$4,$5,$6,$7,$8,$9,$2,$3,0*
0 Add four circle primitives for the rounded corners*
1,1,$1+$1,$2,$3*
1,1,$1+$1,$4,$5*
1,1,$1+$1,$6,$7*
1,1,$1+$1,$8,$9*
0 Add four rect primitives between the rounded corners*
20,1,$1+$1,$2,$3,$4,$5,0*
20,1,$1+$1,$4,$5,$6,$7,0*
20,1,$1+$1,$6,$7,$8,$9,0*
20,1,$1+$1,$8,$9,$2,$3,0*%
%AMFreePoly0*
4,1,191,0.000125,0.766998,0.040125,0.765998,0.040374,0.765986,0.080374,0.762986,0.080636,0.762959,0.119636,0.757959,0.120005,0.757898,0.159005,0.749898,0.159124,0.749872,0.198124,0.740872,0.198390,0.740803,0.236390,0.729803,0.236729,0.729692,0.274729,0.715692,0.274879,0.715634,0.311879,0.700634,0.312135,0.700521,0.348135,0.683521,0.348385,0.683394,0.383385,0.664394,
0.383627,0.664254,0.417627,0.643254,0.417859,0.643102,0.450859,0.620102,0.451000,0.620000,0.483000,0.596000,0.483275,0.595778,0.513275,0.569778,0.513407,0.569659,0.542407,0.542659,0.542659,0.542407,0.569659,0.513407,0.569778,0.513275,0.595778,0.483275,0.596000,0.483000,0.620000,0.451000,0.620102,0.450859,0.643102,0.417859,0.643254,0.417627,0.664254,0.383627,
0.664394,0.383385,0.683394,0.348385,0.683521,0.348135,0.700521,0.312135,0.700634,0.311879,0.715634,0.274879,0.715692,0.274729,0.729692,0.236729,0.729803,0.236390,0.740803,0.198390,0.740872,0.198124,0.749872,0.159124,0.749898,0.159005,0.757898,0.120005,0.757959,0.119636,0.762959,0.080636,0.762986,0.080374,0.765986,0.040374,0.765998,0.040125,0.766998,0.000125,
0.766998,-0.000125,0.765998,-0.040125,0.765986,-0.040374,0.762986,-0.080374,0.762959,-0.080636,0.757959,-0.119636,0.757898,-0.120005,0.749898,-0.159005,0.749872,-0.159124,0.740872,-0.198124,0.740803,-0.198390,0.729803,-0.236390,0.729692,-0.236729,0.715692,-0.274729,0.715634,-0.274879,0.700634,-0.311879,0.700521,-0.312135,0.683521,-0.348135,0.683394,-0.348385,0.664394,-0.383385,
0.664254,-0.383627,0.643254,-0.417627,0.643102,-0.417859,0.620102,-0.450859,0.620000,-0.451000,0.596000,-0.483000,0.595778,-0.483275,0.569778,-0.513275,0.569659,-0.513407,0.542659,-0.542407,0.542407,-0.542659,0.513407,-0.569659,0.513275,-0.569778,0.483275,-0.595778,0.483000,-0.596000,0.451000,-0.620000,0.450859,-0.620102,0.417859,-0.643102,0.417627,-0.643254,0.383627,-0.664254,
0.383385,-0.664394,0.348385,-0.683394,0.348135,-0.683521,0.312135,-0.700521,0.311879,-0.700634,0.274879,-0.715634,0.274729,-0.715692,0.236729,-0.729692,0.236390,-0.729803,0.198390,-0.740803,0.198124,-0.740872,0.159124,-0.749872,0.159005,-0.749898,0.120005,-0.757898,0.119636,-0.757959,0.080636,-0.762959,0.080374,-0.762986,0.040374,-0.765986,0.040125,-0.765998,0.000125,-0.766998,
0.000000,-0.767000,-1.883000,-0.767000,-1.884213,-0.766851,-1.896213,-0.763851,-1.896581,-0.763743,-1.899389,-0.762807,-1.903213,-0.761851,-1.904236,-0.761472,-1.907743,-0.759718,-1.911213,-0.758851,-1.912774,-0.758160,-1.918774,-0.754160,-1.919000,-0.754000,-1.922888,-0.751084,-1.925774,-0.749160,-1.926536,-0.748536,-1.929188,-0.745884,-1.931774,-0.744160,-1.933160,-0.742774,-1.934884,-0.740188,
-1.937536,-0.737536,-1.938160,-0.736774,-1.940084,-0.733888,-1.943000,-0.730000,-1.943160,-0.729774,-1.947160,-0.723774,-1.947851,-0.722213,-1.948718,-0.718743,-1.950472,-0.715236,-1.950851,-0.714213,-1.951807,-0.710389,-1.952743,-0.707581,-1.952851,-0.707213,-1.955851,-0.695213,-1.956000,-0.694000,-1.956000,0.694000,-1.955851,0.695213,-1.952851,0.707213,-1.952743,0.707581,-1.951807,0.710389,
-1.950851,0.714213,-1.950472,0.715236,-1.948718,0.718743,-1.947851,0.722213,-1.947160,0.723774,-1.943160,0.729774,-1.943000,0.730000,-1.940084,0.733888,-1.938160,0.736774,-1.937536,0.737536,-1.934884,0.740188,-1.933160,0.742774,-1.931774,0.744160,-1.929188,0.745884,-1.926536,0.748536,-1.925774,0.749160,-1.922888,0.751084,-1.919000,0.754000,-1.918774,0.754160,-1.912774,0.758160,
-1.911213,0.758851,-1.907743,0.759718,-1.904236,0.761472,-1.903213,0.761851,-1.899389,0.762807,-1.896581,0.763743,-1.896213,0.763851,-1.884213,0.766851,-1.883000,0.767000,0.000000,0.767000,0.000125,0.766998,0.000125,0.766998,$1*%
%AMFreePoly1*
4,1,191,1.884213,0.766851,1.896213,0.763851,1.896581,0.763743,1.899389,0.762807,1.903213,0.761851,1.904236,0.761472,1.907743,0.759718,1.911213,0.758851,1.912774,0.758160,1.918774,0.754160,1.919000,0.754000,1.922888,0.751084,1.925774,0.749160,1.926536,0.748536,1.929188,0.745884,1.931774,0.744160,1.933160,0.742774,1.934884,0.740188,1.937536,0.737536,1.938160,0.736774,
1.940084,0.733888,1.943000,0.730000,1.943160,0.729774,1.947160,0.723774,1.947851,0.722213,1.948718,0.718743,1.950472,0.715236,1.950851,0.714213,1.951807,0.710389,1.952743,0.707581,1.952851,0.707213,1.955851,0.695213,1.956000,0.694000,1.956000,-0.694000,1.955851,-0.695213,1.952851,-0.707213,1.952743,-0.707581,1.951807,-0.710389,1.950851,-0.714213,1.950472,-0.715236,
1.948718,-0.718743,1.947851,-0.722213,1.947160,-0.723774,1.943160,-0.729774,1.943000,-0.730000,1.940084,-0.733888,1.938160,-0.736774,1.937536,-0.737536,1.934884,-0.740188,1.933160,-0.742774,1.931774,-0.744160,1.929188,-0.745884,1.926536,-0.748536,1.925774,-0.749160,1.922888,-0.751084,1.919000,-0.754000,1.918774,-0.754160,1.912774,-0.758160,1.911213,-0.758851,1.907743,-0.759718,
1.904236,-0.761472,1.903213,-0.761851,1.899389,-0.762807,1.896581,-0.763743,1.896213,-0.763851,1.884213,-0.766851,1.883000,-0.767000,0.000000,-0.767000,-0.000125,-0.766998,-0.040125,-0.765998,-0.040374,-0.765986,-0.080374,-0.762986,-0.080636,-0.762959,-0.119636,-0.757959,-0.120005,-0.757898,-0.159005,-0.749898,-0.159124,-0.749872,-0.198124,-0.740872,-0.198390,-0.740803,-0.236390,-0.729803,
-0.236729,-0.729692,-0.274729,-0.715692,-0.274879,-0.715634,-0.311879,-0.700634,-0.312135,-0.700521,-0.348135,-0.683521,-0.348385,-0.683394,-0.383385,-0.664394,-0.383627,-0.664254,-0.417627,-0.643254,-0.417859,-0.643102,-0.450859,-0.620102,-0.451000,-0.620000,-0.483000,-0.596000,-0.483275,-0.595778,-0.513275,-0.569778,-0.513407,-0.569659,-0.542407,-0.542659,-0.542659,-0.542407,-0.569659,-0.513407,
-0.569778,-0.513275,-0.595778,-0.483275,-0.596000,-0.483000,-0.620000,-0.451000,-0.620102,-0.450859,-0.643102,-0.417859,-0.643254,-0.417627,-0.664254,-0.383627,-0.664394,-0.383385,-0.683394,-0.348385,-0.683521,-0.348135,-0.700521,-0.312135,-0.700634,-0.311879,-0.715634,-0.274879,-0.715692,-0.274729,-0.729692,-0.236729,-0.729803,-0.236390,-0.740803,-0.198390,-0.740872,-0.198124,-0.749872,-0.159124,
-0.749898,-0.159005,-0.757898,-0.120005,-0.757959,-0.119636,-0.762959,-0.080636,-0.762986,-0.080374,-0.765986,-0.040374,-0.765998,-0.040125,-0.766998,-0.000125,-0.766998,0.000125,-0.765998,0.040125,-0.765986,0.040374,-0.762986,0.080374,-0.762959,0.080636,-0.757959,0.119636,-0.757898,0.120005,-0.749898,0.159005,-0.749872,0.159124,-0.740872,0.198124,-0.740803,0.198390,-0.729803,0.236390,
-0.729692,0.236729,-0.715692,0.274729,-0.715634,0.274879,-0.700634,0.311879,-0.700521,0.312135,-0.683521,0.348135,-0.683394,0.348385,-0.664394,0.383385,-0.664254,0.383627,-0.643254,0.417627,-0.643102,0.417859,-0.620102,0.450859,-0.620000,0.451000,-0.596000,0.483000,-0.595778,0.483275,-0.569778,0.513275,-0.569659,0.513407,-0.542659,0.542407,-0.542407,0.542659,-0.513407,0.569659,
-0.513275,0.569778,-0.483275,0.595778,-0.483000,0.596000,-0.451000,0.620000,-0.450859,0.620102,-0.417859,0.643102,-0.417627,0.643254,-0.383627,0.664254,-0.383385,0.664394,-0.348385,0.683394,-0.348135,0.683521,-0.312135,0.700521,-0.311879,0.700634,-0.274879,0.715634,-0.274729,0.715692,-0.236729,0.729692,-0.236390,0.729803,-0.198390,0.740803,-0.198124,0.740872,-0.159124,0.749872,
-0.159005,0.749898,-0.120005,0.757898,-0.119636,0.757959,-0.080636,0.762959,-0.080374,0.762986,-0.040374,0.765986,-0.040125,0.765998,-0.000125,0.766998,0.000000,0.767000,1.883000,0.767000,1.884213,0.766851,1.884213,0.766851,$1*%
%AMFreePoly2*
4,1,197,1.338213,0.804851,1.345617,0.803000,1.348000,0.803000,1.349213,0.802851,1.353213,0.801851,1.354774,0.801160,1.357218,0.799530,1.359581,0.798743,1.360236,0.798472,1.363920,0.796630,1.366581,0.795743,1.367774,0.795160,1.373774,0.791160,1.374536,0.790536,1.377188,0.787884,1.379774,0.786160,1.381160,0.784774,1.382605,0.782605,1.384774,0.781160,1.386160,0.779774,
1.387884,0.777188,1.390536,0.774536,1.391160,0.773774,1.395160,0.767774,1.395743,0.766581,1.396630,0.763920,1.398472,0.760236,1.398743,0.759581,1.399530,0.757218,1.401160,0.754774,1.401851,0.753213,1.402851,0.749213,1.403000,0.748000,1.403000,0.745617,1.404851,0.738213,1.405000,0.737000,1.405000,-0.737000,1.404851,-0.738213,1.403000,-0.745617,1.403000,-0.748000,
1.402851,-0.749213,1.401851,-0.753213,1.401160,-0.754774,1.399530,-0.757218,1.398743,-0.759581,1.398472,-0.760236,1.396630,-0.763920,1.395743,-0.766581,1.395160,-0.767774,1.391160,-0.773774,1.390536,-0.774536,1.387884,-0.777188,1.386160,-0.779774,1.384774,-0.781160,1.382605,-0.782605,1.381160,-0.784774,1.379774,-0.786160,1.377188,-0.787884,1.374536,-0.790536,1.373774,-0.791160,
1.367774,-0.795160,1.366581,-0.795743,1.363920,-0.796630,1.360236,-0.798472,1.359581,-0.798743,1.357218,-0.799530,1.354774,-0.801160,1.353213,-0.801851,1.349213,-0.802851,1.348000,-0.803000,1.345617,-0.803000,1.338213,-0.804851,1.337000,-0.805000,0.000000,-0.805000,-0.000119,-0.804999,-0.042119,-0.803999,-0.042356,-0.803987,-0.084356,-0.800987,-0.084724,-0.800947,-0.125724,-0.794947,
-0.125841,-0.794929,-0.166841,-0.787929,-0.167185,-0.787858,-0.208185,-0.777858,-0.208437,-0.777789,-0.248437,-0.765789,-0.248652,-0.765719,-0.288652,-0.751719,-0.288940,-0.751608,-0.326940,-0.735608,-0.327140,-0.735519,-0.365140,-0.717519,-0.365378,-0.717399,-0.402378,-0.697399,-0.402607,-0.697266,-0.438607,-0.675266,-0.438883,-0.675085,-0.472883,-0.651085,-0.473019,-0.650985,-0.506019,-0.625985,
-0.506224,-0.625821,-0.538224,-0.598821,-0.538416,-0.598651,-0.569416,-0.569651,-0.569651,-0.569416,-0.598651,-0.538416,-0.598821,-0.538224,-0.625821,-0.506224,-0.625985,-0.506019,-0.650985,-0.473019,-0.651085,-0.472883,-0.675085,-0.438883,-0.675266,-0.438607,-0.697266,-0.402607,-0.697399,-0.402378,-0.717399,-0.365378,-0.717519,-0.365140,-0.735519,-0.327140,-0.735608,-0.326940,-0.751608,-0.288940,
-0.751719,-0.288652,-0.765719,-0.248652,-0.765789,-0.248437,-0.777789,-0.208437,-0.777858,-0.208185,-0.787858,-0.167185,-0.787929,-0.166841,-0.794929,-0.125841,-0.794947,-0.125724,-0.800947,-0.084724,-0.800987,-0.084356,-0.803987,-0.042356,-0.803999,-0.042119,-0.804999,-0.000119,-0.804999,0.000119,-0.803999,0.042119,-0.803987,0.042356,-0.800987,0.084356,-0.800947,0.084724,-0.794947,0.125724,
-0.794929,0.125841,-0.787929,0.166841,-0.787858,0.167185,-0.777858,0.208185,-0.777789,0.208437,-0.765789,0.248437,-0.765719,0.248652,-0.751719,0.288652,-0.751608,0.288940,-0.735608,0.326940,-0.735519,0.327140,-0.717519,0.365140,-0.717399,0.365378,-0.697399,0.402378,-0.697266,0.402607,-0.675266,0.438607,-0.675085,0.438883,-0.651085,0.472883,-0.650985,0.473019,-0.625985,0.506019,
-0.625821,0.506224,-0.598821,0.538224,-0.598651,0.538416,-0.569651,0.569416,-0.569416,0.569651,-0.538416,0.598651,-0.538224,0.598821,-0.506224,0.625821,-0.506019,0.625985,-0.473019,0.650985,-0.472883,0.651085,-0.438883,0.675085,-0.438607,0.675266,-0.402607,0.697266,-0.402378,0.697399,-0.365378,0.717399,-0.365140,0.717519,-0.327140,0.735519,-0.326940,0.735608,-0.288940,0.751608,
-0.288652,0.751719,-0.248652,0.765719,-0.248437,0.765789,-0.208437,0.777789,-0.208185,0.777858,-0.167185,0.787858,-0.166841,0.787929,-0.125841,0.794929,-0.125724,0.794947,-0.084724,0.800947,-0.084356,0.800987,-0.042356,0.803987,-0.042119,0.803999,-0.000119,0.804999,0.000000,0.805000,1.337000,0.805000,1.338213,0.804851,1.338213,0.804851,$1*%
%AMFreePoly3*
4,1,197,0.000119,0.804999,0.042119,0.803999,0.042356,0.803987,0.084356,0.800987,0.084724,0.800947,0.125724,0.794947,0.125841,0.794929,0.166841,0.787929,0.167185,0.787858,0.208185,0.777858,0.208437,0.777789,0.248437,0.765789,0.248652,0.765719,0.288652,0.751719,0.288940,0.751608,0.326940,0.735608,0.327140,0.735519,0.365140,0.717519,0.365378,0.717399,0.402378,0.697399,
0.402607,0.697266,0.438607,0.675266,0.438883,0.675085,0.472883,0.651085,0.473019,0.650985,0.506019,0.625985,0.506224,0.625821,0.538224,0.598821,0.538416,0.598651,0.569416,0.569651,0.569651,0.569416,0.598651,0.538416,0.598821,0.538224,0.625821,0.506224,0.625985,0.506019,0.650985,0.473019,0.651085,0.472883,0.675085,0.438883,0.675266,0.438607,0.697266,0.402607,
0.697399,0.402378,0.717399,0.365378,0.717519,0.365140,0.735519,0.327140,0.735608,0.326940,0.751608,0.288940,0.751719,0.288652,0.765719,0.248652,0.765789,0.248437,0.777789,0.208437,0.777858,0.208185,0.787858,0.167185,0.787929,0.166841,0.794929,0.125841,0.794947,0.125724,0.800947,0.084724,0.800987,0.084356,0.803987,0.042356,0.803999,0.042119,0.804999,0.000119,
0.804999,-0.000119,0.803999,-0.042119,0.803987,-0.042356,0.800987,-0.084356,0.800947,-0.084724,0.794947,-0.125724,0.794929,-0.125841,0.787929,-0.166841,0.787858,-0.167185,0.777858,-0.208185,0.777789,-0.208437,0.765789,-0.248437,0.765719,-0.248652,0.751719,-0.288652,0.751608,-0.288940,0.735608,-0.326940,0.735519,-0.327140,0.717519,-0.365140,0.717399,-0.365378,0.697399,-0.402378,
0.697266,-0.402607,0.675266,-0.438607,0.675085,-0.438883,0.651085,-0.472883,0.650985,-0.473019,0.625985,-0.506019,0.625821,-0.506224,0.598821,-0.538224,0.598651,-0.538416,0.569651,-0.569416,0.569416,-0.569651,0.538416,-0.598651,0.538224,-0.598821,0.506224,-0.625821,0.506019,-0.625985,0.473019,-0.650985,0.472883,-0.651085,0.438883,-0.675085,0.438607,-0.675266,0.402607,-0.697266,
0.402378,-0.697399,0.365378,-0.717399,0.365140,-0.717519,0.327140,-0.735519,0.326940,-0.735608,0.288940,-0.751608,0.288652,-0.751719,0.248652,-0.765719,0.248437,-0.765789,0.208437,-0.777789,0.208185,-0.777858,0.167185,-0.787858,0.166841,-0.787929,0.125841,-0.794929,0.125724,-0.794947,0.084724,-0.800947,0.084356,-0.800987,0.042356,-0.803987,0.042119,-0.803999,0.000119,-0.804999,
0.000000,-0.805000,-1.337000,-0.805000,-1.338213,-0.804851,-1.345617,-0.803000,-1.348000,-0.803000,-1.349213,-0.802851,-1.353213,-0.801851,-1.354774,-0.801160,-1.357218,-0.799530,-1.359581,-0.798743,-1.360236,-0.798472,-1.363920,-0.796630,-1.366581,-0.795743,-1.367774,-0.795160,-1.373774,-0.791160,-1.374536,-0.790536,-1.377188,-0.787884,-1.379774,-0.786160,-1.381160,-0.784774,-1.382605,-0.782605,
-1.384774,-0.781160,-1.386160,-0.779774,-1.387884,-0.777188,-1.390536,-0.774536,-1.391160,-0.773774,-1.395160,-0.767774,-1.395743,-0.766581,-1.396630,-0.763920,-1.398472,-0.760236,-1.398743,-0.759581,-1.399530,-0.757218,-1.401160,-0.754774,-1.401851,-0.753213,-1.402851,-0.749213,-1.403000,-0.748000,-1.403000,-0.745617,-1.404851,-0.738213,-1.405000,-0.737000,-1.405000,0.737000,-1.404851,0.738213,
-1.403000,0.745617,-1.403000,0.748000,-1.402851,0.749213,-1.401851,0.753213,-1.401160,0.754774,-1.399530,0.757218,-1.398743,0.759581,-1.398472,0.760236,-1.396630,0.763920,-1.395743,0.766581,-1.395160,0.767774,-1.391160,0.773774,-1.390536,0.774536,-1.387884,0.777188,-1.386160,0.779774,-1.384774,0.781160,-1.382605,0.782605,-1.381160,0.784774,-1.379774,0.786160,-1.377188,0.787884,
-1.374536,0.790536,-1.373774,0.791160,-1.367774,0.795160,-1.366581,0.795743,-1.363920,0.796630,-1.360236,0.798472,-1.359581,0.798743,-1.357218,0.799530,-1.354774,0.801160,-1.353213,0.801851,-1.349213,0.802851,-1.348000,0.803000,-1.345617,0.803000,-1.338213,0.804851,-1.337000,0.805000,0.000000,0.805000,0.000119,0.804999,0.000119,0.804999,$1*%
%AMFreePoly4*
4,1,175,0.502581,1.559743,0.504810,1.559000,0.506000,1.559000,0.507581,1.558743,0.516581,1.555743,0.517236,1.555472,0.518920,1.554630,0.524581,1.552743,0.526536,1.551536,0.529703,1.548369,0.531581,1.547743,0.533536,1.546536,0.541536,1.538536,0.542743,1.536581,0.543369,1.534703,0.546536,1.531536,0.547743,1.529581,0.549630,1.523920,0.550472,1.522236,0.550743,1.521581,
0.553743,1.512581,0.554000,1.511000,0.554000,1.509810,0.554743,1.507581,0.555000,1.506000,0.555000,0.000000,0.554997,-0.000172,0.553997,-0.029172,0.553987,-0.029356,0.551987,-0.057356,0.551953,-0.057683,0.547953,-0.086683,0.547922,-0.086879,0.542922,-0.114879,0.542851,-0.115213,0.535851,-0.143213,0.535808,-0.143374,0.527808,-0.171374,0.527689,-0.171737,0.517689,-0.198737,
0.517630,-0.198886,0.506630,-0.225886,0.506540,-0.226095,0.494540,-0.252095,0.494363,-0.252443,0.480363,-0.277443,0.480287,-0.277572,0.465287,-0.302572,0.465105,-0.302855,0.449105,-0.325855,0.448938,-0.326082,0.430938,-0.349082,0.412870,-0.371166,0.412621,-0.371448,0.392621,-0.392448,0.392448,-0.392621,0.371448,-0.412621,0.371166,-0.412870,0.349082,-0.430938,0.326082,-0.448938,
0.325855,-0.449105,0.302855,-0.465105,0.302572,-0.465287,0.277572,-0.480287,0.277443,-0.480363,0.252443,-0.494363,0.252095,-0.494540,0.226095,-0.506540,0.225886,-0.506630,0.198886,-0.517630,0.198737,-0.517689,0.171737,-0.527689,0.171374,-0.527808,0.143374,-0.535808,0.143213,-0.535851,0.115213,-0.542851,0.114879,-0.542922,0.086879,-0.547922,0.086683,-0.547953,0.057683,-0.551953,
0.057356,-0.551987,0.029356,-0.553987,0.029172,-0.553997,0.000172,-0.554997,-0.000172,-0.554997,-0.029172,-0.553997,-0.029356,-0.553987,-0.057356,-0.551987,-0.057683,-0.551953,-0.086683,-0.547953,-0.086879,-0.547922,-0.114879,-0.542922,-0.115213,-0.542851,-0.143213,-0.535851,-0.143374,-0.535808,-0.171374,-0.527808,-0.171737,-0.527689,-0.198737,-0.517689,-0.198886,-0.517630,-0.225886,-0.506630,
-0.226095,-0.506540,-0.252095,-0.494540,-0.252443,-0.494363,-0.277443,-0.480363,-0.277572,-0.480287,-0.302572,-0.465287,-0.302855,-0.465105,-0.325855,-0.449105,-0.326082,-0.448938,-0.349082,-0.430938,-0.371166,-0.412870,-0.371448,-0.412621,-0.392448,-0.392621,-0.392621,-0.392448,-0.412621,-0.371448,-0.412870,-0.371166,-0.430938,-0.349082,-0.448938,-0.326082,-0.449105,-0.325855,-0.465105,-0.302855,
-0.465287,-0.302572,-0.480287,-0.277572,-0.480363,-0.277443,-0.494363,-0.252443,-0.494540,-0.252095,-0.506540,-0.226095,-0.506630,-0.225886,-0.517630,-0.198886,-0.517689,-0.198737,-0.527689,-0.171737,-0.527808,-0.171374,-0.535808,-0.143374,-0.535851,-0.143213,-0.542851,-0.115213,-0.542922,-0.114879,-0.547922,-0.086879,-0.547953,-0.086683,-0.551953,-0.057683,-0.551987,-0.057356,-0.553987,-0.029356,
-0.553997,-0.029172,-0.554997,-0.000172,-0.555000,0.000000,-0.555000,1.506000,-0.554743,1.507581,-0.554000,1.509810,-0.554000,1.511000,-0.553743,1.512581,-0.550743,1.521581,-0.550472,1.522236,-0.549630,1.523920,-0.547743,1.529581,-0.546536,1.531536,-0.543369,1.534703,-0.542743,1.536581,-0.541536,1.538536,-0.533536,1.546536,-0.531581,1.547743,-0.529703,1.548369,-0.528536,1.549536,
-0.527774,1.550160,-0.524774,1.552160,-0.524236,1.552472,-0.522236,1.553472,-0.521581,1.553743,-0.518920,1.554630,-0.517236,1.555472,-0.516581,1.555743,-0.507581,1.558743,-0.506000,1.559000,-0.504810,1.559000,-0.502581,1.559743,-0.501000,1.560000,0.501000,1.560000,0.502581,1.559743,0.502581,1.559743,$1*%
%AMFreePoly5*
4,1,175,0.502581,1.559743,0.504810,1.559000,0.506000,1.559000,0.507581,1.558743,0.516581,1.555743,0.517236,1.555472,0.518920,1.554630,0.521581,1.553743,0.522236,1.553472,0.524236,1.552472,0.524774,1.552160,0.527774,1.550160,0.528536,1.549536,0.529703,1.548369,0.531581,1.547743,0.533536,1.546536,0.541536,1.538536,0.542743,1.536581,0.543369,1.534703,0.546536,1.531536,
0.547743,1.529581,0.549630,1.523920,0.550472,1.522236,0.550743,1.521581,0.553743,1.512581,0.554000,1.511000,0.554000,1.509810,0.554743,1.507581,0.555000,1.506000,0.555000,0.000000,0.554997,-0.000172,0.553997,-0.029172,0.553987,-0.029356,0.551987,-0.057356,0.551953,-0.057683,0.547953,-0.086683,0.547922,-0.086879,0.542922,-0.114879,0.542851,-0.115213,0.535851,-0.143213,
0.535808,-0.143374,0.527808,-0.171374,0.527689,-0.171737,0.517689,-0.198737,0.517630,-0.198886,0.506630,-0.225886,0.506540,-0.226095,0.494540,-0.252095,0.494363,-0.252443,0.480363,-0.277443,0.480287,-0.277572,0.465287,-0.302572,0.465105,-0.302855,0.449105,-0.325855,0.448938,-0.326082,0.430938,-0.349082,0.412870,-0.371166,0.412621,-0.371448,0.392621,-0.392448,0.392448,-0.392621,
0.371448,-0.412621,0.371166,-0.412870,0.349082,-0.430938,0.326082,-0.448938,0.325855,-0.449105,0.302855,-0.465105,0.302572,-0.465287,0.277572,-0.480287,0.277443,-0.480363,0.252443,-0.494363,0.252095,-0.494540,0.226095,-0.506540,0.225886,-0.506630,0.198886,-0.517630,0.198737,-0.517689,0.171737,-0.527689,0.171374,-0.527808,0.143374,-0.535808,0.143213,-0.535851,0.115213,-0.542851,
0.114879,-0.542922,0.086879,-0.547922,0.086683,-0.547953,0.057683,-0.551953,0.057356,-0.551987,0.029356,-0.553987,0.029172,-0.553997,0.000172,-0.554997,-0.000172,-0.554997,-0.029172,-0.553997,-0.029356,-0.553987,-0.057356,-0.551987,-0.057683,-0.551953,-0.086683,-0.547953,-0.086879,-0.547922,-0.114879,-0.542922,-0.115213,-0.542851,-0.143213,-0.535851,-0.143374,-0.535808,-0.171374,-0.527808,
-0.171737,-0.527689,-0.198737,-0.517689,-0.198886,-0.517630,-0.225886,-0.506630,-0.226095,-0.506540,-0.252095,-0.494540,-0.252443,-0.494363,-0.277443,-0.480363,-0.277572,-0.480287,-0.302572,-0.465287,-0.302855,-0.465105,-0.325855,-0.449105,-0.326082,-0.448938,-0.349082,-0.430938,-0.371166,-0.412870,-0.371448,-0.412621,-0.392448,-0.392621,-0.392621,-0.392448,-0.412621,-0.371448,-0.412870,-0.371166,
-0.430938,-0.349082,-0.448938,-0.326082,-0.449105,-0.325855,-0.465105,-0.302855,-0.465287,-0.302572,-0.480287,-0.277572,-0.480363,-0.277443,-0.494363,-0.252443,-0.494540,-0.252095,-0.506540,-0.226095,-0.506630,-0.225886,-0.517630,-0.198886,-0.517689,-0.198737,-0.527689,-0.171737,-0.527808,-0.171374,-0.535808,-0.143374,-0.535851,-0.143213,-0.542851,-0.115213,-0.542922,-0.114879,-0.547922,-0.086879,
-0.547953,-0.086683,-0.551953,-0.057683,-0.551987,-0.057356,-0.553987,-0.029356,-0.553997,-0.029172,-0.554997,-0.000172,-0.555000,0.000000,-0.555000,1.506000,-0.554743,1.507581,-0.554000,1.509810,-0.554000,1.511000,-0.553743,1.512581,-0.550743,1.521581,-0.550472,1.522236,-0.549630,1.523920,-0.547743,1.529581,-0.546536,1.531536,-0.543369,1.534703,-0.542743,1.536581,-0.541536,1.538536,
-0.533536,1.546536,-0.531581,1.547743,-0.529703,1.548369,-0.526536,1.551536,-0.524581,1.552743,-0.518920,1.554630,-0.517236,1.555472,-0.516581,1.555743,-0.507581,1.558743,-0.506000,1.559000,-0.504810,1.559000,-0.502581,1.559743,-0.501000,1.560000,0.501000,1.560000,0.502581,1.559743,0.502581,1.559743,$1*%
G04 Aperture macros list end*
%TA.AperFunction,ComponentPad*%
%ADD10R,1.700000X1.700000*%
%TD*%
%TA.AperFunction,ComponentPad*%
%ADD11C,1.700000*%
%TD*%
%TA.AperFunction,ComponentPad*%
%ADD12C,4.700000*%
%TD*%
%TA.AperFunction,ComponentPad*%
%ADD13C,1.400000*%
%TD*%
%TA.AperFunction,ComponentPad*%
%ADD14O,2.200000X3.500000*%
%TD*%
%TA.AperFunction,ComponentPad*%
%ADD15R,1.500000X2.500000*%
%TD*%
%TA.AperFunction,ComponentPad*%
%ADD16O,1.500000X2.500000*%
%TD*%
%TA.AperFunction,ComponentPad*%
%ADD17RoundRect,0.250000X-0.750000X0.600000X-0.750000X-0.600000X0.750000X-0.600000X0.750000X0.600000X0*%
%TD*%
%TA.AperFunction,ComponentPad*%
%ADD18O,2.000000X1.700000*%
%TD*%
%TA.AperFunction,SMDPad,CuDef*%
%ADD19FreePoly0,180.000000*%
%TD*%
%TA.AperFunction,SMDPad,CuDef*%
%ADD20FreePoly1,180.000000*%
%TD*%
%TA.AperFunction,SMDPad,CuDef*%
%ADD21FreePoly2,180.000000*%
%TD*%
%TA.AperFunction,SMDPad,CuDef*%
%ADD22FreePoly3,180.000000*%
%TD*%
%TA.AperFunction,ComponentPad*%
%ADD23FreePoly4,180.000000*%
%TD*%
%TA.AperFunction,ComponentPad*%
%ADD24FreePoly5,180.000000*%
%TD*%
%TA.AperFunction,ViaPad*%
%ADD25C,0.600000*%
%TD*%
%TA.AperFunction,Conductor*%
%ADD26C,0.400000*%
%TD*%
%TA.AperFunction,Conductor*%
%ADD27C,1.000000*%
%TD*%
G04 APERTURE END LIST*
D10*
%TO.P,J1,1,Pin_1*%
%TO.N,+3.3V*%
X31250000Y-26470000D03*
D11*
%TO.P,J1,2,Pin_2*%
%TO.N,GND*%
X31250000Y-29010000D03*
%TO.P,J1,3,Pin_3*%
%TO.N,SCL*%
X31250000Y-31550000D03*
%TO.P,J1,4,Pin_4*%
%TO.N,SDA*%
X31250000Y-34090000D03*
%TO.P,J1,5,Pin_5*%
%TO.N,unconnected-(J1-Pin_5-Pad5)*%
X31250000Y-36630000D03*
%TO.P,J1,6,Pin_6*%
%TO.N,unconnected-(J1-Pin_6-Pad6)*%
X31250000Y-39170000D03*
%TO.P,J1,7,Pin_7*%
%TO.N,unconnected-(J1-Pin_7-Pad7)*%
X31250000Y-41710000D03*
%TO.P,J1,8,Pin_8*%
%TO.N,INT*%
X31250000Y-44250000D03*
%TD*%
D12*
%TO.P,H2,1*%
%TO.N,N/C*%
X27750000Y-47250000D03*
%TD*%
D10*
%TO.P,J6,1,Pin_1*%
%TO.N,SERVO_D2*%
X58615000Y-41250000D03*
D11*
%TO.P,J6,2,Pin_2*%
%TO.N,SERVO_5V*%
X58615000Y-43790000D03*
%TO.P,J6,3,Pin_3*%
%TO.N,GND*%
X58615000Y-46330000D03*
%TD*%
D10*
%TO.P,J4,1,Pin_1*%
%TO.N,HAPTIC_MOTOR*%
X55000000Y-32250000D03*
D11*
%TO.P,J4,2,Pin_2*%
%TO.N,GND*%
X55000000Y-34790000D03*
%TD*%
D12*
%TO.P,H1,1*%
%TO.N,N/C*%
X57250000Y-27750000D03*
%TD*%
D10*
%TO.P,J2,1,Pin_1*%
%TO.N,SERVO_EN*%
X55540000Y-48000000D03*
D11*
%TO.P,J2,2,Pin_2*%
%TO.N,SERVO_5V*%
X53000000Y-48000000D03*
%TO.P,J2,3,Pin_3*%
%TO.N,GND*%
X50460000Y-48000000D03*
%TO.P,J2,4,Pin_4*%
%TO.N,+BATT*%
X47920000Y-48000000D03*
%TD*%
D10*
%TO.P,J8,1,Pin_1*%
%TO.N,SERVO_D4*%
X27000000Y-42750000D03*
D11*
%TO.P,J8,2,Pin_2*%
%TO.N,SERVO_5V*%
X27000000Y-40210000D03*
%TO.P,J8,3,Pin_3*%
%TO.N,GND*%
X27000000Y-37670000D03*
%TD*%
D13*
%TO.P,JP1,1,A*%
%TO.N,+BATT*%
X44000000Y-43500000D03*
%TO.P,JP1,2,B*%
%TO.N,-BATT*%
X41460000Y-43500000D03*
%TD*%
D10*
%TO.P,J5,1,Pin_1*%
%TO.N,SERVO_D1*%
X58615000Y-32210000D03*
D11*
%TO.P,J5,2,Pin_2*%
%TO.N,SERVO_5V*%
X58615000Y-34750000D03*
%TO.P,J5,3,Pin_3*%
%TO.N,GND*%
X58615000Y-37290000D03*
%TD*%
D14*
%TO.P,SW2,*%
%TO.N,*%
X34900000Y-47750000D03*
X43100000Y-47750000D03*
D15*
%TO.P,SW2,1,A*%
%TO.N,unconnected-(SW2-A-Pad1)*%
X37000000Y-47750000D03*
D16*
%TO.P,SW2,2,B*%
%TO.N,+BATT*%
X39000000Y-47750000D03*
%TO.P,SW2,3,C*%
%TO.N,Net-(J3-Pin_1)*%
X41000000Y-47750000D03*
%TD*%
D10*
%TO.P,J7,1,Pin_1*%
%TO.N,SERVO_D3*%
X27000000Y-33790000D03*
D11*
%TO.P,J7,2,Pin_2*%
%TO.N,SERVO_5V*%
X27000000Y-31250000D03*
%TO.P,J7,3,Pin_3*%
%TO.N,GND*%
X27000000Y-28710000D03*
%TD*%
D17*
%TO.P,J3,1,Pin_1*%
%TO.N,Net-(J3-Pin_1)*%
X54750000Y-41000000D03*
D18*
%TO.P,J3,2,Pin_2*%
%TO.N,-BATT*%
X54750000Y-43500000D03*
%TD*%
D19*
%TO.P,U1,1,D0/P014/A0/ADC09*%
%TO.N,SERVO_D1*%
X50347000Y-27940000D03*
%TO.P,U1,2,D1/P000/A1/ADC00*%
%TO.N,INT*%
X50347000Y-30480000D03*
%TO.P,U1,3,D2/P001/A2/ADC01*%
%TO.N,HAPTIC_MOTOR*%
X50347000Y-33020000D03*
%TO.P,U1,4,D3/P002/A3/ADC02*%
%TO.N,SERVO_D2*%
X50347000Y-35560000D03*
%TO.P,U1,5,D4/P206/A4/SDA1*%
%TO.N,SDA*%
X50347000Y-38100000D03*
%TO.P,U1,6,D5/P100/A5/ADC22/SCL1*%
%TO.N,SCL*%
X50347000Y-40640000D03*
%TO.P,U1,7,D6/P302/TXD2/SDA2*%
%TO.N,SERVO_EN*%
X50347000Y-43180000D03*
D20*
%TO.P,U1,8,D7/P301/RXD2/SCL2*%
%TO.N,SERVO_D4*%
X35107000Y-43180000D03*
%TO.P,U1,9,D8/P111/SPI9_CLK*%
%TO.N,unconnected-(U1-D8{slash}P111{slash}SPI9_CLK-Pad9)*%
X35107000Y-40640000D03*
%TO.P,U1,10,D9/P110/CRX0/SPI9_MISO*%
%TO.N,unconnected-(U1-D9{slash}P110{slash}CRX0{slash}SPI9_MISO-Pad10)*%
X35107000Y-38100000D03*
%TO.P,U1,11,D10/P109/CTX0/SPI9_MOSI*%
%TO.N,SERVO_D3*%
X35107000Y-35560000D03*
%TO.P,U1,12,3V3*%
%TO.N,+3.3V*%
X35107000Y-33020000D03*
%TO.P,U1,13,GND*%
%TO.N,GND*%
X35107000Y-30480000D03*
%TO.P,U1,14,5V*%
%TO.N,+5V*%
X35107000Y-27940000D03*
D21*
%TO.P,U1,15,D11/P408/RX9*%
%TO.N,unconnected-(U1-D11{slash}P408{slash}RX9-Pad15)*%
X37726000Y-31750000D03*
%TO.P,U1,16,D12/P409/TX9*%
%TO.N,unconnected-(U1-D12{slash}P409{slash}TX9-Pad16)*%
X37726000Y-34290000D03*
%TO.P,U1,17,D13/P013*%
%TO.N,unconnected-(U1-D13{slash}P013-Pad17)*%
X37726000Y-36830000D03*
%TO.P,U1,18,D14/P012*%
%TO.N,unconnected-(U1-D14{slash}P012-Pad18)*%
X37726000Y-39370000D03*
D22*
%TO.P,U1,19,D15/P101/TXD0/SDA0/ADC21/SPI0_MOSI*%
%TO.N,unconnected-(U1-D15{slash}P101{slash}TXD0{slash}SDA0{slash}ADC21{slash}SPI0_MOSI-Pad19)*%
X47886000Y-39370000D03*
%TO.P,U1,20,D16/P104/RXD0/SCL0/SPI0_MISO*%
%TO.N,unconnected-(U1-D16{slash}P104{slash}RXD0{slash}SCL0{slash}SPI0_MISO-Pad20)*%
X47886000Y-36830000D03*
%TO.P,U1,21,D17/P102/CRX0/ADC20/SPI0_CLK*%
%TO.N,unconnected-(U1-D17{slash}P102{slash}CRX0{slash}ADC20{slash}SPI0_CLK-Pad21)*%
X47886000Y-34290000D03*
%TO.P,U1,22,D18/P103/CTX0/ADC19*%
%TO.N,unconnected-(U1-D18{slash}P103{slash}CTX0{slash}ADC19-Pad22)*%
X47886000Y-31750000D03*
D23*
%TO.P,U1,23,BAT+*%
%TO.N,+BATT*%
X43727000Y-41135000D03*
D24*
%TO.P,U1,24,BAT-*%
%TO.N,-BATT*%
X41727000Y-41135000D03*
%TD*%
D25*
%TO.N,GND*%
X53755025Y-36494975D03*
%TO.N,INT*%
X48995036Y-30435000D03*
%TO.N,SCL*%
X50750000Y-39500000D03*
%TO.N,SDA*%
X50000000Y-37000000D03*
%TO.N,SERVO_EN*%
X53500000Y-45500000D03*
X51272045Y-44522045D03*
%TO.N,SERVO_D4*%
X32000000Y-42961000D03*
%TD*%
D26*
%TO.N,Net-(J3-Pin_1)*%
X52714000Y-43036000D02*
X52714000Y-44070040D01*
X41000000Y-46100000D02*
X41000000Y-47750000D01*
X51185040Y-45599000D02*
X41501000Y-45599000D01*
X52714000Y-44070040D02*
X51185040Y-45599000D01*
X41501000Y-45599000D02*
X41000000Y-46100000D01*
X54750000Y-41000000D02*
X52714000Y-43036000D01*
%TO.N,-BATT*%
X53349000Y-40123420D02*
X53349000Y-41079040D01*
X47055050Y-42002000D02*
X44456050Y-44601000D01*
X56151000Y-42099000D02*
X56151000Y-40123420D01*
X53349000Y-41079040D02*
X52426040Y-42002000D01*
X55776580Y-39749000D02*
X53723420Y-39749000D01*
X44456050Y-44601000D02*
X42561000Y-44601000D01*
X53723420Y-39749000D02*
X53349000Y-40123420D01*
X54750000Y-43500000D02*
X56151000Y-42099000D01*
X52426040Y-42002000D02*
X47055050Y-42002000D01*
X56151000Y-40123420D02*
X55776580Y-39749000D01*
X42561000Y-44601000D02*
X41460000Y-43500000D01*
D27*
%TO.N,GND*%
X57500000Y-37290000D02*
X55000000Y-34790000D01*
D26*
X27000000Y-28710000D02*
X30950000Y-28710000D01*
X30950000Y-28710000D02*
X31250000Y-29010000D01*
X32720000Y-30480000D02*
X35107000Y-30480000D01*
X58615000Y-46330000D02*
X57364000Y-45079000D01*
X57364000Y-39963942D02*
X53895033Y-36494975D01*
X57364000Y-45079000D02*
X57364000Y-39963942D01*
X31250000Y-29010000D02*
X32720000Y-30480000D01*
X53895033Y-36494975D02*
X53755025Y-36494975D01*
D27*
X58615000Y-37290000D02*
X57500000Y-37290000D01*
%TO.N,HAPTIC_MOTOR*%
X50347000Y-33020000D02*
X54230000Y-33020000D01*
X54230000Y-33020000D02*
X55000000Y-32250000D01*
D26*
%TO.N,INT*%
X48995036Y-30435000D02*
X50302000Y-30435000D01*
X50302000Y-30435000D02*
X50347000Y-30480000D01*
%TO.N,+3.3V*%
X25749000Y-27751000D02*
X25749000Y-29266182D01*
X27030000Y-26470000D02*
X25749000Y-27751000D01*
X31250000Y-26470000D02*
X27030000Y-26470000D01*
X26481818Y-29999000D02*
X27518182Y-29999000D01*
X34926000Y-32839000D02*
X35107000Y-33020000D01*
X27518182Y-29999000D02*
X30358182Y-32839000D01*
X25749000Y-29266182D02*
X26481818Y-29999000D01*
X30358182Y-32839000D02*
X34926000Y-32839000D01*
%TO.N,SCL*%
X50750000Y-39500000D02*
X50750000Y-40237000D01*
X50750000Y-40237000D02*
X50347000Y-40640000D01*
%TO.N,SDA*%
X50000000Y-37753000D02*
X50347000Y-38100000D01*
X50000000Y-37000000D02*
X50000000Y-37753000D01*
%TO.N,SERVO_EN*%
X53500000Y-46250000D02*
X55250000Y-48000000D01*
X51272045Y-44522045D02*
X51272045Y-44105045D01*
X55250000Y-48000000D02*
X55540000Y-48000000D01*
X53500000Y-45500000D02*
X53500000Y-46250000D01*
X51272045Y-44105045D02*
X50347000Y-43180000D01*
%TO.N,SERVO_D1*%
X57819498Y-32210000D02*
X58615000Y-32210000D01*
X50347000Y-27940000D02*
X53549498Y-27940000D01*
X53549498Y-27940000D02*
X57819498Y-32210000D01*
%TO.N,SERVO_D2*%
X58615000Y-41250000D02*
X58615000Y-40365000D01*
X53810000Y-35560000D02*
X50347000Y-35560000D01*
X58615000Y-40365000D02*
X53810000Y-35560000D01*
%TO.N,SERVO_D3*%
X35107000Y-35560000D02*
X34926000Y-35379000D01*
X28589000Y-35379000D02*
X27000000Y-33790000D01*
X34926000Y-35379000D02*
X28589000Y-35379000D01*
%TO.N,SERVO_D4*%
X32969000Y-43180000D02*
X35107000Y-43180000D01*
X32000000Y-42961000D02*
X32750000Y-42961000D01*
X32750000Y-42961000D02*
X32969000Y-43180000D01*
%TD*%
%TA.AperFunction,Conductor*%
%TO.N,GND*%
G36*
X25705703Y-34886389D02*
G01*
X25723762Y-34905786D01*
X25792454Y-34997546D01*
X25838643Y-35032123D01*
X25907664Y-35083793D01*
X25907671Y-35083797D01*
X26042517Y-35134091D01*
X26042516Y-35134091D01*
X26049444Y-35134835D01*
X26102127Y-35140500D01*
X27308480Y-35140499D01*
X27375519Y-35160184D01*
X27396161Y-35176818D01*
X27731447Y-35512103D01*
X28044886Y-35825542D01*
X28106889Y-35887545D01*
X28142459Y-35923115D01*
X28257184Y-35999772D01*
X28257185Y-35999772D01*
X28257189Y-35999775D01*
X28303755Y-36019063D01*
X28384671Y-36052580D01*
X28411591Y-36057934D01*
X28502484Y-36076014D01*
X28520006Y-36079500D01*
X28520007Y-36079500D01*
X29838198Y-36079500D01*
X29905237Y-36099185D01*
X29950992Y-36151989D01*
X29960936Y-36221147D01*
X29956130Y-36241812D01*
X29948859Y-36264191D01*
X29932753Y-36313760D01*
X29903157Y-36500626D01*
X29899500Y-36523713D01*
X29899500Y-36736287D01*
X29901949Y-36751748D01*
X29931384Y-36937597D01*
X29932754Y-36946243D01*
X29993561Y-37133388D01*
X29998444Y-37148414D01*
X30094951Y-37337820D01*
X30219890Y-37509786D01*
X30370213Y-37660109D01*
X30542182Y-37785050D01*
X30550946Y-37789516D01*
X30601742Y-37837491D01*
X30618536Y-37905312D01*
X30595998Y-37971447D01*
X30550946Y-38010484D01*
X30542182Y-38014949D01*
X30370213Y-38139890D01*
X30219890Y-38290213D01*
X30094951Y-38462179D01*
X29998444Y-38651585D01*
X29932753Y-38853760D01*
X29901640Y-39050202D01*
X29899500Y-39063713D01*
X29899500Y-39276287D01*
X29901874Y-39291273D01*
X29931384Y-39477597D01*
X29932754Y-39486243D01*
X29983221Y-39641565D01*
X29998444Y-39688414D01*
X30094951Y-39877820D01*
X30219890Y-40049786D01*
X30370213Y-40200109D01*
X30542182Y-40325050D01*
X30550946Y-40329516D01*
X30601742Y-40377491D01*
X30618536Y-40445312D01*
X30595998Y-40511447D01*
X30550946Y-40550484D01*
X30542182Y-40554949D01*
X30370213Y-40679890D01*
X30219890Y-40830213D01*
X30094951Y-41002179D01*
X29998444Y-41191585D01*
X29932753Y-41393760D01*
X29902734Y-41583297D01*
X29899500Y-41603713D01*
X29899500Y-41816287D01*
X29901949Y-41831748D01*
X29930466Y-42011802D01*
X29932754Y-42026243D01*
X29985002Y-42187046D01*
X29998444Y-42228414D01*
X30094951Y-42417820D01*
X30219890Y-42589786D01*
X30370213Y-42740109D01*
X30542182Y-42865050D01*
X30550946Y-42869516D01*
X30601742Y-42917491D01*
X30618536Y-42985312D01*
X30595998Y-43051447D01*
X30550946Y-43090484D01*
X30542182Y-43094949D01*
X30370213Y-43219890D01*
X30219890Y-43370213D01*
X30094951Y-43542179D01*
X29998444Y-43731585D01*
X29932753Y-43933760D01*
X29902734Y-44123297D01*
X29899500Y-44143713D01*
X29899500Y-44356287D01*
X29901476Y-44368760D01*
X29931947Y-44561153D01*
X29932754Y-44566243D01*
X29994687Y-44756853D01*
X29998444Y-44768414D01*
X30094951Y-44957820D01*
X30219890Y-45129786D01*
X30370213Y-45280109D01*
X30542179Y-45405048D01*
X30542181Y-45405049D01*
X30542184Y-45405051D01*
X30731588Y-45501557D01*
X30933757Y-45567246D01*
X31143713Y-45600500D01*
X31143714Y-45600500D01*
X31356286Y-45600500D01*
X31356287Y-45600500D01*
X31566243Y-45567246D01*
X31768412Y-45501557D01*
X31957816Y-45405051D01*
X32036909Y-45347587D01*
X32129786Y-45280109D01*
X32129788Y-45280106D01*
X32129792Y-45280104D01*
X32280104Y-45129792D01*
X32280106Y-45129788D01*
X32280109Y-45129786D01*
X32405048Y-44957820D01*
X32405047Y-44957820D01*
X32405051Y-44957816D01*
X32501557Y-44768412D01*
X32567246Y-44566243D01*
X32600500Y-44356287D01*
X32600500Y-44356285D01*
X32601262Y-44351475D01*
X32603405Y-44351814D01*
X32605511Y-44346276D01*
X32605978Y-44331300D01*
X32617679Y-44314282D01*
X32625021Y-44294978D01*
X32637074Y-44286074D01*
X32645565Y-44273727D01*
X32664608Y-44265737D01*
X32681222Y-44253466D01*
X32696176Y-44252492D01*
X32709993Y-44246696D01*
X32730332Y-44250270D01*
X32750944Y-44248929D01*
X32765183Y-44256394D01*
X32778809Y-44258789D01*
X32803382Y-44276422D01*
X32807891Y-44278786D01*
X32811585Y-44282194D01*
X32812237Y-44282989D01*
X32815011Y-44285763D01*
X32818986Y-44289021D01*
X32819111Y-44289137D01*
X32819487Y-44289513D01*
X32832839Y-44301611D01*
X32845291Y-44312895D01*
X32847775Y-44316956D01*
X32877928Y-44339570D01*
X32877928Y-44339571D01*
X32881700Y-44342400D01*
X32881735Y-44342426D01*
X32881741Y-44342430D01*
X32892697Y-44350419D01*
X32892718Y-44350433D01*
X32892736Y-44350447D01*
X32893189Y-44350768D01*
X32897504Y-44353734D01*
X32905092Y-44358950D01*
X32911037Y-44362913D01*
X32911045Y-44362917D01*
X32911052Y-44362922D01*
X32971575Y-44396151D01*
X32971383Y-44396537D01*
X32974402Y-44398047D01*
X32977373Y-44399334D01*
X32987085Y-44404667D01*
X32987088Y-44404668D01*
X32987093Y-44404671D01*
X32990193Y-44406041D01*
X32990207Y-44406047D01*
X32997306Y-44408482D01*
X33004635Y-44411260D01*
X33010699Y-44413780D01*
X33025194Y-44420063D01*
X33027241Y-44420820D01*
X33028786Y-44421297D01*
X33029036Y-44421401D01*
X33029439Y-44421531D01*
X33048978Y-44428044D01*
X33053975Y-44429601D01*
X33067880Y-44433936D01*
X33068617Y-44434150D01*
X33078018Y-44436689D01*
X33086945Y-44439101D01*
X33086972Y-44439107D01*
X33086973Y-44439108D01*
X33098973Y-44442108D01*
X33159716Y-44453402D01*
X33162125Y-44453699D01*
X33162141Y-44453701D01*
X33224000Y-44457500D01*
X33224009Y-44457500D01*
X35106980Y-44457500D01*
X35107000Y-44457500D01*
X35110466Y-44457479D01*
X35113081Y-44457464D01*
X35113104Y-44457463D01*
X35113316Y-44457461D01*
X35119884Y-44457339D01*
X35159884Y-44456339D01*
X35172595Y-44455861D01*
X35172599Y-44455860D01*
X35172620Y-44455860D01*
X35173041Y-44455839D01*
X35173072Y-44455837D01*
X35173093Y-44455836D01*
X35185554Y-44455056D01*
X35225554Y-44452056D01*
X35225559Y-44452055D01*
X35225593Y-44452053D01*
X35238613Y-44450907D01*
X35239032Y-44450863D01*
X35239141Y-44450853D01*
X35247077Y-44449943D01*
X35252539Y-44449317D01*
X35258114Y-44448602D01*
X35291554Y-44444315D01*
X35310485Y-44441523D01*
X35310726Y-44441482D01*
X35311194Y-44441405D01*
X35311211Y-44441401D01*
X35311222Y-44441400D01*
X35329586Y-44437985D01*
X35368586Y-44429985D01*
X35374050Y-44428833D01*
X35374290Y-44428781D01*
X35380915Y-44427299D01*
X35419915Y-44418299D01*
X35433174Y-44415050D01*
X35433706Y-44414912D01*
X35447339Y-44411171D01*
X35447365Y-44411164D01*
X35465040Y-44406047D01*
X35485339Y-44400171D01*
X35503142Y-44394660D01*
X35503818Y-44394437D01*
X35520211Y-44388715D01*
X35558211Y-44374715D01*
X35565763Y-44371864D01*
X35566063Y-44371748D01*
X35573676Y-44368734D01*
X35610676Y-44353734D01*
X35623797Y-44348198D01*
X35624310Y-44347973D01*
X35624355Y-44347952D01*
X35624379Y-44347942D01*
X35629832Y-44345458D01*
X35637122Y-44342140D01*
X35673122Y-44325140D01*
X35685136Y-44319271D01*
X35685637Y-44319018D01*
X35698941Y-44312049D01*
X35733941Y-44293049D01*
X35746579Y-44285952D01*
X35747063Y-44285671D01*
X35758892Y-44278586D01*
X35792892Y-44257586D01*
X35804700Y-44250065D01*
X35805163Y-44249761D01*
X35812346Y-44244900D01*
X35816739Y-44241929D01*
X35819487Y-44240013D01*
X35849759Y-44218915D01*
X35857002Y-44213772D01*
X35857284Y-44213568D01*
X35864300Y-44208400D01*
X35896300Y-44184400D01*
X35910441Y-44173397D01*
X35910990Y-44172954D01*
X35924616Y-44161558D01*
X35954616Y-44135558D01*
X35961318Y-44129645D01*
X35961583Y-44129407D01*
X35968271Y-44123291D01*
X35997271Y-44096291D01*
X36010256Y-44083761D01*
X36010761Y-44083256D01*
X36023291Y-44070271D01*
X36050291Y-44041271D01*
X36056407Y-44034583D01*
X36056645Y-44034318D01*
X36062558Y-44027616D01*
X36088558Y-43997616D01*
X36099954Y-43983990D01*
X36100397Y-43983441D01*
X36111400Y-43969300D01*
X36135400Y-43937300D01*
X36140568Y-43930284D01*
X36140772Y-43930002D01*
X36145915Y-43922759D01*
X36168915Y-43889759D01*
X36176761Y-43878163D01*
X36177065Y-43877700D01*
X36184586Y-43865892D01*
X36205586Y-43831892D01*
X36212671Y-43820063D01*
X36212952Y-43819579D01*
X36220049Y-43806941D01*
X36239049Y-43771941D01*
X36246018Y-43758637D01*
X36246271Y-43758136D01*
X36252140Y-43746122D01*
X36269140Y-43710122D01*
X36274973Y-43697310D01*
X36275198Y-43696797D01*
X36280734Y-43683676D01*
X36295734Y-43646676D01*
X36298748Y-43639063D01*
X36298864Y-43638763D01*
X36301715Y-43631211D01*
X36315715Y-43593211D01*
X36321437Y-43576818D01*
X36321660Y-43576142D01*
X36327171Y-43558339D01*
X36334168Y-43534167D01*
X36338164Y-43520365D01*
X36338615Y-43518719D01*
X36341912Y-43506706D01*
X36342050Y-43506174D01*
X36345299Y-43492915D01*
X36354299Y-43453915D01*
X36355781Y-43447290D01*
X36355833Y-43447050D01*
X36356985Y-43441586D01*
X36364985Y-43402586D01*
X36368400Y-43384222D01*
X36368523Y-43383485D01*
X36371315Y-43364554D01*
X36376315Y-43325554D01*
X36377853Y-43312141D01*
X36377863Y-43312032D01*
X36377907Y-43311613D01*
X36379053Y-43298593D01*
X36381078Y-43271588D01*
X36382056Y-43258554D01*
X36382836Y-43246093D01*
X36382861Y-43245595D01*
X36383339Y-43232884D01*
X36384339Y-43192884D01*
X36384497Y-43180250D01*
X36384497Y-43179750D01*
X36384339Y-43167116D01*
X36383339Y-43127116D01*
X36382861Y-43114405D01*
X36382836Y-43113907D01*
X36382056Y-43101446D01*
X36379056Y-43061446D01*
X36379055Y-43061445D01*
X36379053Y-43061406D01*
X36377907Y-43048386D01*
X36377855Y-43047879D01*
X36376317Y-43034460D01*
X36371313Y-42995433D01*
X36368522Y-42976509D01*
X36368405Y-42975805D01*
X36364986Y-42957422D01*
X36364985Y-42957414D01*
X36356985Y-42918414D01*
X36355833Y-42912950D01*
X36355781Y-42912710D01*
X36354299Y-42906085D01*
X36345299Y-42867085D01*
X36342050Y-42853826D01*
X36341912Y-42853294D01*
X36338171Y-42839661D01*
X36338164Y-42839634D01*
X36331970Y-42818240D01*
X36327171Y-42801661D01*
X36321660Y-42783858D01*
X36321437Y-42783182D01*
X36315715Y-42766789D01*
X36301715Y-42728789D01*
X36298864Y-42721237D01*
X36298748Y-42720937D01*
X36295734Y-42713324D01*
X36280734Y-42676324D01*
X36275198Y-42663203D01*
X36274973Y-42662690D01*
X36274963Y-42662668D01*
X36274942Y-42662620D01*
X36269144Y-42649887D01*
X36262090Y-42634949D01*
X36252140Y-42613878D01*
X36246271Y-42601864D01*
X36246018Y-42601363D01*
X36245565Y-42600499D01*
X36242547Y-42594737D01*
X36239049Y-42588059D01*
X36220049Y-42553059D01*
X36212952Y-42540421D01*
X36212671Y-42539937D01*
X36205586Y-42528108D01*
X36205584Y-42528105D01*
X36205559Y-42528063D01*
X36184588Y-42494111D01*
X36177062Y-42482295D01*
X36176767Y-42481846D01*
X36168929Y-42470260D01*
X36145945Y-42437284D01*
X36145943Y-42437281D01*
X36145915Y-42437241D01*
X36140772Y-42429998D01*
X36140568Y-42429716D01*
X36135400Y-42422700D01*
X36111400Y-42390700D01*
X36111389Y-42390685D01*
X36100415Y-42376581D01*
X36099961Y-42376019D01*
X36099954Y-42376010D01*
X36088558Y-42362384D01*
X36062558Y-42332384D01*
X36056645Y-42325682D01*
X36056641Y-42325677D01*
X36056422Y-42325433D01*
X36050297Y-42318735D01*
X36023268Y-42289704D01*
X36010763Y-42276745D01*
X36010254Y-42276236D01*
X35997295Y-42263731D01*
X35968264Y-42236702D01*
X35961566Y-42230577D01*
X35961322Y-42230358D01*
X35954639Y-42224462D01*
X35924616Y-42198442D01*
X35910980Y-42187038D01*
X35910418Y-42186584D01*
X35896314Y-42175610D01*
X35864304Y-42151603D01*
X35857280Y-42146429D01*
X35857049Y-42146262D01*
X35857002Y-42146228D01*
X35849759Y-42141085D01*
X35848099Y-42139928D01*
X35816739Y-42118070D01*
X35805153Y-42110232D01*
X35804704Y-42109937D01*
X35792888Y-42102411D01*
X35758936Y-42081440D01*
X35751541Y-42077011D01*
X35747063Y-42074329D01*
X35746905Y-42074237D01*
X35746642Y-42074084D01*
X35746611Y-42074066D01*
X35746579Y-42074048D01*
X35733941Y-42066951D01*
X35733938Y-42066949D01*
X35733916Y-42066937D01*
X35716993Y-42057750D01*
X35698941Y-42047951D01*
X35693391Y-42045043D01*
X35685623Y-42040974D01*
X35685137Y-42040729D01*
X35677670Y-42037082D01*
X35673122Y-42034860D01*
X35646155Y-42022125D01*
X35593942Y-41975700D01*
X35575116Y-41908415D01*
X35595656Y-41841632D01*
X35646155Y-41797874D01*
X35673122Y-41785140D01*
X35685136Y-41779271D01*
X35685637Y-41779018D01*
X35698941Y-41772049D01*
X35733941Y-41753049D01*
X35746579Y-41745952D01*
X35747063Y-41745671D01*
X35758892Y-41738586D01*
X35792892Y-41717586D01*
X35804700Y-41710065D01*
X35805163Y-41709761D01*
X35812346Y-41704900D01*
X35816739Y-41701929D01*
X35819487Y-41700013D01*
X35849759Y-41678915D01*
X35857002Y-41673772D01*
X35857284Y-41673568D01*
X35864300Y-41668400D01*
X35896300Y-41644400D01*
X35910441Y-41633397D01*
X35910990Y-41632954D01*
X35924616Y-41621558D01*
X35954616Y-41595558D01*
X35961318Y-41589645D01*
X35961583Y-41589407D01*
X35968271Y-41583291D01*
X35997271Y-41556291D01*
X36010256Y-41543761D01*
X36010761Y-41543256D01*
X36023291Y-41530271D01*
X36050291Y-41501271D01*
X36056407Y-41494583D01*
X36056645Y-41494318D01*
X36062558Y-41487616D01*
X36088558Y-41457616D01*
X36099954Y-41443990D01*
X36100397Y-41443441D01*
X36111400Y-41429300D01*
X36135400Y-41397300D01*
X36140568Y-41390284D01*
X36140772Y-41390002D01*
X36145915Y-41382759D01*
X36168915Y-41349759D01*
X36176761Y-41338163D01*
X36177065Y-41337700D01*
X36184586Y-41325892D01*
X36205586Y-41291892D01*
X36212671Y-41280063D01*
X36212952Y-41279579D01*
X36220049Y-41266941D01*
X36239049Y-41231941D01*
X36246018Y-41218637D01*
X36246271Y-41218136D01*
X36252140Y-41206122D01*
X36269140Y-41170122D01*
X36274973Y-41157310D01*
X36275198Y-41156797D01*
X36280734Y-41143676D01*
X36295734Y-41106676D01*
X36298748Y-41099063D01*
X36298864Y-41098763D01*
X36301715Y-41091211D01*
X36315715Y-41053211D01*
X36321437Y-41036818D01*
X36321660Y-41036142D01*
X36327171Y-41018339D01*
X36334168Y-40994167D01*
X36338164Y-40980365D01*
X36340747Y-40970950D01*
X36341912Y-40966706D01*
X36342050Y-40966174D01*
X36345299Y-40952915D01*
X36354299Y-40913915D01*
X36355781Y-40907290D01*
X36355833Y-40907050D01*
X36356985Y-40901586D01*
X36364985Y-40862586D01*
X36368400Y-40844222D01*
X36368523Y-40843485D01*
X36371315Y-40824554D01*
X36375267Y-40793731D01*
X36403317Y-40729739D01*
X36461511Y-40691071D01*
X36498260Y-40685500D01*
X37300203Y-40685500D01*
X37367242Y-40705185D01*
X37412997Y-40757989D01*
X37419179Y-40774562D01*
X37419517Y-40775713D01*
X37508672Y-40970938D01*
X37508679Y-40970951D01*
X37566277Y-41060575D01*
X37619688Y-41143685D01*
X37624720Y-41151514D01*
X37765275Y-41313724D01*
X37871663Y-41405909D01*
X37927487Y-41454281D01*
X38016558Y-41511523D01*
X38108048Y-41570320D01*
X38108061Y-41570327D01*
X38303284Y-41659482D01*
X38303288Y-41659483D01*
X38303290Y-41659484D01*
X38509231Y-41719954D01*
X38509232Y-41719954D01*
X38509235Y-41719955D01*
X38572584Y-41729062D01*
X38721682Y-41750500D01*
X38763108Y-41750500D01*
X40537500Y-41750500D01*
X40604539Y-41770185D01*
X40650294Y-41822989D01*
X40661500Y-41874500D01*
X40661500Y-42549375D01*
X40641815Y-42616414D01*
X40625181Y-42637056D01*
X40544312Y-42717924D01*
X40544312Y-42717925D01*
X40544310Y-42717927D01*
X40528194Y-42740109D01*
X40433240Y-42870800D01*
X40347454Y-43039163D01*
X40289059Y-43218881D01*
X40259500Y-43405513D01*
X40259500Y-43594486D01*
X40289059Y-43781118D01*
X40347454Y-43960836D01*
X40418617Y-44100500D01*
X40433240Y-44129199D01*
X40544310Y-44282073D01*
X40677927Y-44415690D01*
X40830801Y-44526760D01*
X40898301Y-44561153D01*
X40999163Y-44612545D01*
X40999165Y-44612545D01*
X40999168Y-44612547D01*
X41102976Y-44646276D01*
X41178875Y-44670938D01*
X41178876Y-44670938D01*
X41178882Y-44670940D01*
X41274271Y-44686047D01*
X41337402Y-44715975D01*
X41374334Y-44775287D01*
X41373336Y-44845149D01*
X41334727Y-44903382D01*
X41301877Y-44922070D01*
X41302299Y-44923089D01*
X41169192Y-44978222D01*
X41054454Y-45054887D01*
X40455887Y-45653454D01*
X40379222Y-45768192D01*
X40326421Y-45895667D01*
X40326418Y-45895677D01*
X40299500Y-46031004D01*
X40299500Y-46150058D01*
X40289886Y-46182797D01*
X40280677Y-46215738D01*
X40280001Y-46216462D01*
X40279815Y-46217097D01*
X40257912Y-46242709D01*
X40253334Y-46246780D01*
X40185354Y-46296172D01*
X40085117Y-46396408D01*
X40082412Y-46398815D01*
X40053967Y-46412253D01*
X40026358Y-46427330D01*
X40022623Y-46427062D01*
X40019239Y-46428662D01*
X39988046Y-46424590D01*
X39956666Y-46422346D01*
X39953049Y-46420021D01*
X39949957Y-46419618D01*
X39942091Y-46412979D01*
X39912319Y-46393845D01*
X39814648Y-46296174D01*
X39814646Y-46296172D01*
X39655405Y-46180476D01*
X39610198Y-46157442D01*
X39480029Y-46091117D01*
X39292826Y-46030290D01*
X39098422Y-45999500D01*
X39098417Y-45999500D01*
X38901583Y-45999500D01*
X38901578Y-45999500D01*
X38707173Y-46030290D01*
X38519970Y-46091117D01*
X38344595Y-46180475D01*
X38308385Y-46206784D01*
X38242578Y-46230263D01*
X38174524Y-46214437D01*
X38136235Y-46180778D01*
X38107546Y-46142454D01*
X38107544Y-46142452D01*
X38107543Y-46142451D01*
X37992335Y-46056206D01*
X37992328Y-46056202D01*
X37857482Y-46005908D01*
X37857483Y-46005908D01*
X37797883Y-45999501D01*
X37797881Y-45999500D01*
X37797873Y-45999500D01*
X37797864Y-45999500D01*
X36202129Y-45999500D01*
X36202123Y-45999501D01*
X36135443Y-46006669D01*
X36066683Y-45994262D01*
X36034509Y-45971060D01*
X35942654Y-45879205D01*
X35942649Y-45879201D01*
X35738848Y-45731132D01*
X35738847Y-45731131D01*
X35738845Y-45731130D01*
X35668747Y-45695413D01*
X35514383Y-45616760D01*
X35274785Y-45538910D01*
X35025962Y-45499500D01*
X34774038Y-45499500D01*
X34649626Y-45519205D01*
X34525214Y-45538910D01*
X34285616Y-45616760D01*
X34061151Y-45731132D01*
X33857350Y-45879201D01*
X33857345Y-45879205D01*
X33679205Y-46057345D01*
X33679201Y-46057350D01*
X33531132Y-46261151D01*
X33416760Y-46485616D01*
X33338910Y-46725214D01*
X33319878Y-46845375D01*
X33299500Y-46974038D01*
X33299500Y-48525962D01*
X33328262Y-48707555D01*
X33338910Y-48774785D01*
X33416760Y-49014383D01*
X33463521Y-49106155D01*
X33516084Y-49209316D01*
X33531132Y-49238848D01*
X33577461Y-49302615D01*
X33600941Y-49368421D01*
X33585116Y-49436475D01*
X33535010Y-49485170D01*
X33477143Y-49499500D01*
X29831077Y-49499500D01*
X29764038Y-49479815D01*
X29718283Y-49427011D01*
X29708339Y-49357853D01*
X29737364Y-49294297D01*
X29743396Y-49287819D01*
X29878804Y-49152411D01*
X29919231Y-49101716D01*
X30078419Y-48902101D01*
X30248755Y-48631013D01*
X30387668Y-48342558D01*
X30493410Y-48040363D01*
X30564653Y-47728229D01*
X30600500Y-47410081D01*
X30600500Y-47089919D01*
X30564653Y-46771771D01*
X30493410Y-46459637D01*
X30387668Y-46157442D01*
X30248755Y-45868987D01*
X30078419Y-45597899D01*
X29878802Y-45347587D01*
X29652413Y-45121198D01*
X29651940Y-45120821D01*
X29582679Y-45065587D01*
X29402101Y-44921581D01*
X29131510Y-44751557D01*
X29131010Y-44751243D01*
X28842559Y-44612332D01*
X28540364Y-44506590D01*
X28540362Y-44506589D01*
X28267511Y-44444313D01*
X28228229Y-44435347D01*
X28228225Y-44435346D01*
X28228216Y-44435345D01*
X27910085Y-44399500D01*
X27910081Y-44399500D01*
X27589919Y-44399500D01*
X27589914Y-44399500D01*
X27271783Y-44435345D01*
X27271771Y-44435347D01*
X26959637Y-44506589D01*
X26959635Y-44506590D01*
X26657440Y-44612332D01*
X26368989Y-44751243D01*
X26097900Y-44921580D01*
X25847587Y-45121197D01*
X25712181Y-45256604D01*
X25650858Y-45290089D01*
X25581166Y-45285105D01*
X25525233Y-45243233D01*
X25500816Y-45177769D01*
X25500500Y-45168923D01*
X25500500Y-43940102D01*
X25520185Y-43873063D01*
X25572989Y-43827308D01*
X25642147Y-43817364D01*
X25705703Y-43846389D01*
X25723762Y-43865786D01*
X25792454Y-43957546D01*
X25827045Y-43983441D01*
X25907664Y-44043793D01*
X25907671Y-44043797D01*
X26042517Y-44094091D01*
X26042516Y-44094091D01*
X26049444Y-44094835D01*
X26102127Y-44100500D01*
X27897872Y-44100499D01*
X27957483Y-44094091D01*
X28092331Y-44043796D01*
X28207546Y-43957546D01*
X28293796Y-43842331D01*
X28344091Y-43707483D01*
X28350500Y-43647873D01*
X28350499Y-41852128D01*
X28344091Y-41792517D01*
X28341338Y-41785137D01*
X28293797Y-41657671D01*
X28293793Y-41657664D01*
X28207547Y-41542455D01*
X28207544Y-41542452D01*
X28092335Y-41456206D01*
X28092328Y-41456202D01*
X27960917Y-41407189D01*
X27904983Y-41365318D01*
X27880566Y-41299853D01*
X27895418Y-41231580D01*
X27916563Y-41203332D01*
X28030104Y-41089792D01*
X28056682Y-41053211D01*
X28155048Y-40917820D01*
X28155047Y-40917820D01*
X28155051Y-40917816D01*
X28251557Y-40728412D01*
X28317246Y-40526243D01*
X28350500Y-40316287D01*
X28350500Y-40103713D01*
X28317246Y-39893757D01*
X28251557Y-39691588D01*
X28155051Y-39502184D01*
X28155049Y-39502181D01*
X28155048Y-39502179D01*
X28030109Y-39330213D01*
X27879786Y-39179890D01*
X27707817Y-39054949D01*
X27698504Y-39050204D01*
X27647707Y-39002230D01*
X27630912Y-38934409D01*
X27653449Y-38868274D01*
X27698507Y-38829232D01*
X27707555Y-38824622D01*
X27761716Y-38785270D01*
X27761717Y-38785270D01*
X27129408Y-38152962D01*
X27192993Y-38135925D01*
X27307007Y-38070099D01*
X27400099Y-37977007D01*
X27465925Y-37862993D01*
X27482962Y-37799408D01*
X28115270Y-38431717D01*
X28115270Y-38431716D01*
X28154622Y-38377554D01*
X28251095Y-38188217D01*
X28316757Y-37986130D01*
X28316757Y-37986127D01*
X28350000Y-37776246D01*
X28350000Y-37563753D01*
X28316757Y-37353872D01*
X28316757Y-37353869D01*
X28251095Y-37151782D01*
X28154624Y-36962449D01*
X28115270Y-36908282D01*
X28115269Y-36908282D01*
X27482962Y-37540590D01*
X27465925Y-37477007D01*
X27400099Y-37362993D01*
X27307007Y-37269901D01*
X27192993Y-37204075D01*
X27129409Y-37187037D01*
X27761716Y-36554728D01*
X27707550Y-36515375D01*
X27518217Y-36418904D01*
X27316129Y-36353242D01*
X27106246Y-36320000D01*
X26893754Y-36320000D01*
X26683872Y-36353242D01*
X26683869Y-36353242D01*
X26481782Y-36418904D01*
X26292439Y-36515380D01*
X26238282Y-36554727D01*
X26238282Y-36554728D01*
X26870591Y-37187037D01*
X26807007Y-37204075D01*
X26692993Y-37269901D01*
X26599901Y-37362993D01*
X26534075Y-37477007D01*
X26517037Y-37540591D01*
X25884728Y-36908282D01*
X25884727Y-36908282D01*
X25845380Y-36962439D01*
X25748904Y-37151782D01*
X25742431Y-37171706D01*
X25702994Y-37229381D01*
X25638635Y-37256580D01*
X25569789Y-37244665D01*
X25518313Y-37197421D01*
X25500500Y-37133388D01*
X25500500Y-34980102D01*
X25520185Y-34913063D01*
X25572989Y-34867308D01*
X25642147Y-34857364D01*
X25705703Y-34886389D01*
G37*
%TD.AperFunction*%
%TA.AperFunction,Conductor*%
G36*
X52627370Y-45249840D02*
G01*
X52683304Y-45291712D01*
X52707721Y-45357176D01*
X52705655Y-45390211D01*
X52699500Y-45421156D01*
X52699500Y-45578846D01*
X52730261Y-45733489D01*
X52730264Y-45733501D01*
X52790061Y-45877864D01*
X52799500Y-45925316D01*
X52799500Y-46181006D01*
X52799500Y-46318994D01*
X52799500Y-46318996D01*
X52799499Y-46318996D01*
X52826418Y-46454322D01*
X52826421Y-46454332D01*
X52846235Y-46502167D01*
X52853704Y-46571636D01*
X52822428Y-46634115D01*
X52762339Y-46669767D01*
X52751072Y-46672092D01*
X52683760Y-46682753D01*
X52481585Y-46748444D01*
X52292179Y-46844951D01*
X52120213Y-46969890D01*
X51969890Y-47120213D01*
X51844949Y-47292182D01*
X51840202Y-47301499D01*
X51792227Y-47352293D01*
X51724405Y-47369087D01*
X51658271Y-47346548D01*
X51619234Y-47301495D01*
X51614626Y-47292452D01*
X51575270Y-47238282D01*
X51575269Y-47238282D01*
X50942962Y-47870590D01*
X50925925Y-47807007D01*
X50860099Y-47692993D01*
X50767007Y-47599901D01*
X50652993Y-47534075D01*
X50589409Y-47517037D01*
X51221716Y-46884728D01*
X51167550Y-46845375D01*
X50978217Y-46748904D01*
X50776129Y-46683242D01*
X50566246Y-46650000D01*
X50353754Y-46650000D01*
X50143872Y-46683242D01*
X50143869Y-46683242D01*
X49941782Y-46748904D01*
X49752439Y-46845380D01*
X49698282Y-46884727D01*
X49698282Y-46884728D01*
X50330591Y-47517037D01*
X50267007Y-47534075D01*
X50152993Y-47599901D01*
X50059901Y-47692993D01*
X49994075Y-47807007D01*
X49977037Y-47870591D01*
X49344728Y-47238282D01*
X49344727Y-47238282D01*
X49305380Y-47292440D01*
X49305376Y-47292446D01*
X49300760Y-47301505D01*
X49252781Y-47352297D01*
X49184959Y-47369087D01*
X49118826Y-47346543D01*
X49079794Y-47301493D01*
X49075051Y-47292184D01*
X49075049Y-47292181D01*
X49075048Y-47292179D01*
X48950109Y-47120213D01*
X48799786Y-46969890D01*
X48627820Y-46844951D01*
X48438414Y-46748444D01*
X48438413Y-46748443D01*
X48438412Y-46748443D01*
X48236243Y-46682754D01*
X48236241Y-46682753D01*
X48236240Y-46682753D01*
X48074957Y-46657208D01*
X48026287Y-46649500D01*
X47813713Y-46649500D01*
X47765042Y-46657208D01*
X47603760Y-46682753D01*
X47401585Y-46748444D01*
X47212179Y-46844951D01*
X47040213Y-46969890D01*
X46889890Y-47120213D01*
X46764951Y-47292179D01*
X46668444Y-47481585D01*
X46602753Y-47683760D01*
X46571804Y-47879168D01*
X46569500Y-47893713D01*
X46569500Y-48106287D01*
X46602754Y-48316243D01*
X46636427Y-48419878D01*
X46668444Y-48518414D01*
X46764951Y-48707820D01*
X46889890Y-48879786D01*
X47040213Y-49030109D01*
X47212179Y-49155048D01*
X47212181Y-49155049D01*
X47212184Y-49155051D01*
X47401588Y-49251557D01*
X47420092Y-49257569D01*
X47477768Y-49297006D01*
X47504966Y-49361365D01*
X47493051Y-49430211D01*
X47445807Y-49481687D01*
X47381774Y-49499500D01*
X44522857Y-49499500D01*
X44455818Y-49479815D01*
X44410063Y-49427011D01*
X44400119Y-49357853D01*
X44422539Y-49302615D01*
X44455266Y-49257569D01*
X44468870Y-49238845D01*
X44583241Y-49014379D01*
X44661090Y-48774785D01*
X44700500Y-48525962D01*
X44700500Y-46974038D01*
X44661090Y-46725215D01*
X44583241Y-46485621D01*
X44583237Y-46485613D01*
X44580272Y-46479792D01*
X44567377Y-46411122D01*
X44593655Y-46346383D01*
X44650763Y-46306127D01*
X44690758Y-46299500D01*
X51254036Y-46299500D01*
X51345080Y-46281389D01*
X51389368Y-46272580D01*
X51491531Y-46230263D01*
X51516847Y-46219777D01*
X51516848Y-46219776D01*
X51516851Y-46219775D01*
X51631583Y-46143114D01*
X52496356Y-45278341D01*
X52557679Y-45244856D01*
X52627370Y-45249840D01*
G37*
%TD.AperFunction*%
%TA.AperFunction,Conductor*%
G36*
X49994075Y-48192993D02*
G01*
X50059901Y-48307007D01*
X50152993Y-48400099D01*
X50267007Y-48465925D01*
X50330590Y-48482962D01*
X49698282Y-49115269D01*
X49698282Y-49115270D01*
X49752449Y-49154624D01*
X49941782Y-49251095D01*
X49961706Y-49257569D01*
X50019381Y-49297006D01*
X50046580Y-49361365D01*
X50034665Y-49430211D01*
X49987421Y-49481687D01*
X49923388Y-49499500D01*
X48458226Y-49499500D01*
X48391187Y-49479815D01*
X48345432Y-49427011D01*
X48335488Y-49357853D01*
X48364513Y-49294297D01*
X48419906Y-49257569D01*
X48438412Y-49251557D01*
X48627816Y-49155051D01*
X48714138Y-49092335D01*
X48799786Y-49030109D01*
X48799788Y-49030106D01*
X48799792Y-49030104D01*
X48950104Y-48879792D01*
X48950106Y-48879788D01*
X48950109Y-48879786D01*
X49017515Y-48787007D01*
X49075051Y-48707816D01*
X49079793Y-48698508D01*
X49127763Y-48647711D01*
X49195583Y-48630911D01*
X49261719Y-48653445D01*
X49300763Y-48698500D01*
X49305373Y-48707547D01*
X49344728Y-48761716D01*
X49977037Y-48129408D01*
X49994075Y-48192993D01*
G37*
%TD.AperFunction*%
%TA.AperFunction,Conductor*%
G36*
X51575270Y-48761717D02*
G01*
X51575270Y-48761716D01*
X51614622Y-48707555D01*
X51619232Y-48698507D01*
X51667205Y-48647709D01*
X51735025Y-48630912D01*
X51801161Y-48653447D01*
X51840204Y-48698504D01*
X51844949Y-48707817D01*
X51969890Y-48879786D01*
X52120213Y-49030109D01*
X52292179Y-49155048D01*
X52292181Y-49155049D01*
X52292184Y-49155051D01*
X52481588Y-49251557D01*
X52500092Y-49257569D01*
X52557768Y-49297006D01*
X52584966Y-49361365D01*
X52573051Y-49430211D01*
X52525807Y-49481687D01*
X52461774Y-49499500D01*
X50996612Y-49499500D01*
X50929573Y-49479815D01*
X50883818Y-49427011D01*
X50873874Y-49357853D01*
X50902899Y-49294297D01*
X50958294Y-49257569D01*
X50978217Y-49251095D01*
X51167554Y-49154622D01*
X51221716Y-49115270D01*
X51221717Y-49115270D01*
X50589408Y-48482962D01*
X50652993Y-48465925D01*
X50767007Y-48400099D01*
X50860099Y-48307007D01*
X50925925Y-48192993D01*
X50942962Y-48129408D01*
X51575270Y-48761717D01*
G37*
%TD.AperFunction*%
%TA.AperFunction,Conductor*%
G36*
X56940757Y-39724927D02*
G01*
X56966647Y-39725852D01*
X56975938Y-39731591D01*
X56983958Y-39733111D01*
X56994375Y-39742980D01*
X57015169Y-39755826D01*
X57290881Y-40031538D01*
X57324366Y-40092861D01*
X57319382Y-40162552D01*
X57270908Y-40292517D01*
X57264501Y-40352116D01*
X57264500Y-40352135D01*
X57264500Y-42147870D01*
X57264501Y-42147876D01*
X57270908Y-42207483D01*
X57321202Y-42342328D01*
X57321206Y-42342335D01*
X57407452Y-42457544D01*
X57407455Y-42457547D01*
X57522664Y-42543793D01*
X57522671Y-42543797D01*
X57654082Y-42592810D01*
X57710016Y-42634681D01*
X57734433Y-42700145D01*
X57719582Y-42768418D01*
X57698431Y-42796673D01*
X57584889Y-42910215D01*
X57459951Y-43082179D01*
X57363444Y-43271585D01*
X57297753Y-43473760D01*
X57264500Y-43683713D01*
X57264500Y-43896286D01*
X57296177Y-44096291D01*
X57297754Y-44106243D01*
X57358455Y-44293062D01*
X57363444Y-44308414D01*
X57459951Y-44497820D01*
X57584890Y-44669786D01*
X57735213Y-44820109D01*
X57907179Y-44945048D01*
X57907181Y-44945049D01*
X57907184Y-44945051D01*
X57916493Y-44949794D01*
X57967290Y-44997766D01*
X57984087Y-45065587D01*
X57961552Y-45131722D01*
X57916505Y-45170760D01*
X57907446Y-45175376D01*
X57907440Y-45175380D01*
X57853282Y-45214727D01*
X57853282Y-45214728D01*
X58485591Y-45847037D01*
X58422007Y-45864075D01*
X58307993Y-45929901D01*
X58214901Y-46022993D01*
X58149075Y-46137007D01*
X58132037Y-46200591D01*
X57499728Y-45568282D01*
X57499727Y-45568282D01*
X57460380Y-45622439D01*
X57363904Y-45811782D01*
X57298242Y-46013869D01*
X57298242Y-46013872D01*
X57265000Y-46223753D01*
X57265000Y-46436246D01*
X57298242Y-46646127D01*
X57298242Y-46646130D01*
X57363904Y-46848217D01*
X57460375Y-47037550D01*
X57499728Y-47091716D01*
X58132037Y-46459408D01*
X58149075Y-46522993D01*
X58214901Y-46637007D01*
X58307993Y-46730099D01*
X58422007Y-46795925D01*
X58485589Y-46812962D01*
X57853282Y-47445269D01*
X57853282Y-47445270D01*
X57907449Y-47484624D01*
X58096782Y-47581095D01*
X58298870Y-47646757D01*
X58508754Y-47680000D01*
X58721246Y-47680000D01*
X58931127Y-47646757D01*
X58931130Y-47646757D01*
X59133219Y-47581094D01*
X59226376Y-47533628D01*
X59247424Y-47529674D01*
X59267050Y-47521100D01*
X59281079Y-47523353D01*
X59295045Y-47520731D01*
X59314889Y-47528785D01*
X59336035Y-47532182D01*
X59346619Y-47541663D01*
X59359786Y-47547007D01*
X59372124Y-47564509D01*
X59388078Y-47578800D01*
X59391856Y-47592500D01*
X59400043Y-47604113D01*
X59400960Y-47625507D01*
X59406655Y-47646155D01*
X59402858Y-47669786D01*
X59403036Y-47673918D01*
X59401057Y-47681003D01*
X59339306Y-47879168D01*
X59333997Y-47893168D01*
X59216275Y-48154736D01*
X59209316Y-48167995D01*
X59060928Y-48413459D01*
X59052422Y-48425782D01*
X58875526Y-48651573D01*
X58865596Y-48662781D01*
X58662781Y-48865596D01*
X58651573Y-48875526D01*
X58425782Y-49052422D01*
X58413459Y-49060928D01*
X58167995Y-49209316D01*
X58154736Y-49216275D01*
X57893168Y-49333997D01*
X57879167Y-49339306D01*
X57605336Y-49424635D01*
X57590798Y-49428219D01*
X57308659Y-49479923D01*
X57293794Y-49481728D01*
X57003736Y-49499274D01*
X56996249Y-49499500D01*
X56730103Y-49499500D01*
X56663064Y-49479815D01*
X56617309Y-49427011D01*
X56607365Y-49357853D01*
X56636390Y-49294297D01*
X56655792Y-49276234D01*
X56735101Y-49216862D01*
X56747546Y-49207546D01*
X56833796Y-49092331D01*
X56884091Y-48957483D01*
X56890500Y-48897873D01*
X56890499Y-47102128D01*
X56884091Y-47042517D01*
X56882238Y-47037550D01*
X56833797Y-46907671D01*
X56833793Y-46907664D01*
X56747547Y-46792455D01*
X56747544Y-46792452D01*
X56632335Y-46706206D01*
X56632328Y-46706202D01*
X56497482Y-46655908D01*
X56497483Y-46655908D01*
X56437883Y-46649501D01*
X56437881Y-46649500D01*
X56437873Y-46649500D01*
X56437865Y-46649500D01*
X54941519Y-46649500D01*
X54874480Y-46629815D01*
X54853838Y-46613181D01*
X54241749Y-46001092D01*
X54208264Y-45939769D01*
X54213248Y-45870077D01*
X54214844Y-45866019D01*
X54269737Y-45733497D01*
X54300500Y-45578842D01*
X54300500Y-45421158D01*
X54300500Y-45421156D01*
X54300500Y-45421155D01*
X54300499Y-45421153D01*
X54297296Y-45405051D01*
X54269737Y-45266503D01*
X54248291Y-45214727D01*
X54209397Y-45120827D01*
X54209390Y-45120814D01*
X54128344Y-44999521D01*
X54107466Y-44932844D01*
X54125950Y-44865463D01*
X54177929Y-44818773D01*
X54246899Y-44807597D01*
X54269760Y-44812698D01*
X54283757Y-44817246D01*
X54493713Y-44850500D01*
X54493714Y-44850500D01*
X55006286Y-44850500D01*
X55006287Y-44850500D01*
X55216243Y-44817246D01*
X55418412Y-44751557D01*
X55607816Y-44655051D01*
X55730051Y-44566243D01*
X55779786Y-44530109D01*
X55779788Y-44530106D01*
X55779792Y-44530104D01*
X55930104Y-44379792D01*
X55930106Y-44379788D01*
X55930109Y-44379786D01*
X56050749Y-44213737D01*
X56055051Y-44207816D01*
X56151557Y-44018412D01*
X56217246Y-43816243D01*
X56250500Y-43606287D01*
X56250500Y-43393713D01*
X56217246Y-43183757D01*
X56215934Y-43179720D01*
X56201404Y-43135001D01*
X56199409Y-43065160D01*
X56231651Y-43009004D01*
X56695114Y-42545543D01*
X56771775Y-42430811D01*
X56824580Y-42303329D01*
X56833099Y-42260500D01*
X56839482Y-42228412D01*
X56851500Y-42167995D01*
X56851500Y-40054427D01*
X56850775Y-40050785D01*
X56850233Y-40048059D01*
X56824580Y-39919092D01*
X56809324Y-39882262D01*
X56807077Y-39873124D01*
X56808227Y-39847248D01*
X56805458Y-39821491D01*
X56809753Y-39812909D01*
X56810180Y-39803323D01*
X56825138Y-39782174D01*
X56836733Y-39759012D01*
X56844984Y-39754116D01*
X56850527Y-39746280D01*
X56874547Y-39736575D01*
X56896822Y-39723359D01*
X56906412Y-39723701D01*
X56915309Y-39720107D01*
X56940757Y-39724927D01*
G37*
%TD.AperFunction*%
%TA.AperFunction,Conductor*%
G36*
X26534075Y-37862993D02*
G01*
X26599901Y-37977007D01*
X26692993Y-38070099D01*
X26807007Y-38135925D01*
X26870590Y-38152962D01*
X26238282Y-38785269D01*
X26238282Y-38785270D01*
X26292452Y-38824626D01*
X26292451Y-38824626D01*
X26301495Y-38829234D01*
X26352292Y-38877208D01*
X26369087Y-38945029D01*
X26346550Y-39011164D01*
X26301499Y-39050202D01*
X26292182Y-39054949D01*
X26120213Y-39179890D01*
X25969890Y-39330213D01*
X25844951Y-39502179D01*
X25748445Y-39691582D01*
X25748443Y-39691587D01*
X25748443Y-39691588D01*
X25742429Y-39710094D01*
X25702992Y-39767768D01*
X25638633Y-39794965D01*
X25569787Y-39783050D01*
X25518312Y-39735805D01*
X25500500Y-39671773D01*
X25500500Y-38206611D01*
X25520185Y-38139572D01*
X25572989Y-38093817D01*
X25642147Y-38083873D01*
X25705703Y-38112898D01*
X25742432Y-38168294D01*
X25748906Y-38188221D01*
X25845375Y-38377550D01*
X25884728Y-38431716D01*
X26517037Y-37799408D01*
X26534075Y-37862993D01*
G37*
%TD.AperFunction*%
%TA.AperFunction,Conductor*%
G36*
X53535520Y-36280185D02*
G01*
X53556162Y-36296819D01*
X56144173Y-38884830D01*
X56177658Y-38946153D01*
X56172674Y-39015845D01*
X56130802Y-39071778D01*
X56065338Y-39096195D01*
X56009041Y-39087073D01*
X55996429Y-39081849D01*
X55980908Y-39075420D01*
X55980906Y-39075419D01*
X55980902Y-39075418D01*
X55845576Y-39048500D01*
X55845574Y-39048500D01*
X55845573Y-39048500D01*
X53792414Y-39048500D01*
X53654426Y-39048500D01*
X53654424Y-39048500D01*
X53519097Y-39075418D01*
X53519087Y-39075421D01*
X53391612Y-39128222D01*
X53276874Y-39204887D01*
X52876495Y-39605266D01*
X52863702Y-39612251D01*
X52853958Y-39623095D01*
X52833649Y-39628661D01*
X52815172Y-39638751D01*
X52800633Y-39637711D01*
X52786574Y-39641565D01*
X52766482Y-39635268D01*
X52745480Y-39633767D01*
X52732602Y-39624652D01*
X52719901Y-39620672D01*
X52698971Y-39600848D01*
X52693649Y-39597081D01*
X52687128Y-39589275D01*
X52680168Y-39579877D01*
X52678918Y-39578353D01*
X52664475Y-39562414D01*
X52646728Y-39542828D01*
X52642747Y-39538211D01*
X52641763Y-39537011D01*
X52641758Y-39537006D01*
X52641754Y-39537001D01*
X52638993Y-39534240D01*
X52637819Y-39533278D01*
X52633172Y-39529272D01*
X52632479Y-39528644D01*
X52608796Y-39507185D01*
X52606295Y-39503097D01*
X52572297Y-39477597D01*
X52564348Y-39471802D01*
X52562143Y-39470194D01*
X52546679Y-39450069D01*
X52528201Y-39432670D01*
X52525749Y-39422833D01*
X52519572Y-39414795D01*
X52517442Y-39389501D01*
X52511304Y-39364874D01*
X52514559Y-39355273D01*
X52513709Y-39345172D01*
X52525591Y-39322743D01*
X52533743Y-39298706D01*
X52543686Y-39288586D01*
X52546418Y-39283432D01*
X52557938Y-39273011D01*
X52560393Y-39271055D01*
X52560811Y-39270768D01*
X52561264Y-39270447D01*
X52572300Y-39262400D01*
X52576072Y-39259571D01*
X52575805Y-39259215D01*
X52596123Y-39244168D01*
X52597647Y-39242918D01*
X52633203Y-39210699D01*
X52637838Y-39206705D01*
X52638989Y-39205763D01*
X52641763Y-39202989D01*
X52642705Y-39201838D01*
X52646699Y-39197203D01*
X52668850Y-39172757D01*
X52672927Y-39170263D01*
X52695570Y-39140071D01*
X52695571Y-39140072D01*
X52698400Y-39136300D01*
X52706447Y-39125264D01*
X52706768Y-39124811D01*
X52714922Y-39112948D01*
X52714923Y-39112945D01*
X52714957Y-39112897D01*
X52718913Y-39106963D01*
X52718917Y-39106954D01*
X52718922Y-39106948D01*
X52752151Y-39046424D01*
X52752537Y-39046617D01*
X52754047Y-39043598D01*
X52755334Y-39040626D01*
X52760667Y-39030915D01*
X52762047Y-39027793D01*
X52764452Y-39020780D01*
X52767227Y-39013455D01*
X52769862Y-39007109D01*
X52776063Y-38992806D01*
X52776820Y-38990759D01*
X52777298Y-38989209D01*
X52777398Y-38988970D01*
X52777529Y-38988564D01*
X52783164Y-38971657D01*
X52783165Y-38971658D01*
X52784046Y-38969015D01*
X52789936Y-38950120D01*
X52790150Y-38949383D01*
X52795108Y-38931027D01*
X52798108Y-38919027D01*
X52809402Y-38858284D01*
X52809701Y-38855859D01*
X52813500Y-38794000D01*
X52813500Y-37406000D01*
X52809701Y-37344141D01*
X52809402Y-37341716D01*
X52798108Y-37280973D01*
X52795108Y-37268973D01*
X52795107Y-37268972D01*
X52795101Y-37268945D01*
X52792689Y-37260018D01*
X52790150Y-37250617D01*
X52789936Y-37249880D01*
X52784046Y-37230985D01*
X52783512Y-37229381D01*
X52777531Y-37211439D01*
X52777531Y-37211438D01*
X52777090Y-37210116D01*
X52776820Y-37209241D01*
X52776601Y-37208650D01*
X52775964Y-37206738D01*
X52775963Y-37206737D01*
X52775961Y-37206729D01*
X52772865Y-37197443D01*
X52764477Y-37179290D01*
X52762047Y-37172207D01*
X52761826Y-37171706D01*
X52760671Y-37169093D01*
X52760667Y-37169085D01*
X52757942Y-37164123D01*
X52754245Y-37156829D01*
X52754062Y-37156438D01*
X52754047Y-37156402D01*
X52752537Y-37153383D01*
X52738817Y-37125952D01*
X52728586Y-37110654D01*
X52718922Y-37093052D01*
X52718917Y-37093045D01*
X52718913Y-37093037D01*
X52714950Y-37087092D01*
X52711075Y-37081456D01*
X52706768Y-37075189D01*
X52706447Y-37074736D01*
X52698400Y-37063700D01*
X52695571Y-37059928D01*
X52695570Y-37059928D01*
X52677147Y-37035363D01*
X52668895Y-37027291D01*
X52646728Y-37002828D01*
X52642747Y-36998211D01*
X52641763Y-36997011D01*
X52641758Y-36997006D01*
X52641754Y-36997001D01*
X52638993Y-36994240D01*
X52637819Y-36993278D01*
X52633172Y-36989272D01*
X52608796Y-36967185D01*
X52606295Y-36963097D01*
X52572297Y-36937597D01*
X52564348Y-36931802D01*
X52562143Y-36930194D01*
X52546679Y-36910069D01*
X52528201Y-36892670D01*
X52525749Y-36882833D01*
X52519572Y-36874795D01*
X52517442Y-36849501D01*
X52511304Y-36824874D01*
X52514559Y-36815273D01*
X52513709Y-36805172D01*
X52525591Y-36782743D01*
X52533743Y-36758706D01*
X52543686Y-36748586D01*
X52546418Y-36743432D01*
X52557938Y-36733011D01*
X52560393Y-36731055D01*
X52560811Y-36730768D01*
X52561264Y-36730447D01*
X52572300Y-36722400D01*
X52576072Y-36719571D01*
X52575805Y-36719215D01*
X52596123Y-36704168D01*
X52597647Y-36702918D01*
X52633203Y-36670699D01*
X52637838Y-36666705D01*
X52638989Y-36665763D01*
X52641763Y-36662989D01*
X52642705Y-36661838D01*
X52646699Y-36657203D01*
X52668850Y-36632757D01*
X52672927Y-36630263D01*
X52695570Y-36600071D01*
X52695571Y-36600072D01*
X52698400Y-36596300D01*
X52706447Y-36585264D01*
X52706768Y-36584811D01*
X52714922Y-36572948D01*
X52714927Y-36572939D01*
X52714950Y-36572907D01*
X52718913Y-36566963D01*
X52718917Y-36566954D01*
X52718922Y-36566948D01*
X52752151Y-36506424D01*
X52752537Y-36506617D01*
X52754047Y-36503598D01*
X52755334Y-36500626D01*
X52760667Y-36490915D01*
X52762047Y-36487793D01*
X52764452Y-36480780D01*
X52767227Y-36473455D01*
X52769862Y-36467109D01*
X52776063Y-36452806D01*
X52776820Y-36450759D01*
X52777298Y-36449209D01*
X52777398Y-36448970D01*
X52777529Y-36448564D01*
X52783164Y-36431657D01*
X52783165Y-36431658D01*
X52784046Y-36429015D01*
X52789936Y-36410120D01*
X52790150Y-36409383D01*
X52795108Y-36391027D01*
X52798108Y-36379027D01*
X52801304Y-36361834D01*
X52832910Y-36299524D01*
X52893187Y-36264191D01*
X52923215Y-36260500D01*
X53468481Y-36260500D01*
X53535520Y-36280185D01*
G37*
%TD.AperFunction*%
%TA.AperFunction,Conductor*%
G36*
X56555702Y-31937307D02*
G01*
X56562180Y-31943339D01*
X57228181Y-32609340D01*
X57261666Y-32670663D01*
X57264500Y-32697021D01*
X57264500Y-33107870D01*
X57264501Y-33107876D01*
X57270908Y-33167483D01*
X57321202Y-33302328D01*
X57321206Y-33302335D01*
X57407452Y-33417544D01*
X57407455Y-33417547D01*
X57522664Y-33503793D01*
X57522671Y-33503797D01*
X57654082Y-33552810D01*
X57710016Y-33594681D01*
X57734433Y-33660145D01*
X57719582Y-33728418D01*
X57698431Y-33756673D01*
X57584889Y-33870215D01*
X57459951Y-34042179D01*
X57363444Y-34231585D01*
X57363443Y-34231587D01*
X57363443Y-34231588D01*
X57334737Y-34319937D01*
X57297753Y-34433760D01*
X57270091Y-34608412D01*
X57264500Y-34643713D01*
X57264500Y-34856287D01*
X57274534Y-34919644D01*
X57297480Y-35064518D01*
X57297754Y-35066243D01*
X57351758Y-35232450D01*
X57363444Y-35268414D01*
X57459951Y-35457820D01*
X57584890Y-35629786D01*
X57735213Y-35780109D01*
X57907179Y-35905048D01*
X57907181Y-35905049D01*
X57907184Y-35905051D01*
X57916493Y-35909794D01*
X57967290Y-35957766D01*
X57984087Y-36025587D01*
X57961552Y-36091722D01*
X57916505Y-36130760D01*
X57907446Y-36135376D01*
X57907440Y-36135380D01*
X57853282Y-36174727D01*
X57853282Y-36174728D01*
X58485591Y-36807037D01*
X58422007Y-36824075D01*
X58307993Y-36889901D01*
X58214901Y-36982993D01*
X58149075Y-37097007D01*
X58132037Y-37160591D01*
X57499728Y-36528282D01*
X57499727Y-36528282D01*
X57460380Y-36582439D01*
X57363904Y-36771782D01*
X57298242Y-36973869D01*
X57298242Y-36973872D01*
X57265000Y-37183753D01*
X57265000Y-37396246D01*
X57298242Y-37606127D01*
X57298242Y-37606130D01*
X57355924Y-37783656D01*
X57357919Y-37853497D01*
X57321839Y-37913330D01*
X57259138Y-37944158D01*
X57189723Y-37936193D01*
X57150312Y-37909655D01*
X55482235Y-36241578D01*
X55448750Y-36180255D01*
X55453734Y-36110563D01*
X55495606Y-36054630D01*
X55514255Y-36044045D01*
X55513879Y-36043306D01*
X55707554Y-35944622D01*
X55761716Y-35905270D01*
X55761717Y-35905270D01*
X55129409Y-35272962D01*
X55192993Y-35255925D01*
X55307007Y-35190099D01*
X55400099Y-35097007D01*
X55465925Y-34982993D01*
X55482962Y-34919408D01*
X56115270Y-35551717D01*
X56115270Y-35551716D01*
X56154622Y-35497554D01*
X56251095Y-35308217D01*
X56316757Y-35106130D01*
X56316757Y-35106127D01*
X56350000Y-34896246D01*
X56350000Y-34683753D01*
X56316757Y-34473872D01*
X56316757Y-34473869D01*
X56251095Y-34271782D01*
X56154624Y-34082449D01*
X56115270Y-34028282D01*
X56115269Y-34028282D01*
X55482962Y-34660590D01*
X55465925Y-34597007D01*
X55400099Y-34482993D01*
X55307007Y-34389901D01*
X55192993Y-34324075D01*
X55129407Y-34307036D01*
X55799627Y-33636818D01*
X55860950Y-33603333D01*
X55887308Y-33600499D01*
X55897871Y-33600499D01*
X55897872Y-33600499D01*
X55957483Y-33594091D01*
X56092331Y-33543796D01*
X56207546Y-33457546D01*
X56293796Y-33342331D01*
X56344091Y-33207483D01*
X56350500Y-33147873D01*
X56350499Y-32031019D01*
X56370184Y-31963981D01*
X56422987Y-31918226D01*
X56492146Y-31908282D01*
X56555702Y-31937307D01*
G37*
%TD.AperFunction*%
%TA.AperFunction,Conductor*%
G36*
X29842540Y-27190185D02*
G01*
X29888295Y-27242989D01*
X29899501Y-27294500D01*
X29899501Y-27367876D01*
X29905908Y-27427483D01*
X29956202Y-27562328D01*
X29956206Y-27562335D01*
X30042452Y-27677544D01*
X30042455Y-27677547D01*
X30157664Y-27763793D01*
X30157671Y-27763797D01*
X30202618Y-27780561D01*
X30292517Y-27814091D01*
X30352127Y-27820500D01*
X30362685Y-27820499D01*
X30429723Y-27840179D01*
X30450372Y-27856818D01*
X31120591Y-28527037D01*
X31057007Y-28544075D01*
X30942993Y-28609901D01*
X30849901Y-28702993D01*
X30784075Y-28817007D01*
X30767037Y-28880591D01*
X30134728Y-28248282D01*
X30134727Y-28248282D01*
X30095380Y-28302439D01*
X29998904Y-28491782D01*
X29933242Y-28693869D01*
X29933242Y-28693872D01*
X29900000Y-28903753D01*
X29900000Y-29116246D01*
X29933242Y-29326127D01*
X29933242Y-29326130D01*
X29998904Y-29528217D01*
X30095375Y-29717550D01*
X30134728Y-29771716D01*
X30767037Y-29139408D01*
X30784075Y-29202993D01*
X30849901Y-29317007D01*
X30942993Y-29410099D01*
X31057007Y-29475925D01*
X31120590Y-29492962D01*
X30488282Y-30125269D01*
X30488282Y-30125270D01*
X30542452Y-30164626D01*
X30542451Y-30164626D01*
X30551495Y-30169234D01*
X30602292Y-30217208D01*
X30619087Y-30285029D01*
X30596550Y-30351164D01*
X30551499Y-30390202D01*
X30542182Y-30394949D01*
X30370213Y-30519890D01*
X30219890Y-30670213D01*
X30094951Y-30842179D01*
X29998444Y-31031585D01*
X29998443Y-31031587D01*
X29998443Y-31031588D01*
X29952171Y-31174000D01*
X29948895Y-31184081D01*
X29909457Y-31241757D01*
X29845099Y-31268955D01*
X29776252Y-31257040D01*
X29743283Y-31233444D01*
X28133889Y-29624050D01*
X28100404Y-29562727D01*
X28105388Y-29493035D01*
X28121253Y-29463482D01*
X28154622Y-29417555D01*
X28251095Y-29228217D01*
X28316757Y-29026130D01*
X28316757Y-29026127D01*
X28339984Y-28879483D01*
X28350000Y-28816245D01*
X28350000Y-28603753D01*
X28316757Y-28393872D01*
X28316757Y-28393869D01*
X28251095Y-28191782D01*
X28154624Y-28002449D01*
X28115270Y-27948282D01*
X28115269Y-27948282D01*
X27482962Y-28580589D01*
X27465925Y-28517007D01*
X27400099Y-28402993D01*
X27307007Y-28309901D01*
X27192993Y-28244075D01*
X27129407Y-28227036D01*
X27761716Y-27594728D01*
X27707550Y-27555375D01*
X27518217Y-27458904D01*
X27375186Y-27412431D01*
X27317511Y-27372994D01*
X27290312Y-27308635D01*
X27302227Y-27239789D01*
X27349471Y-27188313D01*
X27413504Y-27170500D01*
X29775501Y-27170500D01*
X29842540Y-27190185D01*
G37*
%TD.AperFunction*%
%TA.AperFunction,Conductor*%
G36*
X32365270Y-29771717D02*
G01*
X32365270Y-29771716D01*
X32404623Y-29717553D01*
X32407353Y-29712195D01*
X32455323Y-29661395D01*
X32523143Y-29644594D01*
X32589279Y-29667127D01*
X32632735Y-29721838D01*
X32641609Y-29776075D01*
X32641000Y-29786000D01*
X32641000Y-30230000D01*
X34388500Y-30230000D01*
X34455539Y-30249685D01*
X34501294Y-30302489D01*
X34512500Y-30354000D01*
X34512500Y-30606000D01*
X34492815Y-30673039D01*
X34440011Y-30718794D01*
X34388500Y-30730000D01*
X32641000Y-30730000D01*
X32641000Y-30788762D01*
X32621315Y-30855801D01*
X32568511Y-30901556D01*
X32499353Y-30911500D01*
X32435797Y-30882475D01*
X32406517Y-30845060D01*
X32405050Y-30842182D01*
X32280109Y-30670213D01*
X32129786Y-30519890D01*
X31957817Y-30394949D01*
X31948504Y-30390204D01*
X31897707Y-30342230D01*
X31880912Y-30274409D01*
X31903449Y-30208274D01*
X31948507Y-30169232D01*
X31957555Y-30164622D01*
X32011716Y-30125270D01*
X32011717Y-30125270D01*
X31379408Y-29492962D01*
X31442993Y-29475925D01*
X31557007Y-29410099D01*
X31650099Y-29317007D01*
X31715925Y-29202993D01*
X31732962Y-29139409D01*
X32365270Y-29771717D01*
G37*
%TD.AperFunction*%
%TA.AperFunction,Conductor*%
G36*
X32575925Y-27679475D02*
G01*
X32625331Y-27728880D01*
X32640500Y-27788308D01*
X32640500Y-28248883D01*
X32620815Y-28315922D01*
X32568011Y-28361677D01*
X32498853Y-28371621D01*
X32435297Y-28342596D01*
X32406016Y-28305179D01*
X32404626Y-28302452D01*
X32365270Y-28248282D01*
X32365269Y-28248282D01*
X31732962Y-28880590D01*
X31715925Y-28817007D01*
X31650099Y-28702993D01*
X31557007Y-28609901D01*
X31442993Y-28544075D01*
X31379409Y-28527037D01*
X32049627Y-27856818D01*
X32110950Y-27823333D01*
X32137307Y-27820499D01*
X32147872Y-27820499D01*
X32207483Y-27814091D01*
X32342331Y-27763796D01*
X32442190Y-27689041D01*
X32507652Y-27664624D01*
X32575925Y-27679475D01*
G37*
%TD.AperFunction*%
%TD*%
M02*
