%TF.GenerationSoftware,KiCad,Pcbnew,9.0.2*%
%TF.CreationDate,2026-04-06T11:59:14-04:00*%
%TF.ProjectId,Cattitude,43617474-6974-4756-9465-2e6b69636164,1*%
%TF.SameCoordinates,Original*%
%TF.FileFunction,Soldermask,Top*%
%TF.FilePolarity,Negative*%
%FSLAX46Y46*%
G04 Gerber Fmt 4.6, Leading zero omitted, Abs format (unit mm)*
G04 Created by KiCad (PCBNEW 9.0.2) date 2026-04-06 11:59:14*
%MOMM*%
%LPD*%
G01*
G04 APERTURE LIST*
G04 Aperture macros list*
%AMRoundRect*
0 Rectangle with rounded corners*
0 $1 Rounding radius*
0 $2 $3 $4 $5 $6 $7 $8 $9 X,Y pos of 4 corners*
0 Add a 4 corners polygon primitive as box body*
4,1,4,$2,$3,$4,$5,$6,$7,$8,$9,$2,$3,0*
0 Add four circle primitives for the rounded corners*
1,1,$1+$1,$2,$3*
1,1,$1+$1,$4,$5*
1,1,$1+$1,$6,$7*
1,1,$1+$1,$8,$9*
0 Add four rect primitives between the rounded corners*
20,1,$1+$1,$2,$3,$4,$5,0*
20,1,$1+$1,$4,$5,$6,$7,0*
20,1,$1+$1,$6,$7,$8,$9,0*
20,1,$1+$1,$8,$9,$2,$3,0*%
%AMFreePoly0*
4,1,323,0.517366,1.660678,0.518947,1.660421,0.521768,1.659726,0.522366,1.659678,0.523947,1.659421,0.539836,1.655509,0.548836,1.652509,0.555577,1.649994,0.556232,1.649723,0.556335,1.649675,0.556836,1.649509,0.562119,1.647038,0.562852,1.646704,0.563115,1.646572,0.578165,1.639534,0.580120,1.638327,0.584553,1.634819,0.585165,1.634534,0.587120,1.633327,0.605661,1.618661,
0.613661,1.610661,0.628327,1.592120,0.629534,1.590165,0.629819,1.589553,0.633327,1.585120,0.634534,1.583165,0.641572,1.568115,0.641704,1.567852,0.642038,1.567119,0.644509,1.561836,0.644675,1.561335,0.644723,1.561232,0.644994,1.560577,0.647509,1.553836,0.650509,1.544836,0.654421,1.528947,0.654678,1.527366,0.654726,1.526768,0.655421,1.523947,0.655678,1.522366,
0.657000,1.506000,0.657000,0.000000,0.656984,-0.001779,0.656981,-0.001951,0.656936,-0.003687,0.655936,-0.032687,0.655847,-0.034707,0.655837,-0.034891,0.655728,-0.036623,0.653728,-0.064623,0.653440,-0.067905,0.653406,-0.068232,0.652996,-0.071620,0.648996,-0.100620,0.648701,-0.102618,0.648670,-0.102814,0.648334,-0.104810,0.643334,-0.132810,0.642693,-0.136088,0.642622,-0.136422,
0.641806,-0.139952,0.634806,-0.167952,0.634397,-0.169533,0.634354,-0.169694,0.633883,-0.171396,0.625883,-0.199396,0.624733,-0.203148,0.624614,-0.203511,0.623339,-0.207163,0.613339,-0.234163,0.612525,-0.236289,0.612466,-0.236438,0.612091,-0.237370,0.601091,-0.264370,0.600313,-0.266228,0.600223,-0.266437,0.599152,-0.268839,0.587152,-0.294839,0.585456,-0.298337,0.585279,-0.298685,
0.583359,-0.302281,0.569359,-0.327281,0.568245,-0.329219,0.568169,-0.329348,0.567751,-0.330051,0.552751,-0.355051,0.551077,-0.357745,0.550895,-0.358028,0.548837,-0.361104,0.532837,-0.384104,0.531266,-0.386300,0.531099,-0.386527,0.529264,-0.388945,0.511264,-0.411945,0.509883,-0.413671,0.491815,-0.435755,0.489330,-0.438678,0.489081,-0.438960,0.486483,-0.441793,0.466483,-0.462793,
0.464746,-0.464573,0.464573,-0.464746,0.462793,-0.466483,0.441793,-0.486483,0.438960,-0.489081,0.438678,-0.489330,0.435755,-0.491815,0.413671,-0.509883,0.411945,-0.511264,0.388945,-0.529264,0.386527,-0.531099,0.386300,-0.531266,0.384104,-0.532837,0.361104,-0.548837,0.358028,-0.550895,0.357745,-0.551077,0.355051,-0.552751,0.330051,-0.567751,0.329348,-0.568169,0.329219,-0.568245,
0.327281,-0.569359,0.302281,-0.583359,0.298685,-0.585279,0.298337,-0.585456,0.294839,-0.587152,0.268839,-0.599152,0.266437,-0.600223,0.266228,-0.600313,0.264370,-0.601091,0.237370,-0.612091,0.236438,-0.612466,0.236289,-0.612525,0.234163,-0.613339,0.207163,-0.623339,0.203511,-0.624614,0.203148,-0.624733,0.199396,-0.625883,0.171396,-0.633883,0.169694,-0.634354,0.169533,-0.634397,
0.167952,-0.634806,0.139952,-0.641806,0.136422,-0.642622,0.136088,-0.642693,0.132810,-0.643334,0.104810,-0.648334,0.102814,-0.648670,0.102618,-0.648701,0.100620,-0.648996,0.071620,-0.652996,0.068232,-0.653406,0.067905,-0.653440,0.064623,-0.653728,0.036623,-0.655728,0.034891,-0.655837,0.034707,-0.655847,0.032687,-0.655936,0.003687,-0.656936,0.000172,-0.656997,-0.000172,-0.656997,
-0.003687,-0.656936,-0.032687,-0.655936,-0.034707,-0.655847,-0.034891,-0.655837,-0.036623,-0.655728,-0.064623,-0.653728,-0.067905,-0.653440,-0.068232,-0.653406,-0.071620,-0.652996,-0.100620,-0.648996,-0.102618,-0.648701,-0.102814,-0.648670,-0.104810,-0.648334,-0.132810,-0.643334,-0.136088,-0.642693,-0.136422,-0.642622,-0.139952,-0.641806,-0.167952,-0.634806,-0.169533,-0.634397,-0.169694,-0.634354,
-0.171396,-0.633883,-0.199396,-0.625883,-0.203148,-0.624733,-0.203511,-0.624614,-0.207163,-0.623339,-0.234163,-0.613339,-0.236289,-0.612525,-0.236438,-0.612466,-0.237370,-0.612091,-0.264370,-0.601091,-0.266228,-0.600313,-0.266437,-0.600223,-0.268839,-0.599152,-0.294839,-0.587152,-0.298337,-0.585456,-0.298685,-0.585279,-0.302281,-0.583359,-0.327281,-0.569359,-0.329219,-0.568245,-0.329348,-0.568169,
-0.330051,-0.567751,-0.355051,-0.552751,-0.357745,-0.551077,-0.358028,-0.550895,-0.361104,-0.548837,-0.384104,-0.532837,-0.386300,-0.531266,-0.386527,-0.531099,-0.388945,-0.529264,-0.411945,-0.511264,-0.413671,-0.509883,-0.435755,-0.491815,-0.438678,-0.489330,-0.438960,-0.489081,-0.441793,-0.486483,-0.462793,-0.466483,-0.464573,-0.464746,-0.464746,-0.464573,-0.466483,-0.462793,-0.486483,-0.441793,
-0.489081,-0.438960,-0.489330,-0.438678,-0.491815,-0.435755,-0.509883,-0.413671,-0.511264,-0.411945,-0.529264,-0.388945,-0.531099,-0.386527,-0.531266,-0.386300,-0.532837,-0.384104,-0.548837,-0.361104,-0.550895,-0.358028,-0.551077,-0.357745,-0.552751,-0.355051,-0.567751,-0.330051,-0.568169,-0.329348,-0.568245,-0.329219,-0.569359,-0.327281,-0.583359,-0.302281,-0.585279,-0.298685,-0.585456,-0.298337,
-0.587152,-0.294839,-0.599152,-0.268839,-0.600223,-0.266437,-0.600313,-0.266228,-0.601091,-0.264370,-0.612091,-0.237370,-0.612466,-0.236438,-0.612525,-0.236289,-0.613339,-0.234163,-0.623339,-0.207163,-0.624614,-0.203511,-0.624733,-0.203148,-0.625883,-0.199396,-0.633883,-0.171396,-0.634354,-0.169694,-0.634397,-0.169533,-0.634806,-0.167952,-0.641806,-0.139952,-0.642622,-0.136422,-0.642693,-0.136088,
-0.643334,-0.132810,-0.648334,-0.104810,-0.648670,-0.102814,-0.648701,-0.102618,-0.648996,-0.100620,-0.652996,-0.071620,-0.653406,-0.068232,-0.653440,-0.067905,-0.653728,-0.064623,-0.655728,-0.036623,-0.655837,-0.034891,-0.655847,-0.034707,-0.655936,-0.032687,-0.656936,-0.003687,-0.656981,-0.001951,-0.656984,-0.001779,-0.657000,0.000000,-0.657000,1.506000,-0.655678,1.522366,-0.655421,1.523947,
-0.654726,1.526768,-0.654678,1.527366,-0.654421,1.528947,-0.650509,1.544836,-0.647509,1.553836,-0.644994,1.560577,-0.644723,1.561232,-0.644675,1.561335,-0.644509,1.561836,-0.642038,1.567119,-0.641704,1.567852,-0.641572,1.568115,-0.634534,1.583165,-0.633327,1.585120,-0.629819,1.589553,-0.629534,1.590165,-0.628327,1.592120,-0.613661,1.610661,-0.605661,1.618661,-0.587120,1.633327,
-0.585165,1.634534,-0.584776,1.634715,-0.584353,1.635029,-0.581353,1.637029,-0.575944,1.640396,-0.575406,1.640708,-0.569852,1.643704,-0.567852,1.644704,-0.561232,1.647723,-0.560577,1.647994,-0.557533,1.649129,-0.556232,1.649723,-0.555577,1.649994,-0.548836,1.652509,-0.539836,1.655509,-0.523947,1.659421,-0.522366,1.659678,-0.521768,1.659726,-0.518947,1.660421,-0.517366,1.660678,
-0.501000,1.662000,0.501000,1.662000,0.517366,1.660678,0.517366,1.660678,$1*%
%AMFreePoly1*
4,1,323,0.517366,1.660678,0.518947,1.660421,0.521768,1.659726,0.522366,1.659678,0.523947,1.659421,0.539836,1.655509,0.548836,1.652509,0.555577,1.649994,0.556232,1.649723,0.557533,1.649129,0.560577,1.647994,0.561232,1.647723,0.567852,1.644704,0.569852,1.643704,0.575406,1.640708,0.575944,1.640396,0.581353,1.637029,0.584353,1.635029,0.584776,1.634715,0.585165,1.634534,
0.587120,1.633327,0.605661,1.618661,0.613661,1.610661,0.628327,1.592120,0.629534,1.590165,0.629819,1.589553,0.633327,1.585120,0.634534,1.583165,0.641572,1.568115,0.641704,1.567852,0.642038,1.567119,0.644509,1.561836,0.644675,1.561335,0.644723,1.561232,0.644994,1.560577,0.647509,1.553836,0.650509,1.544836,0.654421,1.528947,0.654678,1.527366,0.654726,1.526768,
0.655421,1.523947,0.655678,1.522366,0.657000,1.506000,0.657000,0.000000,0.656984,-0.001779,0.656981,-0.001951,0.656936,-0.003687,0.655936,-0.032687,0.655847,-0.034707,0.655837,-0.034891,0.655728,-0.036623,0.653728,-0.064623,0.653440,-0.067905,0.653406,-0.068232,0.652996,-0.071620,0.648996,-0.100620,0.648701,-0.102618,0.648670,-0.102814,0.648334,-0.104810,0.643334,-0.132810,
0.642693,-0.136088,0.642622,-0.136422,0.641806,-0.139952,0.634806,-0.167952,0.634397,-0.169533,0.634354,-0.169694,0.633883,-0.171396,0.625883,-0.199396,0.624733,-0.203148,0.624614,-0.203511,0.623339,-0.207163,0.613339,-0.234163,0.612525,-0.236289,0.612466,-0.236438,0.612091,-0.237370,0.601091,-0.264370,0.600313,-0.266228,0.600223,-0.266437,0.599152,-0.268839,0.587152,-0.294839,
0.585456,-0.298337,0.585279,-0.298685,0.583359,-0.302281,0.569359,-0.327281,0.568245,-0.329219,0.568169,-0.329348,0.567751,-0.330051,0.552751,-0.355051,0.551077,-0.357745,0.550895,-0.358028,0.548837,-0.361104,0.532837,-0.384104,0.531266,-0.386300,0.531099,-0.386527,0.529264,-0.388945,0.511264,-0.411945,0.509883,-0.413671,0.491815,-0.435755,0.489330,-0.438678,0.489081,-0.438960,
0.486483,-0.441793,0.466483,-0.462793,0.464746,-0.464573,0.464573,-0.464746,0.462793,-0.466483,0.441793,-0.486483,0.438960,-0.489081,0.438678,-0.489330,0.435755,-0.491815,0.413671,-0.509883,0.411945,-0.511264,0.388945,-0.529264,0.386527,-0.531099,0.386300,-0.531266,0.384104,-0.532837,0.361104,-0.548837,0.358028,-0.550895,0.357745,-0.551077,0.355051,-0.552751,0.330051,-0.567751,
0.329348,-0.568169,0.329219,-0.568245,0.327281,-0.569359,0.302281,-0.583359,0.298685,-0.585279,0.298337,-0.585456,0.294839,-0.587152,0.268839,-0.599152,0.266437,-0.600223,0.266228,-0.600313,0.264370,-0.601091,0.237370,-0.612091,0.236438,-0.612466,0.236289,-0.612525,0.234163,-0.613339,0.207163,-0.623339,0.203511,-0.624614,0.203148,-0.624733,0.199396,-0.625883,0.171396,-0.633883,
0.169694,-0.634354,0.169533,-0.634397,0.167952,-0.634806,0.139952,-0.641806,0.136422,-0.642622,0.136088,-0.642693,0.132810,-0.643334,0.104810,-0.648334,0.102814,-0.648670,0.102618,-0.648701,0.100620,-0.648996,0.071620,-0.652996,0.068232,-0.653406,0.067905,-0.653440,0.064623,-0.653728,0.036623,-0.655728,0.034891,-0.655837,0.034707,-0.655847,0.032687,-0.655936,0.003687,-0.656936,
0.000172,-0.656997,-0.000172,-0.656997,-0.003687,-0.656936,-0.032687,-0.655936,-0.034707,-0.655847,-0.034891,-0.655837,-0.036623,-0.655728,-0.064623,-0.653728,-0.067905,-0.653440,-0.068232,-0.653406,-0.071620,-0.652996,-0.100620,-0.648996,-0.102618,-0.648701,-0.102814,-0.648670,-0.104810,-0.648334,-0.132810,-0.643334,-0.136088,-0.642693,-0.136422,-0.642622,-0.139952,-0.641806,-0.167952,-0.634806,
-0.169533,-0.634397,-0.169694,-0.634354,-0.171396,-0.633883,-0.199396,-0.625883,-0.203148,-0.624733,-0.203511,-0.624614,-0.207163,-0.623339,-0.234163,-0.613339,-0.236289,-0.612525,-0.236438,-0.612466,-0.237370,-0.612091,-0.264370,-0.601091,-0.266228,-0.600313,-0.266437,-0.600223,-0.268839,-0.599152,-0.294839,-0.587152,-0.298337,-0.585456,-0.298685,-0.585279,-0.302281,-0.583359,-0.327281,-0.569359,
-0.329219,-0.568245,-0.329348,-0.568169,-0.330051,-0.567751,-0.355051,-0.552751,-0.357745,-0.551077,-0.358028,-0.550895,-0.361104,-0.548837,-0.384104,-0.532837,-0.386300,-0.531266,-0.386527,-0.531099,-0.388945,-0.529264,-0.411945,-0.511264,-0.413671,-0.509883,-0.435755,-0.491815,-0.438678,-0.489330,-0.438960,-0.489081,-0.441793,-0.486483,-0.462793,-0.466483,-0.464573,-0.464746,-0.464746,-0.464573,
-0.466483,-0.462793,-0.486483,-0.441793,-0.489081,-0.438960,-0.489330,-0.438678,-0.491815,-0.435755,-0.509883,-0.413671,-0.511264,-0.411945,-0.529264,-0.388945,-0.531099,-0.386527,-0.531266,-0.386300,-0.532837,-0.384104,-0.548837,-0.361104,-0.550895,-0.358028,-0.551077,-0.357745,-0.552751,-0.355051,-0.567751,-0.330051,-0.568169,-0.329348,-0.568245,-0.329219,-0.569359,-0.327281,-0.583359,-0.302281,
-0.585279,-0.298685,-0.585456,-0.298337,-0.587152,-0.294839,-0.599152,-0.268839,-0.600223,-0.266437,-0.600313,-0.266228,-0.601091,-0.264370,-0.612091,-0.237370,-0.612466,-0.236438,-0.612525,-0.236289,-0.613339,-0.234163,-0.623339,-0.207163,-0.624614,-0.203511,-0.624733,-0.203148,-0.625883,-0.199396,-0.633883,-0.171396,-0.634354,-0.169694,-0.634397,-0.169533,-0.634806,-0.167952,-0.641806,-0.139952,
-0.642622,-0.136422,-0.642693,-0.136088,-0.643334,-0.132810,-0.648334,-0.104810,-0.648670,-0.102814,-0.648701,-0.102618,-0.648996,-0.100620,-0.652996,-0.071620,-0.653406,-0.068232,-0.653440,-0.067905,-0.653728,-0.064623,-0.655728,-0.036623,-0.655837,-0.034891,-0.655847,-0.034707,-0.655936,-0.032687,-0.656936,-0.003687,-0.656981,-0.001951,-0.656984,-0.001779,-0.657000,0.000000,-0.657000,1.506000,
-0.655678,1.522366,-0.655421,1.523947,-0.654726,1.526768,-0.654678,1.527366,-0.654421,1.528947,-0.650509,1.544836,-0.647509,1.553836,-0.644994,1.560577,-0.644723,1.561232,-0.644675,1.561335,-0.644509,1.561836,-0.642038,1.567119,-0.641704,1.567852,-0.641572,1.568115,-0.634534,1.583165,-0.633327,1.585120,-0.629819,1.589553,-0.629534,1.590165,-0.628327,1.592120,-0.613661,1.610661,
-0.605661,1.618661,-0.587120,1.633327,-0.585165,1.634534,-0.584553,1.634819,-0.580120,1.638327,-0.578165,1.639534,-0.563115,1.646572,-0.562852,1.646704,-0.562119,1.647038,-0.556836,1.649509,-0.556335,1.649675,-0.556232,1.649723,-0.555577,1.649994,-0.548836,1.652509,-0.539836,1.655509,-0.523947,1.659421,-0.522366,1.659678,-0.521768,1.659726,-0.518947,1.660421,-0.517366,1.660678,
-0.501000,1.662000,0.501000,1.662000,0.517366,1.660678,0.517366,1.660678,$1*%
G04 Aperture macros list end*
%ADD10C,0.000000*%
%ADD11R,1.700000X1.700000*%
%ADD12C,1.700000*%
%ADD13C,4.700000*%
%ADD14C,1.400000*%
%ADD15O,2.200000X3.500000*%
%ADD16R,1.500000X2.500000*%
%ADD17O,1.500000X2.500000*%
%ADD18RoundRect,0.250000X-0.750000X0.600000X-0.750000X-0.600000X0.750000X-0.600000X0.750000X0.600000X0*%
%ADD19O,2.000000X1.700000*%
%ADD20FreePoly0,180.000000*%
%ADD21FreePoly1,180.000000*%
G04 APERTURE END LIST*
D10*
%TO.C,G\u002A\u002A\u002A*%
G36*
X44046253Y-32289315D02*
G01*
X44312248Y-32368110D01*
X44594769Y-32448773D01*
X44759556Y-32437894D01*
X44796891Y-32409355D01*
X44942465Y-32352338D01*
X45133101Y-32395824D01*
X45303961Y-32511490D01*
X45389847Y-32668375D01*
X45371125Y-32849108D01*
X45315612Y-32980519D01*
X45292059Y-33036273D01*
X45185956Y-33169491D01*
X45099236Y-33195153D01*
X45022914Y-33245228D01*
X44947871Y-33390313D01*
X44787714Y-33663026D01*
X44554904Y-33785856D01*
X44239834Y-33762909D01*
X44143943Y-33733806D01*
X43820288Y-33583821D01*
X43528480Y-33379904D01*
X43311418Y-33157961D01*
X43212004Y-32953896D01*
X43211996Y-32953844D01*
X43218349Y-32795625D01*
X43560233Y-32795625D01*
X43608439Y-32985976D01*
X43786074Y-33182471D01*
X44058237Y-33350391D01*
X44160531Y-33392766D01*
X44380470Y-33450834D01*
X44530177Y-33410658D01*
X44633035Y-33318295D01*
X44818503Y-33147130D01*
X44969112Y-33038522D01*
X45108387Y-32905095D01*
X45130487Y-32771210D01*
X45040257Y-32688408D01*
X44935816Y-32684455D01*
X44774739Y-32733828D01*
X44718172Y-32783661D01*
X44636478Y-32795587D01*
X44470378Y-32730877D01*
X44441627Y-32715361D01*
X44197850Y-32629166D01*
X43936243Y-32609866D01*
X43710832Y-32652541D01*
X43575645Y-32752271D01*
X43560233Y-32795625D01*
X43218349Y-32795625D01*
X43221975Y-32705334D01*
X43352592Y-32519559D01*
X43599628Y-32372108D01*
X43831918Y-32288662D01*
X44046253Y-32289315D01*
G37*
G36*
X40982653Y-30800283D02*
G01*
X41106846Y-30841037D01*
X41338629Y-30933450D01*
X41442278Y-31010054D01*
X41451410Y-31105172D01*
X41430588Y-31171627D01*
X41407155Y-31315955D01*
X41506861Y-31380564D01*
X41573762Y-31393675D01*
X41883598Y-31496186D01*
X42175005Y-31678329D01*
X42381635Y-31895952D01*
X42412935Y-31952143D01*
X42455024Y-32228155D01*
X42397762Y-32422004D01*
X42364384Y-32534997D01*
X42170248Y-32806074D01*
X41926525Y-32949326D01*
X41593994Y-33013591D01*
X41235463Y-32995293D01*
X40913740Y-32890855D01*
X40891800Y-32878858D01*
X40647683Y-32667115D01*
X40480342Y-32381587D01*
X40416453Y-32080715D01*
X40444817Y-31899622D01*
X40466243Y-31741504D01*
X40424309Y-31673819D01*
X40313422Y-31554041D01*
X40263859Y-31339663D01*
X40273959Y-31245899D01*
X40575945Y-31245899D01*
X40582660Y-31307260D01*
X40620165Y-31491196D01*
X40653275Y-31576955D01*
X40691196Y-31694987D01*
X40728514Y-31904215D01*
X40732564Y-31935154D01*
X40815382Y-32310427D01*
X40959171Y-32546370D01*
X41127196Y-32650452D01*
X41384460Y-32686372D01*
X41678212Y-32646398D01*
X41948659Y-32548149D01*
X42136008Y-32409245D01*
X42176151Y-32341344D01*
X42153213Y-32183708D01*
X42018285Y-31991165D01*
X41809359Y-31807419D01*
X41615737Y-31696677D01*
X41402855Y-31602838D01*
X41254755Y-31536194D01*
X41242850Y-31530643D01*
X41178721Y-31423597D01*
X41172005Y-31315255D01*
X41120412Y-31145341D01*
X40938563Y-31066311D01*
X40739193Y-31071408D01*
X40603040Y-31119223D01*
X40575945Y-31245899D01*
X40273959Y-31245899D01*
X40289813Y-31098727D01*
X40298634Y-31071385D01*
X40439087Y-30846954D01*
X40663016Y-30757749D01*
X40982653Y-30800283D01*
G37*
%TD*%
D11*
%TO.C,J1*%
X31250000Y-26470000D03*
D12*
X31250000Y-29010000D03*
X31250000Y-31550000D03*
X31250000Y-34090000D03*
X31250000Y-36630000D03*
X31250000Y-39170000D03*
X31250000Y-41710000D03*
X31250000Y-44250000D03*
%TD*%
D13*
%TO.C,H2*%
X27750000Y-47250000D03*
%TD*%
D11*
%TO.C,J6*%
X58615000Y-41250000D03*
D12*
X58615000Y-43790000D03*
X58615000Y-46330000D03*
%TD*%
D11*
%TO.C,J4*%
X55000000Y-32250000D03*
D12*
X55000000Y-34790000D03*
%TD*%
D13*
%TO.C,H1*%
X57250000Y-27750000D03*
%TD*%
D11*
%TO.C,J2*%
X55540000Y-48000000D03*
D12*
X53000000Y-48000000D03*
X50460000Y-48000000D03*
X47920000Y-48000000D03*
%TD*%
D11*
%TO.C,J8*%
X27000000Y-42750000D03*
D12*
X27000000Y-40210000D03*
X27000000Y-37670000D03*
%TD*%
D14*
%TO.C,JP1*%
X44000000Y-43500000D03*
X41460000Y-43500000D03*
%TD*%
D11*
%TO.C,J5*%
X58615000Y-32210000D03*
D12*
X58615000Y-34750000D03*
X58615000Y-37290000D03*
%TD*%
D15*
%TO.C,SW2*%
X34900000Y-47750000D03*
X43100000Y-47750000D03*
D16*
X37000000Y-47750000D03*
D17*
X39000000Y-47750000D03*
X41000000Y-47750000D03*
%TD*%
D11*
%TO.C,J7*%
X27000000Y-33790000D03*
D12*
X27000000Y-31250000D03*
X27000000Y-28710000D03*
%TD*%
D18*
%TO.C,J3*%
X54750000Y-41000000D03*
D19*
X54750000Y-43500000D03*
%TD*%
D20*
%TO.C,U1*%
X43727000Y-41135000D03*
D21*
X41727000Y-41135000D03*
%TD*%
M02*
